%TF.GenerationSoftware,KiCad,Pcbnew,9.0.6*%
%TF.CreationDate,2025-12-23T23:16:53+05:30*%
%TF.ProjectId,usb_ps_1,7573625f-7073-45f3-912e-6b696361645f,rev?*%
%TF.SameCoordinates,Original*%
%TF.FileFunction,Copper,L1,Top*%
%TF.FilePolarity,Positive*%
%FSLAX46Y46*%
G04 Gerber Fmt 4.6, Leading zero omitted, Abs format (unit mm)*
G04 Created by KiCad (PCBNEW 9.0.6) date 2025-12-23 23:16:53*
%MOMM*%
%LPD*%
G01*
G04 APERTURE LIST*
G04 Aperture macros list*
%AMRoundRect*
0 Rectangle with rounded corners*
0 $1 Rounding radius*
0 $2 $3 $4 $5 $6 $7 $8 $9 X,Y pos of 4 corners*
0 Add a 4 corners polygon primitive as box body*
4,1,4,$2,$3,$4,$5,$6,$7,$8,$9,$2,$3,0*
0 Add four circle primitives for the rounded corners*
1,1,$1+$1,$2,$3*
1,1,$1+$1,$4,$5*
1,1,$1+$1,$6,$7*
1,1,$1+$1,$8,$9*
0 Add four rect primitives between the rounded corners*
20,1,$1+$1,$2,$3,$4,$5,0*
20,1,$1+$1,$4,$5,$6,$7,0*
20,1,$1+$1,$6,$7,$8,$9,0*
20,1,$1+$1,$8,$9,$2,$3,0*%
G04 Aperture macros list end*
%TA.AperFunction,SMDPad,CuDef*%
%ADD10RoundRect,0.250000X0.350000X0.450000X-0.350000X0.450000X-0.350000X-0.450000X0.350000X-0.450000X0*%
%TD*%
%TA.AperFunction,SMDPad,CuDef*%
%ADD11RoundRect,0.250000X-0.337500X-0.475000X0.337500X-0.475000X0.337500X0.475000X-0.337500X0.475000X0*%
%TD*%
%TA.AperFunction,SMDPad,CuDef*%
%ADD12RoundRect,0.250000X1.000000X0.900000X-1.000000X0.900000X-1.000000X-0.900000X1.000000X-0.900000X0*%
%TD*%
%TA.AperFunction,SMDPad,CuDef*%
%ADD13RoundRect,0.250000X-0.450000X0.350000X-0.450000X-0.350000X0.450000X-0.350000X0.450000X0.350000X0*%
%TD*%
%TA.AperFunction,SMDPad,CuDef*%
%ADD14RoundRect,0.250000X-0.650000X1.000000X-0.650000X-1.000000X0.650000X-1.000000X0.650000X1.000000X0*%
%TD*%
%TA.AperFunction,SMDPad,CuDef*%
%ADD15R,1.550000X1.300000*%
%TD*%
%TA.AperFunction,SMDPad,CuDef*%
%ADD16RoundRect,0.250000X-0.350000X-0.450000X0.350000X-0.450000X0.350000X0.450000X-0.350000X0.450000X0*%
%TD*%
%TA.AperFunction,SMDPad,CuDef*%
%ADD17RoundRect,0.250000X0.325000X0.650000X-0.325000X0.650000X-0.325000X-0.650000X0.325000X-0.650000X0*%
%TD*%
%TA.AperFunction,SMDPad,CuDef*%
%ADD18RoundRect,0.250000X0.337500X0.475000X-0.337500X0.475000X-0.337500X-0.475000X0.337500X-0.475000X0*%
%TD*%
%TA.AperFunction,SMDPad,CuDef*%
%ADD19RoundRect,0.075000X0.662500X0.075000X-0.662500X0.075000X-0.662500X-0.075000X0.662500X-0.075000X0*%
%TD*%
%TA.AperFunction,SMDPad,CuDef*%
%ADD20RoundRect,0.075000X0.075000X0.662500X-0.075000X0.662500X-0.075000X-0.662500X0.075000X-0.662500X0*%
%TD*%
%TA.AperFunction,SMDPad,CuDef*%
%ADD21R,3.600000X2.700000*%
%TD*%
%TA.AperFunction,ComponentPad*%
%ADD22RoundRect,0.250000X0.550000X0.550000X-0.550000X0.550000X-0.550000X-0.550000X0.550000X-0.550000X0*%
%TD*%
%TA.AperFunction,ComponentPad*%
%ADD23C,1.600000*%
%TD*%
%TA.AperFunction,SMDPad,CuDef*%
%ADD24R,0.558800X1.460500*%
%TD*%
%TA.AperFunction,SMDPad,CuDef*%
%ADD25R,3.454400X2.565400*%
%TD*%
%TA.AperFunction,SMDPad,CuDef*%
%ADD26RoundRect,0.250000X-0.475000X0.337500X-0.475000X-0.337500X0.475000X-0.337500X0.475000X0.337500X0*%
%TD*%
%TA.AperFunction,SMDPad,CuDef*%
%ADD27R,1.240000X0.600000*%
%TD*%
%TA.AperFunction,SMDPad,CuDef*%
%ADD28R,1.240000X0.300000*%
%TD*%
%TA.AperFunction,HeatsinkPad*%
%ADD29O,2.100000X1.000000*%
%TD*%
%TA.AperFunction,HeatsinkPad*%
%ADD30O,1.800000X1.000000*%
%TD*%
%TA.AperFunction,SMDPad,CuDef*%
%ADD31RoundRect,0.250000X0.450000X-0.350000X0.450000X0.350000X-0.450000X0.350000X-0.450000X-0.350000X0*%
%TD*%
%TA.AperFunction,SMDPad,CuDef*%
%ADD32RoundRect,0.250000X0.750000X-2.000000X0.750000X2.000000X-0.750000X2.000000X-0.750000X-2.000000X0*%
%TD*%
%TA.AperFunction,ComponentPad*%
%ADD33R,1.700000X1.700000*%
%TD*%
%TA.AperFunction,ComponentPad*%
%ADD34C,1.700000*%
%TD*%
%TA.AperFunction,ComponentPad*%
%ADD35RoundRect,0.250001X1.099999X1.099999X-1.099999X1.099999X-1.099999X-1.099999X1.099999X-1.099999X0*%
%TD*%
%TA.AperFunction,ComponentPad*%
%ADD36C,2.700000*%
%TD*%
%TA.AperFunction,SMDPad,CuDef*%
%ADD37RoundRect,0.250000X0.850000X0.350000X-0.850000X0.350000X-0.850000X-0.350000X0.850000X-0.350000X0*%
%TD*%
%TA.AperFunction,SMDPad,CuDef*%
%ADD38RoundRect,0.249997X2.950003X2.650003X-2.950003X2.650003X-2.950003X-2.650003X2.950003X-2.650003X0*%
%TD*%
%TA.AperFunction,SMDPad,CuDef*%
%ADD39RoundRect,0.150000X0.150000X-0.687500X0.150000X0.687500X-0.150000X0.687500X-0.150000X-0.687500X0*%
%TD*%
%TA.AperFunction,HeatsinkPad*%
%ADD40R,3.300000X2.100000*%
%TD*%
%TA.AperFunction,SMDPad,CuDef*%
%ADD41RoundRect,0.250000X-1.000000X-0.650000X1.000000X-0.650000X1.000000X0.650000X-1.000000X0.650000X0*%
%TD*%
%TA.AperFunction,SMDPad,CuDef*%
%ADD42RoundRect,0.250000X0.475000X-0.337500X0.475000X0.337500X-0.475000X0.337500X-0.475000X-0.337500X0*%
%TD*%
%TA.AperFunction,ComponentPad*%
%ADD43RoundRect,0.250001X-1.099999X1.099999X-1.099999X-1.099999X1.099999X-1.099999X1.099999X1.099999X0*%
%TD*%
%TA.AperFunction,SMDPad,CuDef*%
%ADD44RoundRect,0.250000X-0.362500X-1.425000X0.362500X-1.425000X0.362500X1.425000X-0.362500X1.425000X0*%
%TD*%
%TA.AperFunction,ComponentPad*%
%ADD45RoundRect,0.250001X-1.099999X-1.099999X1.099999X-1.099999X1.099999X1.099999X-1.099999X1.099999X0*%
%TD*%
%TA.AperFunction,SMDPad,CuDef*%
%ADD46RoundRect,0.250000X-0.325000X-0.650000X0.325000X-0.650000X0.325000X0.650000X-0.325000X0.650000X0*%
%TD*%
%TA.AperFunction,SMDPad,CuDef*%
%ADD47RoundRect,0.075000X-0.650000X-0.075000X0.650000X-0.075000X0.650000X0.075000X-0.650000X0.075000X0*%
%TD*%
%TA.AperFunction,ViaPad*%
%ADD48C,0.600000*%
%TD*%
%TA.AperFunction,ViaPad*%
%ADD49C,0.900000*%
%TD*%
%TA.AperFunction,Conductor*%
%ADD50C,0.250000*%
%TD*%
%TA.AperFunction,Conductor*%
%ADD51C,0.500000*%
%TD*%
%TA.AperFunction,Conductor*%
%ADD52C,1.000000*%
%TD*%
%TA.AperFunction,Conductor*%
%ADD53C,2.500000*%
%TD*%
%TA.AperFunction,Conductor*%
%ADD54C,0.127000*%
%TD*%
G04 APERTURE END LIST*
D10*
%TO.P,R2,1*%
%TO.N,/VBus*%
X173325000Y-70000000D03*
%TO.P,R2,2*%
%TO.N,Net-(U1-VBUS)*%
X171325000Y-70000000D03*
%TD*%
D11*
%TO.P,C10,1*%
%TO.N,/3.3V*%
X186175000Y-82250000D03*
%TO.P,C10,2*%
%TO.N,GND*%
X188250000Y-82250000D03*
%TD*%
D12*
%TO.P,D3,1,K*%
%TO.N,/MosO{slash}P*%
X181500000Y-92000000D03*
%TO.P,D3,2,A*%
%TO.N,Net-(D3-A)*%
X177200000Y-92000000D03*
%TD*%
D13*
%TO.P,R7,1*%
%TO.N,/VBus*%
X172000000Y-101837500D03*
%TO.P,R7,2*%
%TO.N,Net-(D2-A)*%
X172000000Y-103837500D03*
%TD*%
D14*
%TO.P,D1,1,K*%
%TO.N,/VBus*%
X178097500Y-53040000D03*
%TO.P,D1,2,A*%
%TO.N,Net-(D1-A)*%
X178097500Y-57040000D03*
%TD*%
D15*
%TO.P,SW2,1,1*%
%TO.N,/mode*%
X228500000Y-70050000D03*
X220550000Y-70050000D03*
%TO.P,SW2,2,2*%
%TO.N,GND*%
X228500000Y-65550000D03*
X220550000Y-65550000D03*
%TD*%
D16*
%TO.P,R8,1*%
%TO.N,Net-(D2-A)*%
X181392500Y-103275000D03*
%TO.P,R8,2*%
%TO.N,Net-(R8-Pad2)*%
X183392500Y-103275000D03*
%TD*%
%TO.P,R11,1*%
%TO.N,Net-(U4-FREQ)*%
X213587500Y-50500000D03*
%TO.P,R11,2*%
%TO.N,GND*%
X215587500Y-50500000D03*
%TD*%
D17*
%TO.P,TP2,1,1*%
%TO.N,/3.3V*%
X188500000Y-85000000D03*
%TO.P,TP2,2,2*%
%TO.N,Net-(U5-BOOT0)*%
X185550000Y-85000000D03*
%TD*%
D11*
%TO.P,C4,1*%
%TO.N,/3.3V*%
X206937500Y-82350000D03*
%TO.P,C4,2*%
%TO.N,GND*%
X209012500Y-82350000D03*
%TD*%
D18*
%TO.P,C8,1*%
%TO.N,Net-(U5-PF1)*%
X195630000Y-66500000D03*
%TO.P,C8,2*%
%TO.N,GND*%
X193555000Y-66500000D03*
%TD*%
D16*
%TO.P,R6,1*%
%TO.N,Net-(R6-Pad1)*%
X199185000Y-56040000D03*
%TO.P,R6,2*%
%TO.N,/buckM*%
X201185000Y-56040000D03*
%TD*%
D19*
%TO.P,U5,1,VDD*%
%TO.N,/3.3V*%
X186825000Y-78500000D03*
%TO.P,U5,2,PC13*%
%TO.N,unconnected-(U5-PC13-Pad2)*%
X186825000Y-78000000D03*
%TO.P,U5,3,PC14*%
%TO.N,unconnected-(U5-PC14-Pad3)*%
X186825000Y-77500000D03*
%TO.P,U5,4,PC15*%
%TO.N,unconnected-(U5-PC15-Pad4)*%
X186825000Y-77000000D03*
%TO.P,U5,5,PF0*%
%TO.N,Net-(U5-PF0)*%
X186825000Y-76500000D03*
%TO.P,U5,6,PF1*%
%TO.N,Net-(U5-PF1)*%
X186825000Y-76000000D03*
%TO.P,U5,7,NRST*%
%TO.N,Net-(U5-NRST)*%
X186825000Y-75500000D03*
%TO.P,U5,8,VSSA*%
%TO.N,GND*%
X186825000Y-75000000D03*
%TO.P,U5,9,VDDA*%
%TO.N,/3.3V*%
X186825000Y-74500000D03*
%TO.P,U5,10,PA0*%
%TO.N,/o{slash}f*%
X186825000Y-74000000D03*
%TO.P,U5,11,PA1*%
%TO.N,/mode*%
X186825000Y-73500000D03*
%TO.P,U5,12,PA2*%
%TO.N,/level*%
X186825000Y-73000000D03*
D20*
%TO.P,U5,13,PA3*%
%TO.N,unconnected-(U5-PA3-Pad13)*%
X185412500Y-71587500D03*
%TO.P,U5,14,PA4*%
%TO.N,unconnected-(U5-PA4-Pad14)*%
X184912500Y-71587500D03*
%TO.P,U5,15,PA5*%
%TO.N,unconnected-(U5-PA5-Pad15)*%
X184412500Y-71587500D03*
%TO.P,U5,16,PA6*%
%TO.N,unconnected-(U5-PA6-Pad16)*%
X183912500Y-71587500D03*
%TO.P,U5,17,PA7*%
%TO.N,unconnected-(U5-PA7-Pad17)*%
X183412500Y-71587500D03*
%TO.P,U5,18,PB0*%
%TO.N,unconnected-(U5-PB0-Pad18)*%
X182912500Y-71587500D03*
%TO.P,U5,19,PB1*%
%TO.N,unconnected-(U5-PB1-Pad19)*%
X182412500Y-71587500D03*
%TO.P,U5,20,PB2*%
%TO.N,unconnected-(U5-PB2-Pad20)*%
X181912500Y-71587500D03*
%TO.P,U5,21,PB10*%
%TO.N,/scl_S*%
X181412500Y-71587500D03*
%TO.P,U5,22,PB11*%
%TO.N,/sda_S*%
X180912500Y-71587500D03*
%TO.P,U5,23,VSS*%
%TO.N,GND*%
X180412500Y-71587500D03*
%TO.P,U5,24,VDD*%
%TO.N,/3.3V*%
X179912500Y-71587500D03*
D19*
%TO.P,U5,25,PB12*%
%TO.N,unconnected-(U5-PB12-Pad25)*%
X178500000Y-73000000D03*
%TO.P,U5,26,PB13*%
%TO.N,unconnected-(U5-PB13-Pad26)*%
X178500000Y-73500000D03*
%TO.P,U5,27,PB14*%
%TO.N,unconnected-(U5-PB14-Pad27)*%
X178500000Y-74000000D03*
%TO.P,U5,28,PB15*%
%TO.N,unconnected-(U5-PB15-Pad28)*%
X178500000Y-74500000D03*
%TO.P,U5,29,PA8*%
%TO.N,/cfg1*%
X178500000Y-75000000D03*
%TO.P,U5,30,PA9*%
%TO.N,/cfg2*%
X178500000Y-75500000D03*
%TO.P,U5,31,PA10*%
%TO.N,/cfg3*%
X178500000Y-76000000D03*
%TO.P,U5,32,PA11*%
%TO.N,/buckM*%
X178500000Y-76500000D03*
%TO.P,U5,33,PA12*%
%TO.N,/pureM*%
X178500000Y-77000000D03*
%TO.P,U5,34,PA13*%
%TO.N,/swdio*%
X178500000Y-77500000D03*
%TO.P,U5,35,PF6*%
%TO.N,unconnected-(U5-PF6-Pad35)*%
X178500000Y-78000000D03*
%TO.P,U5,36,PF7*%
%TO.N,unconnected-(U5-PF7-Pad36)*%
X178500000Y-78500000D03*
D20*
%TO.P,U5,37,PA14*%
%TO.N,/swclk*%
X179912500Y-79912500D03*
%TO.P,U5,38,PA15*%
%TO.N,unconnected-(U5-PA15-Pad38)*%
X180412500Y-79912500D03*
%TO.P,U5,39,PB3*%
%TO.N,unconnected-(U5-PB3-Pad39)*%
X180912500Y-79912500D03*
%TO.P,U5,40,PB4*%
%TO.N,unconnected-(U5-PB4-Pad40)*%
X181412500Y-79912500D03*
%TO.P,U5,41,PB5*%
%TO.N,unconnected-(U5-PB5-Pad41)*%
X181912500Y-79912500D03*
%TO.P,U5,42,PB6*%
%TO.N,/scl_D*%
X182412500Y-79912500D03*
%TO.P,U5,43,PB7*%
%TO.N,/sda_D*%
X182912500Y-79912500D03*
%TO.P,U5,44,BOOT0*%
%TO.N,Net-(U5-BOOT0)*%
X183412500Y-79912500D03*
%TO.P,U5,45,PB8*%
%TO.N,unconnected-(U5-PB8-Pad45)*%
X183912500Y-79912500D03*
%TO.P,U5,46,PB9*%
%TO.N,unconnected-(U5-PB9-Pad46)*%
X184412500Y-79912500D03*
%TO.P,U5,47,VSS*%
%TO.N,GND*%
X184912500Y-79912500D03*
%TO.P,U5,48,VDD*%
%TO.N,/3.3V*%
X185412500Y-79912500D03*
%TD*%
D11*
%TO.P,C9,1*%
%TO.N,/3.3V*%
X169395000Y-93500000D03*
%TO.P,C9,2*%
%TO.N,GND*%
X171470000Y-93500000D03*
%TD*%
D21*
%TO.P,L1,1,1*%
%TO.N,/3.3V*%
X206500000Y-77650000D03*
%TO.P,L1,2,2*%
%TO.N,Net-(D4-K)*%
X206500000Y-69350000D03*
%TD*%
D22*
%TO.P,U3,1*%
%TO.N,Net-(R4-Pad1)*%
X193805000Y-103275000D03*
D23*
%TO.P,U3,2*%
%TO.N,GND*%
X193805000Y-100735000D03*
%TO.P,U3,3*%
X186185000Y-100735000D03*
%TO.P,U3,4*%
%TO.N,Net-(R8-Pad2)*%
X186185000Y-103275000D03*
%TD*%
D24*
%TO.P,U4,1,SW*%
%TO.N,Net-(D4-K)*%
X208960000Y-58500000D03*
%TO.P,U4,2,EN*%
%TO.N,Net-(U4-EN)*%
X210230000Y-58500000D03*
%TO.P,U4,3,COMP*%
%TO.N,Net-(U4-COMP)*%
X211500000Y-58500000D03*
%TO.P,U4,4,FB*%
%TO.N,Net-(U4-FB)*%
X212770000Y-58500000D03*
%TO.P,U4,5,GND*%
%TO.N,GND*%
X212770000Y-53051700D03*
%TO.P,U4,6,FREQ*%
%TO.N,Net-(U4-FREQ)*%
X211500000Y-53051700D03*
%TO.P,U4,7,VIN*%
%TO.N,/VBus*%
X210230000Y-53051700D03*
%TO.P,U4,8,BST*%
%TO.N,Net-(U4-BST)*%
X208960000Y-53051700D03*
D25*
%TO.P,U4,EPAD,EPAD*%
%TO.N,GND*%
X210865000Y-55775850D03*
%TD*%
D26*
%TO.P,C11,1*%
%TO.N,/3.3V*%
X190750000Y-79712500D03*
%TO.P,C11,2*%
%TO.N,GND*%
X190750000Y-81787500D03*
%TD*%
D13*
%TO.P,R15,1*%
%TO.N,/3.3V*%
X161000000Y-87500000D03*
%TO.P,R15,2*%
%TO.N,/sda_S*%
X161000000Y-89500000D03*
%TD*%
D27*
%TO.P,J1,A1,GND*%
%TO.N,GND*%
X161800000Y-72480000D03*
%TO.P,J1,A4,VBUS*%
%TO.N,/VBus*%
X161800000Y-73280000D03*
D28*
%TO.P,J1,A5,CC1*%
%TO.N,Net-(J1-CC1)*%
X161800000Y-74430000D03*
%TO.P,J1,A6,D+*%
%TO.N,Net-(U1-DP)*%
X161800000Y-75430000D03*
%TO.P,J1,A7,D-*%
%TO.N,Net-(U1-DM)*%
X161800000Y-75930000D03*
%TO.P,J1,A8,SBU1*%
%TO.N,unconnected-(J1-SBU1-PadA8)*%
X161800000Y-76930000D03*
D27*
%TO.P,J1,A9,VBUS*%
%TO.N,/VBus*%
X161800000Y-78080000D03*
%TO.P,J1,A12,GND*%
%TO.N,GND*%
X161800000Y-78880000D03*
%TO.P,J1,B1,GND*%
X161800000Y-78880000D03*
%TO.P,J1,B4,VBUS*%
%TO.N,/VBus*%
X161800000Y-78080000D03*
D28*
%TO.P,J1,B5,CC2*%
%TO.N,Net-(J1-CC2)*%
X161800000Y-77430000D03*
%TO.P,J1,B6,D+*%
%TO.N,Net-(U1-DP)*%
X161800000Y-76430000D03*
%TO.P,J1,B7,D-*%
%TO.N,Net-(U1-DM)*%
X161800000Y-74930000D03*
%TO.P,J1,B8,SBU2*%
%TO.N,unconnected-(J1-SBU2-PadB8)*%
X161800000Y-73930000D03*
D27*
%TO.P,J1,B9,VBUS*%
%TO.N,/VBus*%
X161800000Y-73280000D03*
%TO.P,J1,B12,GND*%
%TO.N,GND*%
X161800000Y-72480000D03*
D29*
%TO.P,J1,S1,SHIELD*%
X161200000Y-71360000D03*
D30*
X157000000Y-71360000D03*
D29*
X161200000Y-80000000D03*
D30*
X157000000Y-80000000D03*
%TD*%
D18*
%TO.P,C7,1*%
%TO.N,Net-(U5-PF0)*%
X195630000Y-82998750D03*
%TO.P,C7,2*%
%TO.N,GND*%
X193555000Y-82998750D03*
%TD*%
D10*
%TO.P,R22,1*%
%TO.N,GND*%
X217015000Y-62850000D03*
%TO.P,R22,2*%
%TO.N,Net-(C6-Pad2)*%
X215015000Y-62850000D03*
%TD*%
D31*
%TO.P,R21,1*%
%TO.N,GND*%
X183000000Y-85912500D03*
%TO.P,R21,2*%
%TO.N,Net-(U5-BOOT0)*%
X183000000Y-83912500D03*
%TD*%
%TO.P,R13,1*%
%TO.N,/3.3V*%
X215000000Y-73675000D03*
%TO.P,R13,2*%
%TO.N,Net-(U4-FB)*%
X215000000Y-71675000D03*
%TD*%
D32*
%TO.P,Y1,1,1*%
%TO.N,Net-(U5-PF0)*%
X194910000Y-78911250D03*
%TO.P,Y1,2,2*%
%TO.N,Net-(U5-PF1)*%
X194910000Y-70411250D03*
%TD*%
D33*
%TO.P,J2,1,Pin_1*%
%TO.N,GND*%
X175750000Y-86250000D03*
D34*
%TO.P,J2,2,Pin_2*%
%TO.N,/swclk*%
X173210000Y-86250000D03*
%TO.P,J2,3,Pin_3*%
%TO.N,/swdio*%
X170670000Y-86250000D03*
%TO.P,J2,4,Pin_4*%
%TO.N,/3.3V*%
X168130000Y-86250000D03*
%TD*%
D35*
%TO.P,J6,1,Pin_1*%
%TO.N,Net-(D5-A)*%
X166000000Y-62000000D03*
D36*
%TO.P,J6,2,Pin_2*%
%TO.N,GND*%
X161000000Y-62000000D03*
%TD*%
D31*
%TO.P,R16,1*%
%TO.N,/3.3V*%
X161037500Y-94825000D03*
%TO.P,R16,2*%
%TO.N,/scl_S*%
X161037500Y-92825000D03*
%TD*%
D16*
%TO.P,R4,1*%
%TO.N,Net-(R4-Pad1)*%
X196860000Y-103275000D03*
%TO.P,R4,2*%
%TO.N,/pureM*%
X198860000Y-103275000D03*
%TD*%
D31*
%TO.P,R14,1*%
%TO.N,/pureM*%
X202805000Y-102450000D03*
%TO.P,R14,2*%
%TO.N,GND*%
X202805000Y-100450000D03*
%TD*%
D11*
%TO.P,C2,1*%
%TO.N,/VBus*%
X212052500Y-47365000D03*
%TO.P,C2,2*%
%TO.N,GND*%
X214127500Y-47365000D03*
%TD*%
D37*
%TO.P,Q2,1,G*%
%TO.N,Net-(D2-A)*%
X166780000Y-104030000D03*
%TO.P,Q2,2,D*%
%TO.N,Net-(D3-A)*%
X166780000Y-101750000D03*
D38*
X160480000Y-101750000D03*
D37*
%TO.P,Q2,3,S*%
%TO.N,/VBus*%
X166780000Y-99470000D03*
%TD*%
D15*
%TO.P,SW1,1,1*%
%TO.N,/o{slash}f*%
X228500000Y-78500000D03*
X220550000Y-78500000D03*
%TO.P,SW1,2,2*%
%TO.N,GND*%
X228500000Y-74000000D03*
X220550000Y-74000000D03*
%TD*%
D39*
%TO.P,U1,1,VDD*%
%TO.N,Net-(U1-VDD)*%
X169500000Y-78775000D03*
%TO.P,U1,2,CFG2*%
%TO.N,/cfg2*%
X170500000Y-78775000D03*
%TO.P,U1,3,CFG3*%
%TO.N,/cfg3*%
X171500000Y-78775000D03*
%TO.P,U1,4,DP*%
%TO.N,Net-(U1-DP)*%
X172500000Y-78775000D03*
%TO.P,U1,5,DM*%
%TO.N,Net-(U1-DM)*%
X173500000Y-78775000D03*
%TO.P,U1,6,CC2*%
%TO.N,Net-(J1-CC2)*%
X173500000Y-73500000D03*
%TO.P,U1,7,CC1*%
%TO.N,Net-(J1-CC1)*%
X172500000Y-73500000D03*
%TO.P,U1,8,VBUS*%
%TO.N,Net-(U1-VBUS)*%
X171500000Y-73500000D03*
%TO.P,U1,9,CFG1*%
%TO.N,/cfg1*%
X170500000Y-73500000D03*
%TO.P,U1,10,PG*%
%TO.N,unconnected-(U1-PG-Pad10)*%
X169500000Y-73500000D03*
D40*
%TO.P,U1,11,GND*%
%TO.N,GND*%
X171500000Y-76137500D03*
%TD*%
D41*
%TO.P,D4,1,K*%
%TO.N,Net-(D4-K)*%
X206000000Y-64850000D03*
%TO.P,D4,2,A*%
%TO.N,GND*%
X210000000Y-64850000D03*
%TD*%
D42*
%TO.P,C12,1*%
%TO.N,/3.3V*%
X179500000Y-68750000D03*
%TO.P,C12,2*%
%TO.N,GND*%
X179500000Y-66675000D03*
%TD*%
D31*
%TO.P,R9,1*%
%TO.N,/buckM*%
X203500000Y-55000000D03*
%TO.P,R9,2*%
%TO.N,GND*%
X203500000Y-53000000D03*
%TD*%
D10*
%TO.P,R17,1*%
%TO.N,/3.3V*%
X233500000Y-76250000D03*
%TO.P,R17,2*%
%TO.N,/o{slash}f*%
X231500000Y-76250000D03*
%TD*%
D43*
%TO.P,J4,1,Pin_1*%
%TO.N,Net-(J4-Pin_1)*%
X208500000Y-91000000D03*
D36*
%TO.P,J4,2,Pin_2*%
%TO.N,GND*%
X208500000Y-96000000D03*
%TD*%
D16*
%TO.P,R1,1*%
%TO.N,/VBus*%
X165175000Y-80000000D03*
%TO.P,R1,2*%
%TO.N,Net-(U1-VDD)*%
X167175000Y-80000000D03*
%TD*%
D10*
%TO.P,R18,1*%
%TO.N,/3.3V*%
X233500000Y-68000000D03*
%TO.P,R18,2*%
%TO.N,/mode*%
X231500000Y-68000000D03*
%TD*%
D14*
%TO.P,D2,1,K*%
%TO.N,/VBus*%
X176305000Y-99275000D03*
%TO.P,D2,2,A*%
%TO.N,Net-(D2-A)*%
X176305000Y-103275000D03*
%TD*%
D11*
%TO.P,C5,1*%
%TO.N,Net-(U4-COMP)*%
X215925000Y-57750000D03*
%TO.P,C5,2*%
%TO.N,GND*%
X218000000Y-57750000D03*
%TD*%
D37*
%TO.P,Q1,1,G*%
%TO.N,Net-(D1-A)*%
X167595000Y-53295000D03*
%TO.P,Q1,2,D*%
%TO.N,Net-(J5-Pin_1)*%
X167595000Y-51015000D03*
D38*
X161295000Y-51015000D03*
D37*
%TO.P,Q1,3,S*%
%TO.N,/VBus*%
X167595000Y-48735000D03*
%TD*%
D16*
%TO.P,R12,1*%
%TO.N,Net-(U4-FB)*%
X214675000Y-69500000D03*
%TO.P,R12,2*%
%TO.N,GND*%
X216675000Y-69500000D03*
%TD*%
D22*
%TO.P,U2,1*%
%TO.N,Net-(R6-Pad1)*%
X195500000Y-57500000D03*
D23*
%TO.P,U2,2*%
%TO.N,GND*%
X195500000Y-54960000D03*
%TO.P,U2,3*%
X187880000Y-54960000D03*
%TO.P,U2,4*%
%TO.N,Net-(R5-Pad2)*%
X187880000Y-57500000D03*
%TD*%
D42*
%TO.P,C1,1*%
%TO.N,GND*%
X169500000Y-83287500D03*
%TO.P,C1,2*%
%TO.N,Net-(U1-VDD)*%
X169500000Y-81212500D03*
%TD*%
D10*
%TO.P,R10,1*%
%TO.N,/VBus*%
X208952500Y-47365000D03*
%TO.P,R10,2*%
%TO.N,Net-(U4-EN)*%
X206952500Y-47365000D03*
%TD*%
%TO.P,R20,1*%
%TO.N,/3.3V*%
X189912500Y-70000000D03*
%TO.P,R20,2*%
%TO.N,Net-(U5-NRST)*%
X187912500Y-70000000D03*
%TD*%
D44*
%TO.P,Shunt1,1*%
%TO.N,/MosO{slash}P*%
X189037500Y-92000000D03*
%TO.P,Shunt1,2*%
%TO.N,Net-(J4-Pin_1)*%
X194962500Y-92000000D03*
%TD*%
D10*
%TO.P,R19,1*%
%TO.N,/3.3V*%
X233250000Y-59250000D03*
%TO.P,R19,2*%
%TO.N,/level*%
X231250000Y-59250000D03*
%TD*%
D15*
%TO.P,SW3,1,1*%
%TO.N,/level*%
X228500000Y-61600000D03*
X220550000Y-61600000D03*
%TO.P,SW3,2,2*%
%TO.N,GND*%
X228500000Y-57100000D03*
X220550000Y-57100000D03*
%TD*%
D45*
%TO.P,J5,1,Pin_1*%
%TO.N,Net-(J5-Pin_1)*%
X183500000Y-47500000D03*
D36*
%TO.P,J5,2,Pin_2*%
%TO.N,GND*%
X188500000Y-47500000D03*
%TD*%
D11*
%TO.P,C6,1*%
%TO.N,Net-(U4-COMP)*%
X208212500Y-61500000D03*
%TO.P,C6,2*%
%TO.N,Net-(C6-Pad2)*%
X210287500Y-61500000D03*
%TD*%
D26*
%TO.P,C3,1*%
%TO.N,Net-(U4-BST)*%
X205770000Y-54834200D03*
%TO.P,C3,2*%
%TO.N,Net-(D4-K)*%
X205770000Y-56909200D03*
%TD*%
D46*
%TO.P,TP1,1,1*%
%TO.N,GND*%
X183025000Y-68500000D03*
%TO.P,TP1,2,2*%
%TO.N,Net-(U5-NRST)*%
X185975000Y-68500000D03*
%TD*%
D47*
%TO.P,U6,1,A1*%
%TO.N,GND*%
X164600000Y-90000000D03*
%TO.P,U6,2,A0*%
X164600000Y-90500000D03*
%TO.P,U6,3,~{Alert}*%
%TO.N,unconnected-(U6-~{Alert}-Pad3)*%
X164600000Y-91000000D03*
%TO.P,U6,4,SDA*%
%TO.N,/sda_S*%
X164600000Y-91500000D03*
%TO.P,U6,5,SCL*%
%TO.N,/scl_S*%
X164600000Y-92000000D03*
%TO.P,U6,6,VS*%
%TO.N,/3.3V*%
X169000000Y-92000000D03*
%TO.P,U6,7,GND*%
%TO.N,GND*%
X169000000Y-91500000D03*
%TO.P,U6,8,Vbus*%
%TO.N,/MosO{slash}P*%
X169000000Y-91000000D03*
%TO.P,U6,9,Vin-*%
%TO.N,Net-(J4-Pin_1)*%
X169000000Y-90500000D03*
%TO.P,U6,10,Vin+*%
%TO.N,/MosO{slash}P*%
X169000000Y-90000000D03*
%TD*%
D16*
%TO.P,R5,1*%
%TO.N,Net-(D1-A)*%
X183185000Y-57040000D03*
%TO.P,R5,2*%
%TO.N,Net-(R5-Pad2)*%
X185185000Y-57040000D03*
%TD*%
D18*
%TO.P,C13,1*%
%TO.N,/3.3V*%
X177575000Y-71250000D03*
%TO.P,C13,2*%
%TO.N,GND*%
X175500000Y-71250000D03*
%TD*%
D33*
%TO.P,J3,1,Pin_1*%
%TO.N,/3.3V*%
X221420000Y-87500000D03*
D34*
%TO.P,J3,2,Pin_2*%
%TO.N,/scl_D*%
X223960000Y-87500000D03*
%TO.P,J3,3,Pin_3*%
%TO.N,/sda_D*%
X226500000Y-87500000D03*
%TO.P,J3,4,Pin_4*%
%TO.N,GND*%
X229040000Y-87500000D03*
%TD*%
D12*
%TO.P,D5,1,K*%
%TO.N,/MosO{slash}P*%
X181500000Y-62500000D03*
%TO.P,D5,2,A*%
%TO.N,Net-(D5-A)*%
X177200000Y-62500000D03*
%TD*%
D13*
%TO.P,R3,1*%
%TO.N,/VBus*%
X172947500Y-53825000D03*
%TO.P,R3,2*%
%TO.N,Net-(D1-A)*%
X172947500Y-55825000D03*
%TD*%
D48*
%TO.N,GND*%
X191250000Y-78500000D03*
X188750000Y-75250000D03*
X202000000Y-62000000D03*
X204250000Y-59250000D03*
X183250000Y-74250000D03*
X217750000Y-67750000D03*
X213000000Y-66500000D03*
X191750000Y-54960000D03*
D49*
X171500000Y-76137500D03*
D48*
X191000000Y-86000000D03*
X205250000Y-51500000D03*
X176500000Y-68250000D03*
X224750000Y-65550000D03*
X197250000Y-62250000D03*
X166250000Y-91500000D03*
X192250000Y-67250000D03*
X171250000Y-92000000D03*
X210865000Y-55775850D03*
X212250000Y-82350000D03*
X213000000Y-64250000D03*
X184250000Y-81500000D03*
X224750000Y-74000000D03*
X213000000Y-68500000D03*
%TO.N,/VBus*%
X175750000Y-53912500D03*
D49*
X174250000Y-44250000D03*
D48*
X163670000Y-78080000D03*
X163750000Y-79750000D03*
X164000000Y-73250000D03*
D49*
X171250000Y-47250000D03*
D48*
X164000000Y-71750000D03*
X163000000Y-78080000D03*
X173915000Y-101665000D03*
D49*
X166780000Y-98250000D03*
X166500000Y-96750000D03*
X163500000Y-96750000D03*
D48*
X163750000Y-79000000D03*
X163000000Y-73280000D03*
X173250000Y-71500000D03*
D49*
X165000000Y-96750000D03*
X172500000Y-46000000D03*
X173375000Y-45125000D03*
D48*
X164000000Y-72500000D03*
%TO.N,/3.3V*%
X188750000Y-77500000D03*
X189500000Y-74750000D03*
X189500000Y-72000000D03*
D49*
%TO.N,/MosO{slash}P*%
X186000000Y-61250000D03*
X186250000Y-92000000D03*
X186000000Y-62250000D03*
X183750000Y-92000000D03*
X186000000Y-64750000D03*
X187500000Y-92000000D03*
X185000000Y-92000000D03*
X186000000Y-63500000D03*
D48*
%TO.N,/pureM*%
X180750000Y-77000000D03*
X198500000Y-100500000D03*
%TO.N,/buckM*%
X200250000Y-58750000D03*
X180250000Y-75750000D03*
D49*
%TO.N,/cfg1*%
X170500000Y-71500000D03*
X175000000Y-74000000D03*
%TO.N,/cfg3*%
X171500000Y-80250000D03*
X175750000Y-77000000D03*
%TD*%
D50*
%TO.N,Net-(U1-VDD)*%
X168275000Y-80000000D02*
X169500000Y-78775000D01*
X169500000Y-78775000D02*
X169500000Y-81212500D01*
X167087500Y-80000000D02*
X168275000Y-80000000D01*
%TO.N,GND*%
X183962500Y-86287500D02*
X184175000Y-86500000D01*
X165500000Y-90500000D02*
X166250000Y-91250000D01*
X224750000Y-74000000D02*
X220550000Y-74000000D01*
X169000000Y-91500000D02*
X170750000Y-91500000D01*
X183500000Y-85825000D02*
X183962500Y-86287500D01*
X228500000Y-74000000D02*
X224750000Y-74000000D01*
D51*
X161800000Y-72480000D02*
X161800000Y-71960000D01*
D50*
X182250000Y-74250000D02*
X183250000Y-74250000D01*
D51*
X161800000Y-78880000D02*
X161800000Y-79400000D01*
D50*
X203500000Y-53000000D02*
X203750000Y-53000000D01*
X220550000Y-57100000D02*
X228500000Y-57100000D01*
X183962500Y-86287500D02*
X183587500Y-85912500D01*
X220550000Y-65550000D02*
X224750000Y-65550000D01*
X203750000Y-53000000D02*
X205250000Y-51500000D01*
X184912500Y-79912500D02*
X184912500Y-80837500D01*
D51*
X161800000Y-71960000D02*
X161200000Y-71360000D01*
D50*
X188500000Y-75000000D02*
X188750000Y-75250000D01*
D51*
X161800000Y-79400000D02*
X161200000Y-80000000D01*
D50*
X164600000Y-90500000D02*
X165500000Y-90500000D01*
X192805000Y-67250000D02*
X193555000Y-66500000D01*
X191750000Y-54960000D02*
X195500000Y-54960000D01*
X170750000Y-91500000D02*
X171250000Y-92000000D01*
X217750000Y-68425000D02*
X216675000Y-69500000D01*
X164600000Y-90500000D02*
X164600000Y-90000000D01*
X166250000Y-91250000D02*
X166250000Y-91500000D01*
X217750000Y-67750000D02*
X217750000Y-68425000D01*
X187880000Y-54960000D02*
X191750000Y-54960000D01*
X209537500Y-82350000D02*
X212250000Y-82350000D01*
X183587500Y-85912500D02*
X183000000Y-85912500D01*
X180412500Y-72412500D02*
X182250000Y-74250000D01*
X192250000Y-67250000D02*
X192805000Y-67250000D01*
X191000000Y-86250000D02*
X191000000Y-86000000D01*
X224750000Y-65550000D02*
X228500000Y-65550000D01*
X184912500Y-80837500D02*
X184250000Y-81500000D01*
X193500000Y-66364262D02*
X193818512Y-66045750D01*
X190750000Y-86500000D02*
X191000000Y-86250000D01*
X186825000Y-75000000D02*
X188500000Y-75000000D01*
X180412500Y-71587500D02*
X180412500Y-72412500D01*
X184175000Y-86500000D02*
X190750000Y-86500000D01*
%TO.N,/VBus*%
X208865000Y-47365000D02*
X212052500Y-47365000D01*
X172947500Y-53912500D02*
X175750000Y-53912500D01*
D52*
X171250000Y-47250000D02*
X171375000Y-47125000D01*
D51*
X163750000Y-79750000D02*
X164000000Y-79500000D01*
X163670000Y-78080000D02*
X163750000Y-78160000D01*
D52*
X165750000Y-96750000D02*
X165000000Y-96750000D01*
D51*
X161800000Y-78080000D02*
X163000000Y-78080000D01*
D52*
X169765000Y-48735000D02*
X170875000Y-47625000D01*
D51*
X164000000Y-79500000D02*
X164762500Y-79500000D01*
D52*
X165000000Y-96750000D02*
X163500000Y-96750000D01*
D50*
X177225000Y-53912500D02*
X178097500Y-53040000D01*
D52*
X170875000Y-47625000D02*
X171250000Y-47250000D01*
D50*
X173237500Y-70000000D02*
X173237500Y-71487500D01*
D51*
X163970000Y-73280000D02*
X161800000Y-73280000D01*
X164762500Y-79500000D02*
X165262500Y-80000000D01*
D52*
X173125000Y-45375000D02*
X173375000Y-45125000D01*
D51*
X163750000Y-79000000D02*
X163750000Y-79750000D01*
D52*
X172500000Y-46000000D02*
X173125000Y-45375000D01*
D50*
X210230000Y-49187500D02*
X212052500Y-47365000D01*
D52*
X166780000Y-98250000D02*
X166780000Y-97030000D01*
D50*
X208952500Y-46202500D02*
X208952500Y-47365000D01*
X178097500Y-53040000D02*
X200177246Y-53040000D01*
D52*
X172375000Y-46125000D02*
X172500000Y-46000000D01*
X173375000Y-45125000D02*
X174125000Y-44375000D01*
D51*
X164000000Y-73250000D02*
X164000000Y-72500000D01*
X163750000Y-78160000D02*
X163750000Y-79000000D01*
D50*
X173237500Y-71487500D02*
X173250000Y-71500000D01*
D52*
X172125000Y-46375000D02*
X172375000Y-46125000D01*
D51*
X164000000Y-73250000D02*
X163970000Y-73280000D01*
D50*
X208750000Y-46000000D02*
X208952500Y-46202500D01*
X200177246Y-53040000D02*
X200177246Y-51572754D01*
D52*
X166780000Y-97030000D02*
X166750000Y-97000000D01*
X171375000Y-47125000D02*
X172125000Y-46375000D01*
D51*
X209000000Y-47500000D02*
X208865000Y-47365000D01*
D50*
X210230000Y-53051700D02*
X210230000Y-49187500D01*
X172000000Y-101925000D02*
X173655000Y-101925000D01*
D52*
X166780000Y-99470000D02*
X166780000Y-98250000D01*
D51*
X164000000Y-72500000D02*
X164000000Y-71750000D01*
X163670000Y-78080000D02*
X163000000Y-78080000D01*
D50*
X173915000Y-101665000D02*
X176305000Y-99275000D01*
D52*
X166500000Y-96750000D02*
X165750000Y-96750000D01*
X174125000Y-44375000D02*
X174250000Y-44250000D01*
X167595000Y-48735000D02*
X169765000Y-48735000D01*
D50*
X208750000Y-46000000D02*
X205750000Y-46000000D01*
X173655000Y-101925000D02*
X173915000Y-101665000D01*
D52*
X166750000Y-97000000D02*
X166500000Y-96750000D01*
D50*
X175750000Y-53912500D02*
X177225000Y-53912500D01*
X200177246Y-51572754D02*
X205750000Y-46000000D01*
%TO.N,Net-(U4-BST)*%
X208960000Y-53051700D02*
X208182500Y-53051700D01*
X208182500Y-53051700D02*
X205770000Y-55464200D01*
%TO.N,Net-(D4-K)*%
X206500000Y-65350000D02*
X206000000Y-64850000D01*
X208220800Y-58730000D02*
X205770000Y-56279200D01*
X206000000Y-64850000D02*
X206000000Y-61460000D01*
X206500000Y-69350000D02*
X206500000Y-65350000D01*
X206000000Y-61460000D02*
X208730000Y-58730000D01*
X208730000Y-58730000D02*
X208960000Y-58500000D01*
X208730000Y-58730000D02*
X208220800Y-58730000D01*
%TO.N,/3.3V*%
X233500000Y-68000000D02*
X233500000Y-66500000D01*
X163290942Y-87500000D02*
X161000000Y-87500000D01*
X188500000Y-77750000D02*
X188750000Y-77500000D01*
X189712500Y-79712500D02*
X188685000Y-78685000D01*
X221420000Y-87500000D02*
X229517000Y-79403000D01*
X206937500Y-78087500D02*
X206500000Y-77650000D01*
X188500000Y-78685000D02*
X187010000Y-78685000D01*
X168512500Y-94737500D02*
X161037500Y-94737500D01*
X179912500Y-69162500D02*
X179500000Y-68750000D01*
X185412500Y-79912500D02*
X186825000Y-78500000D01*
X179912500Y-72662500D02*
X182000000Y-74750000D01*
X172107000Y-83427573D02*
X172107000Y-86372878D01*
X189825000Y-70000000D02*
X189825000Y-71675000D01*
X177575000Y-71250000D02*
X179575000Y-71250000D01*
X170025000Y-93500000D02*
X170025000Y-93025000D01*
X219522000Y-70543427D02*
X219522000Y-69147000D01*
X170025000Y-93500000D02*
X169750000Y-93500000D01*
X231597000Y-79403000D02*
X233500000Y-77500000D01*
X186825000Y-74500000D02*
X189250000Y-74500000D01*
X190750000Y-79712500D02*
X189712500Y-79712500D01*
X186175000Y-82675000D02*
X188500000Y-85000000D01*
X182000000Y-78500000D02*
X179703442Y-78500000D01*
X186175000Y-82250000D02*
X186175000Y-82675000D01*
X233500000Y-76250000D02*
X233500000Y-68000000D01*
X179703442Y-78500000D02*
X179300442Y-78903000D01*
X233453000Y-66453000D02*
X233500000Y-66500000D01*
X168130000Y-86250000D02*
X166880000Y-87500000D01*
X206412500Y-77737500D02*
X206500000Y-77650000D01*
X170025000Y-93025000D02*
X169000000Y-92000000D01*
X176631573Y-78903000D02*
X172107000Y-83427573D01*
X172107000Y-86372878D02*
X171126878Y-87353000D01*
X233500000Y-66500000D02*
X233500000Y-59500000D01*
X189250000Y-74500000D02*
X189500000Y-74750000D01*
X185525000Y-80025000D02*
X185412500Y-79912500D01*
X166880000Y-87500000D02*
X161000000Y-87500000D01*
X179575000Y-71250000D02*
X179912500Y-71587500D01*
X185412500Y-81487500D02*
X186175000Y-82250000D01*
X167790942Y-92000000D02*
X163290942Y-87500000D01*
X179912500Y-71587500D02*
X179912500Y-72662500D01*
X169233000Y-87353000D02*
X168130000Y-86250000D01*
X171126878Y-87353000D02*
X169233000Y-87353000D01*
X216477928Y-73587500D02*
X219522000Y-70543427D01*
X206500000Y-77650000D02*
X211570000Y-77650000D01*
X187010000Y-78685000D02*
X186825000Y-78500000D01*
X199150000Y-85000000D02*
X188500000Y-85000000D01*
X179912500Y-71587500D02*
X179912500Y-69162500D01*
X186825000Y-78500000D02*
X182000000Y-78500000D01*
X169750000Y-93500000D02*
X168512500Y-94737500D01*
X169000000Y-92000000D02*
X167790942Y-92000000D01*
X188500000Y-78685000D02*
X188500000Y-77750000D01*
X215000000Y-73587500D02*
X216477928Y-73587500D01*
X229517000Y-79403000D02*
X231597000Y-79403000D01*
X179300442Y-78903000D02*
X176631573Y-78903000D01*
X182000000Y-74750000D02*
X182000000Y-78500000D01*
X206937500Y-82350000D02*
X206937500Y-78087500D01*
X222216000Y-66453000D02*
X233453000Y-66453000D01*
X206500000Y-77650000D02*
X199150000Y-85000000D01*
X188500000Y-78685000D02*
X188685000Y-78685000D01*
X233500000Y-59500000D02*
X233250000Y-59250000D01*
X185412500Y-79912500D02*
X185412500Y-81487500D01*
X189825000Y-71675000D02*
X189500000Y-72000000D01*
X219522000Y-69147000D02*
X222216000Y-66453000D01*
X211570000Y-77650000D02*
X221420000Y-87500000D01*
X233500000Y-77500000D02*
X233500000Y-76250000D01*
%TO.N,Net-(U4-COMP)*%
X211500000Y-58250000D02*
X211500000Y-58500000D01*
X211500000Y-58500000D02*
X211500000Y-59000000D01*
X211500000Y-58500000D02*
X211500000Y-58750000D01*
X208212500Y-60537500D02*
X208212500Y-61500000D01*
X210000000Y-60250000D02*
X208500000Y-60250000D01*
X215691750Y-57516750D02*
X212233250Y-57516750D01*
X211500000Y-58750000D02*
X210000000Y-60250000D01*
X212233250Y-57516750D02*
X211500000Y-58250000D01*
X208500000Y-60250000D02*
X208212500Y-60537500D01*
X215925000Y-57750000D02*
X215691750Y-57516750D01*
%TO.N,Net-(C6-Pad2)*%
X211637500Y-62850000D02*
X210287500Y-61500000D01*
X214947500Y-62695000D02*
X215102500Y-62850000D01*
X215015000Y-62850000D02*
X211637500Y-62850000D01*
%TO.N,Net-(U5-PF0)*%
X186825000Y-76500000D02*
X192498750Y-76500000D01*
X195630000Y-82998750D02*
X195630000Y-79631250D01*
X195630000Y-79631250D02*
X194910000Y-78911250D01*
X192498750Y-76500000D02*
X194910000Y-78911250D01*
%TO.N,Net-(U5-PF1)*%
X189321250Y-76000000D02*
X194910000Y-70411250D01*
X186825000Y-76000000D02*
X189321250Y-76000000D01*
X195630000Y-66500000D02*
X195630000Y-69691250D01*
X195630000Y-69691250D02*
X194910000Y-70411250D01*
%TO.N,Net-(D1-A)*%
X183272500Y-57040000D02*
X178097500Y-57040000D01*
X176487500Y-55737500D02*
X172947500Y-55737500D01*
X177790000Y-57040000D02*
X176487500Y-55737500D01*
X170037500Y-55737500D02*
X167595000Y-53295000D01*
X172947500Y-55737500D02*
X170037500Y-55737500D01*
X178097500Y-57040000D02*
X177790000Y-57040000D01*
%TO.N,Net-(D2-A)*%
X181480000Y-103275000D02*
X176305000Y-103275000D01*
X171220000Y-104030000D02*
X166780000Y-104030000D01*
X172475000Y-103275000D02*
X172000000Y-103750000D01*
X172000000Y-103750000D02*
X171500000Y-103750000D01*
X176305000Y-103275000D02*
X172475000Y-103275000D01*
X171500000Y-103750000D02*
X171220000Y-104030000D01*
D53*
%TO.N,/MosO{slash}P*%
X184750000Y-62500000D02*
X186000000Y-61250000D01*
D50*
X168022000Y-90287058D02*
X168022000Y-90746999D01*
D53*
X185000000Y-92000000D02*
X184250000Y-92000000D01*
D50*
X168275001Y-91000000D02*
X169000000Y-91000000D01*
X168022000Y-90746999D02*
X168275001Y-91000000D01*
X187750000Y-89250000D02*
X187500000Y-89000000D01*
X187500000Y-89000000D02*
X172750000Y-89000000D01*
X168309058Y-90000000D02*
X168022000Y-90287058D01*
X170750000Y-91000000D02*
X169000000Y-91000000D01*
D53*
X184250000Y-92000000D02*
X183750000Y-92000000D01*
D50*
X169000000Y-90000000D02*
X168309058Y-90000000D01*
D53*
X189037500Y-92000000D02*
X187500000Y-92000000D01*
X186000000Y-64750000D02*
X186000000Y-61250000D01*
D50*
X187750000Y-90712500D02*
X187750000Y-89250000D01*
X189037500Y-92000000D02*
X187750000Y-90712500D01*
D53*
X187500000Y-92000000D02*
X186250000Y-92000000D01*
D50*
X172750000Y-89000000D02*
X170750000Y-91000000D01*
D53*
X183750000Y-92000000D02*
X181500000Y-92000000D01*
X186250000Y-92000000D02*
X185000000Y-92000000D01*
X181500000Y-62500000D02*
X184750000Y-62500000D01*
%TO.N,Net-(D3-A)*%
X168646258Y-101750000D02*
X177200000Y-93196258D01*
X177200000Y-93196258D02*
X177200000Y-92000000D01*
X166780000Y-101750000D02*
X160480000Y-101750000D01*
X166780000Y-101750000D02*
X168646258Y-101750000D01*
%TO.N,Net-(D5-A)*%
X166500000Y-62500000D02*
X166000000Y-62000000D01*
X177200000Y-62500000D02*
X166500000Y-62500000D01*
D50*
%TO.N,Net-(U1-DP)*%
X164680500Y-77440500D02*
X163670000Y-76430000D01*
X172500000Y-78775000D02*
X172500000Y-77937501D01*
X161800000Y-75430000D02*
X162670000Y-75430000D01*
X162670000Y-75430000D02*
X163250000Y-76010000D01*
X163250000Y-76010000D02*
X163250000Y-76430000D01*
X163670000Y-76430000D02*
X163250000Y-76430000D01*
X172002999Y-77440500D02*
X164680500Y-77440500D01*
X163250000Y-76430000D02*
X161800000Y-76430000D01*
X172500000Y-77937501D02*
X172002999Y-77440500D01*
%TO.N,Net-(J1-CC1)*%
X172472000Y-69472000D02*
X172472000Y-73472000D01*
X172472000Y-73472000D02*
X172500000Y-73500000D01*
X165794746Y-74011978D02*
X170759724Y-69047000D01*
X161800000Y-74430000D02*
X165794746Y-74430000D01*
X172047000Y-69047000D02*
X172472000Y-69472000D01*
X170759724Y-69047000D02*
X172047000Y-69047000D01*
X165794746Y-74430000D02*
X165794746Y-74011978D01*
%TO.N,Net-(U1-DM)*%
X160500000Y-75250000D02*
X160820000Y-74930000D01*
X173500000Y-78775000D02*
X173500000Y-74931500D01*
X161800000Y-75930000D02*
X160680000Y-75930000D01*
X161895500Y-74834500D02*
X161800000Y-74930000D01*
X160680000Y-75930000D02*
X160500000Y-75750000D01*
X173500000Y-74931500D02*
X173403000Y-74834500D01*
X160820000Y-74930000D02*
X161800000Y-74930000D01*
X173403000Y-74834500D02*
X161895500Y-74834500D01*
X160500000Y-75750000D02*
X160500000Y-75250000D01*
%TO.N,Net-(J1-CC2)*%
X160930000Y-77430000D02*
X161800000Y-77430000D01*
X174250000Y-72750000D02*
X174250000Y-69250000D01*
X173500000Y-73500000D02*
X174250000Y-72750000D01*
X174250000Y-69250000D02*
X173500000Y-68500000D01*
X159897000Y-71048097D02*
X159897000Y-76397000D01*
X173500000Y-68500000D02*
X162445097Y-68500000D01*
X162445097Y-68500000D02*
X159897000Y-71048097D01*
X159897000Y-76397000D02*
X160930000Y-77430000D01*
%TO.N,/swdio*%
X170670000Y-86250000D02*
X170670000Y-84330000D01*
X177500000Y-77500000D02*
X178500000Y-77500000D01*
X170670000Y-84330000D02*
X177500000Y-77500000D01*
%TO.N,/swclk*%
X173210000Y-86250000D02*
X179547500Y-79912500D01*
X179547500Y-79912500D02*
X179912500Y-79912500D01*
%TO.N,/scl_D*%
X231750000Y-86000000D02*
X230500000Y-84750000D01*
X230500000Y-84750000D02*
X226750000Y-84750000D01*
X219000000Y-87500000D02*
X219000000Y-88500000D01*
X181000000Y-82500000D02*
X181000000Y-87500000D01*
X230500000Y-90250000D02*
X231750000Y-89000000D01*
X226500000Y-85000000D02*
X226460000Y-85000000D01*
X226460000Y-85000000D02*
X223960000Y-87500000D01*
X182412500Y-79912500D02*
X182412500Y-81087500D01*
X182412500Y-81087500D02*
X181000000Y-82500000D01*
X220750000Y-90250000D02*
X230500000Y-90250000D01*
X181000000Y-87500000D02*
X219000000Y-87500000D01*
X219000000Y-88500000D02*
X220750000Y-90250000D01*
X226750000Y-84750000D02*
X226500000Y-85000000D01*
X231750000Y-89000000D02*
X231750000Y-86000000D01*
%TO.N,/sda_D*%
X225750000Y-89750000D02*
X226500000Y-89000000D01*
X220928000Y-89750000D02*
X225750000Y-89750000D01*
X182912500Y-79912500D02*
X182912500Y-81587500D01*
X182912500Y-81587500D02*
X181500000Y-83000000D01*
X219714000Y-87000000D02*
X219714000Y-88536000D01*
X181500000Y-87000000D02*
X219714000Y-87000000D01*
X181500000Y-83000000D02*
X181500000Y-87000000D01*
X219714000Y-88536000D02*
X220928000Y-89750000D01*
X226500000Y-89000000D02*
X226500000Y-87500000D01*
%TO.N,Net-(J4-Pin_1)*%
X169000000Y-90500000D02*
X170500000Y-90500000D01*
D53*
X194962500Y-92000000D02*
X207500000Y-92000000D01*
D50*
X194962500Y-90462500D02*
X194962500Y-92000000D01*
X170500000Y-90500000D02*
X172500000Y-88500000D01*
X172500000Y-88500000D02*
X193000000Y-88500000D01*
X193000000Y-88500000D02*
X194962500Y-90462500D01*
D53*
X207500000Y-92000000D02*
X208500000Y-91000000D01*
%TO.N,Net-(J5-Pin_1)*%
X167595000Y-51015000D02*
X174235000Y-51015000D01*
X167595000Y-51015000D02*
X161295000Y-51015000D01*
X177750000Y-47500000D02*
X183500000Y-47500000D01*
X174235000Y-51015000D02*
X177750000Y-47500000D01*
D50*
%TO.N,Net-(U1-VBUS)*%
X171412500Y-70000000D02*
X171412500Y-73412500D01*
X171412500Y-73412500D02*
X171500000Y-73500000D01*
%TO.N,/pureM*%
X198772500Y-103275000D02*
X198772500Y-100772500D01*
X201892500Y-103275000D02*
X202805000Y-102362500D01*
X198772500Y-100772500D02*
X198500000Y-100500000D01*
X198772500Y-103275000D02*
X201892500Y-103275000D01*
X178500000Y-77000000D02*
X180750000Y-77000000D01*
%TO.N,Net-(R4-Pad1)*%
X196947500Y-103275000D02*
X193805000Y-103275000D01*
%TO.N,Net-(R5-Pad2)*%
X187880000Y-57500000D02*
X185557500Y-57500000D01*
X185557500Y-57500000D02*
X185097500Y-57040000D01*
%TO.N,/buckM*%
X178500000Y-76500000D02*
X179500000Y-76500000D01*
X201222500Y-55915000D02*
X201097500Y-56040000D01*
X201185000Y-56040000D02*
X202460000Y-56040000D01*
X201097500Y-57902500D02*
X200250000Y-58750000D01*
X202460000Y-56040000D02*
X203500000Y-55000000D01*
X201097500Y-56040000D02*
X201097500Y-57902500D01*
X179500000Y-76500000D02*
X180250000Y-75750000D01*
%TO.N,Net-(R6-Pad1)*%
X196960000Y-56040000D02*
X195500000Y-57500000D01*
X199272500Y-56040000D02*
X196960000Y-56040000D01*
%TO.N,Net-(R8-Pad2)*%
X186185000Y-103275000D02*
X183305000Y-103275000D01*
%TO.N,Net-(U4-EN)*%
X207040000Y-47365000D02*
X209697600Y-50022600D01*
X209073250Y-57500000D02*
X209680850Y-57500000D01*
X209680850Y-57500000D02*
X210230000Y-58049150D01*
X208884800Y-57311550D02*
X209073250Y-57500000D01*
X208884800Y-54240150D02*
X208884800Y-57311550D01*
X209697600Y-50022600D02*
X209697600Y-54240150D01*
X210230000Y-58049150D02*
X210230000Y-58500000D01*
X209697600Y-54240150D02*
X208884800Y-54240150D01*
%TO.N,Net-(U4-FREQ)*%
X211445000Y-52996700D02*
X211500000Y-53051700D01*
X211500000Y-52587500D02*
X213587500Y-50500000D01*
X211500000Y-53051700D02*
X211500000Y-52587500D01*
%TO.N,Net-(U4-FB)*%
X214031988Y-58500000D02*
X216162000Y-60630012D01*
X212770000Y-58500000D02*
X214031988Y-58500000D01*
X214762500Y-69850000D02*
X214762500Y-71525000D01*
X214762500Y-71525000D02*
X215000000Y-71762500D01*
X216162000Y-68013000D02*
X214675000Y-69500000D01*
X216162000Y-60630012D02*
X216162000Y-68013000D01*
%TO.N,/sda_S*%
X180912500Y-71587500D02*
X180912500Y-66162500D01*
X164910525Y-65500000D02*
X159519000Y-70891525D01*
X161912500Y-91500000D02*
X161000000Y-90587500D01*
X159519000Y-70891525D02*
X159519000Y-89106500D01*
X159519000Y-89106500D02*
X159912500Y-89500000D01*
X180250000Y-65500000D02*
X164910525Y-65500000D01*
X180912500Y-66162500D02*
X180250000Y-65500000D01*
X164600000Y-91500000D02*
X161912500Y-91500000D01*
X161000000Y-90587500D02*
X161000000Y-89500000D01*
X159912500Y-89500000D02*
X161000000Y-89500000D01*
%TO.N,/scl_S*%
X161912500Y-92000000D02*
X161000000Y-92912500D01*
X161037500Y-92912500D02*
X159141000Y-91016000D01*
X180406572Y-65122000D02*
X181412500Y-66127928D01*
D54*
X161000000Y-92500000D02*
X161000000Y-93000000D01*
D50*
X164753953Y-65122000D02*
X180406572Y-65122000D01*
X159141000Y-70734953D02*
X164753953Y-65122000D01*
X181412500Y-66127928D02*
X181412500Y-71587500D01*
X159141000Y-91016000D02*
X159141000Y-70734953D01*
X164600000Y-92000000D02*
X161912500Y-92000000D01*
%TO.N,/o{slash}f*%
X194789500Y-67063474D02*
X191628000Y-70224974D01*
X194789500Y-65809724D02*
X194789500Y-67063474D01*
X196182776Y-65522000D02*
X195077224Y-65522000D01*
X217300000Y-75250000D02*
X200750000Y-75250000D01*
X190750000Y-74000000D02*
X186825000Y-74000000D01*
X191628000Y-70224974D02*
X191628000Y-73122000D01*
X195077224Y-65522000D02*
X194789500Y-65809724D01*
X191628000Y-73122000D02*
X190750000Y-74000000D01*
X220550000Y-78500000D02*
X217300000Y-75250000D01*
X200750000Y-75250000D02*
X200750000Y-70089224D01*
X200750000Y-70089224D02*
X196182776Y-65522000D01*
X228500000Y-78500000D02*
X220550000Y-78500000D01*
X228500000Y-78500000D02*
X230750000Y-76250000D01*
X230750000Y-76250000D02*
X231500000Y-76250000D01*
%TO.N,/mode*%
X228500000Y-70050000D02*
X220550000Y-70050000D01*
X215850000Y-74750000D02*
X220550000Y-70050000D01*
X191250000Y-72250000D02*
X191250000Y-66250000D01*
X228500000Y-70050000D02*
X230550000Y-68000000D01*
X192750000Y-64750000D02*
X196500000Y-64750000D01*
X201250000Y-74750000D02*
X215850000Y-74750000D01*
X190000000Y-73500000D02*
X191250000Y-72250000D01*
X186825000Y-73500000D02*
X190000000Y-73500000D01*
X228550000Y-70100000D02*
X228500000Y-70050000D01*
X230550000Y-68000000D02*
X231500000Y-68000000D01*
X196500000Y-64750000D02*
X201250000Y-69500000D01*
X201250000Y-69500000D02*
X201250000Y-74750000D01*
X191250000Y-66250000D02*
X192750000Y-64750000D01*
%TO.N,/level*%
X228500000Y-61600000D02*
X228900000Y-61600000D01*
X228500000Y-61600000D02*
X220550000Y-61600000D01*
X190872000Y-71734500D02*
X190872000Y-66093427D01*
X215690276Y-72503000D02*
X216497000Y-72503000D01*
X228900000Y-61600000D02*
X231250000Y-59250000D01*
X214309724Y-72503000D02*
X214334724Y-72528000D01*
X186825000Y-73000000D02*
X189500000Y-73000000D01*
X218500000Y-63650000D02*
X220550000Y-61600000D01*
X189500000Y-73000000D02*
X190765500Y-71734500D01*
X190765500Y-71734500D02*
X190872000Y-71734500D01*
X192593428Y-64372000D02*
X196656573Y-64372000D01*
X201628000Y-72503000D02*
X214309724Y-72503000D01*
X190872000Y-66093427D02*
X192593428Y-64372000D01*
X218500000Y-70500000D02*
X218500000Y-63650000D01*
X201628000Y-69343428D02*
X201628000Y-72503000D01*
X214334724Y-72528000D02*
X215665276Y-72528000D01*
X215665276Y-72528000D02*
X215690276Y-72503000D01*
X196656573Y-64372000D02*
X201628000Y-69343428D01*
X216497000Y-72503000D02*
X218500000Y-70500000D01*
%TO.N,Net-(U5-NRST)*%
X187475000Y-70000000D02*
X185975000Y-68500000D01*
X185250000Y-74662499D02*
X185250000Y-73250000D01*
X188000000Y-70000000D02*
X187475000Y-70000000D01*
X185250000Y-73250000D02*
X188000000Y-70500000D01*
X186825000Y-75500000D02*
X186087501Y-75500000D01*
X188000000Y-70500000D02*
X188000000Y-70000000D01*
X186087501Y-75500000D02*
X185250000Y-74662499D01*
%TO.N,Net-(U5-BOOT0)*%
X185550000Y-85000000D02*
X184462500Y-83912500D01*
X183412500Y-83912500D02*
X183500000Y-84000000D01*
X183412500Y-83500000D02*
X183412500Y-79912500D01*
X183000000Y-83912500D02*
X183412500Y-83500000D01*
X184462500Y-83912500D02*
X183000000Y-83912500D01*
%TO.N,/cfg1*%
X178500000Y-75000000D02*
X176000000Y-75000000D01*
X176000000Y-75000000D02*
X175000000Y-74000000D01*
X170500000Y-73500000D02*
X170500000Y-71500000D01*
%TO.N,/cfg3*%
X178500000Y-76000000D02*
X176750000Y-76000000D01*
X176750000Y-76000000D02*
X175750000Y-77000000D01*
X171500000Y-78775000D02*
X171500000Y-80250000D01*
%TO.N,/cfg2*%
X175000000Y-78722442D02*
X175000000Y-76250000D01*
X170500000Y-78775000D02*
X170500000Y-80500000D01*
X175750000Y-75500000D02*
X178500000Y-75500000D01*
X172722442Y-81000000D02*
X175000000Y-78722442D01*
X175000000Y-76250000D02*
X175750000Y-75500000D01*
X171000000Y-81000000D02*
X172722442Y-81000000D01*
X170500000Y-80500000D02*
X171000000Y-81000000D01*
%TD*%
%TA.AperFunction,Conductor*%
%TO.N,GND*%
G36*
X165971751Y-91087820D02*
G01*
X165971850Y-91087819D01*
X165973218Y-91088678D01*
X166025819Y-91119467D01*
X167301958Y-92395606D01*
X167301987Y-92395637D01*
X167392207Y-92485857D01*
X167393698Y-92486853D01*
X167433978Y-92513767D01*
X167494656Y-92554312D01*
X167575149Y-92587652D01*
X167608490Y-92601463D01*
X167668913Y-92613481D01*
X167729335Y-92625500D01*
X167729336Y-92625500D01*
X168150505Y-92625500D01*
X168174548Y-92627853D01*
X168186604Y-92630235D01*
X168199764Y-92635687D01*
X168242949Y-92641372D01*
X168246838Y-92642141D01*
X168274428Y-92656530D01*
X168302875Y-92669114D01*
X168305140Y-92672547D01*
X168308789Y-92674451D01*
X168324220Y-92701474D01*
X168341347Y-92727438D01*
X168341396Y-92731550D01*
X168343437Y-92735125D01*
X168341809Y-92766200D01*
X168342180Y-92797303D01*
X168340501Y-92802791D01*
X168317501Y-92872200D01*
X168317500Y-92872204D01*
X168307000Y-92974983D01*
X168307000Y-92974991D01*
X168307000Y-93494336D01*
X168307001Y-93988000D01*
X168287317Y-94055039D01*
X168234513Y-94100794D01*
X168183001Y-94112000D01*
X162214588Y-94112000D01*
X162147549Y-94092315D01*
X162120624Y-94068912D01*
X162114209Y-94061462D01*
X162080212Y-94006344D01*
X161983278Y-93909410D01*
X161980266Y-93905912D01*
X161967680Y-93878126D01*
X161953064Y-93851358D01*
X161953403Y-93846606D01*
X161951438Y-93842266D01*
X161955872Y-93812090D01*
X161958048Y-93781666D01*
X161961023Y-93777036D01*
X161961596Y-93773139D01*
X161968944Y-93764711D01*
X161986549Y-93737319D01*
X162003322Y-93720546D01*
X162080212Y-93643656D01*
X162172314Y-93494334D01*
X162227499Y-93327797D01*
X162238000Y-93225009D01*
X162237999Y-92749499D01*
X162257683Y-92682461D01*
X162310487Y-92636706D01*
X162361999Y-92625500D01*
X163750505Y-92625500D01*
X163791871Y-92633728D01*
X163791910Y-92633583D01*
X163794126Y-92634176D01*
X163797958Y-92634939D01*
X163799764Y-92635687D01*
X163912280Y-92650500D01*
X163912287Y-92650500D01*
X165287713Y-92650500D01*
X165287720Y-92650500D01*
X165400236Y-92635687D01*
X165540233Y-92577698D01*
X165660451Y-92485451D01*
X165752698Y-92365233D01*
X165810687Y-92225236D01*
X165825500Y-92112720D01*
X165825500Y-91887280D01*
X165810687Y-91774764D01*
X165810686Y-91774763D01*
X165809626Y-91766705D01*
X165812689Y-91766301D01*
X165812689Y-91733698D01*
X165809626Y-91733295D01*
X165825500Y-91612720D01*
X165825500Y-91387286D01*
X165825500Y-91387280D01*
X165810687Y-91274764D01*
X165810686Y-91274761D01*
X165809931Y-91269026D01*
X165809875Y-91268906D01*
X165809887Y-91268687D01*
X165809626Y-91266705D01*
X165809998Y-91266655D01*
X165810763Y-91252757D01*
X165809513Y-91233613D01*
X165810602Y-91225439D01*
X165810687Y-91225236D01*
X165815226Y-91190761D01*
X165829290Y-91159108D01*
X165843465Y-91127066D01*
X165843554Y-91127007D01*
X165843597Y-91126911D01*
X165872571Y-91107867D01*
X165901790Y-91088595D01*
X165901896Y-91088593D01*
X165901984Y-91088536D01*
X165936417Y-91088182D01*
X165971654Y-91087763D01*
X165971751Y-91087820D01*
G37*
%TD.AperFunction*%
%TA.AperFunction,Conductor*%
G36*
X163047529Y-88145185D02*
G01*
X163068171Y-88161819D01*
X165044171Y-90137819D01*
X165077656Y-90199142D01*
X165072672Y-90268834D01*
X165030800Y-90324767D01*
X164965336Y-90349184D01*
X164956490Y-90349500D01*
X163912272Y-90349500D01*
X163799764Y-90364313D01*
X163799763Y-90364313D01*
X163659770Y-90422300D01*
X163659767Y-90422301D01*
X163659767Y-90422302D01*
X163539549Y-90514549D01*
X163458010Y-90620813D01*
X163447300Y-90634770D01*
X163389314Y-90774761D01*
X163387217Y-90782590D01*
X163350853Y-90842252D01*
X163288007Y-90872783D01*
X163267441Y-90874500D01*
X162222952Y-90874500D01*
X162155913Y-90854815D01*
X162135271Y-90838181D01*
X161916910Y-90619820D01*
X161883425Y-90558497D01*
X161888409Y-90488805D01*
X161916910Y-90444458D01*
X161946183Y-90415185D01*
X162042712Y-90318656D01*
X162134814Y-90169334D01*
X162189999Y-90002797D01*
X162200500Y-89900009D01*
X162200499Y-89099992D01*
X162200499Y-89099990D01*
X162200498Y-89099980D01*
X162189999Y-88997203D01*
X162189998Y-88997200D01*
X162157369Y-88898733D01*
X162134814Y-88830666D01*
X162042712Y-88681344D01*
X161949049Y-88587681D01*
X161915564Y-88526358D01*
X161920548Y-88456666D01*
X161949049Y-88412319D01*
X161981582Y-88379786D01*
X162042712Y-88318656D01*
X162125519Y-88184402D01*
X162177467Y-88137679D01*
X162231058Y-88125500D01*
X162980490Y-88125500D01*
X163047529Y-88145185D01*
G37*
%TD.AperFunction*%
%TA.AperFunction,Conductor*%
G36*
X179408598Y-81001917D02*
G01*
X179442744Y-81004359D01*
X179443613Y-81004840D01*
X179444124Y-81004883D01*
X179474895Y-81022165D01*
X179498230Y-81040070D01*
X179547265Y-81077697D01*
X179547267Y-81077698D01*
X179687264Y-81135687D01*
X179794086Y-81149750D01*
X179799764Y-81150498D01*
X179799780Y-81150500D01*
X179799787Y-81150500D01*
X180025213Y-81150500D01*
X180025220Y-81150500D01*
X180137736Y-81135687D01*
X180137736Y-81135686D01*
X180145795Y-81134626D01*
X180146198Y-81137689D01*
X180178802Y-81137689D01*
X180179205Y-81134626D01*
X180187263Y-81135686D01*
X180187264Y-81135687D01*
X180299780Y-81150500D01*
X180299787Y-81150500D01*
X180525213Y-81150500D01*
X180525220Y-81150500D01*
X180637736Y-81135687D01*
X180637736Y-81135686D01*
X180645795Y-81134626D01*
X180646198Y-81137689D01*
X180678802Y-81137689D01*
X180679205Y-81134626D01*
X180687263Y-81135686D01*
X180687264Y-81135687D01*
X180799780Y-81150500D01*
X180799787Y-81150500D01*
X181025213Y-81150500D01*
X181025220Y-81150500D01*
X181137736Y-81135687D01*
X181137738Y-81135685D01*
X181143739Y-81134896D01*
X181143880Y-81134831D01*
X181144130Y-81134845D01*
X181145795Y-81134626D01*
X181145836Y-81134940D01*
X181160367Y-81135757D01*
X181179173Y-81134551D01*
X181187127Y-81135630D01*
X181187264Y-81135687D01*
X181196713Y-81136930D01*
X181196890Y-81136955D01*
X181228547Y-81151110D01*
X181260299Y-81165156D01*
X181260440Y-81165370D01*
X181260674Y-81165475D01*
X181279653Y-81194499D01*
X181298770Y-81223481D01*
X181298773Y-81223736D01*
X181298913Y-81223951D01*
X181299189Y-81258729D01*
X181299601Y-81293345D01*
X181299466Y-81293575D01*
X181299468Y-81293819D01*
X181297493Y-81296944D01*
X181267898Y-81347510D01*
X180933976Y-81681433D01*
X180601269Y-82014140D01*
X180601267Y-82014142D01*
X180568819Y-82046590D01*
X180514142Y-82101266D01*
X180486449Y-82142712D01*
X180486448Y-82142711D01*
X180445689Y-82203711D01*
X180445688Y-82203713D01*
X180445688Y-82203714D01*
X180415636Y-82276267D01*
X180398538Y-82317544D01*
X180398535Y-82317556D01*
X180374500Y-82438389D01*
X180374500Y-87561610D01*
X180398535Y-87682444D01*
X180398538Y-87682454D01*
X180407068Y-87703047D01*
X180414537Y-87772516D01*
X180383262Y-87834996D01*
X180323173Y-87870648D01*
X180292507Y-87874500D01*
X172438389Y-87874500D01*
X172382398Y-87885637D01*
X172382391Y-87885638D01*
X172377971Y-87886518D01*
X172317548Y-87898537D01*
X172288667Y-87910500D01*
X172281579Y-87913435D01*
X172281571Y-87913438D01*
X172203718Y-87945685D01*
X172203717Y-87945686D01*
X172161472Y-87973914D01*
X172101268Y-88014140D01*
X172061100Y-88054309D01*
X172014142Y-88101267D01*
X170379975Y-89735434D01*
X170318652Y-89768919D01*
X170248960Y-89763935D01*
X170193027Y-89722063D01*
X170177733Y-89695206D01*
X170152699Y-89634770D01*
X170152698Y-89634767D01*
X170060451Y-89514549D01*
X169940233Y-89422302D01*
X169940229Y-89422300D01*
X169876801Y-89396027D01*
X169800236Y-89364313D01*
X169786171Y-89362461D01*
X169687727Y-89349500D01*
X169687720Y-89349500D01*
X168312280Y-89349500D01*
X168312272Y-89349500D01*
X168199764Y-89364313D01*
X168199763Y-89364313D01*
X168059768Y-89422301D01*
X168052726Y-89426367D01*
X168052574Y-89426104D01*
X168033585Y-89437067D01*
X168012770Y-89445689D01*
X168012768Y-89445690D01*
X167910329Y-89514138D01*
X167910327Y-89514139D01*
X167872456Y-89552011D01*
X167823200Y-89601267D01*
X167626066Y-89798400D01*
X167626058Y-89798408D01*
X167623270Y-89801197D01*
X167623267Y-89801200D01*
X167536142Y-89888325D01*
X167506658Y-89932451D01*
X167502086Y-89939292D01*
X167502086Y-89939293D01*
X167467687Y-89990773D01*
X167467685Y-89990776D01*
X167438347Y-90061604D01*
X167438348Y-90061605D01*
X167425961Y-90091511D01*
X167425960Y-90091514D01*
X167421765Y-90101643D01*
X167420537Y-90104607D01*
X167396767Y-90224112D01*
X167396523Y-90225336D01*
X167396513Y-90225382D01*
X167396500Y-90225449D01*
X167396500Y-90421606D01*
X167376815Y-90488645D01*
X167324011Y-90534400D01*
X167254853Y-90544344D01*
X167191297Y-90515319D01*
X167184819Y-90509287D01*
X165012713Y-88337181D01*
X164979228Y-88275858D01*
X164984212Y-88206166D01*
X165026084Y-88150233D01*
X165091548Y-88125816D01*
X165100394Y-88125500D01*
X166941607Y-88125500D01*
X167002029Y-88113481D01*
X167062452Y-88101463D01*
X167095792Y-88087652D01*
X167176286Y-88054312D01*
X167227509Y-88020084D01*
X167230009Y-88018414D01*
X167240271Y-88011556D01*
X167278733Y-87985858D01*
X167365858Y-87898733D01*
X167365859Y-87898731D01*
X167372925Y-87891665D01*
X167372928Y-87891661D01*
X167672162Y-87592426D01*
X167733483Y-87558943D01*
X167798162Y-87562179D01*
X167813757Y-87567246D01*
X168023713Y-87600500D01*
X168023714Y-87600500D01*
X168236286Y-87600500D01*
X168236287Y-87600500D01*
X168446243Y-87567246D01*
X168461837Y-87562178D01*
X168531676Y-87560182D01*
X168587837Y-87592428D01*
X168834263Y-87838855D01*
X168834267Y-87838858D01*
X168936710Y-87907309D01*
X168936711Y-87907309D01*
X168936715Y-87907312D01*
X169002443Y-87934537D01*
X169050548Y-87954463D01*
X169070597Y-87958451D01*
X169140175Y-87972291D01*
X169171392Y-87978501D01*
X169171394Y-87978501D01*
X169300721Y-87978501D01*
X169300741Y-87978500D01*
X171188485Y-87978500D01*
X171248907Y-87966481D01*
X171309330Y-87954463D01*
X171342670Y-87940652D01*
X171423164Y-87907312D01*
X171474387Y-87873084D01*
X171525611Y-87838858D01*
X171612736Y-87751733D01*
X171612737Y-87751731D01*
X171619803Y-87744665D01*
X171619805Y-87744661D01*
X172119608Y-87244859D01*
X172180927Y-87211377D01*
X172250619Y-87216361D01*
X172294966Y-87244862D01*
X172330213Y-87280109D01*
X172502179Y-87405048D01*
X172502181Y-87405049D01*
X172502184Y-87405051D01*
X172691588Y-87501557D01*
X172893757Y-87567246D01*
X173103713Y-87600500D01*
X173103714Y-87600500D01*
X173316286Y-87600500D01*
X173316287Y-87600500D01*
X173526243Y-87567246D01*
X173728412Y-87501557D01*
X173917816Y-87405051D01*
X173939789Y-87389086D01*
X174089786Y-87280109D01*
X174089788Y-87280106D01*
X174089792Y-87280104D01*
X174240104Y-87129792D01*
X174240106Y-87129788D01*
X174240109Y-87129786D01*
X174365048Y-86957820D01*
X174365047Y-86957820D01*
X174365051Y-86957816D01*
X174461557Y-86768412D01*
X174527246Y-86566243D01*
X174560500Y-86356287D01*
X174560500Y-86143713D01*
X174527246Y-85933757D01*
X174522178Y-85918159D01*
X174520183Y-85848318D01*
X174552426Y-85792163D01*
X179311731Y-81032858D01*
X179312402Y-81032492D01*
X179312779Y-81031822D01*
X179343024Y-81015771D01*
X179373052Y-80999375D01*
X179373818Y-80999429D01*
X179374496Y-80999070D01*
X179408598Y-81001917D01*
G37*
%TD.AperFunction*%
%TA.AperFunction,Conductor*%
G36*
X230256587Y-85395185D02*
G01*
X230277229Y-85411819D01*
X231088181Y-86222771D01*
X231121666Y-86284094D01*
X231124500Y-86310452D01*
X231124500Y-88689548D01*
X231104815Y-88756587D01*
X231088181Y-88777229D01*
X230277229Y-89588181D01*
X230215906Y-89621666D01*
X230189548Y-89624500D01*
X227059454Y-89624500D01*
X226992415Y-89604815D01*
X226946660Y-89552011D01*
X226936716Y-89482853D01*
X226965741Y-89419297D01*
X226971773Y-89412819D01*
X226985855Y-89398736D01*
X226985858Y-89398733D01*
X227054311Y-89296286D01*
X227101463Y-89182452D01*
X227116754Y-89105577D01*
X227117865Y-89099994D01*
X227117865Y-89099990D01*
X227125500Y-89061607D01*
X227125500Y-88938393D01*
X227125500Y-88772980D01*
X227145185Y-88705941D01*
X227193208Y-88662494D01*
X227207818Y-88655050D01*
X227379786Y-88530109D01*
X227379788Y-88530106D01*
X227379792Y-88530104D01*
X227530104Y-88379792D01*
X227530106Y-88379788D01*
X227530109Y-88379786D01*
X227655048Y-88207820D01*
X227655047Y-88207820D01*
X227655051Y-88207816D01*
X227751557Y-88018412D01*
X227817246Y-87816243D01*
X227850500Y-87606287D01*
X227850500Y-87393713D01*
X227817246Y-87183757D01*
X227751557Y-86981588D01*
X227655051Y-86792184D01*
X227655049Y-86792181D01*
X227655048Y-86792179D01*
X227530109Y-86620213D01*
X227379786Y-86469890D01*
X227207820Y-86344951D01*
X227018414Y-86248444D01*
X227018413Y-86248443D01*
X227018412Y-86248443D01*
X226816243Y-86182754D01*
X226816241Y-86182753D01*
X226816240Y-86182753D01*
X226654957Y-86157208D01*
X226606287Y-86149500D01*
X226494451Y-86149500D01*
X226427412Y-86129815D01*
X226381657Y-86077011D01*
X226371713Y-86007853D01*
X226400738Y-85944297D01*
X226406770Y-85937819D01*
X226580448Y-85764141D01*
X226770374Y-85574214D01*
X226789452Y-85558603D01*
X226795295Y-85554722D01*
X226796286Y-85554312D01*
X226856403Y-85514142D01*
X226898733Y-85485858D01*
X226972773Y-85411817D01*
X227034094Y-85378334D01*
X227060453Y-85375500D01*
X230189548Y-85375500D01*
X230256587Y-85395185D01*
G37*
%TD.AperFunction*%
%TA.AperFunction,Conductor*%
G36*
X162701355Y-78831685D02*
G01*
X162726230Y-78834395D01*
X162734734Y-78836578D01*
X162766503Y-78849737D01*
X162853040Y-78866950D01*
X162856334Y-78867796D01*
X162883539Y-78883988D01*
X162911602Y-78898668D01*
X162913345Y-78901730D01*
X162916373Y-78903532D01*
X162930506Y-78931866D01*
X162946176Y-78959384D01*
X162945987Y-78962902D01*
X162947560Y-78966055D01*
X162949500Y-78987901D01*
X162949500Y-79078846D01*
X162980261Y-79233489D01*
X162980263Y-79233497D01*
X162990061Y-79257151D01*
X162991687Y-79265328D01*
X162994477Y-79269669D01*
X162999500Y-79304604D01*
X162999500Y-79445396D01*
X162990062Y-79492844D01*
X162980263Y-79516503D01*
X162980262Y-79516506D01*
X162980260Y-79516511D01*
X162949500Y-79671153D01*
X162949500Y-79828846D01*
X162980261Y-79983489D01*
X162980264Y-79983501D01*
X163040602Y-80129172D01*
X163040609Y-80129185D01*
X163128210Y-80260288D01*
X163128213Y-80260292D01*
X163239707Y-80371786D01*
X163239711Y-80371789D01*
X163370814Y-80459390D01*
X163370827Y-80459397D01*
X163516498Y-80519735D01*
X163516503Y-80519737D01*
X163671153Y-80550499D01*
X163671156Y-80550500D01*
X163671158Y-80550500D01*
X163828844Y-80550500D01*
X163945461Y-80527303D01*
X164015053Y-80533530D01*
X164070230Y-80576393D01*
X164087359Y-80609915D01*
X164122809Y-80716894D01*
X164128188Y-80733128D01*
X164140186Y-80769333D01*
X164140187Y-80769336D01*
X164152932Y-80789999D01*
X164232288Y-80918656D01*
X164356344Y-81042712D01*
X164505666Y-81134814D01*
X164672203Y-81189999D01*
X164774991Y-81200500D01*
X165575008Y-81200499D01*
X165575016Y-81200498D01*
X165575019Y-81200498D01*
X165633745Y-81194499D01*
X165677797Y-81189999D01*
X165844334Y-81134814D01*
X165993656Y-81042712D01*
X166087319Y-80949049D01*
X166148642Y-80915564D01*
X166218334Y-80920548D01*
X166262681Y-80949049D01*
X166356344Y-81042712D01*
X166505666Y-81134814D01*
X166672203Y-81189999D01*
X166774991Y-81200500D01*
X167575008Y-81200499D01*
X167575016Y-81200498D01*
X167575019Y-81200498D01*
X167633745Y-81194499D01*
X167677797Y-81189999D01*
X167844334Y-81134814D01*
X167993656Y-81042712D01*
X168062822Y-80973545D01*
X168124141Y-80940063D01*
X168193833Y-80945047D01*
X168249767Y-80986918D01*
X168274184Y-81052382D01*
X168274500Y-81061229D01*
X168274500Y-81600001D01*
X168274501Y-81600019D01*
X168285000Y-81702796D01*
X168285001Y-81702799D01*
X168340185Y-81869331D01*
X168340187Y-81869336D01*
X168375069Y-81925888D01*
X168432288Y-82018656D01*
X168556344Y-82142712D01*
X168705666Y-82234814D01*
X168872203Y-82289999D01*
X168974991Y-82300500D01*
X170025008Y-82300499D01*
X170025016Y-82300498D01*
X170025019Y-82300498D01*
X170081302Y-82294748D01*
X170127797Y-82289999D01*
X170294334Y-82234814D01*
X170443656Y-82142712D01*
X170567712Y-82018656D01*
X170659814Y-81869334D01*
X170714999Y-81702797D01*
X170714999Y-81702795D01*
X170717128Y-81696371D01*
X170718375Y-81696784D01*
X170718726Y-81690245D01*
X170734686Y-81668110D01*
X170747680Y-81644118D01*
X170754821Y-81640186D01*
X170759591Y-81633572D01*
X170784985Y-81623579D01*
X170790234Y-81620690D01*
X170790966Y-81620056D01*
X170791534Y-81619974D01*
X170808887Y-81610421D01*
X170818693Y-81610316D01*
X170824608Y-81607989D01*
X170859819Y-81609877D01*
X170859850Y-81609877D01*
X170866667Y-81611233D01*
X170938391Y-81625499D01*
X170938392Y-81625500D01*
X170938393Y-81625500D01*
X170938394Y-81625500D01*
X172190548Y-81625500D01*
X172257587Y-81645185D01*
X172303342Y-81697989D01*
X172313286Y-81767147D01*
X172284261Y-81830703D01*
X172278229Y-81837181D01*
X170274025Y-83841383D01*
X170274017Y-83841391D01*
X170271269Y-83844140D01*
X170271267Y-83844142D01*
X170184142Y-83931267D01*
X170155518Y-83974106D01*
X170150911Y-83981000D01*
X170150908Y-83981004D01*
X170115688Y-84033714D01*
X170115686Y-84033716D01*
X170090323Y-84094951D01*
X170068538Y-84147543D01*
X170068535Y-84147553D01*
X170058659Y-84197200D01*
X170058660Y-84197201D01*
X170045349Y-84264128D01*
X170045345Y-84264146D01*
X170044500Y-84268386D01*
X170044500Y-84977019D01*
X170024815Y-85044058D01*
X169976797Y-85087503D01*
X169962180Y-85094950D01*
X169790213Y-85219890D01*
X169639890Y-85370213D01*
X169514949Y-85542182D01*
X169510484Y-85550946D01*
X169462509Y-85601742D01*
X169394688Y-85618536D01*
X169328553Y-85595998D01*
X169289516Y-85550946D01*
X169285050Y-85542182D01*
X169160109Y-85370213D01*
X169009786Y-85219890D01*
X168837820Y-85094951D01*
X168648414Y-84998444D01*
X168648413Y-84998443D01*
X168648412Y-84998443D01*
X168446243Y-84932754D01*
X168446241Y-84932753D01*
X168446240Y-84932753D01*
X168284957Y-84907208D01*
X168236287Y-84899500D01*
X168023713Y-84899500D01*
X167975042Y-84907208D01*
X167813760Y-84932753D01*
X167611585Y-84998444D01*
X167422179Y-85094951D01*
X167250213Y-85219890D01*
X167099890Y-85370213D01*
X166974951Y-85542179D01*
X166878444Y-85731585D01*
X166812753Y-85933760D01*
X166781701Y-86129815D01*
X166779500Y-86143713D01*
X166779500Y-86356287D01*
X166787436Y-86406394D01*
X166812754Y-86566246D01*
X166817821Y-86581840D01*
X166818255Y-86597050D01*
X166823574Y-86611310D01*
X166819232Y-86631265D01*
X166819816Y-86651681D01*
X166811727Y-86665768D01*
X166808722Y-86679583D01*
X166787574Y-86707834D01*
X166657227Y-86838182D01*
X166595907Y-86871666D01*
X166569548Y-86874500D01*
X162231058Y-86874500D01*
X162164019Y-86854815D01*
X162125519Y-86815597D01*
X162111075Y-86792179D01*
X162042712Y-86681344D01*
X161918656Y-86557288D01*
X161776970Y-86469896D01*
X161769336Y-86465187D01*
X161769331Y-86465185D01*
X161767862Y-86464698D01*
X161602797Y-86410001D01*
X161602795Y-86410000D01*
X161500010Y-86399500D01*
X160499998Y-86399500D01*
X160499980Y-86399501D01*
X160397203Y-86410000D01*
X160397200Y-86410001D01*
X160307504Y-86439724D01*
X160237676Y-86442126D01*
X160177634Y-86406394D01*
X160146441Y-86343874D01*
X160144500Y-86322018D01*
X160144500Y-79140133D01*
X160164185Y-79073094D01*
X160216989Y-79027339D01*
X160286147Y-79017395D01*
X160330496Y-79032744D01*
X160411396Y-79079452D01*
X160450841Y-79102226D01*
X160457865Y-79106281D01*
X160604234Y-79145500D01*
X160604236Y-79145500D01*
X160755764Y-79145500D01*
X160755766Y-79145500D01*
X160902135Y-79106281D01*
X161033365Y-79030515D01*
X161140515Y-78923365D01*
X161140515Y-78923364D01*
X161146262Y-78917618D01*
X161148591Y-78919947D01*
X161192622Y-78887805D01*
X161234557Y-78880499D01*
X162467871Y-78880499D01*
X162467872Y-78880499D01*
X162527483Y-78874091D01*
X162623396Y-78838318D01*
X162666729Y-78830500D01*
X162695396Y-78830500D01*
X162701355Y-78831685D01*
G37*
%TD.AperFunction*%
%TA.AperFunction,Conductor*%
G36*
X184280370Y-84615668D02*
G01*
X184288597Y-84623187D01*
X184438181Y-84772771D01*
X184471666Y-84834094D01*
X184474500Y-84860452D01*
X184474500Y-85700001D01*
X184474501Y-85700019D01*
X184485000Y-85802796D01*
X184485001Y-85802799D01*
X184540185Y-85969331D01*
X184540187Y-85969336D01*
X184575069Y-86025888D01*
X184606601Y-86077011D01*
X184632289Y-86118657D01*
X184676451Y-86162819D01*
X184709936Y-86224142D01*
X184704952Y-86293834D01*
X184663080Y-86349767D01*
X184597616Y-86374184D01*
X184588770Y-86374500D01*
X182249500Y-86374500D01*
X182182461Y-86354815D01*
X182136706Y-86302011D01*
X182125500Y-86250500D01*
X182125500Y-85084185D01*
X182145185Y-85017146D01*
X182197989Y-84971391D01*
X182267147Y-84961447D01*
X182288497Y-84966477D01*
X182397203Y-85002499D01*
X182499991Y-85013000D01*
X183500008Y-85012999D01*
X183500016Y-85012998D01*
X183500019Y-85012998D01*
X183556302Y-85007248D01*
X183602797Y-85002499D01*
X183769334Y-84947314D01*
X183918656Y-84855212D01*
X184042712Y-84731156D01*
X184095377Y-84645772D01*
X184147325Y-84599047D01*
X184216287Y-84587824D01*
X184280370Y-84615668D01*
G37*
%TD.AperFunction*%
%TA.AperFunction,Conductor*%
G36*
X211326587Y-78295185D02*
G01*
X211347229Y-78311819D01*
X219198228Y-86162819D01*
X219231713Y-86224142D01*
X219226729Y-86293834D01*
X219184857Y-86349767D01*
X219119393Y-86374184D01*
X219110547Y-86374500D01*
X189461230Y-86374500D01*
X189394191Y-86354815D01*
X189348436Y-86302011D01*
X189338492Y-86232853D01*
X189367517Y-86169297D01*
X189373549Y-86162819D01*
X189392655Y-86143713D01*
X189417712Y-86118656D01*
X189509814Y-85969334D01*
X189564999Y-85802797D01*
X189568948Y-85764141D01*
X189571732Y-85736897D01*
X189598129Y-85672205D01*
X189655310Y-85632054D01*
X189695090Y-85625500D01*
X199211608Y-85625500D01*
X199211608Y-85625499D01*
X199278381Y-85612218D01*
X199332452Y-85601463D01*
X199365792Y-85587652D01*
X199446286Y-85554312D01*
X199506403Y-85514142D01*
X199548733Y-85485858D01*
X199635858Y-85398733D01*
X199635858Y-85398731D01*
X199646066Y-85388524D01*
X199646067Y-85388521D01*
X205497772Y-79536818D01*
X205559095Y-79503333D01*
X205585453Y-79500499D01*
X206188000Y-79500499D01*
X206255039Y-79520184D01*
X206300794Y-79572988D01*
X206312000Y-79624499D01*
X206312000Y-81101652D01*
X206292315Y-81168691D01*
X206253098Y-81207189D01*
X206175835Y-81254845D01*
X206131342Y-81282289D01*
X206007289Y-81406342D01*
X206007288Y-81406344D01*
X205915186Y-81555666D01*
X205915185Y-81555668D01*
X205897221Y-81609880D01*
X205860001Y-81722203D01*
X205860001Y-81722204D01*
X205860000Y-81722204D01*
X205849500Y-81824983D01*
X205849500Y-82875001D01*
X205849501Y-82875019D01*
X205860000Y-82977796D01*
X205860001Y-82977799D01*
X205896894Y-83089132D01*
X205915186Y-83144334D01*
X206007288Y-83293656D01*
X206131344Y-83417712D01*
X206280666Y-83509814D01*
X206447203Y-83564999D01*
X206549991Y-83575500D01*
X207325008Y-83575499D01*
X207325016Y-83575498D01*
X207325019Y-83575498D01*
X207381302Y-83569748D01*
X207427797Y-83564999D01*
X207594334Y-83509814D01*
X207743656Y-83417712D01*
X207867712Y-83293656D01*
X207959814Y-83144334D01*
X208014999Y-82977797D01*
X208025500Y-82875009D01*
X208025499Y-81824992D01*
X208014999Y-81722203D01*
X207959814Y-81555666D01*
X207867712Y-81406344D01*
X207743656Y-81282288D01*
X207621902Y-81207190D01*
X207575179Y-81155243D01*
X207563000Y-81101652D01*
X207563000Y-79624499D01*
X207582685Y-79557460D01*
X207635489Y-79511705D01*
X207687000Y-79500499D01*
X208347871Y-79500499D01*
X208347872Y-79500499D01*
X208407483Y-79494091D01*
X208542331Y-79443796D01*
X208657546Y-79357546D01*
X208743796Y-79242331D01*
X208794091Y-79107483D01*
X208800500Y-79047873D01*
X208800500Y-78399500D01*
X208820185Y-78332461D01*
X208872989Y-78286706D01*
X208924500Y-78275500D01*
X211259548Y-78275500D01*
X211326587Y-78295185D01*
G37*
%TD.AperFunction*%
%TA.AperFunction,Conductor*%
G36*
X192255337Y-77145185D02*
G01*
X192275979Y-77161819D01*
X193373181Y-78259021D01*
X193406666Y-78320344D01*
X193409500Y-78346702D01*
X193409500Y-80961251D01*
X193409501Y-80961268D01*
X193420000Y-81064046D01*
X193420001Y-81064049D01*
X193465216Y-81200498D01*
X193475186Y-81230584D01*
X193567288Y-81379906D01*
X193691344Y-81503962D01*
X193840666Y-81596064D01*
X194007203Y-81651249D01*
X194109991Y-81661750D01*
X194823192Y-81661749D01*
X194890231Y-81681433D01*
X194935986Y-81734237D01*
X194945930Y-81803396D01*
X194916905Y-81866952D01*
X194888289Y-81891287D01*
X194823847Y-81931035D01*
X194823843Y-81931038D01*
X194699789Y-82055092D01*
X194607687Y-82204413D01*
X194607686Y-82204416D01*
X194552501Y-82370953D01*
X194552501Y-82370954D01*
X194552500Y-82370954D01*
X194542000Y-82473733D01*
X194542000Y-83523751D01*
X194542001Y-83523769D01*
X194552500Y-83626546D01*
X194552501Y-83626549D01*
X194589441Y-83738025D01*
X194607686Y-83793084D01*
X194692917Y-83931267D01*
X194699789Y-83942407D01*
X194823844Y-84066462D01*
X194951112Y-84144961D01*
X194997837Y-84196909D01*
X195009060Y-84265871D01*
X194981216Y-84329954D01*
X194923148Y-84368810D01*
X194886016Y-84374500D01*
X189695089Y-84374500D01*
X189628050Y-84354815D01*
X189582295Y-84302011D01*
X189571731Y-84263102D01*
X189564999Y-84197201D01*
X189564998Y-84197200D01*
X189551572Y-84156684D01*
X189509814Y-84030666D01*
X189417712Y-83881344D01*
X189293656Y-83757288D01*
X189179154Y-83686663D01*
X189144336Y-83665187D01*
X189144331Y-83665185D01*
X189142862Y-83664698D01*
X188977797Y-83610001D01*
X188977795Y-83610000D01*
X188875010Y-83599500D01*
X188124998Y-83599500D01*
X188124980Y-83599501D01*
X188055767Y-83606572D01*
X187987074Y-83593802D01*
X187955485Y-83570895D01*
X187295081Y-82910491D01*
X187261596Y-82849168D01*
X187259404Y-82810207D01*
X187262999Y-82775016D01*
X187263000Y-82775009D01*
X187262999Y-81724992D01*
X187258549Y-81681433D01*
X187252499Y-81622203D01*
X187252498Y-81622200D01*
X187248595Y-81610421D01*
X187197314Y-81455666D01*
X187105212Y-81306344D01*
X186981156Y-81182288D01*
X186888388Y-81125069D01*
X186831836Y-81090187D01*
X186831831Y-81090185D01*
X186830362Y-81089698D01*
X186665297Y-81035001D01*
X186665295Y-81035000D01*
X186562516Y-81024500D01*
X186562509Y-81024500D01*
X186162000Y-81024500D01*
X186153314Y-81021949D01*
X186144353Y-81023238D01*
X186120312Y-81012259D01*
X186094961Y-81004815D01*
X186089033Y-80997974D01*
X186080797Y-80994213D01*
X186066507Y-80971978D01*
X186049206Y-80952011D01*
X186046918Y-80941496D01*
X186043023Y-80935435D01*
X186038000Y-80900500D01*
X186038000Y-80774495D01*
X186046228Y-80733128D01*
X186046083Y-80733090D01*
X186046676Y-80730873D01*
X186047439Y-80727042D01*
X186047536Y-80726806D01*
X186048187Y-80725236D01*
X186063000Y-80612720D01*
X186063000Y-80382863D01*
X186077013Y-80326928D01*
X186076981Y-80326915D01*
X186077070Y-80326698D01*
X186077646Y-80324402D01*
X186079308Y-80321291D01*
X186079312Y-80321286D01*
X186126463Y-80207451D01*
X186149994Y-80089146D01*
X186182378Y-80027238D01*
X186183875Y-80025714D01*
X186862769Y-79346819D01*
X186889694Y-79332117D01*
X186915514Y-79315524D01*
X186921716Y-79314632D01*
X186924092Y-79313335D01*
X186950449Y-79310501D01*
X187071607Y-79310501D01*
X187071611Y-79310500D01*
X187077740Y-79310500D01*
X188374548Y-79310500D01*
X188441587Y-79330185D01*
X188462228Y-79346818D01*
X189226641Y-80111232D01*
X189226642Y-80111233D01*
X189271793Y-80156384D01*
X189313766Y-80198357D01*
X189321787Y-80203717D01*
X189321786Y-80203717D01*
X189416210Y-80266809D01*
X189416212Y-80266810D01*
X189416214Y-80266811D01*
X189528035Y-80313129D01*
X189582434Y-80356966D01*
X189586108Y-80363363D01*
X189586395Y-80363187D01*
X189590185Y-80369331D01*
X189590186Y-80369334D01*
X189682288Y-80518656D01*
X189806344Y-80642712D01*
X189955666Y-80734814D01*
X190122203Y-80789999D01*
X190224991Y-80800500D01*
X191275008Y-80800499D01*
X191275016Y-80800498D01*
X191275019Y-80800498D01*
X191331302Y-80794748D01*
X191377797Y-80789999D01*
X191544334Y-80734814D01*
X191693656Y-80642712D01*
X191817712Y-80518656D01*
X191909814Y-80369334D01*
X191964999Y-80202797D01*
X191975500Y-80100009D01*
X191975499Y-79324992D01*
X191973416Y-79304604D01*
X191964999Y-79222203D01*
X191964998Y-79222200D01*
X191939582Y-79145500D01*
X191909814Y-79055666D01*
X191817712Y-78906344D01*
X191693656Y-78782288D01*
X191570923Y-78706586D01*
X191544336Y-78690187D01*
X191544331Y-78690185D01*
X191542862Y-78689698D01*
X191377797Y-78635001D01*
X191377795Y-78635000D01*
X191275010Y-78624500D01*
X190224998Y-78624500D01*
X190224980Y-78624501D01*
X190122203Y-78635000D01*
X190122200Y-78635001D01*
X189955668Y-78690185D01*
X189955659Y-78690189D01*
X189803532Y-78784022D01*
X189736140Y-78802462D01*
X189669476Y-78781539D01*
X189650755Y-78766164D01*
X189214921Y-78330330D01*
X189181436Y-78269007D01*
X189186420Y-78199315D01*
X189228292Y-78143382D01*
X189233692Y-78139560D01*
X189260289Y-78121789D01*
X189371789Y-78010289D01*
X189459394Y-77879179D01*
X189519737Y-77733497D01*
X189550500Y-77578842D01*
X189550500Y-77421158D01*
X189550500Y-77421155D01*
X189521167Y-77273692D01*
X189527394Y-77204100D01*
X189570257Y-77148923D01*
X189636146Y-77125678D01*
X189642784Y-77125500D01*
X192188298Y-77125500D01*
X192255337Y-77145185D01*
G37*
%TD.AperFunction*%
%TA.AperFunction,Conductor*%
G36*
X184646222Y-81137888D02*
G01*
X184700711Y-81139164D01*
X184758588Y-81178304D01*
X184786117Y-81242522D01*
X184787000Y-81257291D01*
X184787000Y-81549106D01*
X184788304Y-81555662D01*
X184788304Y-81555666D01*
X184788305Y-81555666D01*
X184809405Y-81661749D01*
X184809406Y-81661753D01*
X184809405Y-81661753D01*
X184811035Y-81669948D01*
X184811036Y-81669952D01*
X184858185Y-81783780D01*
X184858187Y-81783783D01*
X184858188Y-81783786D01*
X184885721Y-81824991D01*
X184926642Y-81886233D01*
X185013767Y-81973358D01*
X185013770Y-81973360D01*
X185021353Y-81980943D01*
X185050681Y-82010271D01*
X185084166Y-82071594D01*
X185087000Y-82097952D01*
X185087000Y-82775001D01*
X185087001Y-82775019D01*
X185097500Y-82877796D01*
X185097501Y-82877799D01*
X185130637Y-82977795D01*
X185152686Y-83044334D01*
X185244788Y-83193656D01*
X185368844Y-83317712D01*
X185434466Y-83358188D01*
X185453554Y-83369961D01*
X185500279Y-83421909D01*
X185511502Y-83490871D01*
X185483659Y-83554953D01*
X185425590Y-83593810D01*
X185388459Y-83599500D01*
X185174999Y-83599500D01*
X185174980Y-83599501D01*
X185105767Y-83606572D01*
X185103844Y-83606214D01*
X185102012Y-83606898D01*
X185069645Y-83599856D01*
X185037074Y-83593802D01*
X185035043Y-83592329D01*
X185033739Y-83592046D01*
X185005485Y-83570895D01*
X184952698Y-83518108D01*
X184952678Y-83518086D01*
X184861233Y-83426641D01*
X184815825Y-83396301D01*
X184815824Y-83396300D01*
X184810009Y-83392415D01*
X184758786Y-83358188D01*
X184678292Y-83324847D01*
X184661067Y-83317712D01*
X184644953Y-83311037D01*
X184634927Y-83309043D01*
X184584529Y-83299018D01*
X184524110Y-83287000D01*
X184524107Y-83287000D01*
X184524106Y-83287000D01*
X184231058Y-83287000D01*
X184221267Y-83284125D01*
X184211141Y-83285390D01*
X184188308Y-83274447D01*
X184164019Y-83267315D01*
X184155660Y-83258799D01*
X184148134Y-83255193D01*
X184125519Y-83228096D01*
X184056461Y-83116134D01*
X184038000Y-83051038D01*
X184038000Y-81257559D01*
X184057685Y-81190520D01*
X184110489Y-81144765D01*
X184129841Y-81137802D01*
X184130340Y-81137668D01*
X184178804Y-81137671D01*
X184179205Y-81134626D01*
X184187263Y-81135686D01*
X184187264Y-81135687D01*
X184299780Y-81150500D01*
X184299787Y-81150500D01*
X184525213Y-81150500D01*
X184525220Y-81150500D01*
X184637736Y-81135687D01*
X184637736Y-81135686D01*
X184645793Y-81134626D01*
X184646222Y-81137888D01*
G37*
%TD.AperFunction*%
%TA.AperFunction,Conductor*%
G36*
X184187263Y-72810686D02*
G01*
X184187264Y-72810687D01*
X184299780Y-72825500D01*
X184299787Y-72825500D01*
X184525213Y-72825500D01*
X184525220Y-72825500D01*
X184548754Y-72822401D01*
X184554748Y-72823336D01*
X184560508Y-72821419D01*
X184588865Y-72828655D01*
X184617785Y-72833165D01*
X184622325Y-72837194D01*
X184628208Y-72838696D01*
X184648151Y-72860114D01*
X184670043Y-72879543D01*
X184671684Y-72885388D01*
X184675821Y-72889831D01*
X184681018Y-72918634D01*
X184688930Y-72946811D01*
X184687426Y-72954142D01*
X184688229Y-72958590D01*
X184679502Y-72992788D01*
X184670760Y-73013896D01*
X184664167Y-73029815D01*
X184663641Y-73031084D01*
X184663639Y-73031088D01*
X184648537Y-73067546D01*
X184648535Y-73067554D01*
X184641193Y-73104465D01*
X184633458Y-73143359D01*
X184633457Y-73143366D01*
X184624500Y-73188392D01*
X184624500Y-74724106D01*
X184631766Y-74760636D01*
X184631768Y-74760645D01*
X184632464Y-74764142D01*
X184648537Y-74844951D01*
X184658869Y-74869894D01*
X184695688Y-74958785D01*
X184717617Y-74991603D01*
X184717618Y-74991606D01*
X184717619Y-74991606D01*
X184764141Y-75061231D01*
X184764144Y-75061235D01*
X184855586Y-75152677D01*
X184855608Y-75152697D01*
X185550681Y-75847770D01*
X185584166Y-75909093D01*
X185587000Y-75935451D01*
X185587000Y-76112727D01*
X185596963Y-76188394D01*
X185600356Y-76214172D01*
X185602874Y-76233292D01*
X185599899Y-76233683D01*
X185599899Y-76266316D01*
X185602874Y-76266708D01*
X185587000Y-76387272D01*
X185587000Y-76612727D01*
X185590994Y-76643061D01*
X185600855Y-76717962D01*
X185602874Y-76733292D01*
X185599899Y-76733683D01*
X185599899Y-76766316D01*
X185602874Y-76766708D01*
X185601813Y-76774762D01*
X185601813Y-76774764D01*
X185599107Y-76795315D01*
X185587000Y-76887272D01*
X185587000Y-76887280D01*
X185587000Y-77112720D01*
X185599030Y-77204100D01*
X185602874Y-77233292D01*
X185599899Y-77233683D01*
X185599899Y-77266316D01*
X185602874Y-77266708D01*
X185601813Y-77274762D01*
X185601813Y-77274764D01*
X185601172Y-77279631D01*
X185587000Y-77387272D01*
X185587000Y-77387280D01*
X185587000Y-77612720D01*
X185600847Y-77717901D01*
X185602874Y-77733292D01*
X185599870Y-77733687D01*
X185599870Y-77733941D01*
X185604036Y-77746929D01*
X185599879Y-77781978D01*
X185599745Y-77782480D01*
X185563437Y-77842175D01*
X185500619Y-77872764D01*
X185479940Y-77874500D01*
X182749500Y-77874500D01*
X182682461Y-77854815D01*
X182636706Y-77802011D01*
X182625500Y-77750500D01*
X182625500Y-74688394D01*
X182623670Y-74679197D01*
X182622553Y-74673580D01*
X182608095Y-74600892D01*
X182601463Y-74567548D01*
X182565219Y-74480048D01*
X182554312Y-74453715D01*
X182525577Y-74410711D01*
X182485858Y-74351267D01*
X182485856Y-74351264D01*
X182395637Y-74261045D01*
X182395606Y-74261016D01*
X181166888Y-73032298D01*
X181133403Y-72970975D01*
X181138387Y-72901283D01*
X181180259Y-72845350D01*
X181245723Y-72820933D01*
X181270746Y-72821677D01*
X181299780Y-72825500D01*
X181299787Y-72825500D01*
X181525213Y-72825500D01*
X181525220Y-72825500D01*
X181637736Y-72810687D01*
X181637736Y-72810686D01*
X181645795Y-72809626D01*
X181646198Y-72812689D01*
X181678802Y-72812689D01*
X181679205Y-72809626D01*
X181687263Y-72810686D01*
X181687264Y-72810687D01*
X181799780Y-72825500D01*
X181799787Y-72825500D01*
X182025213Y-72825500D01*
X182025220Y-72825500D01*
X182137736Y-72810687D01*
X182137736Y-72810686D01*
X182145795Y-72809626D01*
X182146198Y-72812689D01*
X182178802Y-72812689D01*
X182179205Y-72809626D01*
X182187263Y-72810686D01*
X182187264Y-72810687D01*
X182299780Y-72825500D01*
X182299787Y-72825500D01*
X182525213Y-72825500D01*
X182525220Y-72825500D01*
X182637736Y-72810687D01*
X182637736Y-72810686D01*
X182645795Y-72809626D01*
X182646198Y-72812689D01*
X182678802Y-72812689D01*
X182679205Y-72809626D01*
X182687263Y-72810686D01*
X182687264Y-72810687D01*
X182799780Y-72825500D01*
X182799787Y-72825500D01*
X183025213Y-72825500D01*
X183025220Y-72825500D01*
X183137736Y-72810687D01*
X183137736Y-72810686D01*
X183145795Y-72809626D01*
X183146198Y-72812689D01*
X183178802Y-72812689D01*
X183179205Y-72809626D01*
X183187263Y-72810686D01*
X183187264Y-72810687D01*
X183299780Y-72825500D01*
X183299787Y-72825500D01*
X183525213Y-72825500D01*
X183525220Y-72825500D01*
X183637736Y-72810687D01*
X183637736Y-72810686D01*
X183645795Y-72809626D01*
X183646198Y-72812689D01*
X183678802Y-72812689D01*
X183679205Y-72809626D01*
X183687263Y-72810686D01*
X183687264Y-72810687D01*
X183799780Y-72825500D01*
X183799787Y-72825500D01*
X184025213Y-72825500D01*
X184025220Y-72825500D01*
X184137736Y-72810687D01*
X184137736Y-72810686D01*
X184145795Y-72809626D01*
X184146198Y-72812689D01*
X184178802Y-72812689D01*
X184179205Y-72809626D01*
X184187263Y-72810686D01*
G37*
%TD.AperFunction*%
%TA.AperFunction,Conductor*%
G36*
X232516974Y-68918662D02*
G01*
X232543334Y-68920548D01*
X232552387Y-68926366D01*
X232559427Y-68927898D01*
X232587681Y-68949049D01*
X232681344Y-69042712D01*
X232815597Y-69125519D01*
X232862321Y-69177465D01*
X232874500Y-69231057D01*
X232874500Y-75018942D01*
X232854815Y-75085981D01*
X232815598Y-75124479D01*
X232782030Y-75145185D01*
X232681342Y-75207289D01*
X232587681Y-75300951D01*
X232526358Y-75334436D01*
X232456666Y-75329452D01*
X232412319Y-75300951D01*
X232318657Y-75207289D01*
X232318656Y-75207288D01*
X232197453Y-75132530D01*
X232169336Y-75115187D01*
X232169331Y-75115185D01*
X232161892Y-75112720D01*
X232002797Y-75060001D01*
X232002795Y-75060000D01*
X231900010Y-75049500D01*
X231099998Y-75049500D01*
X231099980Y-75049501D01*
X230997203Y-75060000D01*
X230997200Y-75060001D01*
X230830668Y-75115185D01*
X230830663Y-75115187D01*
X230681342Y-75207289D01*
X230557289Y-75331342D01*
X230465187Y-75480663D01*
X230465185Y-75480668D01*
X230410001Y-75647201D01*
X230410000Y-75647207D01*
X230407414Y-75672521D01*
X230381016Y-75737212D01*
X230355955Y-75760254D01*
X230355975Y-75760278D01*
X230355558Y-75760619D01*
X230352959Y-75763010D01*
X230351272Y-75764137D01*
X230351265Y-75764143D01*
X228802227Y-77313181D01*
X228740904Y-77346666D01*
X228714546Y-77349500D01*
X227677129Y-77349500D01*
X227677123Y-77349501D01*
X227617516Y-77355908D01*
X227482671Y-77406202D01*
X227482664Y-77406206D01*
X227367455Y-77492452D01*
X227367452Y-77492455D01*
X227281206Y-77607664D01*
X227281202Y-77607671D01*
X227230908Y-77742516D01*
X227228625Y-77763757D01*
X227201886Y-77828308D01*
X227144493Y-77868155D01*
X227105336Y-77874500D01*
X221944664Y-77874500D01*
X221877625Y-77854815D01*
X221831870Y-77802011D01*
X221821374Y-77763754D01*
X221819565Y-77746929D01*
X221819091Y-77742517D01*
X221775447Y-77625500D01*
X221768797Y-77607671D01*
X221768793Y-77607664D01*
X221682547Y-77492455D01*
X221682544Y-77492452D01*
X221567335Y-77406206D01*
X221567328Y-77406202D01*
X221432482Y-77355908D01*
X221432483Y-77355908D01*
X221372883Y-77349501D01*
X221372881Y-77349500D01*
X221372873Y-77349500D01*
X221372865Y-77349500D01*
X220335452Y-77349500D01*
X220268413Y-77329815D01*
X220247771Y-77313181D01*
X217793411Y-74858821D01*
X217785860Y-74851270D01*
X217785858Y-74851267D01*
X217698733Y-74764142D01*
X217638815Y-74724106D01*
X217596286Y-74695688D01*
X217596287Y-74695688D01*
X217596285Y-74695687D01*
X217522905Y-74665293D01*
X217522903Y-74665292D01*
X217515792Y-74662347D01*
X217482452Y-74648537D01*
X217413223Y-74634767D01*
X217408833Y-74633893D01*
X217408823Y-74633891D01*
X217361611Y-74624500D01*
X217361607Y-74624500D01*
X217361606Y-74624500D01*
X217159452Y-74624500D01*
X217092413Y-74604815D01*
X217046658Y-74552011D01*
X217036714Y-74482853D01*
X217065739Y-74419297D01*
X217071771Y-74412819D01*
X220247771Y-71236818D01*
X220309094Y-71203333D01*
X220335452Y-71200499D01*
X221372871Y-71200499D01*
X221372872Y-71200499D01*
X221432483Y-71194091D01*
X221567331Y-71143796D01*
X221682546Y-71057546D01*
X221768796Y-70942331D01*
X221819091Y-70807483D01*
X221819091Y-70807482D01*
X221821375Y-70786243D01*
X221848114Y-70721692D01*
X221905507Y-70681845D01*
X221944664Y-70675500D01*
X227105336Y-70675500D01*
X227172375Y-70695185D01*
X227218130Y-70747989D01*
X227228626Y-70786246D01*
X227230909Y-70807483D01*
X227281202Y-70942328D01*
X227281206Y-70942335D01*
X227367452Y-71057544D01*
X227367455Y-71057547D01*
X227482664Y-71143793D01*
X227482671Y-71143797D01*
X227617517Y-71194091D01*
X227617516Y-71194091D01*
X227624444Y-71194835D01*
X227677127Y-71200500D01*
X229322872Y-71200499D01*
X229382483Y-71194091D01*
X229517331Y-71143796D01*
X229632546Y-71057546D01*
X229718796Y-70942331D01*
X229769091Y-70807483D01*
X229775500Y-70747873D01*
X229775499Y-69710450D01*
X229795183Y-69643412D01*
X229811813Y-69622775D01*
X230448931Y-68985657D01*
X230510252Y-68952174D01*
X230579944Y-68957158D01*
X230624291Y-68985659D01*
X230681344Y-69042712D01*
X230830666Y-69134814D01*
X230997203Y-69189999D01*
X231099991Y-69200500D01*
X231900008Y-69200499D01*
X231900016Y-69200498D01*
X231900019Y-69200498D01*
X231956302Y-69194748D01*
X232002797Y-69189999D01*
X232169334Y-69134814D01*
X232318656Y-69042712D01*
X232412319Y-68949049D01*
X232420264Y-68944710D01*
X232425690Y-68937463D01*
X232450449Y-68928228D01*
X232473642Y-68915564D01*
X232482671Y-68916209D01*
X232491154Y-68913046D01*
X232516974Y-68918662D01*
G37*
%TD.AperFunction*%
%TA.AperFunction,Conductor*%
G36*
X172817539Y-75479685D02*
G01*
X172863294Y-75532489D01*
X172874500Y-75584000D01*
X172874500Y-77128048D01*
X172868261Y-77149293D01*
X172866682Y-77171381D01*
X172858609Y-77182164D01*
X172854815Y-77195087D01*
X172838083Y-77209585D01*
X172824811Y-77227315D01*
X172812188Y-77232022D01*
X172802011Y-77240842D01*
X172780094Y-77243993D01*
X172759346Y-77251732D01*
X172746185Y-77248869D01*
X172732853Y-77250786D01*
X172712709Y-77241586D01*
X172691073Y-77236880D01*
X172673345Y-77223610D01*
X172669297Y-77221761D01*
X172662819Y-77215730D01*
X172592274Y-77145185D01*
X172488858Y-77041769D01*
X172488857Y-77041767D01*
X172401732Y-76954642D01*
X172401731Y-76954641D01*
X172401730Y-76954640D01*
X172349880Y-76919995D01*
X172349877Y-76919993D01*
X172343688Y-76915858D01*
X172299285Y-76886188D01*
X172215450Y-76851463D01*
X172211066Y-76849647D01*
X172185457Y-76839039D01*
X172185451Y-76839037D01*
X172101462Y-76822331D01*
X172083034Y-76818665D01*
X172064607Y-76815000D01*
X172064606Y-76815000D01*
X172064605Y-76815000D01*
X164990952Y-76815000D01*
X164923913Y-76795315D01*
X164903271Y-76778681D01*
X164163635Y-76039045D01*
X164155860Y-76031270D01*
X164155858Y-76031267D01*
X164068733Y-75944142D01*
X164000774Y-75898733D01*
X163977709Y-75883321D01*
X163966285Y-75875687D01*
X163915893Y-75854815D01*
X163899205Y-75847903D01*
X163844803Y-75804063D01*
X163832097Y-75780794D01*
X163818326Y-75747547D01*
X163804314Y-75713719D01*
X163804313Y-75713717D01*
X163775876Y-75671158D01*
X163775876Y-75671157D01*
X163763671Y-75652892D01*
X163742792Y-75586215D01*
X163761276Y-75518835D01*
X163813254Y-75472144D01*
X163866772Y-75460000D01*
X172750500Y-75460000D01*
X172817539Y-75479685D01*
G37*
%TD.AperFunction*%
%TA.AperFunction,Conductor*%
G36*
X188788908Y-75145185D02*
G01*
X188824977Y-75180619D01*
X188825648Y-75181623D01*
X188846518Y-75248302D01*
X188828024Y-75315680D01*
X188776040Y-75362364D01*
X188722537Y-75374500D01*
X188170059Y-75374500D01*
X188103020Y-75354815D01*
X188057265Y-75302011D01*
X188050286Y-75282599D01*
X188050018Y-75281599D01*
X188051677Y-75211749D01*
X188090837Y-75153885D01*
X188155064Y-75126378D01*
X188169791Y-75125500D01*
X188721869Y-75125500D01*
X188788908Y-75145185D01*
G37*
%TD.AperFunction*%
%TA.AperFunction,Conductor*%
G36*
X180006587Y-66145185D02*
G01*
X180027229Y-66161819D01*
X180250681Y-66385271D01*
X180284166Y-66446594D01*
X180287000Y-66472952D01*
X180287000Y-67553535D01*
X180267315Y-67620574D01*
X180214511Y-67666329D01*
X180145353Y-67676273D01*
X180134464Y-67673707D01*
X180134420Y-67673918D01*
X180127803Y-67672501D01*
X180025010Y-67662000D01*
X178974998Y-67662000D01*
X178974980Y-67662001D01*
X178872203Y-67672500D01*
X178872200Y-67672501D01*
X178705668Y-67727685D01*
X178705663Y-67727687D01*
X178556342Y-67819789D01*
X178432289Y-67943842D01*
X178340187Y-68093163D01*
X178340185Y-68093168D01*
X178335085Y-68108560D01*
X178285001Y-68259703D01*
X178285001Y-68259704D01*
X178285000Y-68259704D01*
X178274500Y-68362483D01*
X178274500Y-69137501D01*
X178274501Y-69137519D01*
X178285000Y-69240296D01*
X178285001Y-69240299D01*
X178317105Y-69337181D01*
X178340186Y-69406834D01*
X178432288Y-69556156D01*
X178556344Y-69680212D01*
X178705666Y-69772314D01*
X178872203Y-69827499D01*
X178974991Y-69838000D01*
X179163000Y-69837999D01*
X179230039Y-69857683D01*
X179275794Y-69910487D01*
X179287000Y-69961999D01*
X179287000Y-70500500D01*
X179267315Y-70567539D01*
X179214511Y-70613294D01*
X179163000Y-70624500D01*
X178742801Y-70624500D01*
X178675762Y-70604815D01*
X178630007Y-70552011D01*
X178625095Y-70539504D01*
X178597314Y-70455666D01*
X178505212Y-70306344D01*
X178381156Y-70182288D01*
X178231834Y-70090186D01*
X178065297Y-70035001D01*
X178065295Y-70035000D01*
X177962510Y-70024500D01*
X177187498Y-70024500D01*
X177187480Y-70024501D01*
X177084703Y-70035000D01*
X177084700Y-70035001D01*
X176918168Y-70090185D01*
X176918163Y-70090187D01*
X176768842Y-70182289D01*
X176644789Y-70306342D01*
X176552687Y-70455663D01*
X176552686Y-70455666D01*
X176497501Y-70622203D01*
X176497501Y-70622204D01*
X176497500Y-70622204D01*
X176487000Y-70724983D01*
X176487000Y-71775001D01*
X176487001Y-71775019D01*
X176497500Y-71877796D01*
X176497501Y-71877799D01*
X176552685Y-72044331D01*
X176552687Y-72044336D01*
X176573972Y-72078844D01*
X176644788Y-72193656D01*
X176768844Y-72317712D01*
X176918166Y-72409814D01*
X177084703Y-72464999D01*
X177187491Y-72475500D01*
X177215192Y-72475499D01*
X177282229Y-72495181D01*
X177327986Y-72547984D01*
X177337931Y-72617142D01*
X177329754Y-72646951D01*
X177276814Y-72774760D01*
X177276813Y-72774764D01*
X177262000Y-72887272D01*
X177262000Y-73112727D01*
X177277874Y-73233292D01*
X177274899Y-73233683D01*
X177274899Y-73266316D01*
X177277874Y-73266708D01*
X177276813Y-73274762D01*
X177276813Y-73274764D01*
X177273438Y-73300393D01*
X177262000Y-73387272D01*
X177262000Y-73612727D01*
X177268116Y-73659179D01*
X177276485Y-73722748D01*
X177277874Y-73733292D01*
X177274899Y-73733683D01*
X177274899Y-73766316D01*
X177277874Y-73766708D01*
X177276813Y-73774762D01*
X177276813Y-73774764D01*
X177275490Y-73784815D01*
X177262000Y-73887272D01*
X177262000Y-74112727D01*
X177267176Y-74152039D01*
X177274675Y-74209000D01*
X177277874Y-74233292D01*
X177274870Y-74233687D01*
X177274870Y-74233941D01*
X177279036Y-74246929D01*
X177274879Y-74281978D01*
X177274745Y-74282480D01*
X177238437Y-74342175D01*
X177175619Y-74372764D01*
X177154940Y-74374500D01*
X176310453Y-74374500D01*
X176243414Y-74354815D01*
X176222772Y-74338181D01*
X175986819Y-74102228D01*
X175953334Y-74040905D01*
X175950500Y-74014547D01*
X175950500Y-73906383D01*
X175950499Y-73906379D01*
X175928582Y-73796195D01*
X175913973Y-73722749D01*
X175842322Y-73549769D01*
X175842321Y-73549768D01*
X175842318Y-73549762D01*
X175738302Y-73394092D01*
X175738299Y-73394088D01*
X175605911Y-73261700D01*
X175605907Y-73261697D01*
X175450237Y-73157681D01*
X175450228Y-73157676D01*
X175277251Y-73086027D01*
X175277243Y-73086025D01*
X175093620Y-73049500D01*
X175093616Y-73049500D01*
X174979275Y-73049500D01*
X174959063Y-73043565D01*
X174938025Y-73042438D01*
X174926209Y-73033918D01*
X174912236Y-73029815D01*
X174898442Y-73013896D01*
X174881352Y-73001573D01*
X174876018Y-72988017D01*
X174866481Y-72977011D01*
X174863482Y-72956159D01*
X174855769Y-72936555D01*
X174857098Y-72911755D01*
X174856537Y-72907853D01*
X174857657Y-72901312D01*
X174861914Y-72879907D01*
X174868867Y-72844952D01*
X174875500Y-72811607D01*
X174875500Y-72688393D01*
X174875500Y-69188394D01*
X174870046Y-69160976D01*
X174859630Y-69108607D01*
X174858096Y-69100892D01*
X174858096Y-69100891D01*
X174851464Y-69067553D01*
X174851463Y-69067552D01*
X174851463Y-69067548D01*
X174805792Y-68957289D01*
X174804312Y-68953716D01*
X174804307Y-68953707D01*
X174735858Y-68851267D01*
X174735855Y-68851263D01*
X174645637Y-68761045D01*
X174645606Y-68761016D01*
X173993150Y-68108560D01*
X173985860Y-68101270D01*
X173985858Y-68101267D01*
X173898733Y-68014142D01*
X173847509Y-67979915D01*
X173796286Y-67945688D01*
X173796283Y-67945686D01*
X173796280Y-67945685D01*
X173722603Y-67915168D01*
X173722601Y-67915167D01*
X173715792Y-67912347D01*
X173682452Y-67898537D01*
X173622029Y-67886518D01*
X173617306Y-67885578D01*
X173617304Y-67885578D01*
X173561610Y-67874500D01*
X173561607Y-67874500D01*
X173561606Y-67874500D01*
X163719977Y-67874500D01*
X163652938Y-67854815D01*
X163607183Y-67802011D01*
X163597239Y-67732853D01*
X163626264Y-67669297D01*
X163632296Y-67662819D01*
X165133296Y-66161819D01*
X165194619Y-66128334D01*
X165220977Y-66125500D01*
X179939548Y-66125500D01*
X180006587Y-66145185D01*
G37*
%TD.AperFunction*%
%TA.AperFunction,Conductor*%
G36*
X169564311Y-69145185D02*
G01*
X169610066Y-69197989D01*
X169620010Y-69267147D01*
X169590985Y-69330703D01*
X169584953Y-69337180D01*
X165396016Y-73526117D01*
X165396013Y-73526120D01*
X165372371Y-73549762D01*
X165308888Y-73613244D01*
X165279818Y-73656750D01*
X165279808Y-73656765D01*
X165278196Y-73659179D01*
X165240434Y-73715692D01*
X165231812Y-73736505D01*
X165227033Y-73744447D01*
X165207858Y-73762073D01*
X165191513Y-73782357D01*
X165182548Y-73785340D01*
X165175595Y-73791733D01*
X165149934Y-73796195D01*
X165125219Y-73804421D01*
X165120794Y-73804500D01*
X164822353Y-73804500D01*
X164755314Y-73784815D01*
X164709559Y-73732011D01*
X164699615Y-73662853D01*
X164707792Y-73633048D01*
X164769735Y-73483501D01*
X164769737Y-73483497D01*
X164800500Y-73328842D01*
X164800500Y-73171158D01*
X164800500Y-73171155D01*
X164800499Y-73171153D01*
X164769739Y-73016511D01*
X164769738Y-73016508D01*
X164769737Y-73016503D01*
X164759937Y-72992844D01*
X164758311Y-72984670D01*
X164755523Y-72980331D01*
X164750500Y-72945396D01*
X164750500Y-72804604D01*
X164759939Y-72757151D01*
X164764224Y-72746806D01*
X164769737Y-72733497D01*
X164800500Y-72578842D01*
X164800500Y-72421158D01*
X164800500Y-72421155D01*
X164800499Y-72421153D01*
X164769739Y-72266511D01*
X164769738Y-72266508D01*
X164769737Y-72266503D01*
X164759937Y-72242844D01*
X164758311Y-72234670D01*
X164755523Y-72230331D01*
X164750500Y-72195396D01*
X164750500Y-72054604D01*
X164759939Y-72007151D01*
X164760845Y-72004963D01*
X164769737Y-71983497D01*
X164800500Y-71828842D01*
X164800500Y-71671158D01*
X164800500Y-71671155D01*
X164800499Y-71671153D01*
X164789438Y-71615548D01*
X164769737Y-71516503D01*
X164769735Y-71516498D01*
X164709397Y-71370827D01*
X164709390Y-71370814D01*
X164621789Y-71239711D01*
X164621786Y-71239707D01*
X164510292Y-71128213D01*
X164510288Y-71128210D01*
X164379185Y-71040609D01*
X164379172Y-71040602D01*
X164233501Y-70980264D01*
X164233489Y-70980261D01*
X164078845Y-70949500D01*
X164078842Y-70949500D01*
X163921158Y-70949500D01*
X163921155Y-70949500D01*
X163766510Y-70980261D01*
X163766498Y-70980264D01*
X163620827Y-71040602D01*
X163620814Y-71040609D01*
X163489711Y-71128210D01*
X163489707Y-71128213D01*
X163378213Y-71239707D01*
X163378210Y-71239711D01*
X163290609Y-71370814D01*
X163290602Y-71370827D01*
X163230264Y-71516498D01*
X163230261Y-71516510D01*
X163199500Y-71671153D01*
X163199500Y-71828846D01*
X163230261Y-71983489D01*
X163230263Y-71983497D01*
X163240061Y-72007151D01*
X163241687Y-72015328D01*
X163244477Y-72019669D01*
X163249500Y-72054604D01*
X163249500Y-72195396D01*
X163240062Y-72242844D01*
X163230263Y-72266503D01*
X163230262Y-72266506D01*
X163230261Y-72266509D01*
X163207724Y-72379807D01*
X163175339Y-72441718D01*
X163114622Y-72476292D01*
X163084934Y-72478288D01*
X163084934Y-72479500D01*
X162921155Y-72479500D01*
X162766511Y-72510260D01*
X162766506Y-72510262D01*
X162766504Y-72510262D01*
X162766503Y-72510263D01*
X162742844Y-72520062D01*
X162734670Y-72521688D01*
X162730331Y-72524477D01*
X162695396Y-72529500D01*
X162666729Y-72529500D01*
X162623396Y-72521682D01*
X162527482Y-72485908D01*
X162527483Y-72485908D01*
X162467883Y-72479501D01*
X162467881Y-72479500D01*
X162467873Y-72479500D01*
X162467865Y-72479500D01*
X161234556Y-72479500D01*
X161167517Y-72459815D01*
X161147367Y-72441276D01*
X161146262Y-72442382D01*
X161033367Y-72329487D01*
X161033365Y-72329485D01*
X160942478Y-72277011D01*
X160902136Y-72253719D01*
X160814849Y-72230331D01*
X160755766Y-72214500D01*
X160646500Y-72214500D01*
X160579461Y-72194815D01*
X160533706Y-72142011D01*
X160522500Y-72090500D01*
X160522500Y-71358549D01*
X160542185Y-71291510D01*
X160558819Y-71270868D01*
X162667869Y-69161819D01*
X162729192Y-69128334D01*
X162755550Y-69125500D01*
X169497272Y-69125500D01*
X169564311Y-69145185D01*
G37*
%TD.AperFunction*%
%TA.AperFunction,Conductor*%
G36*
X194138214Y-65384740D02*
G01*
X194170017Y-65392857D01*
X194171582Y-65394538D01*
X194173784Y-65395185D01*
X194195251Y-65419960D01*
X194217628Y-65443993D01*
X194218036Y-65446254D01*
X194219539Y-65447989D01*
X194224207Y-65480455D01*
X194230035Y-65512753D01*
X194229277Y-65515719D01*
X194229483Y-65517147D01*
X194221307Y-65546950D01*
X194210262Y-65573617D01*
X194189186Y-65624500D01*
X194188254Y-65626748D01*
X194188036Y-65627275D01*
X194173471Y-65700501D01*
X194164000Y-65748113D01*
X194164000Y-66753022D01*
X194144315Y-66820061D01*
X194127681Y-66840703D01*
X192087181Y-68881203D01*
X192025858Y-68914688D01*
X191956166Y-68909704D01*
X191900233Y-68867832D01*
X191875816Y-68802368D01*
X191875500Y-68793522D01*
X191875500Y-66560452D01*
X191895185Y-66493413D01*
X191911819Y-66472771D01*
X192972772Y-65411819D01*
X193034095Y-65378334D01*
X193060453Y-65375500D01*
X194106745Y-65375500D01*
X194138214Y-65384740D01*
G37*
%TD.AperFunction*%
%TA.AperFunction,Conductor*%
G36*
X232293334Y-60170548D02*
G01*
X232337681Y-60199049D01*
X232431344Y-60292712D01*
X232580666Y-60384814D01*
X232747203Y-60439999D01*
X232763101Y-60441623D01*
X232827793Y-60468018D01*
X232867945Y-60525198D01*
X232874500Y-60564981D01*
X232874500Y-65703500D01*
X232854815Y-65770539D01*
X232802011Y-65816294D01*
X232750500Y-65827500D01*
X222277606Y-65827500D01*
X222154393Y-65827500D01*
X222133585Y-65831639D01*
X222112378Y-65835857D01*
X222112377Y-65835856D01*
X222033553Y-65851535D01*
X222033545Y-65851538D01*
X221919716Y-65898687D01*
X221837364Y-65953714D01*
X221837363Y-65953715D01*
X221817263Y-65967144D01*
X221817262Y-65967145D01*
X219337181Y-68447227D01*
X219275858Y-68480712D01*
X219206166Y-68475728D01*
X219150233Y-68433856D01*
X219125816Y-68368392D01*
X219125500Y-68359546D01*
X219125500Y-63960451D01*
X219145185Y-63893412D01*
X219161814Y-63872774D01*
X220247771Y-62786817D01*
X220309094Y-62753333D01*
X220335452Y-62750499D01*
X221372871Y-62750499D01*
X221372872Y-62750499D01*
X221432483Y-62744091D01*
X221567331Y-62693796D01*
X221682546Y-62607546D01*
X221768796Y-62492331D01*
X221819091Y-62357483D01*
X221821375Y-62336243D01*
X221848114Y-62271692D01*
X221905507Y-62231845D01*
X221944664Y-62225500D01*
X227105336Y-62225500D01*
X227172375Y-62245185D01*
X227218130Y-62297989D01*
X227228626Y-62336246D01*
X227230909Y-62357483D01*
X227281202Y-62492328D01*
X227281206Y-62492335D01*
X227367452Y-62607544D01*
X227367455Y-62607547D01*
X227482664Y-62693793D01*
X227482671Y-62693797D01*
X227617517Y-62744091D01*
X227617516Y-62744091D01*
X227624444Y-62744835D01*
X227677127Y-62750500D01*
X229322872Y-62750499D01*
X229382483Y-62744091D01*
X229517331Y-62693796D01*
X229632546Y-62607546D01*
X229718796Y-62492331D01*
X229769091Y-62357483D01*
X229775500Y-62297873D01*
X229775499Y-61660450D01*
X229795183Y-61593412D01*
X229811813Y-61572775D01*
X230897771Y-60486818D01*
X230959094Y-60453333D01*
X230985452Y-60450499D01*
X231650002Y-60450499D01*
X231650008Y-60450499D01*
X231752797Y-60439999D01*
X231919334Y-60384814D01*
X232068656Y-60292712D01*
X232162319Y-60199049D01*
X232223642Y-60165564D01*
X232293334Y-60170548D01*
G37*
%TD.AperFunction*%
%TA.AperFunction,Conductor*%
G36*
X235192539Y-41520185D02*
G01*
X235238294Y-41572989D01*
X235249500Y-41624500D01*
X235249500Y-106375500D01*
X235229815Y-106442539D01*
X235177011Y-106488294D01*
X235125500Y-106499500D01*
X153624500Y-106499500D01*
X153557461Y-106479815D01*
X153511706Y-106427011D01*
X153500500Y-106375500D01*
X153500500Y-99049980D01*
X156779500Y-99049980D01*
X156779500Y-104450019D01*
X156790001Y-104552801D01*
X156845184Y-104719333D01*
X156845189Y-104719344D01*
X156937285Y-104868653D01*
X156937288Y-104868657D01*
X157061342Y-104992711D01*
X157061346Y-104992714D01*
X157210655Y-105084810D01*
X157210658Y-105084811D01*
X157210664Y-105084815D01*
X157377200Y-105139999D01*
X157479988Y-105150500D01*
X157479993Y-105150500D01*
X163480007Y-105150500D01*
X163480012Y-105150500D01*
X163582800Y-105139999D01*
X163749336Y-105084815D01*
X163898657Y-104992712D01*
X164022712Y-104868657D01*
X164114815Y-104719336D01*
X164169999Y-104552800D01*
X164180500Y-104450012D01*
X164180500Y-103624500D01*
X164200185Y-103557461D01*
X164252989Y-103511706D01*
X164304500Y-103500500D01*
X165055619Y-103500500D01*
X165122658Y-103520185D01*
X165168413Y-103572989D01*
X165178698Y-103626834D01*
X165179500Y-103626834D01*
X165179500Y-104430001D01*
X165179501Y-104430019D01*
X165190000Y-104532796D01*
X165190001Y-104532799D01*
X165245185Y-104699331D01*
X165245187Y-104699336D01*
X165257521Y-104719333D01*
X165337288Y-104848656D01*
X165461344Y-104972712D01*
X165610666Y-105064814D01*
X165777203Y-105119999D01*
X165879991Y-105130500D01*
X167680008Y-105130499D01*
X167782797Y-105119999D01*
X167949334Y-105064814D01*
X168098656Y-104972712D01*
X168222712Y-104848656D01*
X168305519Y-104714402D01*
X168357467Y-104667679D01*
X168411058Y-104655500D01*
X170905270Y-104655500D01*
X170972309Y-104675185D01*
X170992951Y-104691819D01*
X171081344Y-104780212D01*
X171230666Y-104872314D01*
X171397203Y-104927499D01*
X171499991Y-104938000D01*
X172500008Y-104937999D01*
X172500016Y-104937998D01*
X172500019Y-104937998D01*
X172556302Y-104932248D01*
X172602797Y-104927499D01*
X172769334Y-104872314D01*
X172918656Y-104780212D01*
X173042712Y-104656156D01*
X173134814Y-104506834D01*
X173189999Y-104340297D01*
X173200500Y-104237509D01*
X173200500Y-104024500D01*
X173220185Y-103957461D01*
X173272989Y-103911706D01*
X173324500Y-103900500D01*
X174780501Y-103900500D01*
X174847540Y-103920185D01*
X174893295Y-103972989D01*
X174904501Y-104024500D01*
X174904501Y-104325018D01*
X174915000Y-104427796D01*
X174915001Y-104427799D01*
X174956423Y-104552800D01*
X174970186Y-104594334D01*
X175062288Y-104743656D01*
X175186344Y-104867712D01*
X175335666Y-104959814D01*
X175502203Y-105014999D01*
X175604991Y-105025500D01*
X177005008Y-105025499D01*
X177107797Y-105014999D01*
X177274334Y-104959814D01*
X177423656Y-104867712D01*
X177547712Y-104743656D01*
X177639814Y-104594334D01*
X177694999Y-104427797D01*
X177705500Y-104325009D01*
X177705500Y-104024500D01*
X177725185Y-103957461D01*
X177777989Y-103911706D01*
X177829500Y-103900500D01*
X180220483Y-103900500D01*
X180287522Y-103920185D01*
X180333277Y-103972989D01*
X180338186Y-103985489D01*
X180357686Y-104044334D01*
X180449788Y-104193656D01*
X180573844Y-104317712D01*
X180723166Y-104409814D01*
X180889703Y-104464999D01*
X180992491Y-104475500D01*
X181792508Y-104475499D01*
X181792516Y-104475498D01*
X181792519Y-104475498D01*
X181848802Y-104469748D01*
X181895297Y-104464999D01*
X182061834Y-104409814D01*
X182211156Y-104317712D01*
X182304819Y-104224049D01*
X182366142Y-104190564D01*
X182435834Y-104195548D01*
X182480181Y-104224049D01*
X182573844Y-104317712D01*
X182723166Y-104409814D01*
X182889703Y-104464999D01*
X182992491Y-104475500D01*
X183792508Y-104475499D01*
X183792516Y-104475498D01*
X183792519Y-104475498D01*
X183848802Y-104469748D01*
X183895297Y-104464999D01*
X184061834Y-104409814D01*
X184211156Y-104317712D01*
X184335212Y-104193656D01*
X184427314Y-104044334D01*
X184446811Y-103985493D01*
X184486584Y-103928051D01*
X184551100Y-103901228D01*
X184564517Y-103900500D01*
X184968885Y-103900500D01*
X185035924Y-103920185D01*
X185068606Y-103953571D01*
X185069849Y-103952669D01*
X185193028Y-104122213D01*
X185337786Y-104266971D01*
X185438713Y-104340297D01*
X185503390Y-104387287D01*
X185619607Y-104446503D01*
X185685776Y-104480218D01*
X185685778Y-104480218D01*
X185685781Y-104480220D01*
X185767697Y-104506836D01*
X185880465Y-104543477D01*
X185939328Y-104552800D01*
X186082648Y-104575500D01*
X186082649Y-104575500D01*
X186287351Y-104575500D01*
X186287352Y-104575500D01*
X186489534Y-104543477D01*
X186684219Y-104480220D01*
X186866610Y-104387287D01*
X186995482Y-104293657D01*
X187032213Y-104266971D01*
X187032215Y-104266968D01*
X187032219Y-104266966D01*
X187176966Y-104122219D01*
X187176968Y-104122215D01*
X187176971Y-104122213D01*
X187276300Y-103985496D01*
X187297287Y-103956610D01*
X187390220Y-103774219D01*
X187453477Y-103579534D01*
X187485500Y-103377352D01*
X187485500Y-103172648D01*
X187469070Y-103068916D01*
X187453477Y-102970465D01*
X187401709Y-102811142D01*
X187390220Y-102775781D01*
X187390218Y-102775778D01*
X187390218Y-102775776D01*
X187365940Y-102728129D01*
X187338861Y-102674983D01*
X192504500Y-102674983D01*
X192504500Y-103875001D01*
X192504501Y-103875018D01*
X192515000Y-103977796D01*
X192515001Y-103977799D01*
X192555752Y-104100776D01*
X192570186Y-104144334D01*
X192662288Y-104293656D01*
X192786344Y-104417712D01*
X192935666Y-104509814D01*
X193102203Y-104564999D01*
X193204991Y-104575500D01*
X194405008Y-104575499D01*
X194507797Y-104564999D01*
X194674334Y-104509814D01*
X194823656Y-104417712D01*
X194947712Y-104293656D01*
X195039814Y-104144334D01*
X195092448Y-103985493D01*
X195132219Y-103928051D01*
X195196735Y-103901228D01*
X195210153Y-103900500D01*
X195687983Y-103900500D01*
X195755022Y-103920185D01*
X195800777Y-103972989D01*
X195805686Y-103985489D01*
X195825186Y-104044334D01*
X195917288Y-104193656D01*
X196041344Y-104317712D01*
X196190666Y-104409814D01*
X196357203Y-104464999D01*
X196459991Y-104475500D01*
X197260008Y-104475499D01*
X197260016Y-104475498D01*
X197260019Y-104475498D01*
X197316302Y-104469748D01*
X197362797Y-104464999D01*
X197529334Y-104409814D01*
X197678656Y-104317712D01*
X197772319Y-104224049D01*
X197833642Y-104190564D01*
X197903334Y-104195548D01*
X197947681Y-104224049D01*
X198041344Y-104317712D01*
X198190666Y-104409814D01*
X198357203Y-104464999D01*
X198459991Y-104475500D01*
X199260008Y-104475499D01*
X199260016Y-104475498D01*
X199260019Y-104475498D01*
X199316302Y-104469748D01*
X199362797Y-104464999D01*
X199529334Y-104409814D01*
X199678656Y-104317712D01*
X199802712Y-104193656D01*
X199894814Y-104044334D01*
X199914311Y-103985493D01*
X199954084Y-103928051D01*
X200018600Y-103901228D01*
X200032017Y-103900500D01*
X201954107Y-103900500D01*
X202014529Y-103888481D01*
X202074952Y-103876463D01*
X202108292Y-103862652D01*
X202188786Y-103829312D01*
X202240009Y-103795084D01*
X202291233Y-103760858D01*
X202378358Y-103673733D01*
X202378360Y-103673729D01*
X202465273Y-103586815D01*
X202526595Y-103553333D01*
X202552952Y-103550499D01*
X203305002Y-103550499D01*
X203305008Y-103550499D01*
X203407797Y-103539999D01*
X203574334Y-103484814D01*
X203723656Y-103392712D01*
X203847712Y-103268656D01*
X203939814Y-103119334D01*
X203994999Y-102952797D01*
X204005500Y-102850009D01*
X204005499Y-102049992D01*
X204004904Y-102044172D01*
X203994999Y-101947203D01*
X203994998Y-101947200D01*
X203978859Y-101898495D01*
X203939814Y-101780666D01*
X203847712Y-101631344D01*
X203723656Y-101507288D01*
X203574334Y-101415186D01*
X203407797Y-101360001D01*
X203407795Y-101360000D01*
X203305010Y-101349500D01*
X202304998Y-101349500D01*
X202304980Y-101349501D01*
X202202203Y-101360000D01*
X202202200Y-101360001D01*
X202035668Y-101415185D01*
X202035663Y-101415187D01*
X201886342Y-101507289D01*
X201762289Y-101631342D01*
X201670187Y-101780663D01*
X201670186Y-101780666D01*
X201615001Y-101947203D01*
X201615001Y-101947204D01*
X201615000Y-101947204D01*
X201604500Y-102049983D01*
X201604500Y-102049991D01*
X201604500Y-102344820D01*
X201604501Y-102525500D01*
X201584817Y-102592539D01*
X201532013Y-102638294D01*
X201480501Y-102649500D01*
X200032017Y-102649500D01*
X199964978Y-102629815D01*
X199919223Y-102577011D01*
X199914311Y-102564505D01*
X199914311Y-102564504D01*
X199894814Y-102505666D01*
X199802712Y-102356344D01*
X199678656Y-102232288D01*
X199529334Y-102140186D01*
X199482994Y-102124830D01*
X199425550Y-102085058D01*
X199398728Y-102020541D01*
X199398000Y-102007125D01*
X199398000Y-100710893D01*
X199397999Y-100710889D01*
X199374816Y-100594336D01*
X199373963Y-100590048D01*
X199326811Y-100476214D01*
X199318642Y-100463988D01*
X199300129Y-100419291D01*
X199269738Y-100266510D01*
X199269737Y-100266503D01*
X199269735Y-100266498D01*
X199209397Y-100120827D01*
X199209390Y-100120814D01*
X199121789Y-99989711D01*
X199121786Y-99989707D01*
X199010292Y-99878213D01*
X199010288Y-99878210D01*
X198879185Y-99790609D01*
X198879172Y-99790602D01*
X198733501Y-99730264D01*
X198733489Y-99730261D01*
X198578845Y-99699500D01*
X198578842Y-99699500D01*
X198421158Y-99699500D01*
X198421155Y-99699500D01*
X198266510Y-99730261D01*
X198266498Y-99730264D01*
X198120827Y-99790602D01*
X198120814Y-99790609D01*
X197989711Y-99878210D01*
X197989707Y-99878213D01*
X197878213Y-99989707D01*
X197878210Y-99989711D01*
X197790609Y-100120814D01*
X197790602Y-100120827D01*
X197730264Y-100266498D01*
X197730261Y-100266510D01*
X197699500Y-100421153D01*
X197699500Y-100578846D01*
X197730261Y-100733489D01*
X197730264Y-100733501D01*
X197790602Y-100879172D01*
X197790609Y-100879185D01*
X197878210Y-101010288D01*
X197878213Y-101010292D01*
X197989708Y-101121787D01*
X197989711Y-101121789D01*
X198091891Y-101190064D01*
X198136696Y-101243674D01*
X198147000Y-101293165D01*
X198147000Y-102097911D01*
X198127315Y-102164950D01*
X198103912Y-102191875D01*
X198096458Y-102198293D01*
X198041344Y-102232288D01*
X197944410Y-102329221D01*
X197940912Y-102332234D01*
X197913124Y-102344820D01*
X197886358Y-102359436D01*
X197881606Y-102359096D01*
X197877267Y-102361062D01*
X197847092Y-102356627D01*
X197816666Y-102354452D01*
X197812036Y-102351476D01*
X197808140Y-102350904D01*
X197799714Y-102343557D01*
X197772319Y-102325951D01*
X197678657Y-102232289D01*
X197678656Y-102232288D01*
X197529334Y-102140186D01*
X197362797Y-102085001D01*
X197362795Y-102085000D01*
X197260010Y-102074500D01*
X196459998Y-102074500D01*
X196459980Y-102074501D01*
X196357203Y-102085000D01*
X196357200Y-102085001D01*
X196190668Y-102140185D01*
X196190663Y-102140187D01*
X196041342Y-102232289D01*
X195917289Y-102356342D01*
X195825187Y-102505663D01*
X195825186Y-102505666D01*
X195810330Y-102550500D01*
X195805689Y-102564505D01*
X195765916Y-102621949D01*
X195701400Y-102648772D01*
X195687983Y-102649500D01*
X195210154Y-102649500D01*
X195143115Y-102629815D01*
X195097360Y-102577011D01*
X195092448Y-102564504D01*
X195049447Y-102434737D01*
X195039814Y-102405666D01*
X194947712Y-102256344D01*
X194823656Y-102132288D01*
X194690213Y-102049980D01*
X194674336Y-102040187D01*
X194674331Y-102040185D01*
X194615049Y-102020541D01*
X194507797Y-101985001D01*
X194507795Y-101985000D01*
X194405010Y-101974500D01*
X193204998Y-101974500D01*
X193204981Y-101974501D01*
X193102203Y-101985000D01*
X193102200Y-101985001D01*
X192935668Y-102040185D01*
X192935663Y-102040187D01*
X192786342Y-102132289D01*
X192662289Y-102256342D01*
X192570187Y-102405663D01*
X192570185Y-102405668D01*
X192550359Y-102465500D01*
X192515001Y-102572203D01*
X192515001Y-102572204D01*
X192515000Y-102572204D01*
X192504500Y-102674983D01*
X187338861Y-102674983D01*
X187329268Y-102656156D01*
X187297287Y-102593390D01*
X187297285Y-102593387D01*
X187297284Y-102593385D01*
X187176971Y-102427786D01*
X187032213Y-102283028D01*
X186866613Y-102162715D01*
X186866612Y-102162714D01*
X186866610Y-102162713D01*
X186787099Y-102122200D01*
X186684223Y-102069781D01*
X186489534Y-102006522D01*
X186314995Y-101978878D01*
X186287352Y-101974500D01*
X186082648Y-101974500D01*
X186058329Y-101978351D01*
X185880465Y-102006522D01*
X185685776Y-102069781D01*
X185503386Y-102162715D01*
X185337786Y-102283028D01*
X185193028Y-102427786D01*
X185069849Y-102597331D01*
X185068176Y-102596115D01*
X185022792Y-102637169D01*
X184968885Y-102649500D01*
X184564517Y-102649500D01*
X184497478Y-102629815D01*
X184451723Y-102577011D01*
X184446811Y-102564505D01*
X184446811Y-102564504D01*
X184427314Y-102505666D01*
X184335212Y-102356344D01*
X184211156Y-102232288D01*
X184061834Y-102140186D01*
X183895297Y-102085001D01*
X183895295Y-102085000D01*
X183792510Y-102074500D01*
X182992498Y-102074500D01*
X182992480Y-102074501D01*
X182889703Y-102085000D01*
X182889700Y-102085001D01*
X182723168Y-102140185D01*
X182723163Y-102140187D01*
X182573842Y-102232289D01*
X182480181Y-102325951D01*
X182418858Y-102359436D01*
X182349166Y-102354452D01*
X182304819Y-102325951D01*
X182211157Y-102232289D01*
X182211156Y-102232288D01*
X182061834Y-102140186D01*
X181895297Y-102085001D01*
X181895295Y-102085000D01*
X181792510Y-102074500D01*
X180992498Y-102074500D01*
X180992480Y-102074501D01*
X180889703Y-102085000D01*
X180889700Y-102085001D01*
X180723168Y-102140185D01*
X180723163Y-102140187D01*
X180573842Y-102232289D01*
X180449789Y-102356342D01*
X180357687Y-102505663D01*
X180357686Y-102505666D01*
X180342830Y-102550500D01*
X180338189Y-102564505D01*
X180298416Y-102621949D01*
X180233900Y-102648772D01*
X180220483Y-102649500D01*
X177829499Y-102649500D01*
X177762460Y-102629815D01*
X177716705Y-102577011D01*
X177705499Y-102525500D01*
X177705499Y-102224998D01*
X177705498Y-102224981D01*
X177694999Y-102122203D01*
X177694998Y-102122200D01*
X177677628Y-102069781D01*
X177639814Y-101955666D01*
X177547712Y-101806344D01*
X177423656Y-101682288D01*
X177274334Y-101590186D01*
X177107797Y-101535001D01*
X177107795Y-101535000D01*
X177005010Y-101524500D01*
X175604998Y-101524500D01*
X175604981Y-101524501D01*
X175502203Y-101535000D01*
X175502200Y-101535001D01*
X175335668Y-101590185D01*
X175335663Y-101590187D01*
X175186342Y-101682289D01*
X175062289Y-101806342D01*
X174970187Y-101955663D01*
X174970185Y-101955668D01*
X174942349Y-102039670D01*
X174915001Y-102122203D01*
X174915001Y-102122204D01*
X174915000Y-102122204D01*
X174904500Y-102224983D01*
X174904500Y-102525500D01*
X174884815Y-102592539D01*
X174832011Y-102638294D01*
X174780500Y-102649500D01*
X174253404Y-102649500D01*
X174186365Y-102629815D01*
X174140610Y-102577011D01*
X174130666Y-102507853D01*
X174159691Y-102444297D01*
X174205952Y-102410939D01*
X174294172Y-102374397D01*
X174294172Y-102374396D01*
X174294179Y-102374394D01*
X174425289Y-102286789D01*
X174536789Y-102175289D01*
X174624394Y-102044179D01*
X174684737Y-101898497D01*
X174706858Y-101787282D01*
X174739240Y-101725375D01*
X174740733Y-101723855D01*
X175412804Y-101051785D01*
X175474125Y-101018302D01*
X175513081Y-101016110D01*
X175604991Y-101025500D01*
X177005008Y-101025499D01*
X177107797Y-101014999D01*
X177274334Y-100959814D01*
X177423656Y-100867712D01*
X177547712Y-100743656D01*
X177639814Y-100594334D01*
X177694999Y-100427797D01*
X177705500Y-100325009D01*
X177705499Y-98224992D01*
X177694999Y-98122203D01*
X177639814Y-97955666D01*
X177547712Y-97806344D01*
X177423656Y-97682288D01*
X177274334Y-97590186D01*
X177107797Y-97535001D01*
X177107795Y-97535000D01*
X177005016Y-97524500D01*
X175646699Y-97524500D01*
X175579660Y-97504815D01*
X175533905Y-97452011D01*
X175523961Y-97382853D01*
X175552986Y-97319297D01*
X175559002Y-97312835D01*
X178518920Y-94352919D01*
X178596632Y-94251642D01*
X178658611Y-94170870D01*
X178773344Y-93972146D01*
X178861158Y-93760145D01*
X178863743Y-93750499D01*
X178920549Y-93538497D01*
X178942908Y-93368656D01*
X178950500Y-93310992D01*
X178950500Y-91885266D01*
X178950500Y-91879153D01*
X178950499Y-91879131D01*
X178950499Y-91049998D01*
X178950498Y-91049981D01*
X178939999Y-90947203D01*
X178939998Y-90947200D01*
X178916239Y-90875500D01*
X178884814Y-90780666D01*
X178792712Y-90631344D01*
X178668656Y-90507288D01*
X178530868Y-90422300D01*
X178519336Y-90415187D01*
X178519331Y-90415185D01*
X178517862Y-90414698D01*
X178352797Y-90360001D01*
X178352795Y-90360000D01*
X178250016Y-90349500D01*
X178250009Y-90349500D01*
X177814283Y-90349500D01*
X177766828Y-90340060D01*
X177763887Y-90338842D01*
X177542238Y-90279452D01*
X177504215Y-90274446D01*
X177314741Y-90249500D01*
X177314734Y-90249500D01*
X177085266Y-90249500D01*
X177085258Y-90249500D01*
X176868715Y-90278009D01*
X176857762Y-90279452D01*
X176822886Y-90288797D01*
X176636108Y-90338843D01*
X176636106Y-90338843D01*
X176633162Y-90340063D01*
X176585715Y-90349500D01*
X176149998Y-90349500D01*
X176149980Y-90349501D01*
X176047203Y-90360000D01*
X176047200Y-90360001D01*
X175880668Y-90415185D01*
X175880663Y-90415187D01*
X175731342Y-90507289D01*
X175607289Y-90631342D01*
X175515187Y-90780663D01*
X175515186Y-90780665D01*
X175515186Y-90780666D01*
X175460001Y-90947203D01*
X175460001Y-90947204D01*
X175460000Y-90947204D01*
X175449500Y-91049983D01*
X175449500Y-92419814D01*
X175429815Y-92486853D01*
X175413181Y-92507495D01*
X168592180Y-99328496D01*
X168530857Y-99361981D01*
X168461165Y-99356997D01*
X168405232Y-99315125D01*
X168380815Y-99249661D01*
X168380499Y-99240815D01*
X168380499Y-99069998D01*
X168380498Y-99069981D01*
X168369999Y-98967203D01*
X168369998Y-98967200D01*
X168363370Y-98947198D01*
X168314814Y-98800666D01*
X168222712Y-98651344D01*
X168098656Y-98527288D01*
X167949334Y-98435186D01*
X167865495Y-98407404D01*
X167808051Y-98367632D01*
X167781228Y-98303116D01*
X167780500Y-98289699D01*
X167780500Y-96931456D01*
X167742052Y-96738170D01*
X167742051Y-96738169D01*
X167742051Y-96738165D01*
X167729624Y-96708164D01*
X167706136Y-96651459D01*
X167666632Y-96556086D01*
X167601207Y-96458170D01*
X167557140Y-96392219D01*
X167557139Y-96392218D01*
X167417782Y-96252861D01*
X167417781Y-96252860D01*
X167277140Y-96112219D01*
X167277139Y-96112218D01*
X167137782Y-95972861D01*
X167137781Y-95972860D01*
X167137780Y-95972859D01*
X166973920Y-95863371D01*
X166973907Y-95863364D01*
X166827983Y-95802921D01*
X166827978Y-95802919D01*
X166819722Y-95799500D01*
X166791836Y-95787949D01*
X166690098Y-95767712D01*
X166666078Y-95762934D01*
X166598543Y-95749500D01*
X166598541Y-95749500D01*
X165848541Y-95749500D01*
X165098541Y-95749500D01*
X163401459Y-95749500D01*
X163401457Y-95749500D01*
X163208170Y-95787947D01*
X163208160Y-95787950D01*
X163026092Y-95863364D01*
X163026079Y-95863371D01*
X162862218Y-95972860D01*
X162862214Y-95972863D01*
X162722863Y-96112214D01*
X162722860Y-96112218D01*
X162613371Y-96276079D01*
X162613364Y-96276092D01*
X162537950Y-96458160D01*
X162537947Y-96458170D01*
X162499500Y-96651456D01*
X162499500Y-96651458D01*
X162499500Y-96651459D01*
X162499500Y-96848541D01*
X162499500Y-96848543D01*
X162499499Y-96848543D01*
X162537947Y-97041829D01*
X162537950Y-97041839D01*
X162613364Y-97223907D01*
X162613371Y-97223920D01*
X162722860Y-97387781D01*
X162722863Y-97387785D01*
X162862214Y-97527136D01*
X162862218Y-97527139D01*
X163026079Y-97636628D01*
X163026092Y-97636635D01*
X163208160Y-97712049D01*
X163208165Y-97712051D01*
X163208169Y-97712051D01*
X163208170Y-97712052D01*
X163401456Y-97750500D01*
X163401459Y-97750500D01*
X164901459Y-97750500D01*
X165651459Y-97750500D01*
X165655500Y-97750500D01*
X165722539Y-97770185D01*
X165768294Y-97822989D01*
X165779500Y-97874500D01*
X165779500Y-98289699D01*
X165759815Y-98356738D01*
X165707011Y-98402493D01*
X165694507Y-98407403D01*
X165671028Y-98415184D01*
X165610668Y-98435185D01*
X165610663Y-98435187D01*
X165461342Y-98527289D01*
X165337289Y-98651342D01*
X165245187Y-98800663D01*
X165245186Y-98800666D01*
X165190001Y-98967203D01*
X165190001Y-98967204D01*
X165190000Y-98967204D01*
X165179500Y-99069983D01*
X165179500Y-99069996D01*
X165179501Y-99873165D01*
X165178508Y-99873165D01*
X165163212Y-99937143D01*
X165112806Y-99985526D01*
X165055620Y-99999500D01*
X164304500Y-99999500D01*
X164237461Y-99979815D01*
X164191706Y-99927011D01*
X164180500Y-99875500D01*
X164180500Y-99049993D01*
X164180499Y-99049980D01*
X164169999Y-98947200D01*
X164114815Y-98780664D01*
X164114811Y-98780658D01*
X164114810Y-98780655D01*
X164022714Y-98631346D01*
X164022711Y-98631342D01*
X163898657Y-98507288D01*
X163898653Y-98507285D01*
X163749344Y-98415189D01*
X163749338Y-98415186D01*
X163749336Y-98415185D01*
X163643157Y-98380001D01*
X163582801Y-98360001D01*
X163480019Y-98349500D01*
X163480012Y-98349500D01*
X157479988Y-98349500D01*
X157479980Y-98349500D01*
X157377198Y-98360001D01*
X157210666Y-98415184D01*
X157210655Y-98415189D01*
X157061346Y-98507285D01*
X157061342Y-98507288D01*
X156937288Y-98631342D01*
X156937285Y-98631346D01*
X156845189Y-98780655D01*
X156845184Y-98780666D01*
X156790001Y-98947198D01*
X156779500Y-99049980D01*
X153500500Y-99049980D01*
X153500500Y-48314980D01*
X157594500Y-48314980D01*
X157594500Y-53715019D01*
X157605001Y-53817801D01*
X157660184Y-53984333D01*
X157660189Y-53984344D01*
X157752285Y-54133653D01*
X157752288Y-54133657D01*
X157876342Y-54257711D01*
X157876346Y-54257714D01*
X158025655Y-54349810D01*
X158025658Y-54349811D01*
X158025664Y-54349815D01*
X158192200Y-54404999D01*
X158294988Y-54415500D01*
X158294993Y-54415500D01*
X164295007Y-54415500D01*
X164295012Y-54415500D01*
X164397800Y-54404999D01*
X164564336Y-54349815D01*
X164713657Y-54257712D01*
X164837712Y-54133657D01*
X164929815Y-53984336D01*
X164984999Y-53817800D01*
X164995500Y-53715012D01*
X164995500Y-52889500D01*
X165015185Y-52822461D01*
X165067989Y-52776706D01*
X165119500Y-52765500D01*
X165870619Y-52765500D01*
X165937658Y-52785185D01*
X165983413Y-52837989D01*
X165993698Y-52891834D01*
X165994500Y-52891834D01*
X165994500Y-53695001D01*
X165994501Y-53695019D01*
X166005000Y-53797796D01*
X166005001Y-53797799D01*
X166060185Y-53964331D01*
X166060187Y-53964336D01*
X166060712Y-53965187D01*
X166152288Y-54113656D01*
X166276344Y-54237712D01*
X166425666Y-54329814D01*
X166592203Y-54384999D01*
X166694991Y-54395500D01*
X167759547Y-54395499D01*
X167826586Y-54415183D01*
X167847228Y-54431818D01*
X169638763Y-56223355D01*
X169638767Y-56223358D01*
X169741210Y-56291809D01*
X169741211Y-56291809D01*
X169741215Y-56291812D01*
X169794138Y-56313733D01*
X169855048Y-56338963D01*
X169864319Y-56340807D01*
X169936288Y-56355122D01*
X169975892Y-56363001D01*
X169975894Y-56363001D01*
X170105221Y-56363001D01*
X170105241Y-56363000D01*
X171679625Y-56363000D01*
X171746664Y-56382685D01*
X171792419Y-56435489D01*
X171797329Y-56447990D01*
X171812686Y-56494334D01*
X171904788Y-56643656D01*
X172028844Y-56767712D01*
X172178166Y-56859814D01*
X172344703Y-56914999D01*
X172447491Y-56925500D01*
X173447508Y-56925499D01*
X173447516Y-56925498D01*
X173447519Y-56925498D01*
X173503802Y-56919748D01*
X173550297Y-56914999D01*
X173716834Y-56859814D01*
X173866156Y-56767712D01*
X173990212Y-56643656D01*
X174082314Y-56494334D01*
X174097669Y-56447994D01*
X174137442Y-56390550D01*
X174201959Y-56363728D01*
X174215375Y-56363000D01*
X176177048Y-56363000D01*
X176244087Y-56382685D01*
X176264729Y-56399319D01*
X176660681Y-56795271D01*
X176694166Y-56856594D01*
X176697000Y-56882952D01*
X176697000Y-58090001D01*
X176697001Y-58090018D01*
X176707500Y-58192796D01*
X176707501Y-58192799D01*
X176743340Y-58300951D01*
X176762686Y-58359334D01*
X176854788Y-58508656D01*
X176978844Y-58632712D01*
X177128166Y-58724814D01*
X177294703Y-58779999D01*
X177397491Y-58790500D01*
X178797508Y-58790499D01*
X178900297Y-58779999D01*
X179066834Y-58724814D01*
X179216156Y-58632712D01*
X179340212Y-58508656D01*
X179432314Y-58359334D01*
X179487499Y-58192797D01*
X179498000Y-58090009D01*
X179498000Y-57789500D01*
X179517685Y-57722461D01*
X179570489Y-57676706D01*
X179622000Y-57665500D01*
X182012983Y-57665500D01*
X182080022Y-57685185D01*
X182125777Y-57737989D01*
X182130686Y-57750489D01*
X182150186Y-57809334D01*
X182242288Y-57958656D01*
X182366344Y-58082712D01*
X182515666Y-58174814D01*
X182682203Y-58229999D01*
X182784991Y-58240500D01*
X183585008Y-58240499D01*
X183585016Y-58240498D01*
X183585019Y-58240498D01*
X183641302Y-58234748D01*
X183687797Y-58229999D01*
X183854334Y-58174814D01*
X184003656Y-58082712D01*
X184097319Y-57989049D01*
X184158642Y-57955564D01*
X184228334Y-57960548D01*
X184272681Y-57989049D01*
X184366344Y-58082712D01*
X184515666Y-58174814D01*
X184682203Y-58229999D01*
X184784991Y-58240500D01*
X185585008Y-58240499D01*
X185585016Y-58240498D01*
X185585019Y-58240498D01*
X185641302Y-58234748D01*
X185687797Y-58229999D01*
X185854334Y-58174814D01*
X185886693Y-58154854D01*
X185904356Y-58143961D01*
X185969452Y-58125500D01*
X186663885Y-58125500D01*
X186730924Y-58145185D01*
X186763606Y-58178571D01*
X186764849Y-58177669D01*
X186888028Y-58347213D01*
X187032786Y-58491971D01*
X187187749Y-58604556D01*
X187198390Y-58612287D01*
X187313921Y-58671153D01*
X187380776Y-58705218D01*
X187380778Y-58705218D01*
X187380781Y-58705220D01*
X187471856Y-58734812D01*
X187575465Y-58768477D01*
X187648212Y-58779999D01*
X187777648Y-58800500D01*
X187777649Y-58800500D01*
X187982351Y-58800500D01*
X187982352Y-58800500D01*
X188184534Y-58768477D01*
X188379219Y-58705220D01*
X188561610Y-58612287D01*
X188690482Y-58518657D01*
X188727213Y-58491971D01*
X188727215Y-58491968D01*
X188727219Y-58491966D01*
X188871966Y-58347219D01*
X188871968Y-58347215D01*
X188871971Y-58347213D01*
X188949502Y-58240499D01*
X188992287Y-58181610D01*
X189085220Y-57999219D01*
X189148477Y-57804534D01*
X189180500Y-57602352D01*
X189180500Y-57397648D01*
X189169145Y-57325954D01*
X189148477Y-57195465D01*
X189095004Y-57030894D01*
X189085220Y-57000781D01*
X189085218Y-57000778D01*
X189085218Y-57000776D01*
X189046861Y-56925498D01*
X188992287Y-56818390D01*
X188955466Y-56767710D01*
X188871971Y-56652786D01*
X188727213Y-56508028D01*
X188561613Y-56387715D01*
X188561612Y-56387714D01*
X188561610Y-56387713D01*
X188501898Y-56357288D01*
X188379223Y-56294781D01*
X188184534Y-56231522D01*
X188009995Y-56203878D01*
X187982352Y-56199500D01*
X187777648Y-56199500D01*
X187753329Y-56203351D01*
X187575465Y-56231522D01*
X187380776Y-56294781D01*
X187198386Y-56387715D01*
X187032786Y-56508028D01*
X187032782Y-56508032D01*
X186888034Y-56652781D01*
X186888028Y-56652786D01*
X186764849Y-56822331D01*
X186763176Y-56821115D01*
X186717792Y-56862169D01*
X186663885Y-56874500D01*
X186409499Y-56874500D01*
X186342460Y-56854815D01*
X186296705Y-56802011D01*
X186285499Y-56750500D01*
X186285499Y-56539998D01*
X186285498Y-56539981D01*
X186274999Y-56437203D01*
X186274998Y-56437200D01*
X186258600Y-56387715D01*
X186219814Y-56270666D01*
X186127712Y-56121344D01*
X186003656Y-55997288D01*
X185893676Y-55929452D01*
X185854336Y-55905187D01*
X185854331Y-55905185D01*
X185832642Y-55897998D01*
X185687797Y-55850001D01*
X185687795Y-55850000D01*
X185585010Y-55839500D01*
X184784998Y-55839500D01*
X184784980Y-55839501D01*
X184682203Y-55850000D01*
X184682200Y-55850001D01*
X184515668Y-55905185D01*
X184515663Y-55905187D01*
X184366342Y-55997289D01*
X184272681Y-56090951D01*
X184211358Y-56124436D01*
X184141666Y-56119452D01*
X184097319Y-56090951D01*
X184003657Y-55997289D01*
X184003656Y-55997288D01*
X183893676Y-55929452D01*
X183854336Y-55905187D01*
X183854331Y-55905185D01*
X183832642Y-55897998D01*
X183687797Y-55850001D01*
X183687795Y-55850000D01*
X183585010Y-55839500D01*
X182784998Y-55839500D01*
X182784980Y-55839501D01*
X182682203Y-55850000D01*
X182682200Y-55850001D01*
X182515668Y-55905185D01*
X182515663Y-55905187D01*
X182366342Y-55997289D01*
X182242289Y-56121342D01*
X182150187Y-56270663D01*
X182150186Y-56270666D01*
X182136251Y-56312721D01*
X182130689Y-56329505D01*
X182090916Y-56386949D01*
X182026400Y-56413772D01*
X182012983Y-56414500D01*
X179621999Y-56414500D01*
X179554960Y-56394815D01*
X179509205Y-56342011D01*
X179497999Y-56290500D01*
X179497999Y-55989998D01*
X179497998Y-55989981D01*
X179487499Y-55887203D01*
X179487498Y-55887200D01*
X179468500Y-55829868D01*
X179432314Y-55720666D01*
X179340212Y-55571344D01*
X179216156Y-55447288D01*
X179094564Y-55372290D01*
X179066836Y-55355187D01*
X179066831Y-55355185D01*
X179034607Y-55344507D01*
X178900297Y-55300001D01*
X178900295Y-55300000D01*
X178797510Y-55289500D01*
X177397498Y-55289500D01*
X177397481Y-55289501D01*
X177294703Y-55300000D01*
X177294700Y-55300001D01*
X177128168Y-55355185D01*
X177128160Y-55355189D01*
X177126016Y-55356512D01*
X177124341Y-55356970D01*
X177121618Y-55358240D01*
X177121400Y-55357774D01*
X177101472Y-55363226D01*
X177078306Y-55373746D01*
X177068338Y-55372290D01*
X177058622Y-55374949D01*
X177034346Y-55367328D01*
X177009169Y-55363653D01*
X176998101Y-55355950D01*
X176991960Y-55354023D01*
X176979519Y-55344507D01*
X176976265Y-55341675D01*
X176973360Y-55338770D01*
X176973358Y-55338767D01*
X176886233Y-55251642D01*
X176835009Y-55217415D01*
X176783786Y-55183188D01*
X176783783Y-55183186D01*
X176783780Y-55183185D01*
X176710556Y-55152855D01*
X176710550Y-55152853D01*
X176703292Y-55149847D01*
X176669952Y-55136037D01*
X176596083Y-55121344D01*
X176591841Y-55120500D01*
X176591833Y-55120498D01*
X176549111Y-55112000D01*
X176549107Y-55112000D01*
X176549106Y-55112000D01*
X174124588Y-55112000D01*
X174057549Y-55092315D01*
X174030624Y-55068912D01*
X174024209Y-55061462D01*
X173990212Y-55006344D01*
X173893278Y-54909410D01*
X173890266Y-54905912D01*
X173877680Y-54878126D01*
X173863064Y-54851358D01*
X173863403Y-54846606D01*
X173861438Y-54842266D01*
X173865872Y-54812090D01*
X173868048Y-54781666D01*
X173871023Y-54777036D01*
X173871596Y-54773139D01*
X173878944Y-54764711D01*
X173896549Y-54737319D01*
X173920869Y-54712999D01*
X173990212Y-54643656D01*
X174019049Y-54596902D01*
X174070997Y-54550179D01*
X174124588Y-54538000D01*
X175207650Y-54538000D01*
X175274689Y-54557685D01*
X175276541Y-54558898D01*
X175370821Y-54621894D01*
X175370823Y-54621895D01*
X175370827Y-54621897D01*
X175516498Y-54682235D01*
X175516503Y-54682237D01*
X175671153Y-54712999D01*
X175671156Y-54713000D01*
X175671158Y-54713000D01*
X175828844Y-54713000D01*
X175828845Y-54712999D01*
X175983497Y-54682237D01*
X176129179Y-54621894D01*
X176223459Y-54558898D01*
X176290136Y-54538020D01*
X176292350Y-54538000D01*
X176832770Y-54538000D01*
X176899809Y-54557685D01*
X176920451Y-54574319D01*
X176978844Y-54632712D01*
X177128166Y-54724814D01*
X177294703Y-54779999D01*
X177397491Y-54790500D01*
X178797508Y-54790499D01*
X178900297Y-54779999D01*
X179066834Y-54724814D01*
X179216156Y-54632712D01*
X179340212Y-54508656D01*
X179432314Y-54359334D01*
X179487499Y-54192797D01*
X179498000Y-54090009D01*
X179498000Y-53789500D01*
X179517685Y-53722461D01*
X179570489Y-53676706D01*
X179622000Y-53665500D01*
X200238853Y-53665500D01*
X200238854Y-53665499D01*
X200359698Y-53641463D01*
X200473532Y-53594311D01*
X200575979Y-53525858D01*
X200663104Y-53438733D01*
X200731557Y-53336286D01*
X200778709Y-53222452D01*
X200802746Y-53101606D01*
X200802746Y-51883205D01*
X200822431Y-51816166D01*
X200839060Y-51795529D01*
X205640321Y-46994267D01*
X205701642Y-46960784D01*
X205771334Y-46965768D01*
X205827267Y-47007640D01*
X205851684Y-47073104D01*
X205852000Y-47081950D01*
X205852000Y-47865001D01*
X205852001Y-47865019D01*
X205862500Y-47967796D01*
X205862501Y-47967799D01*
X205916961Y-48132147D01*
X205917686Y-48134334D01*
X206009788Y-48283656D01*
X206133844Y-48407712D01*
X206283166Y-48499814D01*
X206449703Y-48554999D01*
X206552491Y-48565500D01*
X207304547Y-48565499D01*
X207371586Y-48585183D01*
X207392228Y-48601818D01*
X209035781Y-50245371D01*
X209069266Y-50306694D01*
X209072100Y-50333052D01*
X209072100Y-51696950D01*
X209052415Y-51763989D01*
X208999611Y-51809744D01*
X208948100Y-51820950D01*
X208632730Y-51820950D01*
X208632723Y-51820951D01*
X208573116Y-51827358D01*
X208438271Y-51877652D01*
X208438264Y-51877656D01*
X208323055Y-51963902D01*
X208323052Y-51963905D01*
X208236806Y-52079114D01*
X208236802Y-52079121D01*
X208186508Y-52213967D01*
X208180101Y-52273566D01*
X208180100Y-52273585D01*
X208180100Y-52312658D01*
X208171157Y-52343112D01*
X208163856Y-52374015D01*
X208161382Y-52376401D01*
X208160415Y-52379697D01*
X208136432Y-52400478D01*
X208113578Y-52422532D01*
X208109197Y-52424077D01*
X208107611Y-52425452D01*
X208080294Y-52434275D01*
X208075618Y-52435205D01*
X208060471Y-52438218D01*
X208017243Y-52446816D01*
X208000046Y-52450237D01*
X207886216Y-52497387D01*
X207886207Y-52497392D01*
X207783768Y-52565840D01*
X207761267Y-52588342D01*
X207696642Y-52652967D01*
X207696639Y-52652970D01*
X206598429Y-53751179D01*
X206537106Y-53784664D01*
X206471745Y-53781204D01*
X206397800Y-53756701D01*
X206295010Y-53746200D01*
X205244998Y-53746200D01*
X205244980Y-53746201D01*
X205142203Y-53756700D01*
X205142200Y-53756701D01*
X204975668Y-53811885D01*
X204975663Y-53811887D01*
X204826342Y-53903989D01*
X204702287Y-54028044D01*
X204665254Y-54088084D01*
X204613305Y-54134808D01*
X204544343Y-54146029D01*
X204480261Y-54118185D01*
X204472035Y-54110667D01*
X204418657Y-54057289D01*
X204418656Y-54057288D01*
X204300381Y-53984336D01*
X204269336Y-53965187D01*
X204269331Y-53965185D01*
X204223445Y-53949980D01*
X204102797Y-53910001D01*
X204102795Y-53910000D01*
X204000010Y-53899500D01*
X202999998Y-53899500D01*
X202999980Y-53899501D01*
X202897203Y-53910000D01*
X202897200Y-53910001D01*
X202730668Y-53965185D01*
X202730663Y-53965187D01*
X202581342Y-54057289D01*
X202457289Y-54181342D01*
X202365187Y-54330663D01*
X202365185Y-54330668D01*
X202348090Y-54382258D01*
X202310001Y-54497203D01*
X202310001Y-54497204D01*
X202310000Y-54497204D01*
X202299500Y-54599983D01*
X202299500Y-54993770D01*
X202279815Y-55060809D01*
X202227011Y-55106564D01*
X202157853Y-55116508D01*
X202094297Y-55087483D01*
X202087819Y-55081451D01*
X202003657Y-54997289D01*
X202003656Y-54997288D01*
X201854334Y-54905186D01*
X201687797Y-54850001D01*
X201687795Y-54850000D01*
X201585010Y-54839500D01*
X200784998Y-54839500D01*
X200784980Y-54839501D01*
X200682203Y-54850000D01*
X200682200Y-54850001D01*
X200515668Y-54905185D01*
X200515663Y-54905187D01*
X200366342Y-54997289D01*
X200272681Y-55090951D01*
X200211358Y-55124436D01*
X200141666Y-55119452D01*
X200097319Y-55090951D01*
X200003657Y-54997289D01*
X200003656Y-54997288D01*
X199854334Y-54905186D01*
X199687797Y-54850001D01*
X199687795Y-54850000D01*
X199585010Y-54839500D01*
X198784998Y-54839500D01*
X198784980Y-54839501D01*
X198682203Y-54850000D01*
X198682200Y-54850001D01*
X198515668Y-54905185D01*
X198515663Y-54905187D01*
X198366342Y-54997289D01*
X198242289Y-55121342D01*
X198150187Y-55270663D01*
X198150186Y-55270666D01*
X198140466Y-55300001D01*
X198130689Y-55329505D01*
X198090916Y-55386949D01*
X198026400Y-55413772D01*
X198012983Y-55414500D01*
X196898392Y-55414500D01*
X196866862Y-55420771D01*
X196845645Y-55424992D01*
X196777548Y-55438537D01*
X196730397Y-55458067D01*
X196724045Y-55460697D01*
X196724045Y-55460698D01*
X196663718Y-55485685D01*
X196644571Y-55498479D01*
X196638190Y-55502743D01*
X196638189Y-55502744D01*
X196638188Y-55502743D01*
X196561266Y-55554142D01*
X196561265Y-55554143D01*
X196536089Y-55579320D01*
X196474142Y-55641267D01*
X196474139Y-55641270D01*
X195952227Y-56163181D01*
X195890904Y-56196666D01*
X195864546Y-56199500D01*
X194899998Y-56199500D01*
X194899980Y-56199501D01*
X194797203Y-56210000D01*
X194797200Y-56210001D01*
X194630668Y-56265185D01*
X194630663Y-56265187D01*
X194481342Y-56357289D01*
X194357289Y-56481342D01*
X194265187Y-56630663D01*
X194265185Y-56630668D01*
X194253643Y-56665499D01*
X194210001Y-56797203D01*
X194210001Y-56797204D01*
X194210000Y-56797204D01*
X194199500Y-56899983D01*
X194199500Y-58100001D01*
X194199501Y-58100018D01*
X194210000Y-58202796D01*
X194210001Y-58202799D01*
X194251970Y-58329452D01*
X194265186Y-58369334D01*
X194357288Y-58518656D01*
X194481344Y-58642712D01*
X194630666Y-58734814D01*
X194797203Y-58789999D01*
X194899991Y-58800500D01*
X196100008Y-58800499D01*
X196202797Y-58789999D01*
X196369334Y-58734814D01*
X196518656Y-58642712D01*
X196642712Y-58518656D01*
X196734814Y-58369334D01*
X196789999Y-58202797D01*
X196800500Y-58100009D01*
X196800499Y-57135451D01*
X196820183Y-57068413D01*
X196836818Y-57047771D01*
X197182771Y-56701819D01*
X197244094Y-56668334D01*
X197270452Y-56665500D01*
X198012983Y-56665500D01*
X198080022Y-56685185D01*
X198125777Y-56737989D01*
X198130686Y-56750489D01*
X198150186Y-56809333D01*
X198150187Y-56809336D01*
X198164381Y-56832348D01*
X198242288Y-56958656D01*
X198366344Y-57082712D01*
X198515666Y-57174814D01*
X198682203Y-57229999D01*
X198784991Y-57240500D01*
X199585008Y-57240499D01*
X199585016Y-57240498D01*
X199585019Y-57240498D01*
X199641302Y-57234748D01*
X199687797Y-57229999D01*
X199854334Y-57174814D01*
X200003656Y-57082712D01*
X200097319Y-56989049D01*
X200101155Y-56986954D01*
X200103507Y-56983270D01*
X200131550Y-56970357D01*
X200158642Y-56955564D01*
X200163000Y-56955875D01*
X200166972Y-56954047D01*
X200197546Y-56958346D01*
X200228334Y-56960548D01*
X200233055Y-56963339D01*
X200236161Y-56963776D01*
X200250043Y-56973383D01*
X200265912Y-56982765D01*
X200269403Y-56985771D01*
X200366344Y-57082712D01*
X200421468Y-57116712D01*
X200428912Y-57123122D01*
X200442767Y-57144535D01*
X200459820Y-57163494D01*
X200462411Y-57174894D01*
X200466868Y-57181783D01*
X200466908Y-57194682D01*
X200472000Y-57217087D01*
X200472000Y-57592047D01*
X200452315Y-57659086D01*
X200435681Y-57679728D01*
X200191203Y-57924205D01*
X200129880Y-57957690D01*
X200127714Y-57958141D01*
X200016508Y-57980261D01*
X200016498Y-57980264D01*
X199870827Y-58040602D01*
X199870814Y-58040609D01*
X199739711Y-58128210D01*
X199739707Y-58128213D01*
X199628213Y-58239707D01*
X199628210Y-58239711D01*
X199540609Y-58370814D01*
X199540602Y-58370827D01*
X199480264Y-58516498D01*
X199480261Y-58516510D01*
X199449500Y-58671153D01*
X199449500Y-58828846D01*
X199480261Y-58983489D01*
X199480264Y-58983501D01*
X199540602Y-59129172D01*
X199540609Y-59129185D01*
X199628210Y-59260288D01*
X199628213Y-59260292D01*
X199739707Y-59371786D01*
X199739711Y-59371789D01*
X199870814Y-59459390D01*
X199870827Y-59459397D01*
X200016498Y-59519735D01*
X200016503Y-59519737D01*
X200171153Y-59550499D01*
X200171156Y-59550500D01*
X200171158Y-59550500D01*
X200328844Y-59550500D01*
X200328845Y-59550499D01*
X200483497Y-59519737D01*
X200629179Y-59459394D01*
X200760289Y-59371789D01*
X200871789Y-59260289D01*
X200959394Y-59129179D01*
X201019737Y-58983497D01*
X201041858Y-58872282D01*
X201074240Y-58810375D01*
X201075735Y-58808853D01*
X201496229Y-58388360D01*
X201496233Y-58388358D01*
X201583358Y-58301233D01*
X201630955Y-58229999D01*
X201651812Y-58198786D01*
X201686440Y-58115186D01*
X201698963Y-58084952D01*
X201703926Y-58060000D01*
X201718507Y-57986698D01*
X201718507Y-57986692D01*
X201719787Y-57980261D01*
X201723000Y-57964107D01*
X201723000Y-57840893D01*
X201723000Y-57307874D01*
X201742685Y-57240835D01*
X201795489Y-57195080D01*
X201807988Y-57190170D01*
X201854334Y-57174814D01*
X202003656Y-57082712D01*
X202127712Y-56958656D01*
X202219814Y-56809334D01*
X202239311Y-56750493D01*
X202279084Y-56693051D01*
X202343600Y-56666228D01*
X202357017Y-56665500D01*
X202521608Y-56665500D01*
X202521608Y-56665499D01*
X202585551Y-56652781D01*
X202642452Y-56641463D01*
X202675792Y-56627652D01*
X202756286Y-56594312D01*
X202807509Y-56560084D01*
X202858733Y-56525858D01*
X202945858Y-56438733D01*
X202945859Y-56438731D01*
X202952925Y-56431665D01*
X202952928Y-56431661D01*
X203247771Y-56136818D01*
X203309094Y-56103333D01*
X203335452Y-56100499D01*
X204000002Y-56100499D01*
X204000008Y-56100499D01*
X204102797Y-56089999D01*
X204269334Y-56034814D01*
X204418656Y-55942712D01*
X204542712Y-55818656D01*
X204589282Y-55743152D01*
X204604613Y-55729362D01*
X204616237Y-55712330D01*
X204630062Y-55706472D01*
X204641228Y-55696429D01*
X204661584Y-55693116D01*
X204680570Y-55685072D01*
X204695366Y-55687618D01*
X204710191Y-55685206D01*
X204729107Y-55693424D01*
X204749428Y-55696922D01*
X204768436Y-55710513D01*
X204774273Y-55713049D01*
X204778580Y-55716816D01*
X204780581Y-55718649D01*
X204826344Y-55764412D01*
X204839177Y-55772327D01*
X204847843Y-55780266D01*
X204860081Y-55800517D01*
X204875905Y-55818111D01*
X204877818Y-55829868D01*
X204883980Y-55840065D01*
X204883326Y-55863721D01*
X204887126Y-55887074D01*
X204882379Y-55897998D01*
X204882050Y-55909908D01*
X204868712Y-55929452D01*
X204859282Y-55951156D01*
X204846116Y-55962563D01*
X204842666Y-55967620D01*
X204837998Y-55969597D01*
X204829182Y-55977237D01*
X204826346Y-55978985D01*
X204702289Y-56103042D01*
X204610187Y-56252363D01*
X204610185Y-56252368D01*
X204597116Y-56291809D01*
X204555001Y-56418903D01*
X204555001Y-56418904D01*
X204555000Y-56418904D01*
X204544500Y-56521683D01*
X204544500Y-57296701D01*
X204544501Y-57296719D01*
X204555000Y-57399496D01*
X204555001Y-57399498D01*
X204610185Y-57566031D01*
X204610187Y-57566036D01*
X204632586Y-57602351D01*
X204702288Y-57715356D01*
X204826344Y-57839412D01*
X204975666Y-57931514D01*
X205142203Y-57986699D01*
X205244991Y-57997200D01*
X206295008Y-57997199D01*
X206295016Y-57997198D01*
X206295019Y-57997198D01*
X206351302Y-57991448D01*
X206397797Y-57986699D01*
X206471744Y-57962194D01*
X206541572Y-57959793D01*
X206598429Y-57992220D01*
X207503128Y-58896919D01*
X207536613Y-58958242D01*
X207531629Y-59027934D01*
X207503128Y-59072281D01*
X205603914Y-60971494D01*
X205603906Y-60971502D01*
X205601270Y-60974139D01*
X205601267Y-60974142D01*
X205514142Y-61061267D01*
X205487415Y-61101267D01*
X205482727Y-61108282D01*
X205482726Y-61108284D01*
X205445690Y-61163710D01*
X205445685Y-61163719D01*
X205429120Y-61203713D01*
X205398539Y-61277541D01*
X205398535Y-61277555D01*
X205374500Y-61398389D01*
X205374500Y-63325500D01*
X205354815Y-63392539D01*
X205302011Y-63438294D01*
X205250500Y-63449500D01*
X204949999Y-63449500D01*
X204949980Y-63449501D01*
X204847203Y-63460000D01*
X204847200Y-63460001D01*
X204680668Y-63515185D01*
X204680663Y-63515187D01*
X204531342Y-63607289D01*
X204407289Y-63731342D01*
X204315187Y-63880663D01*
X204315186Y-63880666D01*
X204260001Y-64047203D01*
X204260001Y-64047204D01*
X204260000Y-64047204D01*
X204249500Y-64149983D01*
X204249500Y-65550001D01*
X204249501Y-65550018D01*
X204260000Y-65652796D01*
X204260001Y-65652799D01*
X204315185Y-65819331D01*
X204315187Y-65819336D01*
X204325377Y-65835856D01*
X204407288Y-65968656D01*
X204531344Y-66092712D01*
X204680666Y-66184814D01*
X204847203Y-66239999D01*
X204949991Y-66250500D01*
X205750500Y-66250499D01*
X205817539Y-66270183D01*
X205863294Y-66322987D01*
X205874500Y-66374499D01*
X205874500Y-67375500D01*
X205854815Y-67442539D01*
X205802011Y-67488294D01*
X205750500Y-67499500D01*
X204652129Y-67499500D01*
X204652123Y-67499501D01*
X204592516Y-67505908D01*
X204457671Y-67556202D01*
X204457664Y-67556206D01*
X204342455Y-67642452D01*
X204342452Y-67642455D01*
X204256206Y-67757664D01*
X204256202Y-67757671D01*
X204205908Y-67892517D01*
X204199579Y-67951393D01*
X204199501Y-67952123D01*
X204199500Y-67952135D01*
X204199500Y-70747870D01*
X204199501Y-70747876D01*
X204205908Y-70807483D01*
X204256202Y-70942328D01*
X204256206Y-70942335D01*
X204342452Y-71057544D01*
X204342455Y-71057547D01*
X204457664Y-71143793D01*
X204457671Y-71143797D01*
X204592517Y-71194091D01*
X204592516Y-71194091D01*
X204599444Y-71194835D01*
X204652127Y-71200500D01*
X208347872Y-71200499D01*
X208407483Y-71194091D01*
X208542331Y-71143796D01*
X208657546Y-71057546D01*
X208743796Y-70942331D01*
X208794091Y-70807483D01*
X208800500Y-70747873D01*
X208800499Y-67952128D01*
X208794091Y-67892517D01*
X208766965Y-67819789D01*
X208743797Y-67757671D01*
X208743793Y-67757664D01*
X208657547Y-67642455D01*
X208657544Y-67642452D01*
X208542335Y-67556206D01*
X208542328Y-67556202D01*
X208407482Y-67505908D01*
X208407483Y-67505908D01*
X208347883Y-67499501D01*
X208347881Y-67499500D01*
X208347873Y-67499500D01*
X208347865Y-67499500D01*
X207249500Y-67499500D01*
X207182461Y-67479815D01*
X207136706Y-67427011D01*
X207125500Y-67375500D01*
X207125500Y-66338585D01*
X207145185Y-66271546D01*
X207197989Y-66225791D01*
X207210489Y-66220881D01*
X207319334Y-66184814D01*
X207468656Y-66092712D01*
X207592712Y-65968656D01*
X207684814Y-65819334D01*
X207739999Y-65652797D01*
X207750500Y-65550009D01*
X207750499Y-64149992D01*
X207747740Y-64122987D01*
X207739999Y-64047203D01*
X207739998Y-64047200D01*
X207719325Y-63984814D01*
X207684814Y-63880666D01*
X207592712Y-63731344D01*
X207468656Y-63607288D01*
X207319334Y-63515186D01*
X207152797Y-63460001D01*
X207152795Y-63460000D01*
X207050016Y-63449500D01*
X207050009Y-63449500D01*
X206749500Y-63449500D01*
X206682461Y-63429815D01*
X206636706Y-63377011D01*
X206625500Y-63325500D01*
X206625500Y-61770451D01*
X206645185Y-61703412D01*
X206661815Y-61682774D01*
X206912819Y-61431769D01*
X206974142Y-61398285D01*
X207043834Y-61403269D01*
X207099767Y-61445141D01*
X207124184Y-61510605D01*
X207124500Y-61519451D01*
X207124500Y-62025001D01*
X207124501Y-62025019D01*
X207135000Y-62127796D01*
X207135001Y-62127799D01*
X207190185Y-62294331D01*
X207190187Y-62294336D01*
X207216037Y-62336246D01*
X207282288Y-62443656D01*
X207406344Y-62567712D01*
X207555666Y-62659814D01*
X207722203Y-62714999D01*
X207824991Y-62725500D01*
X208600008Y-62725499D01*
X208600016Y-62725498D01*
X208600019Y-62725498D01*
X208656302Y-62719748D01*
X208702797Y-62714999D01*
X208869334Y-62659814D01*
X209018656Y-62567712D01*
X209142712Y-62443656D01*
X209144461Y-62440819D01*
X209146169Y-62439283D01*
X209147193Y-62437989D01*
X209147414Y-62438163D01*
X209196406Y-62394096D01*
X209265368Y-62382872D01*
X209329451Y-62410713D01*
X209355537Y-62440817D01*
X209357288Y-62443656D01*
X209481344Y-62567712D01*
X209630666Y-62659814D01*
X209797203Y-62714999D01*
X209899991Y-62725500D01*
X210577047Y-62725499D01*
X210644086Y-62745183D01*
X210664728Y-62761818D01*
X211148516Y-63245606D01*
X211148545Y-63245637D01*
X211238763Y-63335855D01*
X211238767Y-63335858D01*
X211341207Y-63404307D01*
X211341213Y-63404310D01*
X211341214Y-63404311D01*
X211455048Y-63451463D01*
X211497973Y-63460001D01*
X211575891Y-63475499D01*
X211575892Y-63475500D01*
X211575893Y-63475500D01*
X211575894Y-63475500D01*
X213842983Y-63475500D01*
X213910022Y-63495185D01*
X213955777Y-63547989D01*
X213960686Y-63560489D01*
X213980186Y-63619334D01*
X214072288Y-63768656D01*
X214196344Y-63892712D01*
X214345666Y-63984814D01*
X214512203Y-64039999D01*
X214614991Y-64050500D01*
X215412500Y-64050499D01*
X215479539Y-64070183D01*
X215525294Y-64122987D01*
X215536500Y-64174499D01*
X215536500Y-67702547D01*
X215516815Y-67769586D01*
X215500181Y-67790228D01*
X215027227Y-68263181D01*
X214965904Y-68296666D01*
X214939546Y-68299500D01*
X214274998Y-68299500D01*
X214274980Y-68299501D01*
X214172203Y-68310000D01*
X214172200Y-68310001D01*
X214005668Y-68365185D01*
X214005663Y-68365187D01*
X213856342Y-68457289D01*
X213732289Y-68581342D01*
X213640187Y-68730663D01*
X213640185Y-68730668D01*
X213617377Y-68799500D01*
X213585001Y-68897203D01*
X213585001Y-68897204D01*
X213585000Y-68897204D01*
X213574500Y-68999983D01*
X213574500Y-70000001D01*
X213574501Y-70000019D01*
X213585000Y-70102796D01*
X213585001Y-70102799D01*
X213640185Y-70269331D01*
X213640187Y-70269336D01*
X213663013Y-70306342D01*
X213732288Y-70418656D01*
X213856344Y-70542712D01*
X213979285Y-70618542D01*
X214026009Y-70670490D01*
X214037232Y-70739453D01*
X214009388Y-70803535D01*
X214001870Y-70811761D01*
X213957289Y-70856342D01*
X213865187Y-71005663D01*
X213865186Y-71005666D01*
X213810001Y-71172203D01*
X213810001Y-71172204D01*
X213810000Y-71172204D01*
X213799500Y-71274983D01*
X213799500Y-71274991D01*
X213799500Y-71552410D01*
X213799501Y-71753500D01*
X213779817Y-71820539D01*
X213727013Y-71866294D01*
X213675501Y-71877500D01*
X202377500Y-71877500D01*
X202310461Y-71857815D01*
X202264706Y-71805011D01*
X202253500Y-71753500D01*
X202253500Y-69281821D01*
X202250581Y-69267147D01*
X202246879Y-69248537D01*
X202237964Y-69203714D01*
X202229463Y-69160976D01*
X202207771Y-69108607D01*
X202182312Y-69047142D01*
X202141052Y-68985394D01*
X202122273Y-68957289D01*
X202113859Y-68944696D01*
X202113855Y-68944691D01*
X202022414Y-68853250D01*
X202022391Y-68853229D01*
X197149783Y-63980620D01*
X197149782Y-63980619D01*
X197142433Y-63973270D01*
X197142431Y-63973267D01*
X197055306Y-63886142D01*
X197001964Y-63850500D01*
X196952859Y-63817688D01*
X196952860Y-63817688D01*
X196952858Y-63817687D01*
X196913395Y-63801342D01*
X196872365Y-63784347D01*
X196839025Y-63770537D01*
X196778602Y-63758518D01*
X196773879Y-63757578D01*
X196773877Y-63757578D01*
X196718183Y-63746500D01*
X196718180Y-63746500D01*
X196718179Y-63746500D01*
X192655035Y-63746500D01*
X192531821Y-63746500D01*
X192531817Y-63746500D01*
X192476125Y-63757578D01*
X192471399Y-63758518D01*
X192410976Y-63770537D01*
X192410974Y-63770537D01*
X192410973Y-63770538D01*
X192410971Y-63770538D01*
X192376507Y-63784814D01*
X192297147Y-63817685D01*
X192297145Y-63817686D01*
X192281602Y-63828071D01*
X192281593Y-63828078D01*
X192276007Y-63831811D01*
X192194695Y-63886142D01*
X192107570Y-63973267D01*
X192107568Y-63973269D01*
X192103710Y-63977126D01*
X192103704Y-63977132D01*
X191216109Y-64864727D01*
X190473270Y-65607566D01*
X190473267Y-65607569D01*
X190441892Y-65638944D01*
X190386142Y-65694693D01*
X190363089Y-65729195D01*
X190317686Y-65797142D01*
X190303399Y-65831639D01*
X190303398Y-65831642D01*
X190270538Y-65910972D01*
X190270535Y-65910982D01*
X190246500Y-66031816D01*
X190246500Y-68675500D01*
X190226815Y-68742539D01*
X190174011Y-68788294D01*
X190122500Y-68799500D01*
X189512498Y-68799500D01*
X189512480Y-68799501D01*
X189409703Y-68810000D01*
X189409700Y-68810001D01*
X189243168Y-68865185D01*
X189243163Y-68865187D01*
X189093842Y-68957289D01*
X189000181Y-69050951D01*
X188938858Y-69084436D01*
X188869166Y-69079452D01*
X188824819Y-69050951D01*
X188731157Y-68957289D01*
X188731156Y-68957288D01*
X188581834Y-68865186D01*
X188415297Y-68810001D01*
X188415295Y-68810000D01*
X188312510Y-68799500D01*
X187512498Y-68799500D01*
X187512480Y-68799501D01*
X187409703Y-68810000D01*
X187409696Y-68810002D01*
X187301954Y-68845704D01*
X187286389Y-68846239D01*
X187271797Y-68851682D01*
X187252183Y-68847415D01*
X187232126Y-68848105D01*
X187217802Y-68839936D01*
X187203524Y-68836830D01*
X187175270Y-68815679D01*
X187086818Y-68727227D01*
X187053333Y-68665904D01*
X187050499Y-68639546D01*
X187050499Y-67799998D01*
X187050498Y-67799981D01*
X187039999Y-67697203D01*
X187039998Y-67697200D01*
X187032213Y-67673707D01*
X186984814Y-67530666D01*
X186892712Y-67381344D01*
X186768656Y-67257288D01*
X186675888Y-67200069D01*
X186619336Y-67165187D01*
X186619331Y-67165185D01*
X186576490Y-67150989D01*
X186452797Y-67110001D01*
X186452795Y-67110000D01*
X186350010Y-67099500D01*
X185599998Y-67099500D01*
X185599980Y-67099501D01*
X185497203Y-67110000D01*
X185497200Y-67110001D01*
X185330668Y-67165185D01*
X185330663Y-67165187D01*
X185181342Y-67257289D01*
X185057289Y-67381342D01*
X184965187Y-67530663D01*
X184965185Y-67530668D01*
X184956723Y-67556206D01*
X184910001Y-67697203D01*
X184910001Y-67697204D01*
X184910000Y-67697204D01*
X184899500Y-67799983D01*
X184899500Y-69200001D01*
X184899501Y-69200018D01*
X184910000Y-69302796D01*
X184910001Y-69302799D01*
X184965185Y-69469331D01*
X184965187Y-69469336D01*
X185000069Y-69525888D01*
X185057288Y-69618656D01*
X185181344Y-69742712D01*
X185330666Y-69834814D01*
X185497203Y-69889999D01*
X185599991Y-69900500D01*
X186350008Y-69900499D01*
X186419233Y-69893427D01*
X186487923Y-69906196D01*
X186519514Y-69929104D01*
X186775681Y-70185272D01*
X186809166Y-70246595D01*
X186812000Y-70272952D01*
X186812000Y-70500000D01*
X186812001Y-70500009D01*
X186822500Y-70602796D01*
X186822501Y-70602799D01*
X186845760Y-70672989D01*
X186848162Y-70742818D01*
X186815735Y-70799674D01*
X186274681Y-71340728D01*
X186213358Y-71374213D01*
X186143666Y-71369229D01*
X186087733Y-71327357D01*
X186063316Y-71261893D01*
X186063000Y-71253047D01*
X186063000Y-70887286D01*
X186062999Y-70887272D01*
X186058927Y-70856342D01*
X186048187Y-70774764D01*
X185990198Y-70634767D01*
X185897951Y-70514549D01*
X185777733Y-70422302D01*
X185777729Y-70422300D01*
X185662498Y-70374570D01*
X185637736Y-70364313D01*
X185621785Y-70362213D01*
X185525227Y-70349500D01*
X185525220Y-70349500D01*
X185299780Y-70349500D01*
X185299772Y-70349500D01*
X185212893Y-70360938D01*
X185187264Y-70364313D01*
X185187262Y-70364313D01*
X185179208Y-70365374D01*
X185178816Y-70362399D01*
X185146184Y-70362399D01*
X185145792Y-70365374D01*
X185137737Y-70364313D01*
X185137736Y-70364313D01*
X185108771Y-70360499D01*
X185025227Y-70349500D01*
X185025220Y-70349500D01*
X184799780Y-70349500D01*
X184799772Y-70349500D01*
X184712893Y-70360938D01*
X184687264Y-70364313D01*
X184687262Y-70364313D01*
X184679208Y-70365374D01*
X184678816Y-70362399D01*
X184646184Y-70362399D01*
X184645792Y-70365374D01*
X184637737Y-70364313D01*
X184637736Y-70364313D01*
X184608771Y-70360499D01*
X184525227Y-70349500D01*
X184525220Y-70349500D01*
X184299780Y-70349500D01*
X184299772Y-70349500D01*
X184212893Y-70360938D01*
X184187264Y-70364313D01*
X184187262Y-70364313D01*
X184179208Y-70365374D01*
X184178816Y-70362399D01*
X184146184Y-70362399D01*
X184145792Y-70365374D01*
X184137737Y-70364313D01*
X184137736Y-70364313D01*
X184108771Y-70360499D01*
X184025227Y-70349500D01*
X184025220Y-70349500D01*
X183799780Y-70349500D01*
X183799772Y-70349500D01*
X183712893Y-70360938D01*
X183687264Y-70364313D01*
X183687262Y-70364313D01*
X183679208Y-70365374D01*
X183678816Y-70362399D01*
X183646184Y-70362399D01*
X183645792Y-70365374D01*
X183637737Y-70364313D01*
X183637736Y-70364313D01*
X183608771Y-70360499D01*
X183525227Y-70349500D01*
X183525220Y-70349500D01*
X183299780Y-70349500D01*
X183299772Y-70349500D01*
X183212893Y-70360938D01*
X183187264Y-70364313D01*
X183187262Y-70364313D01*
X183179208Y-70365374D01*
X183178816Y-70362399D01*
X183146184Y-70362399D01*
X183145792Y-70365374D01*
X183137737Y-70364313D01*
X183137736Y-70364313D01*
X183108771Y-70360499D01*
X183025227Y-70349500D01*
X183025220Y-70349500D01*
X182799780Y-70349500D01*
X182799772Y-70349500D01*
X182712893Y-70360938D01*
X182687264Y-70364313D01*
X182687262Y-70364313D01*
X182679208Y-70365374D01*
X182678816Y-70362399D01*
X182646184Y-70362399D01*
X182645792Y-70365374D01*
X182637737Y-70364313D01*
X182637736Y-70364313D01*
X182608771Y-70360499D01*
X182525227Y-70349500D01*
X182525220Y-70349500D01*
X182299780Y-70349500D01*
X182299772Y-70349500D01*
X182212893Y-70360938D01*
X182187264Y-70364313D01*
X182187262Y-70364313D01*
X182179208Y-70365374D01*
X182178814Y-70362386D01*
X182178438Y-70362386D01*
X182165445Y-70366539D01*
X182130401Y-70362347D01*
X182129901Y-70362213D01*
X182070242Y-70325846D01*
X182039716Y-70262997D01*
X182038000Y-70242440D01*
X182038000Y-66066321D01*
X182037999Y-66066317D01*
X182013963Y-65945476D01*
X181984564Y-65874500D01*
X181966812Y-65831642D01*
X181921458Y-65763767D01*
X181910998Y-65748113D01*
X181898356Y-65729192D01*
X181808137Y-65638973D01*
X181808106Y-65638944D01*
X180899722Y-64730560D01*
X180892432Y-64723270D01*
X180892430Y-64723267D01*
X180805305Y-64636142D01*
X180754081Y-64601915D01*
X180702858Y-64567688D01*
X180702855Y-64567686D01*
X180702852Y-64567685D01*
X180629175Y-64537168D01*
X180629173Y-64537167D01*
X180622364Y-64534347D01*
X180589024Y-64520537D01*
X180528601Y-64508518D01*
X180523878Y-64507578D01*
X180523876Y-64507578D01*
X180468182Y-64496500D01*
X180468179Y-64496500D01*
X180468178Y-64496500D01*
X177338053Y-64496500D01*
X177271014Y-64476815D01*
X177225259Y-64424011D01*
X177215315Y-64354853D01*
X177244340Y-64291297D01*
X177303118Y-64253523D01*
X177321867Y-64249561D01*
X177338046Y-64247430D01*
X177542238Y-64220548D01*
X177763887Y-64161158D01*
X177766830Y-64159938D01*
X177814285Y-64150499D01*
X178250002Y-64150499D01*
X178250008Y-64150499D01*
X178352797Y-64139999D01*
X178519334Y-64084814D01*
X178668656Y-63992712D01*
X178792712Y-63868656D01*
X178884814Y-63719334D01*
X178939999Y-63552797D01*
X178950500Y-63450009D01*
X178950500Y-62512549D01*
X178950500Y-62385266D01*
X178950500Y-62379153D01*
X178950499Y-62379131D01*
X178950499Y-61549999D01*
X178950498Y-61549983D01*
X179749500Y-61549983D01*
X179749500Y-63450001D01*
X179749501Y-63450019D01*
X179760000Y-63552796D01*
X179760001Y-63552799D01*
X179815185Y-63719331D01*
X179815187Y-63719336D01*
X179822594Y-63731344D01*
X179907288Y-63868656D01*
X180031344Y-63992712D01*
X180180666Y-64084814D01*
X180347203Y-64139999D01*
X180449991Y-64150500D01*
X180885715Y-64150499D01*
X180933169Y-64159938D01*
X180936113Y-64161158D01*
X181157762Y-64220548D01*
X181385266Y-64250500D01*
X184125500Y-64250500D01*
X184192539Y-64270185D01*
X184238294Y-64322989D01*
X184249500Y-64374500D01*
X184249500Y-64864741D01*
X184274446Y-65054215D01*
X184279452Y-65092238D01*
X184279453Y-65092240D01*
X184338842Y-65313887D01*
X184426650Y-65525876D01*
X184426657Y-65525890D01*
X184541392Y-65724617D01*
X184681081Y-65906661D01*
X184681089Y-65906670D01*
X184843330Y-66068911D01*
X184843338Y-66068918D01*
X184843339Y-66068919D01*
X184893962Y-66107764D01*
X185025382Y-66208607D01*
X185025385Y-66208608D01*
X185025388Y-66208611D01*
X185224112Y-66323344D01*
X185224117Y-66323346D01*
X185224123Y-66323349D01*
X185315480Y-66361190D01*
X185436113Y-66411158D01*
X185657762Y-66470548D01*
X185885266Y-66500500D01*
X185885273Y-66500500D01*
X186114727Y-66500500D01*
X186114734Y-66500500D01*
X186342238Y-66470548D01*
X186563887Y-66411158D01*
X186775888Y-66323344D01*
X186974612Y-66208611D01*
X187156661Y-66068919D01*
X187156665Y-66068914D01*
X187156670Y-66068911D01*
X187318911Y-65906670D01*
X187318914Y-65906665D01*
X187318919Y-65906661D01*
X187458611Y-65724612D01*
X187573344Y-65525888D01*
X187661158Y-65313887D01*
X187720548Y-65092238D01*
X187750500Y-64864734D01*
X187750500Y-61135266D01*
X187732499Y-60998537D01*
X187720549Y-60907761D01*
X187661158Y-60686113D01*
X187573344Y-60474112D01*
X187561347Y-60453333D01*
X187458611Y-60275388D01*
X187370073Y-60160002D01*
X187370069Y-60159999D01*
X187318919Y-60093337D01*
X187156666Y-59931084D01*
X187156659Y-59931078D01*
X187052646Y-59851267D01*
X187052644Y-59851265D01*
X186974616Y-59791392D01*
X186974615Y-59791391D01*
X186974612Y-59791389D01*
X186775888Y-59676656D01*
X186775881Y-59676652D01*
X186563893Y-59588844D01*
X186563874Y-59588837D01*
X186559989Y-59587797D01*
X186559983Y-59587793D01*
X186559983Y-59587796D01*
X186342239Y-59529451D01*
X186342236Y-59529450D01*
X186342233Y-59529450D01*
X186221460Y-59513551D01*
X186114741Y-59499500D01*
X186114734Y-59499500D01*
X185885266Y-59499500D01*
X185885258Y-59499500D01*
X185790397Y-59511989D01*
X185778539Y-59513551D01*
X185657766Y-59529450D01*
X185657761Y-59529451D01*
X185440017Y-59587796D01*
X185440014Y-59587796D01*
X185436126Y-59588837D01*
X185436106Y-59588844D01*
X185224118Y-59676652D01*
X185224109Y-59676657D01*
X185025383Y-59791392D01*
X184947353Y-59851267D01*
X184843340Y-59931078D01*
X184843333Y-59931084D01*
X184061238Y-60713181D01*
X183999915Y-60746666D01*
X183973557Y-60749500D01*
X181385258Y-60749500D01*
X181168715Y-60778009D01*
X181157762Y-60779452D01*
X181076624Y-60801192D01*
X180936108Y-60838843D01*
X180936106Y-60838843D01*
X180933162Y-60840063D01*
X180885715Y-60849500D01*
X180449998Y-60849500D01*
X180449980Y-60849501D01*
X180347203Y-60860000D01*
X180347200Y-60860001D01*
X180180668Y-60915185D01*
X180180663Y-60915187D01*
X180031342Y-61007289D01*
X179907289Y-61131342D01*
X179815187Y-61280663D01*
X179815186Y-61280666D01*
X179760001Y-61447203D01*
X179760001Y-61447204D01*
X179760000Y-61447204D01*
X179749500Y-61549983D01*
X178950498Y-61549983D01*
X178950498Y-61549980D01*
X178939999Y-61447203D01*
X178939998Y-61447200D01*
X178923825Y-61398394D01*
X178884814Y-61280666D01*
X178792712Y-61131344D01*
X178668656Y-61007288D01*
X178575888Y-60950069D01*
X178519336Y-60915187D01*
X178519331Y-60915185D01*
X178496927Y-60907761D01*
X178352797Y-60860001D01*
X178352795Y-60860000D01*
X178250016Y-60849500D01*
X178250009Y-60849500D01*
X177814283Y-60849500D01*
X177766828Y-60840060D01*
X177763887Y-60838842D01*
X177542238Y-60779452D01*
X177504215Y-60774446D01*
X177314741Y-60749500D01*
X177314734Y-60749500D01*
X167930301Y-60749500D01*
X167863262Y-60729815D01*
X167817507Y-60677011D01*
X167812595Y-60664504D01*
X167788720Y-60592454D01*
X167784814Y-60580666D01*
X167775139Y-60564981D01*
X167692713Y-60431348D01*
X167692710Y-60431344D01*
X167568655Y-60307289D01*
X167568651Y-60307286D01*
X167419337Y-60215187D01*
X167419335Y-60215186D01*
X167336065Y-60187593D01*
X167252797Y-60160001D01*
X167252795Y-60160000D01*
X167150015Y-60149500D01*
X167150008Y-60149500D01*
X164849992Y-60149500D01*
X164849984Y-60149500D01*
X164747204Y-60160000D01*
X164747203Y-60160001D01*
X164580664Y-60215186D01*
X164580662Y-60215187D01*
X164431348Y-60307286D01*
X164431344Y-60307289D01*
X164307289Y-60431344D01*
X164307286Y-60431348D01*
X164215187Y-60580662D01*
X164215186Y-60580664D01*
X164160001Y-60747203D01*
X164160000Y-60747204D01*
X164149500Y-60849984D01*
X164149500Y-63150015D01*
X164160000Y-63252795D01*
X164160001Y-63252796D01*
X164215186Y-63419335D01*
X164215187Y-63419337D01*
X164307286Y-63568651D01*
X164307289Y-63568655D01*
X164431344Y-63692710D01*
X164431348Y-63692713D01*
X164580662Y-63784812D01*
X164580664Y-63784813D01*
X164580666Y-63784814D01*
X164747203Y-63839999D01*
X164849992Y-63850500D01*
X165342402Y-63850500D01*
X165409441Y-63870185D01*
X165417888Y-63876124D01*
X165525386Y-63958610D01*
X165525388Y-63958611D01*
X165617338Y-64011698D01*
X165724112Y-64073345D01*
X165838620Y-64120775D01*
X165936113Y-64161158D01*
X165974781Y-64171519D01*
X166157761Y-64220549D01*
X166349742Y-64245823D01*
X166378133Y-64249561D01*
X166442030Y-64277827D01*
X166480501Y-64336152D01*
X166481332Y-64406016D01*
X166444260Y-64465240D01*
X166381055Y-64495019D01*
X166361948Y-64496500D01*
X164692342Y-64496500D01*
X164636650Y-64507578D01*
X164631924Y-64508518D01*
X164588696Y-64517116D01*
X164571499Y-64520537D01*
X164457669Y-64567687D01*
X164457660Y-64567692D01*
X164355221Y-64636140D01*
X164311658Y-64679703D01*
X164268095Y-64723267D01*
X158744447Y-70246914D01*
X158744437Y-70246924D01*
X158742270Y-70249092D01*
X158742267Y-70249095D01*
X158655142Y-70336220D01*
X158636371Y-70364313D01*
X158631310Y-70371886D01*
X158631309Y-70371888D01*
X158586690Y-70438663D01*
X158586687Y-70438669D01*
X158561279Y-70500008D01*
X158561280Y-70500009D01*
X158539536Y-70552502D01*
X158539535Y-70552507D01*
X158529087Y-70605029D01*
X158529088Y-70605030D01*
X158523165Y-70634814D01*
X158521430Y-70643536D01*
X158515500Y-70673347D01*
X158515500Y-91077606D01*
X158525307Y-91126911D01*
X158539529Y-91198413D01*
X158539536Y-91198447D01*
X158539539Y-91198457D01*
X158586685Y-91312280D01*
X158586687Y-91312283D01*
X158586688Y-91312286D01*
X158620915Y-91363509D01*
X158655142Y-91414733D01*
X158742267Y-91501858D01*
X158742270Y-91501860D01*
X158749554Y-91509144D01*
X159800681Y-92560271D01*
X159834166Y-92621594D01*
X159837000Y-92647952D01*
X159837000Y-93225001D01*
X159837001Y-93225019D01*
X159847500Y-93327796D01*
X159847501Y-93327799D01*
X159896279Y-93475000D01*
X159902686Y-93494334D01*
X159992532Y-93639999D01*
X159994789Y-93643657D01*
X160088451Y-93737319D01*
X160121936Y-93798642D01*
X160116952Y-93868334D01*
X160088451Y-93912681D01*
X159994789Y-94006342D01*
X159902687Y-94155663D01*
X159902685Y-94155668D01*
X159874849Y-94239670D01*
X159847501Y-94322203D01*
X159847501Y-94322204D01*
X159847500Y-94322204D01*
X159837000Y-94424983D01*
X159837000Y-95225001D01*
X159837001Y-95225019D01*
X159847500Y-95327796D01*
X159847501Y-95327799D01*
X159855183Y-95350981D01*
X159902686Y-95494334D01*
X159994788Y-95643656D01*
X160118844Y-95767712D01*
X160268166Y-95859814D01*
X160434703Y-95914999D01*
X160537491Y-95925500D01*
X161537508Y-95925499D01*
X161537516Y-95925498D01*
X161537519Y-95925498D01*
X161593802Y-95919748D01*
X161640297Y-95914999D01*
X161806834Y-95859814D01*
X161956156Y-95767712D01*
X162080212Y-95643656D01*
X162172314Y-95494334D01*
X162187669Y-95447994D01*
X162227442Y-95390550D01*
X162291959Y-95363728D01*
X162305375Y-95363000D01*
X168574107Y-95363000D01*
X168634529Y-95350981D01*
X168694952Y-95338963D01*
X168728292Y-95325152D01*
X168808786Y-95291812D01*
X168860009Y-95257584D01*
X168911233Y-95223358D01*
X168998358Y-95136233D01*
X168998359Y-95136231D01*
X169005425Y-95129165D01*
X169005428Y-95129161D01*
X169372771Y-94761818D01*
X169434094Y-94728333D01*
X169460452Y-94725499D01*
X169782502Y-94725499D01*
X169782508Y-94725499D01*
X169885297Y-94714999D01*
X170051834Y-94659814D01*
X170201156Y-94567712D01*
X170325212Y-94443656D01*
X170417314Y-94294334D01*
X170472499Y-94127797D01*
X170483000Y-94025009D01*
X170482999Y-93977046D01*
X170502682Y-93910009D01*
X170510485Y-93899288D01*
X170510851Y-93898739D01*
X170510858Y-93898733D01*
X170579311Y-93796286D01*
X170626463Y-93682452D01*
X170650500Y-93561606D01*
X170650500Y-92963394D01*
X170647837Y-92950008D01*
X170632818Y-92874500D01*
X170626463Y-92842548D01*
X170583283Y-92738302D01*
X170579312Y-92728715D01*
X170561110Y-92701474D01*
X170560461Y-92700502D01*
X170560459Y-92700500D01*
X170510858Y-92626267D01*
X170510856Y-92626264D01*
X170420637Y-92536045D01*
X170420606Y-92536016D01*
X170239732Y-92355142D01*
X170206247Y-92293819D01*
X170210552Y-92233617D01*
X170208583Y-92233090D01*
X170210686Y-92225240D01*
X170225499Y-92112727D01*
X170225500Y-92112720D01*
X170225500Y-91887280D01*
X170210687Y-91774764D01*
X170210686Y-91774763D01*
X170209626Y-91766707D01*
X170212888Y-91766277D01*
X170214164Y-91711789D01*
X170253304Y-91653912D01*
X170317522Y-91626383D01*
X170332291Y-91625500D01*
X170811608Y-91625500D01*
X170811608Y-91625499D01*
X170875857Y-91612720D01*
X170932452Y-91601463D01*
X170965792Y-91587652D01*
X171046286Y-91554312D01*
X171097509Y-91520084D01*
X171148733Y-91485858D01*
X171235858Y-91398733D01*
X171235859Y-91398731D01*
X171242925Y-91391665D01*
X171242927Y-91391661D01*
X172972771Y-89661819D01*
X173034094Y-89628334D01*
X173060452Y-89625500D01*
X187000500Y-89625500D01*
X187067539Y-89645185D01*
X187113294Y-89697989D01*
X187124500Y-89749500D01*
X187124500Y-90125500D01*
X187104815Y-90192539D01*
X187052011Y-90238294D01*
X187000500Y-90249500D01*
X181385258Y-90249500D01*
X181168715Y-90278009D01*
X181157762Y-90279452D01*
X181122886Y-90288797D01*
X180936108Y-90338843D01*
X180936106Y-90338843D01*
X180933162Y-90340063D01*
X180885715Y-90349500D01*
X180449998Y-90349500D01*
X180449980Y-90349501D01*
X180347203Y-90360000D01*
X180347200Y-90360001D01*
X180180668Y-90415185D01*
X180180663Y-90415187D01*
X180031342Y-90507289D01*
X179907289Y-90631342D01*
X179815187Y-90780663D01*
X179815186Y-90780665D01*
X179815186Y-90780666D01*
X179760001Y-90947203D01*
X179760001Y-90947204D01*
X179760000Y-90947204D01*
X179749500Y-91049983D01*
X179749500Y-92950001D01*
X179749501Y-92950019D01*
X179760000Y-93052796D01*
X179760001Y-93052799D01*
X179815185Y-93219331D01*
X179815187Y-93219336D01*
X179850069Y-93275888D01*
X179907288Y-93368656D01*
X180031344Y-93492712D01*
X180180666Y-93584814D01*
X180347203Y-93639999D01*
X180449991Y-93650500D01*
X180885715Y-93650499D01*
X180933169Y-93659938D01*
X180936113Y-93661158D01*
X181157762Y-93720548D01*
X181374312Y-93749057D01*
X181385250Y-93750498D01*
X181385266Y-93750500D01*
X183635266Y-93750500D01*
X184135266Y-93750500D01*
X184885266Y-93750500D01*
X186135266Y-93750500D01*
X187385266Y-93750500D01*
X187924782Y-93750500D01*
X187991821Y-93770185D01*
X188030319Y-93809401D01*
X188082288Y-93893656D01*
X188206344Y-94017712D01*
X188355666Y-94109814D01*
X188522203Y-94164999D01*
X188624991Y-94175500D01*
X189450008Y-94175499D01*
X189450016Y-94175498D01*
X189450019Y-94175498D01*
X189506302Y-94169748D01*
X189552797Y-94164999D01*
X189719334Y-94109814D01*
X189868656Y-94017712D01*
X189992712Y-93893656D01*
X190084814Y-93744334D01*
X190139999Y-93577797D01*
X190150500Y-93475009D01*
X190150499Y-93413393D01*
X190170183Y-93346355D01*
X190191318Y-93321817D01*
X190191291Y-93321790D01*
X190191661Y-93321419D01*
X190192749Y-93320157D01*
X190194152Y-93318925D01*
X190194161Y-93318919D01*
X190202088Y-93310992D01*
X190356411Y-93156670D01*
X190356414Y-93156665D01*
X190356419Y-93156661D01*
X190496111Y-92974612D01*
X190610844Y-92775888D01*
X190698658Y-92563887D01*
X190758048Y-92342238D01*
X190788000Y-92114734D01*
X190788000Y-91885266D01*
X190758048Y-91657762D01*
X190698658Y-91436113D01*
X190629448Y-91269026D01*
X190610849Y-91224123D01*
X190610846Y-91224117D01*
X190610844Y-91224112D01*
X190496111Y-91025388D01*
X190496108Y-91025385D01*
X190496107Y-91025382D01*
X190387455Y-90883786D01*
X190356419Y-90843339D01*
X190194161Y-90681081D01*
X190194156Y-90681077D01*
X190194150Y-90681071D01*
X190192725Y-90679821D01*
X190192421Y-90679342D01*
X190191291Y-90678212D01*
X190191544Y-90677958D01*
X190155311Y-90620813D01*
X190150499Y-90586606D01*
X190150499Y-90524998D01*
X190150498Y-90524981D01*
X190139999Y-90422203D01*
X190139998Y-90422200D01*
X190120816Y-90364313D01*
X190084814Y-90255666D01*
X189992712Y-90106344D01*
X189868656Y-89982288D01*
X189719334Y-89890186D01*
X189552797Y-89835001D01*
X189552795Y-89835000D01*
X189450010Y-89824500D01*
X188624998Y-89824500D01*
X188624980Y-89824501D01*
X188515468Y-89835689D01*
X188515249Y-89833545D01*
X188455756Y-89829079D01*
X188399971Y-89787010D01*
X188375785Y-89721460D01*
X188375500Y-89713051D01*
X188375500Y-89249500D01*
X188395185Y-89182461D01*
X188447989Y-89136706D01*
X188499500Y-89125500D01*
X192689548Y-89125500D01*
X192756587Y-89145185D01*
X192777229Y-89161819D01*
X193850124Y-90234714D01*
X193883609Y-90296037D01*
X193880149Y-90361399D01*
X193860001Y-90422201D01*
X193849500Y-90524983D01*
X193849500Y-90586607D01*
X193829815Y-90653646D01*
X193808682Y-90678185D01*
X193808709Y-90678212D01*
X193808358Y-90678562D01*
X193807273Y-90679823D01*
X193805847Y-90681073D01*
X193643581Y-90843338D01*
X193503892Y-91025382D01*
X193389157Y-91224109D01*
X193389150Y-91224123D01*
X193301342Y-91436112D01*
X193301342Y-91436113D01*
X193248114Y-91634767D01*
X193241953Y-91657759D01*
X193241951Y-91657770D01*
X193212000Y-91885258D01*
X193212000Y-92114741D01*
X193235577Y-92293819D01*
X193241952Y-92342238D01*
X193280701Y-92486853D01*
X193301342Y-92563887D01*
X193389150Y-92775876D01*
X193389157Y-92775890D01*
X193432233Y-92850500D01*
X193493177Y-92956059D01*
X193503892Y-92974617D01*
X193563884Y-93052799D01*
X193643581Y-93156661D01*
X193805839Y-93318919D01*
X193805843Y-93318922D01*
X193805846Y-93318925D01*
X193807261Y-93320166D01*
X193807562Y-93320641D01*
X193808709Y-93321788D01*
X193808452Y-93322044D01*
X193844684Y-93379168D01*
X193849500Y-93413390D01*
X193849500Y-93475000D01*
X193849501Y-93475019D01*
X193860000Y-93577796D01*
X193860001Y-93577799D01*
X193915185Y-93744331D01*
X193915187Y-93744336D01*
X193931131Y-93770185D01*
X194007288Y-93893656D01*
X194131344Y-94017712D01*
X194280666Y-94109814D01*
X194447203Y-94164999D01*
X194549991Y-94175500D01*
X195375008Y-94175499D01*
X195375016Y-94175498D01*
X195375019Y-94175498D01*
X195431302Y-94169748D01*
X195477797Y-94164999D01*
X195644334Y-94109814D01*
X195793656Y-94017712D01*
X195917712Y-93893656D01*
X195969680Y-93809402D01*
X196021627Y-93762679D01*
X196075218Y-93750500D01*
X207614727Y-93750500D01*
X207614734Y-93750500D01*
X207815771Y-93724032D01*
X207815772Y-93724032D01*
X207842229Y-93720550D01*
X207842234Y-93720548D01*
X207842239Y-93720548D01*
X208063887Y-93661158D01*
X208275888Y-93573344D01*
X208296219Y-93561606D01*
X208474612Y-93458611D01*
X208591843Y-93368656D01*
X208656661Y-93318920D01*
X209088762Y-92886819D01*
X209150085Y-92853334D01*
X209176443Y-92850500D01*
X209650003Y-92850500D01*
X209650008Y-92850500D01*
X209752797Y-92839999D01*
X209919334Y-92784814D01*
X210068655Y-92692711D01*
X210192711Y-92568655D01*
X210284814Y-92419334D01*
X210339999Y-92252797D01*
X210350500Y-92150008D01*
X210350500Y-89849992D01*
X210339999Y-89747203D01*
X210284814Y-89580666D01*
X210267139Y-89552011D01*
X210192713Y-89431348D01*
X210192710Y-89431344D01*
X210068655Y-89307289D01*
X210068651Y-89307286D01*
X209919337Y-89215187D01*
X209919335Y-89215186D01*
X209836065Y-89187593D01*
X209752797Y-89160001D01*
X209752795Y-89160000D01*
X209650015Y-89149500D01*
X209650008Y-89149500D01*
X207349992Y-89149500D01*
X207349984Y-89149500D01*
X207247204Y-89160000D01*
X207247203Y-89160001D01*
X207080664Y-89215186D01*
X207080662Y-89215187D01*
X206931348Y-89307286D01*
X206931344Y-89307289D01*
X206807289Y-89431344D01*
X206807286Y-89431348D01*
X206715187Y-89580662D01*
X206715186Y-89580664D01*
X206660001Y-89747203D01*
X206660000Y-89747204D01*
X206649500Y-89849984D01*
X206649500Y-90125500D01*
X206629815Y-90192539D01*
X206577011Y-90238294D01*
X206525500Y-90249500D01*
X196075218Y-90249500D01*
X196008179Y-90229815D01*
X195969679Y-90190597D01*
X195917712Y-90106344D01*
X195793656Y-89982288D01*
X195644334Y-89890186D01*
X195477797Y-89835001D01*
X195477795Y-89835000D01*
X195375016Y-89824500D01*
X195375009Y-89824500D01*
X195260452Y-89824500D01*
X195193413Y-89804815D01*
X195172771Y-89788181D01*
X193721771Y-88337181D01*
X193688286Y-88275858D01*
X193693270Y-88206166D01*
X193735142Y-88150233D01*
X193800606Y-88125816D01*
X193809452Y-88125500D01*
X218250500Y-88125500D01*
X218317539Y-88145185D01*
X218363294Y-88197989D01*
X218374500Y-88249500D01*
X218374500Y-88561611D01*
X218398535Y-88682444D01*
X218398540Y-88682461D01*
X218445685Y-88796281D01*
X218445687Y-88796285D01*
X218445688Y-88796286D01*
X218468661Y-88830666D01*
X218514142Y-88898733D01*
X218601267Y-88985858D01*
X218601270Y-88985860D01*
X218609047Y-88993637D01*
X220261016Y-90645606D01*
X220261045Y-90645637D01*
X220351264Y-90735856D01*
X220351267Y-90735858D01*
X220406727Y-90772915D01*
X220453715Y-90804312D01*
X220520397Y-90831932D01*
X220567548Y-90851463D01*
X220688394Y-90875500D01*
X220688396Y-90875500D01*
X230561608Y-90875500D01*
X230561608Y-90875499D01*
X230633333Y-90861233D01*
X230682452Y-90851463D01*
X230725700Y-90833549D01*
X230796286Y-90804312D01*
X230864420Y-90758785D01*
X230898733Y-90735858D01*
X230985858Y-90648733D01*
X230985859Y-90648731D01*
X230992925Y-90641665D01*
X230992928Y-90641661D01*
X232148729Y-89485860D01*
X232148733Y-89485858D01*
X232235858Y-89398733D01*
X232287256Y-89321809D01*
X232304312Y-89296285D01*
X232345980Y-89195689D01*
X232351463Y-89182452D01*
X232366754Y-89105577D01*
X232367865Y-89099994D01*
X232367865Y-89099990D01*
X232375500Y-89061607D01*
X232375500Y-88938393D01*
X232375500Y-85938394D01*
X232375500Y-85938389D01*
X232357101Y-85845893D01*
X232351463Y-85817548D01*
X232329342Y-85764143D01*
X232304312Y-85703715D01*
X232304309Y-85703710D01*
X232291134Y-85683993D01*
X232291132Y-85683990D01*
X232287256Y-85678190D01*
X232235858Y-85601267D01*
X232148733Y-85514142D01*
X232148729Y-85514139D01*
X230990198Y-84355608D01*
X230990178Y-84355586D01*
X230898733Y-84264141D01*
X230853559Y-84233957D01*
X230853555Y-84233955D01*
X230847509Y-84229915D01*
X230796286Y-84195688D01*
X230706659Y-84158564D01*
X230697147Y-84154624D01*
X230682453Y-84148537D01*
X230664474Y-84144961D01*
X230622029Y-84136518D01*
X230561610Y-84124500D01*
X230561607Y-84124500D01*
X230561606Y-84124500D01*
X226811606Y-84124500D01*
X226688393Y-84124500D01*
X226688388Y-84124500D01*
X226567555Y-84148535D01*
X226567547Y-84148537D01*
X226453716Y-84195687D01*
X226351266Y-84264142D01*
X226189622Y-84425786D01*
X226169801Y-84441888D01*
X226164463Y-84445377D01*
X226163715Y-84445688D01*
X226151702Y-84453715D01*
X226151232Y-84454028D01*
X226151151Y-84454082D01*
X226061268Y-84514140D01*
X226037409Y-84538000D01*
X225974142Y-84601267D01*
X225974139Y-84601270D01*
X224417837Y-86157571D01*
X224356514Y-86191056D01*
X224291838Y-86187821D01*
X224284219Y-86185345D01*
X224276241Y-86182753D01*
X224105797Y-86155757D01*
X224066287Y-86149500D01*
X223954451Y-86149500D01*
X223887412Y-86129815D01*
X223841657Y-86077011D01*
X223831713Y-86007853D01*
X223860738Y-85944297D01*
X223866770Y-85937819D01*
X226710746Y-83093844D01*
X229739771Y-80064819D01*
X229801094Y-80031334D01*
X229827452Y-80028500D01*
X231658608Y-80028500D01*
X231658608Y-80028499D01*
X231730786Y-80014143D01*
X231779452Y-80004463D01*
X231837108Y-79980581D01*
X231893286Y-79957312D01*
X231951836Y-79918189D01*
X231995733Y-79888858D01*
X232082858Y-79801733D01*
X232082858Y-79801731D01*
X232093066Y-79791524D01*
X232093067Y-79791521D01*
X233985857Y-77898734D01*
X233993511Y-77887280D01*
X234002051Y-77874500D01*
X234054307Y-77796292D01*
X234054307Y-77796291D01*
X234054311Y-77796286D01*
X234101463Y-77682452D01*
X234115333Y-77612720D01*
X234125500Y-77561607D01*
X234125500Y-77476071D01*
X234125900Y-77471104D01*
X234136691Y-77442943D01*
X234145185Y-77414018D01*
X234149338Y-77409940D01*
X234150902Y-77405861D01*
X234161206Y-77398289D01*
X234184401Y-77375520D01*
X234318656Y-77292712D01*
X234442712Y-77168656D01*
X234534814Y-77019334D01*
X234589999Y-76852797D01*
X234594199Y-76811681D01*
X234600500Y-76750012D01*
X234600500Y-76750009D01*
X234600499Y-75749992D01*
X234600249Y-75747548D01*
X234589999Y-75647203D01*
X234589998Y-75647200D01*
X234578091Y-75611267D01*
X234534814Y-75480666D01*
X234442712Y-75331344D01*
X234318656Y-75207288D01*
X234184402Y-75124480D01*
X234137679Y-75072533D01*
X234125500Y-75018942D01*
X234125500Y-69231057D01*
X234145185Y-69164018D01*
X234184401Y-69125520D01*
X234318656Y-69042712D01*
X234442712Y-68918656D01*
X234534814Y-68769334D01*
X234589999Y-68602797D01*
X234600500Y-68500009D01*
X234600499Y-67499992D01*
X234595652Y-67452547D01*
X234589999Y-67397203D01*
X234589998Y-67397200D01*
X234575376Y-67353074D01*
X234534814Y-67230666D01*
X234442712Y-67081344D01*
X234318656Y-66957288D01*
X234184402Y-66874480D01*
X234137679Y-66822533D01*
X234125500Y-66768942D01*
X234125500Y-60287230D01*
X234145185Y-60220191D01*
X234161819Y-60199549D01*
X234162319Y-60199049D01*
X234192712Y-60168656D01*
X234284814Y-60019334D01*
X234339999Y-59852797D01*
X234350500Y-59750009D01*
X234350499Y-58749992D01*
X234348948Y-58734812D01*
X234339999Y-58647203D01*
X234339998Y-58647200D01*
X234305912Y-58544336D01*
X234284814Y-58480666D01*
X234192712Y-58331344D01*
X234068656Y-58207288D01*
X233940451Y-58128211D01*
X233919336Y-58115187D01*
X233919331Y-58115185D01*
X233873554Y-58100016D01*
X233752797Y-58060001D01*
X233752795Y-58060000D01*
X233650010Y-58049500D01*
X232849998Y-58049500D01*
X232849980Y-58049501D01*
X232747203Y-58060000D01*
X232747200Y-58060001D01*
X232580668Y-58115185D01*
X232580663Y-58115187D01*
X232431342Y-58207289D01*
X232337681Y-58300951D01*
X232276358Y-58334436D01*
X232206666Y-58329452D01*
X232162319Y-58300951D01*
X232068657Y-58207289D01*
X232068656Y-58207288D01*
X231940451Y-58128211D01*
X231919336Y-58115187D01*
X231919331Y-58115185D01*
X231873554Y-58100016D01*
X231752797Y-58060001D01*
X231752795Y-58060000D01*
X231650010Y-58049500D01*
X230849998Y-58049500D01*
X230849980Y-58049501D01*
X230747203Y-58060000D01*
X230747200Y-58060001D01*
X230580668Y-58115185D01*
X230580663Y-58115187D01*
X230431342Y-58207289D01*
X230307289Y-58331342D01*
X230215187Y-58480663D01*
X230215185Y-58480668D01*
X230203312Y-58516498D01*
X230160001Y-58647203D01*
X230160001Y-58647204D01*
X230160000Y-58647204D01*
X230149500Y-58749983D01*
X230149500Y-59414547D01*
X230129815Y-59481586D01*
X230113181Y-59502228D01*
X229202227Y-60413181D01*
X229140904Y-60446666D01*
X229114546Y-60449500D01*
X227677129Y-60449500D01*
X227677123Y-60449501D01*
X227617516Y-60455908D01*
X227482671Y-60506202D01*
X227482664Y-60506206D01*
X227367455Y-60592452D01*
X227367452Y-60592455D01*
X227281206Y-60707664D01*
X227281202Y-60707671D01*
X227230908Y-60842516D01*
X227228625Y-60863757D01*
X227201886Y-60928308D01*
X227144493Y-60968155D01*
X227105336Y-60974500D01*
X221944664Y-60974500D01*
X221877625Y-60954815D01*
X221831870Y-60902011D01*
X221821374Y-60863754D01*
X221820970Y-60860000D01*
X221819091Y-60842517D01*
X221768796Y-60707669D01*
X221768795Y-60707668D01*
X221768793Y-60707664D01*
X221682547Y-60592455D01*
X221682544Y-60592452D01*
X221567335Y-60506206D01*
X221567328Y-60506202D01*
X221432482Y-60455908D01*
X221432483Y-60455908D01*
X221372883Y-60449501D01*
X221372881Y-60449500D01*
X221372873Y-60449500D01*
X221372864Y-60449500D01*
X219727129Y-60449500D01*
X219727123Y-60449501D01*
X219667516Y-60455908D01*
X219532671Y-60506202D01*
X219532664Y-60506206D01*
X219417455Y-60592452D01*
X219417452Y-60592455D01*
X219331206Y-60707664D01*
X219331202Y-60707671D01*
X219280908Y-60842517D01*
X219274501Y-60902116D01*
X219274500Y-60902135D01*
X219274500Y-61939547D01*
X219254815Y-62006586D01*
X219238181Y-62027228D01*
X218014144Y-63251264D01*
X218014138Y-63251272D01*
X217945690Y-63353708D01*
X217945688Y-63353713D01*
X217924730Y-63404312D01*
X217898538Y-63467544D01*
X217898535Y-63467556D01*
X217874500Y-63588389D01*
X217874500Y-70189548D01*
X217854815Y-70256587D01*
X217838181Y-70277229D01*
X216412180Y-71703229D01*
X216350857Y-71736714D01*
X216281165Y-71731730D01*
X216225232Y-71689858D01*
X216200815Y-71624394D01*
X216200499Y-71615563D01*
X216200499Y-71274992D01*
X216198496Y-71255387D01*
X216189999Y-71172203D01*
X216189998Y-71172200D01*
X216175421Y-71128210D01*
X216134814Y-71005666D01*
X216042712Y-70856344D01*
X215918656Y-70732288D01*
X215797693Y-70657678D01*
X215769336Y-70640187D01*
X215769331Y-70640185D01*
X215753122Y-70634814D01*
X215678492Y-70610084D01*
X215621049Y-70570312D01*
X215594226Y-70505797D01*
X215606541Y-70437021D01*
X215614195Y-70424973D01*
X215613920Y-70424803D01*
X215617710Y-70418657D01*
X215617712Y-70418656D01*
X215709814Y-70269334D01*
X215764999Y-70102797D01*
X215775500Y-70000009D01*
X215775499Y-69335452D01*
X215795183Y-69268414D01*
X215811818Y-69247772D01*
X216212176Y-68847415D01*
X216647858Y-68411733D01*
X216716312Y-68309285D01*
X216760040Y-68203715D01*
X216763463Y-68195452D01*
X216777576Y-68124500D01*
X216787501Y-68074606D01*
X216787501Y-67951393D01*
X216787501Y-67946283D01*
X216787500Y-67946257D01*
X216787500Y-60568406D01*
X216783739Y-60549502D01*
X216783738Y-60549496D01*
X216769099Y-60475893D01*
X216769099Y-60475892D01*
X216764048Y-60450500D01*
X216763463Y-60447560D01*
X216737473Y-60384814D01*
X216716312Y-60333727D01*
X216680046Y-60279452D01*
X216647858Y-60231279D01*
X216560733Y-60144154D01*
X216560729Y-60144151D01*
X215603758Y-59187180D01*
X215570273Y-59125857D01*
X215575257Y-59056165D01*
X215617129Y-59000232D01*
X215682593Y-58975815D01*
X215691416Y-58975499D01*
X216312508Y-58975499D01*
X216312516Y-58975498D01*
X216312519Y-58975498D01*
X216368802Y-58969748D01*
X216415297Y-58964999D01*
X216581834Y-58909814D01*
X216731156Y-58817712D01*
X216855212Y-58693656D01*
X216947314Y-58544334D01*
X217002499Y-58377797D01*
X217013000Y-58275009D01*
X217012999Y-57224992D01*
X217012191Y-57217087D01*
X217002499Y-57122203D01*
X217002498Y-57122200D01*
X216995561Y-57101267D01*
X216947314Y-56955666D01*
X216855212Y-56806344D01*
X216731156Y-56682288D01*
X216630346Y-56620108D01*
X216581836Y-56590187D01*
X216581831Y-56590185D01*
X216517132Y-56568746D01*
X216415297Y-56535001D01*
X216415295Y-56535000D01*
X216312510Y-56524500D01*
X215537498Y-56524500D01*
X215537480Y-56524501D01*
X215434703Y-56535000D01*
X215434700Y-56535001D01*
X215268168Y-56590185D01*
X215268163Y-56590187D01*
X215118842Y-56682289D01*
X214994789Y-56806342D01*
X214987360Y-56818386D01*
X214979217Y-56831590D01*
X214978749Y-56832348D01*
X214926801Y-56879072D01*
X214873211Y-56891250D01*
X212171639Y-56891250D01*
X212115342Y-56902448D01*
X212115337Y-56902449D01*
X212111221Y-56903268D01*
X212050798Y-56915287D01*
X212026142Y-56925500D01*
X212018768Y-56928554D01*
X212018758Y-56928557D01*
X211936963Y-56962438D01*
X211936958Y-56962440D01*
X211834522Y-57030888D01*
X211834514Y-57030894D01*
X211747391Y-57118017D01*
X211747390Y-57118019D01*
X211747389Y-57118020D01*
X211683626Y-57181783D01*
X211632477Y-57232932D01*
X211571154Y-57266416D01*
X211544796Y-57269250D01*
X211172730Y-57269250D01*
X211172723Y-57269251D01*
X211113116Y-57275658D01*
X210978271Y-57325952D01*
X210978269Y-57325953D01*
X210939310Y-57355118D01*
X210873845Y-57379534D01*
X210805572Y-57364682D01*
X210790690Y-57355118D01*
X210751730Y-57325953D01*
X210751728Y-57325952D01*
X210616882Y-57275658D01*
X210616883Y-57275658D01*
X210557283Y-57269251D01*
X210557281Y-57269250D01*
X210557273Y-57269250D01*
X210557265Y-57269250D01*
X210386052Y-57269250D01*
X210356611Y-57260605D01*
X210326625Y-57254082D01*
X210321609Y-57250327D01*
X210319013Y-57249565D01*
X210298371Y-57232931D01*
X210173778Y-57108338D01*
X210173776Y-57108335D01*
X210173775Y-57108334D01*
X210173775Y-57108335D01*
X210166709Y-57101269D01*
X210166708Y-57101267D01*
X210079583Y-57014142D01*
X210079579Y-57014139D01*
X210079578Y-57014138D01*
X210031992Y-56982342D01*
X210031988Y-56982339D01*
X210026081Y-56978393D01*
X209977136Y-56945688D01*
X209896642Y-56912347D01*
X209874724Y-56903268D01*
X209863303Y-56898537D01*
X209853277Y-56896543D01*
X209802879Y-56886518D01*
X209742460Y-56874500D01*
X209742457Y-56874500D01*
X209742456Y-56874500D01*
X209634300Y-56874500D01*
X209567261Y-56854815D01*
X209521506Y-56802011D01*
X209510300Y-56750500D01*
X209510300Y-54989650D01*
X209529985Y-54922611D01*
X209582789Y-54876856D01*
X209634300Y-54865650D01*
X209759207Y-54865650D01*
X209759208Y-54865649D01*
X209880052Y-54841613D01*
X209993886Y-54794461D01*
X210096333Y-54726008D01*
X210183458Y-54638883D01*
X210251911Y-54536436D01*
X210299063Y-54422602D01*
X210304454Y-54395499D01*
X210307088Y-54382258D01*
X210339472Y-54320347D01*
X210400188Y-54285773D01*
X210428705Y-54282449D01*
X210557271Y-54282449D01*
X210557272Y-54282449D01*
X210616883Y-54276041D01*
X210751731Y-54225746D01*
X210790692Y-54196579D01*
X210856152Y-54172163D01*
X210924425Y-54187014D01*
X210939297Y-54196571D01*
X210978269Y-54225746D01*
X211113117Y-54276041D01*
X211172727Y-54282450D01*
X211827272Y-54282449D01*
X211886883Y-54276041D01*
X212021731Y-54225746D01*
X212136946Y-54139496D01*
X212223196Y-54024281D01*
X212273491Y-53889433D01*
X212279900Y-53829823D01*
X212279899Y-52743550D01*
X212299584Y-52676512D01*
X212316213Y-52655875D01*
X213235271Y-51736818D01*
X213296594Y-51703333D01*
X213322952Y-51700499D01*
X213987502Y-51700499D01*
X213987508Y-51700499D01*
X214090297Y-51689999D01*
X214256834Y-51634814D01*
X214406156Y-51542712D01*
X214530212Y-51418656D01*
X214622314Y-51269334D01*
X214677499Y-51102797D01*
X214688000Y-51000009D01*
X214687999Y-49999992D01*
X214677499Y-49897203D01*
X214622314Y-49730666D01*
X214530212Y-49581344D01*
X214406156Y-49457288D01*
X214256834Y-49365186D01*
X214090297Y-49310001D01*
X214090295Y-49310000D01*
X213987510Y-49299500D01*
X213187498Y-49299500D01*
X213187480Y-49299501D01*
X213084703Y-49310000D01*
X213084700Y-49310001D01*
X212918168Y-49365185D01*
X212918163Y-49365187D01*
X212768842Y-49457289D01*
X212644789Y-49581342D01*
X212552687Y-49730663D01*
X212552686Y-49730666D01*
X212497501Y-49897203D01*
X212497501Y-49897204D01*
X212497500Y-49897204D01*
X212487000Y-49999983D01*
X212487000Y-50664547D01*
X212467315Y-50731586D01*
X212450681Y-50752228D01*
X211418277Y-51784631D01*
X211356954Y-51818116D01*
X211330597Y-51820950D01*
X211172730Y-51820950D01*
X211172723Y-51820951D01*
X211113115Y-51827359D01*
X211022832Y-51861032D01*
X210953141Y-51866016D01*
X210891818Y-51832530D01*
X210858334Y-51771207D01*
X210855500Y-51744850D01*
X210855500Y-49497951D01*
X210875185Y-49430912D01*
X210891815Y-49410274D01*
X211675271Y-48626817D01*
X211736594Y-48593333D01*
X211762952Y-48590499D01*
X212440002Y-48590499D01*
X212440008Y-48590499D01*
X212542797Y-48579999D01*
X212709334Y-48524814D01*
X212858656Y-48432712D01*
X212982712Y-48308656D01*
X213074814Y-48159334D01*
X213129999Y-47992797D01*
X213140500Y-47890009D01*
X213140499Y-46839992D01*
X213133677Y-46773213D01*
X213129999Y-46737203D01*
X213129998Y-46737200D01*
X213121631Y-46711949D01*
X213074814Y-46570666D01*
X212982712Y-46421344D01*
X212858656Y-46297288D01*
X212709334Y-46205186D01*
X212542797Y-46150001D01*
X212542795Y-46150000D01*
X212440010Y-46139500D01*
X211664998Y-46139500D01*
X211664980Y-46139501D01*
X211562203Y-46150000D01*
X211562200Y-46150001D01*
X211395668Y-46205185D01*
X211395663Y-46205187D01*
X211246342Y-46297289D01*
X211122289Y-46421342D01*
X211030187Y-46570663D01*
X211030185Y-46570668D01*
X211002405Y-46654504D01*
X210962632Y-46711949D01*
X210898116Y-46738772D01*
X210884699Y-46739500D01*
X210124517Y-46739500D01*
X210057478Y-46719815D01*
X210011723Y-46667011D01*
X210006811Y-46654505D01*
X210006811Y-46654504D01*
X209987314Y-46595666D01*
X209895212Y-46446344D01*
X209771156Y-46322288D01*
X209636813Y-46239425D01*
X209590088Y-46187477D01*
X209578505Y-46146030D01*
X209578000Y-46140904D01*
X209578000Y-46140894D01*
X209553963Y-46020048D01*
X209506811Y-45906214D01*
X209506810Y-45906213D01*
X209506807Y-45906207D01*
X209438358Y-45803767D01*
X209438355Y-45803763D01*
X209348137Y-45713545D01*
X209348106Y-45713516D01*
X209240198Y-45605608D01*
X209240178Y-45605586D01*
X209148733Y-45514141D01*
X209103895Y-45484182D01*
X209103894Y-45484181D01*
X209097509Y-45479915D01*
X209046286Y-45445688D01*
X208941418Y-45402251D01*
X208932452Y-45398537D01*
X208872029Y-45386518D01*
X208811610Y-45374500D01*
X208811607Y-45374500D01*
X208811606Y-45374500D01*
X205811606Y-45374500D01*
X205688393Y-45374500D01*
X205688389Y-45374500D01*
X205627971Y-45386518D01*
X205584743Y-45395116D01*
X205567546Y-45398537D01*
X205453716Y-45445687D01*
X205453707Y-45445692D01*
X205351268Y-45514140D01*
X205307705Y-45557703D01*
X205264142Y-45601267D01*
X199691390Y-51174018D01*
X199691384Y-51174026D01*
X199657160Y-51225243D01*
X199657161Y-51225244D01*
X199622934Y-51276467D01*
X199613189Y-51299997D01*
X199613187Y-51300001D01*
X199575784Y-51390299D01*
X199575781Y-51390309D01*
X199551746Y-51511143D01*
X199551746Y-52290500D01*
X199532061Y-52357539D01*
X199479257Y-52403294D01*
X199427746Y-52414500D01*
X179621999Y-52414500D01*
X179554960Y-52394815D01*
X179509205Y-52342011D01*
X179497999Y-52290500D01*
X179497999Y-51989998D01*
X179497998Y-51989981D01*
X179487499Y-51887203D01*
X179487498Y-51887200D01*
X179469155Y-51831844D01*
X179432314Y-51720666D01*
X179340212Y-51571344D01*
X179216156Y-51447288D01*
X179066834Y-51355186D01*
X178900297Y-51300001D01*
X178900295Y-51300000D01*
X178797510Y-51289500D01*
X177397498Y-51289500D01*
X177397481Y-51289501D01*
X177294703Y-51300000D01*
X177294700Y-51300001D01*
X177128168Y-51355185D01*
X177128163Y-51355187D01*
X176978842Y-51447289D01*
X176854789Y-51571342D01*
X176762687Y-51720663D01*
X176762685Y-51720668D01*
X176754672Y-51744850D01*
X176707501Y-51887203D01*
X176707501Y-51887204D01*
X176707500Y-51887204D01*
X176697000Y-51989983D01*
X176697000Y-51989991D01*
X176697000Y-52588349D01*
X176697001Y-53163000D01*
X176677316Y-53230039D01*
X176624513Y-53275794D01*
X176573001Y-53287000D01*
X176292350Y-53287000D01*
X176225311Y-53267315D01*
X176223459Y-53266102D01*
X176129184Y-53203109D01*
X176129172Y-53203102D01*
X175983501Y-53142764D01*
X175983489Y-53142761D01*
X175828845Y-53112000D01*
X175828842Y-53112000D01*
X175671158Y-53112000D01*
X175671155Y-53112000D01*
X175516510Y-53142761D01*
X175516498Y-53142764D01*
X175370827Y-53203102D01*
X175370815Y-53203109D01*
X175276541Y-53266102D01*
X175209864Y-53286980D01*
X175207650Y-53287000D01*
X174215375Y-53287000D01*
X174148336Y-53267315D01*
X174102581Y-53214511D01*
X174097669Y-53202005D01*
X174082314Y-53155666D01*
X173990212Y-53006344D01*
X173961049Y-52977181D01*
X173927564Y-52915858D01*
X173932548Y-52846166D01*
X173974420Y-52790233D01*
X174039884Y-52765816D01*
X174048730Y-52765500D01*
X174349727Y-52765500D01*
X174349734Y-52765500D01*
X174550771Y-52739032D01*
X174550772Y-52739032D01*
X174577229Y-52735550D01*
X174577234Y-52735548D01*
X174577239Y-52735548D01*
X174798887Y-52676158D01*
X175010888Y-52588344D01*
X175049861Y-52565843D01*
X175209612Y-52473611D01*
X175343076Y-52371200D01*
X175391661Y-52333920D01*
X178438762Y-49286819D01*
X178500085Y-49253334D01*
X178526443Y-49250500D01*
X181989868Y-49250500D01*
X182054966Y-49268962D01*
X182080666Y-49284814D01*
X182247203Y-49339999D01*
X182349992Y-49350500D01*
X182349997Y-49350500D01*
X184650003Y-49350500D01*
X184650008Y-49350500D01*
X184752797Y-49339999D01*
X184919334Y-49284814D01*
X185068655Y-49192711D01*
X185192711Y-49068655D01*
X185284814Y-48919334D01*
X185339999Y-48752797D01*
X185350500Y-48650008D01*
X185350500Y-46349992D01*
X185339999Y-46247203D01*
X185284814Y-46080666D01*
X185260587Y-46041389D01*
X185192713Y-45931348D01*
X185192710Y-45931344D01*
X185068655Y-45807289D01*
X185068651Y-45807286D01*
X184919337Y-45715187D01*
X184919335Y-45715186D01*
X184836065Y-45687593D01*
X184752797Y-45660001D01*
X184752795Y-45660000D01*
X184650015Y-45649500D01*
X184650008Y-45649500D01*
X182349992Y-45649500D01*
X182349984Y-45649500D01*
X182247204Y-45660000D01*
X182247203Y-45660001D01*
X182080667Y-45715185D01*
X182080661Y-45715188D01*
X182054966Y-45731038D01*
X181989868Y-45749500D01*
X177635265Y-45749500D01*
X177611557Y-45752620D01*
X177611557Y-45752621D01*
X177588124Y-45755706D01*
X177407771Y-45779449D01*
X177407764Y-45779450D01*
X177407761Y-45779451D01*
X177224781Y-45828480D01*
X177224778Y-45828480D01*
X177186113Y-45838842D01*
X177161795Y-45848915D01*
X177161794Y-45848915D01*
X176974120Y-45926650D01*
X176974111Y-45926655D01*
X176906098Y-45965923D01*
X176906087Y-45965929D01*
X176903676Y-45967322D01*
X176775388Y-46041389D01*
X176715881Y-46087051D01*
X176711686Y-46090269D01*
X176711678Y-46090275D01*
X176593340Y-46181078D01*
X176593333Y-46181084D01*
X173546238Y-49228181D01*
X173484915Y-49261666D01*
X173458557Y-49264500D01*
X170949782Y-49264500D01*
X170882743Y-49244815D01*
X170836988Y-49192011D01*
X170827044Y-49122853D01*
X170856069Y-49059297D01*
X170862101Y-49052819D01*
X171652139Y-48262781D01*
X171719217Y-48195703D01*
X172018577Y-47896343D01*
X172152140Y-47762781D01*
X172152142Y-47762777D01*
X172902139Y-47012781D01*
X173152139Y-46762782D01*
X173152139Y-46762780D01*
X173169578Y-46745342D01*
X173169580Y-46745340D01*
X173195105Y-46719815D01*
X173277140Y-46637781D01*
X173277141Y-46637778D01*
X173902139Y-46012782D01*
X173902140Y-46012780D01*
X174152139Y-45762782D01*
X174152141Y-45762778D01*
X174888460Y-45026460D01*
X175027140Y-44887781D01*
X175136632Y-44723914D01*
X175212052Y-44541835D01*
X175250500Y-44348540D01*
X175250500Y-44151460D01*
X175212052Y-43958164D01*
X175136632Y-43776086D01*
X175027140Y-43612218D01*
X175027135Y-43612212D01*
X174887787Y-43472864D01*
X174887780Y-43472858D01*
X174723915Y-43363368D01*
X174541836Y-43287948D01*
X174541828Y-43287946D01*
X174348544Y-43249500D01*
X174348540Y-43249500D01*
X174151460Y-43249500D01*
X174151455Y-43249500D01*
X173958172Y-43287946D01*
X173958164Y-43287948D01*
X173776088Y-43363366D01*
X173776079Y-43363371D01*
X173612220Y-43472858D01*
X173472862Y-43612218D01*
X173472861Y-43612218D01*
X172737218Y-44347861D01*
X172480151Y-44604927D01*
X172480148Y-44604930D01*
X171862221Y-45222858D01*
X171737218Y-45347861D01*
X171487219Y-45597861D01*
X170737222Y-46347857D01*
X170599221Y-46485858D01*
X170237219Y-46847861D01*
X169386899Y-47698181D01*
X169325576Y-47731666D01*
X169299218Y-47734500D01*
X168855132Y-47734500D01*
X168790036Y-47716039D01*
X168764334Y-47700186D01*
X168597797Y-47645001D01*
X168597795Y-47645000D01*
X168495010Y-47634500D01*
X166694998Y-47634500D01*
X166694981Y-47634501D01*
X166592203Y-47645000D01*
X166592200Y-47645001D01*
X166425668Y-47700185D01*
X166425663Y-47700187D01*
X166276342Y-47792289D01*
X166152289Y-47916342D01*
X166060187Y-48065663D01*
X166060186Y-48065666D01*
X166005001Y-48232203D01*
X166005001Y-48232204D01*
X166005000Y-48232204D01*
X165994500Y-48334983D01*
X165994500Y-48334996D01*
X165994501Y-49138165D01*
X165993508Y-49138165D01*
X165978212Y-49202143D01*
X165927806Y-49250526D01*
X165870620Y-49264500D01*
X165119500Y-49264500D01*
X165052461Y-49244815D01*
X165006706Y-49192011D01*
X164995500Y-49140500D01*
X164995500Y-48314993D01*
X164995499Y-48314980D01*
X164990166Y-48262781D01*
X164984999Y-48212200D01*
X164929815Y-48045664D01*
X164929811Y-48045658D01*
X164929810Y-48045655D01*
X164837713Y-47896344D01*
X164713657Y-47772288D01*
X164713653Y-47772285D01*
X164564344Y-47680189D01*
X164564338Y-47680186D01*
X164564336Y-47680185D01*
X164458154Y-47645000D01*
X164397801Y-47625001D01*
X164295019Y-47614500D01*
X164295012Y-47614500D01*
X158294988Y-47614500D01*
X158294980Y-47614500D01*
X158192198Y-47625001D01*
X158025666Y-47680184D01*
X158025655Y-47680189D01*
X157876346Y-47772285D01*
X157876342Y-47772288D01*
X157752288Y-47896342D01*
X157752287Y-47896344D01*
X157660189Y-48045655D01*
X157660184Y-48045666D01*
X157605001Y-48212198D01*
X157594500Y-48314980D01*
X153500500Y-48314980D01*
X153500500Y-41624500D01*
X153520185Y-41557461D01*
X153572989Y-41511706D01*
X153624500Y-41500500D01*
X235125500Y-41500500D01*
X235192539Y-41520185D01*
G37*
%TD.AperFunction*%
%TD*%
M02*
