%TF.GenerationSoftware,KiCad,Pcbnew,9.0.6*%
%TF.CreationDate,2025-12-23T23:16:53+05:30*%
%TF.ProjectId,usb_ps_1,7573625f-7073-45f3-912e-6b696361645f,rev?*%
%TF.SameCoordinates,Original*%
%TF.FileFunction,Paste,Top*%
%TF.FilePolarity,Positive*%
%FSLAX46Y46*%
G04 Gerber Fmt 4.6, Leading zero omitted, Abs format (unit mm)*
G04 Created by KiCad (PCBNEW 9.0.6) date 2025-12-23 23:16:53*
%MOMM*%
%LPD*%
G01*
G04 APERTURE LIST*
G04 Aperture macros list*
%AMRoundRect*
0 Rectangle with rounded corners*
0 $1 Rounding radius*
0 $2 $3 $4 $5 $6 $7 $8 $9 X,Y pos of 4 corners*
0 Add a 4 corners polygon primitive as box body*
4,1,4,$2,$3,$4,$5,$6,$7,$8,$9,$2,$3,0*
0 Add four circle primitives for the rounded corners*
1,1,$1+$1,$2,$3*
1,1,$1+$1,$4,$5*
1,1,$1+$1,$6,$7*
1,1,$1+$1,$8,$9*
0 Add four rect primitives between the rounded corners*
20,1,$1+$1,$2,$3,$4,$5,0*
20,1,$1+$1,$4,$5,$6,$7,0*
20,1,$1+$1,$6,$7,$8,$9,0*
20,1,$1+$1,$8,$9,$2,$3,0*%
G04 Aperture macros list end*
%ADD10C,0.000000*%
%ADD11RoundRect,0.250000X0.350000X0.450000X-0.350000X0.450000X-0.350000X-0.450000X0.350000X-0.450000X0*%
%ADD12RoundRect,0.250000X-0.337500X-0.475000X0.337500X-0.475000X0.337500X0.475000X-0.337500X0.475000X0*%
%ADD13RoundRect,0.250000X1.000000X0.900000X-1.000000X0.900000X-1.000000X-0.900000X1.000000X-0.900000X0*%
%ADD14RoundRect,0.250000X-0.450000X0.350000X-0.450000X-0.350000X0.450000X-0.350000X0.450000X0.350000X0*%
%ADD15RoundRect,0.250000X-0.650000X1.000000X-0.650000X-1.000000X0.650000X-1.000000X0.650000X1.000000X0*%
%ADD16R,1.550000X1.300000*%
%ADD17RoundRect,0.250000X-0.350000X-0.450000X0.350000X-0.450000X0.350000X0.450000X-0.350000X0.450000X0*%
%ADD18RoundRect,0.250000X0.325000X0.650000X-0.325000X0.650000X-0.325000X-0.650000X0.325000X-0.650000X0*%
%ADD19RoundRect,0.250000X0.337500X0.475000X-0.337500X0.475000X-0.337500X-0.475000X0.337500X-0.475000X0*%
%ADD20RoundRect,0.075000X0.662500X0.075000X-0.662500X0.075000X-0.662500X-0.075000X0.662500X-0.075000X0*%
%ADD21RoundRect,0.075000X0.075000X0.662500X-0.075000X0.662500X-0.075000X-0.662500X0.075000X-0.662500X0*%
%ADD22R,3.600000X2.700000*%
%ADD23R,0.558800X1.460500*%
%ADD24RoundRect,0.250000X-0.475000X0.337500X-0.475000X-0.337500X0.475000X-0.337500X0.475000X0.337500X0*%
%ADD25R,1.240000X0.600000*%
%ADD26R,1.240000X0.300000*%
%ADD27RoundRect,0.250000X0.450000X-0.350000X0.450000X0.350000X-0.450000X0.350000X-0.450000X-0.350000X0*%
%ADD28RoundRect,0.250000X0.750000X-2.000000X0.750000X2.000000X-0.750000X2.000000X-0.750000X-2.000000X0*%
%ADD29RoundRect,0.250000X1.275000X1.125000X-1.275000X1.125000X-1.275000X-1.125000X1.275000X-1.125000X0*%
%ADD30RoundRect,0.250000X0.850000X0.350000X-0.850000X0.350000X-0.850000X-0.350000X0.850000X-0.350000X0*%
%ADD31RoundRect,0.250000X1.080000X-0.595000X1.080000X0.595000X-1.080000X0.595000X-1.080000X-0.595000X0*%
%ADD32RoundRect,0.150000X0.150000X-0.687500X0.150000X0.687500X-0.150000X0.687500X-0.150000X-0.687500X0*%
%ADD33RoundRect,0.250000X-1.000000X-0.650000X1.000000X-0.650000X1.000000X0.650000X-1.000000X0.650000X0*%
%ADD34RoundRect,0.250000X0.475000X-0.337500X0.475000X0.337500X-0.475000X0.337500X-0.475000X-0.337500X0*%
%ADD35RoundRect,0.250000X-0.362500X-1.425000X0.362500X-1.425000X0.362500X1.425000X-0.362500X1.425000X0*%
%ADD36RoundRect,0.250000X-0.325000X-0.650000X0.325000X-0.650000X0.325000X0.650000X-0.325000X0.650000X0*%
%ADD37RoundRect,0.075000X-0.650000X-0.075000X0.650000X-0.075000X0.650000X0.075000X-0.650000X0.075000X0*%
G04 APERTURE END LIST*
D10*
%TO.C,U4*%
G36*
X210765000Y-55675850D02*
G01*
X209237800Y-55675850D01*
X209237800Y-54593150D01*
X210765000Y-54593150D01*
X210765000Y-55675850D01*
G37*
G36*
X210765000Y-56958550D02*
G01*
X209237800Y-56958550D01*
X209237800Y-55875850D01*
X210765000Y-55875850D01*
X210765000Y-56958550D01*
G37*
G36*
X212492200Y-55675850D02*
G01*
X210965000Y-55675850D01*
X210965000Y-54593150D01*
X212492200Y-54593150D01*
X212492200Y-55675850D01*
G37*
G36*
X212492200Y-56958550D02*
G01*
X210965000Y-56958550D01*
X210965000Y-55875850D01*
X212492200Y-55875850D01*
X212492200Y-56958550D01*
G37*
%TD*%
D11*
%TO.C,R2*%
X173325000Y-70000000D03*
X171325000Y-70000000D03*
%TD*%
D12*
%TO.C,C10*%
X186175000Y-82250000D03*
X188250000Y-82250000D03*
%TD*%
D13*
%TO.C,D3*%
X181500000Y-92000000D03*
X177200000Y-92000000D03*
%TD*%
D14*
%TO.C,R7*%
X172000000Y-101837500D03*
X172000000Y-103837500D03*
%TD*%
D15*
%TO.C,D1*%
X178097500Y-53040000D03*
X178097500Y-57040000D03*
%TD*%
D16*
%TO.C,SW2*%
X228500000Y-70050000D03*
X220550000Y-70050000D03*
X228500000Y-65550000D03*
X220550000Y-65550000D03*
%TD*%
D17*
%TO.C,R8*%
X181392500Y-103275000D03*
X183392500Y-103275000D03*
%TD*%
%TO.C,R11*%
X213587500Y-50500000D03*
X215587500Y-50500000D03*
%TD*%
D18*
%TO.C,TP2*%
X188500000Y-85000000D03*
X185550000Y-85000000D03*
%TD*%
D12*
%TO.C,C4*%
X206937500Y-82350000D03*
X209012500Y-82350000D03*
%TD*%
D19*
%TO.C,C8*%
X195630000Y-66500000D03*
X193555000Y-66500000D03*
%TD*%
D17*
%TO.C,R6*%
X199185000Y-56040000D03*
X201185000Y-56040000D03*
%TD*%
D20*
%TO.C,U5*%
X186825000Y-78500000D03*
X186825000Y-78000000D03*
X186825000Y-77500000D03*
X186825000Y-77000000D03*
X186825000Y-76500000D03*
X186825000Y-76000000D03*
X186825000Y-75500000D03*
X186825000Y-75000000D03*
X186825000Y-74500000D03*
X186825000Y-74000000D03*
X186825000Y-73500000D03*
X186825000Y-73000000D03*
D21*
X185412500Y-71587500D03*
X184912500Y-71587500D03*
X184412500Y-71587500D03*
X183912500Y-71587500D03*
X183412500Y-71587500D03*
X182912500Y-71587500D03*
X182412500Y-71587500D03*
X181912500Y-71587500D03*
X181412500Y-71587500D03*
X180912500Y-71587500D03*
X180412500Y-71587500D03*
X179912500Y-71587500D03*
D20*
X178500000Y-73000000D03*
X178500000Y-73500000D03*
X178500000Y-74000000D03*
X178500000Y-74500000D03*
X178500000Y-75000000D03*
X178500000Y-75500000D03*
X178500000Y-76000000D03*
X178500000Y-76500000D03*
X178500000Y-77000000D03*
X178500000Y-77500000D03*
X178500000Y-78000000D03*
X178500000Y-78500000D03*
D21*
X179912500Y-79912500D03*
X180412500Y-79912500D03*
X180912500Y-79912500D03*
X181412500Y-79912500D03*
X181912500Y-79912500D03*
X182412500Y-79912500D03*
X182912500Y-79912500D03*
X183412500Y-79912500D03*
X183912500Y-79912500D03*
X184412500Y-79912500D03*
X184912500Y-79912500D03*
X185412500Y-79912500D03*
%TD*%
D12*
%TO.C,C9*%
X169395000Y-93500000D03*
X171470000Y-93500000D03*
%TD*%
D22*
%TO.C,L1*%
X206500000Y-77650000D03*
X206500000Y-69350000D03*
%TD*%
D23*
%TO.C,U4*%
X208960000Y-58500000D03*
X210230000Y-58500000D03*
X211500000Y-58500000D03*
X212770000Y-58500000D03*
X212770000Y-53051700D03*
X211500000Y-53051700D03*
X210230000Y-53051700D03*
X208960000Y-53051700D03*
%TD*%
D24*
%TO.C,C11*%
X190750000Y-79712500D03*
X190750000Y-81787500D03*
%TD*%
D14*
%TO.C,R15*%
X161000000Y-87500000D03*
X161000000Y-89500000D03*
%TD*%
D25*
%TO.C,J1*%
X161800000Y-72480000D03*
X161800000Y-73280000D03*
D26*
X161800000Y-74430000D03*
X161800000Y-75430000D03*
X161800000Y-75930000D03*
X161800000Y-76930000D03*
D25*
X161800000Y-78080000D03*
X161800000Y-78880000D03*
X161800000Y-78880000D03*
X161800000Y-78080000D03*
D26*
X161800000Y-77430000D03*
X161800000Y-76430000D03*
X161800000Y-74930000D03*
X161800000Y-73930000D03*
D25*
X161800000Y-73280000D03*
X161800000Y-72480000D03*
%TD*%
D19*
%TO.C,C7*%
X195630000Y-82998750D03*
X193555000Y-82998750D03*
%TD*%
D11*
%TO.C,R22*%
X217015000Y-62850000D03*
X215015000Y-62850000D03*
%TD*%
D27*
%TO.C,R21*%
X183000000Y-85912500D03*
X183000000Y-83912500D03*
%TD*%
%TO.C,R13*%
X215000000Y-73675000D03*
X215000000Y-71675000D03*
%TD*%
D28*
%TO.C,Y1*%
X194910000Y-78911250D03*
X194910000Y-70411250D03*
%TD*%
D27*
%TO.C,R16*%
X161037500Y-94825000D03*
X161037500Y-92825000D03*
%TD*%
D17*
%TO.C,R4*%
X196860000Y-103275000D03*
X198860000Y-103275000D03*
%TD*%
D27*
%TO.C,R14*%
X202805000Y-102450000D03*
X202805000Y-100450000D03*
%TD*%
D12*
%TO.C,C2*%
X212052500Y-47365000D03*
X214127500Y-47365000D03*
%TD*%
D29*
%TO.C,Q2*%
X162155000Y-103275000D03*
X162155000Y-100225000D03*
X158805000Y-103275000D03*
X158805000Y-100225000D03*
D30*
X166780000Y-104030000D03*
X166780000Y-101750000D03*
X166780000Y-99470000D03*
%TD*%
D16*
%TO.C,SW1*%
X228500000Y-78500000D03*
X220550000Y-78500000D03*
X228500000Y-74000000D03*
X220550000Y-74000000D03*
%TD*%
D31*
%TO.C,U1*%
X171500000Y-76137500D03*
D32*
X169500000Y-78775000D03*
X170500000Y-78775000D03*
X171500000Y-78775000D03*
X172500000Y-78775000D03*
X173500000Y-78775000D03*
X173500000Y-73500000D03*
X172500000Y-73500000D03*
X171500000Y-73500000D03*
X170500000Y-73500000D03*
X169500000Y-73500000D03*
%TD*%
D33*
%TO.C,D4*%
X206000000Y-64850000D03*
X210000000Y-64850000D03*
%TD*%
D34*
%TO.C,C12*%
X179500000Y-68750000D03*
X179500000Y-66675000D03*
%TD*%
D27*
%TO.C,R9*%
X203500000Y-55000000D03*
X203500000Y-53000000D03*
%TD*%
D11*
%TO.C,R17*%
X233500000Y-76250000D03*
X231500000Y-76250000D03*
%TD*%
D17*
%TO.C,R1*%
X165175000Y-80000000D03*
X167175000Y-80000000D03*
%TD*%
D11*
%TO.C,R18*%
X233500000Y-68000000D03*
X231500000Y-68000000D03*
%TD*%
D15*
%TO.C,D2*%
X176305000Y-99275000D03*
X176305000Y-103275000D03*
%TD*%
D12*
%TO.C,C5*%
X215925000Y-57750000D03*
X218000000Y-57750000D03*
%TD*%
D29*
%TO.C,Q1*%
X162970000Y-52540000D03*
X162970000Y-49490000D03*
X159620000Y-52540000D03*
X159620000Y-49490000D03*
D30*
X167595000Y-53295000D03*
X167595000Y-51015000D03*
X167595000Y-48735000D03*
%TD*%
D17*
%TO.C,R12*%
X214675000Y-69500000D03*
X216675000Y-69500000D03*
%TD*%
D34*
%TO.C,C1*%
X169500000Y-83287500D03*
X169500000Y-81212500D03*
%TD*%
D11*
%TO.C,R10*%
X208952500Y-47365000D03*
X206952500Y-47365000D03*
%TD*%
%TO.C,R20*%
X189912500Y-70000000D03*
X187912500Y-70000000D03*
%TD*%
D35*
%TO.C,Shunt1*%
X189037500Y-92000000D03*
X194962500Y-92000000D03*
%TD*%
D11*
%TO.C,R19*%
X233250000Y-59250000D03*
X231250000Y-59250000D03*
%TD*%
D16*
%TO.C,SW3*%
X228500000Y-61600000D03*
X220550000Y-61600000D03*
X228500000Y-57100000D03*
X220550000Y-57100000D03*
%TD*%
D12*
%TO.C,C6*%
X208212500Y-61500000D03*
X210287500Y-61500000D03*
%TD*%
D24*
%TO.C,C3*%
X205770000Y-54834200D03*
X205770000Y-56909200D03*
%TD*%
D36*
%TO.C,TP1*%
X183025000Y-68500000D03*
X185975000Y-68500000D03*
%TD*%
D37*
%TO.C,U6*%
X164600000Y-90000000D03*
X164600000Y-90500000D03*
X164600000Y-91000000D03*
X164600000Y-91500000D03*
X164600000Y-92000000D03*
X169000000Y-92000000D03*
X169000000Y-91500000D03*
X169000000Y-91000000D03*
X169000000Y-90500000D03*
X169000000Y-90000000D03*
%TD*%
D17*
%TO.C,R5*%
X183185000Y-57040000D03*
X185185000Y-57040000D03*
%TD*%
D19*
%TO.C,C13*%
X177575000Y-71250000D03*
X175500000Y-71250000D03*
%TD*%
D13*
%TO.C,D5*%
X181500000Y-62500000D03*
X177200000Y-62500000D03*
%TD*%
D14*
%TO.C,R3*%
X172947500Y-53825000D03*
X172947500Y-55825000D03*
%TD*%
M02*
