M48
; DRILL file {KiCad 9.0.6} date 2025-12-23T23:16:49+0530
; FORMAT={-:-/ absolute / metric / decimal}
; #@! TF.CreationDate,2025-12-23T23:16:49+05:30
; #@! TF.GenerationSoftware,Kicad,Pcbnew,9.0.6
; #@! TF.FileFunction,Plated,1,2,PTH
FMAT,2
METRIC
; #@! TA.AperFunction,Plated,PTH,ViaDrill
T1C0.300
; #@! TA.AperFunction,Plated,PTH,ViaDrill
T2C0.400
; #@! TA.AperFunction,Plated,PTH,ComponentDrill
T3C0.600
; #@! TA.AperFunction,Plated,PTH,ComponentDrill
T4C0.800
; #@! TA.AperFunction,Plated,PTH,ComponentDrill
T5C1.000
; #@! TA.AperFunction,Plated,PTH,ComponentDrill
T6C1.700
%
G90
G05
T1
X163.0Y-73.28
X163.0Y-78.08
X163.67Y-78.08
X163.75Y-79.0
X163.75Y-79.75
X164.0Y-71.75
X164.0Y-72.5
X164.0Y-73.25
X166.25Y-91.5
X171.25Y-92.0
X173.25Y-71.5
X173.915Y-101.665
X175.75Y-53.912
X176.5Y-68.25
X180.25Y-75.75
X180.75Y-77.0
X183.25Y-74.25
X184.25Y-81.5
X188.75Y-75.25
X188.75Y-77.5
X189.5Y-72.0
X189.5Y-74.75
X191.0Y-86.0
X191.25Y-78.5
X191.75Y-54.96
X192.25Y-67.25
X197.25Y-62.25
X198.5Y-100.5
X200.25Y-58.75
X202.0Y-62.0
X204.25Y-59.25
X205.25Y-51.5
X210.865Y-55.776
X212.25Y-82.35
X213.0Y-64.25
X213.0Y-66.5
X213.0Y-68.5
X217.75Y-67.75
X224.75Y-65.55
X224.75Y-74.0
T2
X163.5Y-96.75
X165.0Y-96.75
X166.5Y-96.75
X166.78Y-98.25
X170.5Y-71.5
X171.25Y-47.25
X171.5Y-76.138
X171.5Y-80.25
X172.5Y-46.0
X173.375Y-45.125
X174.25Y-44.25
X175.0Y-74.0
X175.75Y-77.0
X183.75Y-92.0
X185.0Y-92.0
X186.0Y-61.25
X186.0Y-62.25
X186.0Y-63.5
X186.0Y-64.75
X186.25Y-92.0
X187.5Y-92.0
T4
X186.185Y-100.735
X186.185Y-103.275
X187.88Y-54.96
X187.88Y-57.5
X193.805Y-100.735
X193.805Y-103.275
X195.5Y-54.96
X195.5Y-57.5
T5
X168.13Y-86.25
X170.67Y-86.25
X173.21Y-86.25
X175.75Y-86.25
X221.42Y-87.5
X223.96Y-87.5
X226.5Y-87.5
X229.04Y-87.5
T6
X161.0Y-62.0
X166.0Y-62.0
X183.5Y-47.5
X188.5Y-47.5
X208.5Y-91.0
X208.5Y-96.0
T3
G00X157.4Y-71.36
M15
G01X156.6Y-71.36
M16
G05
G00X157.4Y-80.0
M15
G01X156.6Y-80.0
M16
G05
G00X161.75Y-71.36
M15
G01X160.65Y-71.36
M16
G05
G00X161.75Y-80.0
M15
G01X160.65Y-80.0
M16
G05
M30
