%TF.GenerationSoftware,KiCad,Pcbnew,9.0.6*%
%TF.CreationDate,2025-12-15T22:58:15+05:30*%
%TF.ProjectId,usb_ps_1,7573625f-7073-45f3-912e-6b696361645f,rev?*%
%TF.SameCoordinates,Original*%
%TF.FileFunction,Copper,L1,Top*%
%TF.FilePolarity,Positive*%
%FSLAX46Y46*%
G04 Gerber Fmt 4.6, Leading zero omitted, Abs format (unit mm)*
G04 Created by KiCad (PCBNEW 9.0.6) date 2025-12-15 22:58:15*
%MOMM*%
%LPD*%
G01*
G04 APERTURE LIST*
G04 Aperture macros list*
%AMRoundRect*
0 Rectangle with rounded corners*
0 $1 Rounding radius*
0 $2 $3 $4 $5 $6 $7 $8 $9 X,Y pos of 4 corners*
0 Add a 4 corners polygon primitive as box body*
4,1,4,$2,$3,$4,$5,$6,$7,$8,$9,$2,$3,0*
0 Add four circle primitives for the rounded corners*
1,1,$1+$1,$2,$3*
1,1,$1+$1,$4,$5*
1,1,$1+$1,$6,$7*
1,1,$1+$1,$8,$9*
0 Add four rect primitives between the rounded corners*
20,1,$1+$1,$2,$3,$4,$5,0*
20,1,$1+$1,$4,$5,$6,$7,0*
20,1,$1+$1,$6,$7,$8,$9,0*
20,1,$1+$1,$8,$9,$2,$3,0*%
G04 Aperture macros list end*
%TA.AperFunction,SMDPad,CuDef*%
%ADD10RoundRect,0.237500X0.250000X0.237500X-0.250000X0.237500X-0.250000X-0.237500X0.250000X-0.237500X0*%
%TD*%
%TA.AperFunction,SMDPad,CuDef*%
%ADD11RoundRect,0.100000X-0.217500X-0.100000X0.217500X-0.100000X0.217500X0.100000X-0.217500X0.100000X0*%
%TD*%
%TA.AperFunction,SMDPad,CuDef*%
%ADD12RoundRect,0.250000X1.000000X0.900000X-1.000000X0.900000X-1.000000X-0.900000X1.000000X-0.900000X0*%
%TD*%
%TA.AperFunction,SMDPad,CuDef*%
%ADD13RoundRect,0.237500X-0.237500X0.250000X-0.237500X-0.250000X0.237500X-0.250000X0.237500X0.250000X0*%
%TD*%
%TA.AperFunction,SMDPad,CuDef*%
%ADD14RoundRect,0.250000X-0.650000X1.000000X-0.650000X-1.000000X0.650000X-1.000000X0.650000X1.000000X0*%
%TD*%
%TA.AperFunction,SMDPad,CuDef*%
%ADD15R,1.550000X1.300000*%
%TD*%
%TA.AperFunction,SMDPad,CuDef*%
%ADD16RoundRect,0.237500X-0.250000X-0.237500X0.250000X-0.237500X0.250000X0.237500X-0.250000X0.237500X0*%
%TD*%
%TA.AperFunction,SMDPad,CuDef*%
%ADD17RoundRect,0.250000X0.325000X0.650000X-0.325000X0.650000X-0.325000X-0.650000X0.325000X-0.650000X0*%
%TD*%
%TA.AperFunction,SMDPad,CuDef*%
%ADD18RoundRect,0.250000X-0.412500X-0.650000X0.412500X-0.650000X0.412500X0.650000X-0.412500X0.650000X0*%
%TD*%
%TA.AperFunction,SMDPad,CuDef*%
%ADD19RoundRect,0.100000X0.217500X0.100000X-0.217500X0.100000X-0.217500X-0.100000X0.217500X-0.100000X0*%
%TD*%
%TA.AperFunction,SMDPad,CuDef*%
%ADD20RoundRect,0.075000X0.662500X0.075000X-0.662500X0.075000X-0.662500X-0.075000X0.662500X-0.075000X0*%
%TD*%
%TA.AperFunction,SMDPad,CuDef*%
%ADD21RoundRect,0.075000X0.075000X0.662500X-0.075000X0.662500X-0.075000X-0.662500X0.075000X-0.662500X0*%
%TD*%
%TA.AperFunction,SMDPad,CuDef*%
%ADD22R,3.600000X2.700000*%
%TD*%
%TA.AperFunction,ComponentPad*%
%ADD23RoundRect,0.250000X0.550000X0.550000X-0.550000X0.550000X-0.550000X-0.550000X0.550000X-0.550000X0*%
%TD*%
%TA.AperFunction,ComponentPad*%
%ADD24C,1.600000*%
%TD*%
%TA.AperFunction,SMDPad,CuDef*%
%ADD25R,0.558800X1.460500*%
%TD*%
%TA.AperFunction,SMDPad,CuDef*%
%ADD26R,3.454400X2.565400*%
%TD*%
%TA.AperFunction,SMDPad,CuDef*%
%ADD27RoundRect,0.100000X-0.100000X0.217500X-0.100000X-0.217500X0.100000X-0.217500X0.100000X0.217500X0*%
%TD*%
%TA.AperFunction,SMDPad,CuDef*%
%ADD28R,1.240000X0.600000*%
%TD*%
%TA.AperFunction,SMDPad,CuDef*%
%ADD29R,1.240000X0.300000*%
%TD*%
%TA.AperFunction,HeatsinkPad*%
%ADD30O,2.100000X1.000000*%
%TD*%
%TA.AperFunction,HeatsinkPad*%
%ADD31O,1.800000X1.000000*%
%TD*%
%TA.AperFunction,SMDPad,CuDef*%
%ADD32RoundRect,0.237500X0.237500X-0.250000X0.237500X0.250000X-0.237500X0.250000X-0.237500X-0.250000X0*%
%TD*%
%TA.AperFunction,SMDPad,CuDef*%
%ADD33RoundRect,0.250000X0.750000X-2.000000X0.750000X2.000000X-0.750000X2.000000X-0.750000X-2.000000X0*%
%TD*%
%TA.AperFunction,ComponentPad*%
%ADD34R,1.700000X1.700000*%
%TD*%
%TA.AperFunction,ComponentPad*%
%ADD35C,1.700000*%
%TD*%
%TA.AperFunction,ComponentPad*%
%ADD36RoundRect,0.250001X1.099999X1.099999X-1.099999X1.099999X-1.099999X-1.099999X1.099999X-1.099999X0*%
%TD*%
%TA.AperFunction,ComponentPad*%
%ADD37C,2.700000*%
%TD*%
%TA.AperFunction,SMDPad,CuDef*%
%ADD38RoundRect,0.250000X-0.337500X-0.475000X0.337500X-0.475000X0.337500X0.475000X-0.337500X0.475000X0*%
%TD*%
%TA.AperFunction,SMDPad,CuDef*%
%ADD39RoundRect,0.250000X0.850000X0.350000X-0.850000X0.350000X-0.850000X-0.350000X0.850000X-0.350000X0*%
%TD*%
%TA.AperFunction,SMDPad,CuDef*%
%ADD40RoundRect,0.249997X2.950003X2.650003X-2.950003X2.650003X-2.950003X-2.650003X2.950003X-2.650003X0*%
%TD*%
%TA.AperFunction,SMDPad,CuDef*%
%ADD41RoundRect,0.150000X0.150000X-0.687500X0.150000X0.687500X-0.150000X0.687500X-0.150000X-0.687500X0*%
%TD*%
%TA.AperFunction,HeatsinkPad*%
%ADD42R,3.300000X2.100000*%
%TD*%
%TA.AperFunction,SMDPad,CuDef*%
%ADD43RoundRect,0.250000X-1.000000X-0.650000X1.000000X-0.650000X1.000000X0.650000X-1.000000X0.650000X0*%
%TD*%
%TA.AperFunction,SMDPad,CuDef*%
%ADD44RoundRect,0.100000X0.100000X-0.217500X0.100000X0.217500X-0.100000X0.217500X-0.100000X-0.217500X0*%
%TD*%
%TA.AperFunction,ComponentPad*%
%ADD45RoundRect,0.250001X-1.099999X1.099999X-1.099999X-1.099999X1.099999X-1.099999X1.099999X1.099999X0*%
%TD*%
%TA.AperFunction,SMDPad,CuDef*%
%ADD46RoundRect,0.250000X-0.362500X-1.425000X0.362500X-1.425000X0.362500X1.425000X-0.362500X1.425000X0*%
%TD*%
%TA.AperFunction,ComponentPad*%
%ADD47RoundRect,0.250001X-1.099999X-1.099999X1.099999X-1.099999X1.099999X1.099999X-1.099999X1.099999X0*%
%TD*%
%TA.AperFunction,SMDPad,CuDef*%
%ADD48RoundRect,0.250000X-0.325000X-0.650000X0.325000X-0.650000X0.325000X0.650000X-0.325000X0.650000X0*%
%TD*%
%TA.AperFunction,SMDPad,CuDef*%
%ADD49RoundRect,0.075000X-0.650000X-0.075000X0.650000X-0.075000X0.650000X0.075000X-0.650000X0.075000X0*%
%TD*%
%TA.AperFunction,ViaPad*%
%ADD50C,0.600000*%
%TD*%
%TA.AperFunction,ViaPad*%
%ADD51C,0.900000*%
%TD*%
%TA.AperFunction,Conductor*%
%ADD52C,0.250000*%
%TD*%
%TA.AperFunction,Conductor*%
%ADD53C,0.500000*%
%TD*%
%TA.AperFunction,Conductor*%
%ADD54C,1.000000*%
%TD*%
%TA.AperFunction,Conductor*%
%ADD55C,2.500000*%
%TD*%
%TA.AperFunction,Conductor*%
%ADD56C,0.127000*%
%TD*%
G04 APERTURE END LIST*
D10*
%TO.P,R2,1*%
%TO.N,/VBus*%
X173237500Y-70000000D03*
%TO.P,R2,2*%
%TO.N,Net-(U1-VBUS)*%
X171412500Y-70000000D03*
%TD*%
D11*
%TO.P,C10,1*%
%TO.N,/3.3V*%
X185525000Y-81500000D03*
%TO.P,C10,2*%
%TO.N,GND*%
X186340000Y-81500000D03*
%TD*%
D12*
%TO.P,D3,1,K*%
%TO.N,/MosO{slash}P*%
X181500000Y-92000000D03*
%TO.P,D3,2,A*%
%TO.N,Net-(D3-A)*%
X177200000Y-92000000D03*
%TD*%
D13*
%TO.P,R7,1*%
%TO.N,/VBus*%
X172000000Y-101925000D03*
%TO.P,R7,2*%
%TO.N,Net-(D2-A)*%
X172000000Y-103750000D03*
%TD*%
D14*
%TO.P,D1,1,K*%
%TO.N,/VBus*%
X178097500Y-53040000D03*
%TO.P,D1,2,A*%
%TO.N,Net-(D1-A)*%
X178097500Y-57040000D03*
%TD*%
D15*
%TO.P,SW2,1,1*%
%TO.N,/mode*%
X228500000Y-70050000D03*
X220550000Y-70050000D03*
%TO.P,SW2,2,2*%
%TO.N,GND*%
X228500000Y-65550000D03*
X220550000Y-65550000D03*
%TD*%
D16*
%TO.P,R8,1*%
%TO.N,Net-(D2-A)*%
X181480000Y-103275000D03*
%TO.P,R8,2*%
%TO.N,Net-(R8-Pad2)*%
X183305000Y-103275000D03*
%TD*%
%TO.P,R11,1*%
%TO.N,Net-(U4-FREQ)*%
X213675000Y-50500000D03*
%TO.P,R11,2*%
%TO.N,GND*%
X215500000Y-50500000D03*
%TD*%
D17*
%TO.P,TP2,1,1*%
%TO.N,/3.3V*%
X188500000Y-85000000D03*
%TO.P,TP2,2,2*%
%TO.N,Net-(U5-BOOT0)*%
X185550000Y-85000000D03*
%TD*%
D18*
%TO.P,C4,1*%
%TO.N,/3.3V*%
X206412500Y-82350000D03*
%TO.P,C4,2*%
%TO.N,GND*%
X209537500Y-82350000D03*
%TD*%
D19*
%TO.P,C8,1*%
%TO.N,Net-(U5-PF1)*%
X195000000Y-66498750D03*
%TO.P,C8,2*%
%TO.N,GND*%
X194185000Y-66498750D03*
%TD*%
D16*
%TO.P,R6,1*%
%TO.N,Net-(R6-Pad1)*%
X199272500Y-56040000D03*
%TO.P,R6,2*%
%TO.N,/buckM*%
X201097500Y-56040000D03*
%TD*%
D20*
%TO.P,U5,1,VDD*%
%TO.N,/3.3V*%
X186825000Y-78500000D03*
%TO.P,U5,2,PC13*%
%TO.N,unconnected-(U5-PC13-Pad2)*%
X186825000Y-78000000D03*
%TO.P,U5,3,PC14*%
%TO.N,unconnected-(U5-PC14-Pad3)*%
X186825000Y-77500000D03*
%TO.P,U5,4,PC15*%
%TO.N,unconnected-(U5-PC15-Pad4)*%
X186825000Y-77000000D03*
%TO.P,U5,5,PF0*%
%TO.N,Net-(U5-PF0)*%
X186825000Y-76500000D03*
%TO.P,U5,6,PF1*%
%TO.N,Net-(U5-PF1)*%
X186825000Y-76000000D03*
%TO.P,U5,7,NRST*%
%TO.N,Net-(U5-NRST)*%
X186825000Y-75500000D03*
%TO.P,U5,8,VSSA*%
%TO.N,GND*%
X186825000Y-75000000D03*
%TO.P,U5,9,VDDA*%
%TO.N,/3.3V*%
X186825000Y-74500000D03*
%TO.P,U5,10,PA0*%
%TO.N,/o{slash}f*%
X186825000Y-74000000D03*
%TO.P,U5,11,PA1*%
%TO.N,/mode*%
X186825000Y-73500000D03*
%TO.P,U5,12,PA2*%
%TO.N,/level*%
X186825000Y-73000000D03*
D21*
%TO.P,U5,13,PA3*%
%TO.N,unconnected-(U5-PA3-Pad13)*%
X185412500Y-71587500D03*
%TO.P,U5,14,PA4*%
%TO.N,unconnected-(U5-PA4-Pad14)*%
X184912500Y-71587500D03*
%TO.P,U5,15,PA5*%
%TO.N,unconnected-(U5-PA5-Pad15)*%
X184412500Y-71587500D03*
%TO.P,U5,16,PA6*%
%TO.N,unconnected-(U5-PA6-Pad16)*%
X183912500Y-71587500D03*
%TO.P,U5,17,PA7*%
%TO.N,unconnected-(U5-PA7-Pad17)*%
X183412500Y-71587500D03*
%TO.P,U5,18,PB0*%
%TO.N,unconnected-(U5-PB0-Pad18)*%
X182912500Y-71587500D03*
%TO.P,U5,19,PB1*%
%TO.N,unconnected-(U5-PB1-Pad19)*%
X182412500Y-71587500D03*
%TO.P,U5,20,PB2*%
%TO.N,unconnected-(U5-PB2-Pad20)*%
X181912500Y-71587500D03*
%TO.P,U5,21,PB10*%
%TO.N,/scl_S*%
X181412500Y-71587500D03*
%TO.P,U5,22,PB11*%
%TO.N,/sda_S*%
X180912500Y-71587500D03*
%TO.P,U5,23,VSS*%
%TO.N,GND*%
X180412500Y-71587500D03*
%TO.P,U5,24,VDD*%
%TO.N,/3.3V*%
X179912500Y-71587500D03*
D20*
%TO.P,U5,25,PB12*%
%TO.N,unconnected-(U5-PB12-Pad25)*%
X178500000Y-73000000D03*
%TO.P,U5,26,PB13*%
%TO.N,unconnected-(U5-PB13-Pad26)*%
X178500000Y-73500000D03*
%TO.P,U5,27,PB14*%
%TO.N,unconnected-(U5-PB14-Pad27)*%
X178500000Y-74000000D03*
%TO.P,U5,28,PB15*%
%TO.N,unconnected-(U5-PB15-Pad28)*%
X178500000Y-74500000D03*
%TO.P,U5,29,PA8*%
%TO.N,/cfg1*%
X178500000Y-75000000D03*
%TO.P,U5,30,PA9*%
%TO.N,/cfg2*%
X178500000Y-75500000D03*
%TO.P,U5,31,PA10*%
%TO.N,/cfg3*%
X178500000Y-76000000D03*
%TO.P,U5,32,PA11*%
%TO.N,/buckM*%
X178500000Y-76500000D03*
%TO.P,U5,33,PA12*%
%TO.N,/pureM*%
X178500000Y-77000000D03*
%TO.P,U5,34,PA13*%
%TO.N,/swdio*%
X178500000Y-77500000D03*
%TO.P,U5,35,PF6*%
%TO.N,unconnected-(U5-PF6-Pad35)*%
X178500000Y-78000000D03*
%TO.P,U5,36,PF7*%
%TO.N,unconnected-(U5-PF7-Pad36)*%
X178500000Y-78500000D03*
D21*
%TO.P,U5,37,PA14*%
%TO.N,/swclk*%
X179912500Y-79912500D03*
%TO.P,U5,38,PA15*%
%TO.N,unconnected-(U5-PA15-Pad38)*%
X180412500Y-79912500D03*
%TO.P,U5,39,PB3*%
%TO.N,unconnected-(U5-PB3-Pad39)*%
X180912500Y-79912500D03*
%TO.P,U5,40,PB4*%
%TO.N,unconnected-(U5-PB4-Pad40)*%
X181412500Y-79912500D03*
%TO.P,U5,41,PB5*%
%TO.N,unconnected-(U5-PB5-Pad41)*%
X181912500Y-79912500D03*
%TO.P,U5,42,PB6*%
%TO.N,/scl_D*%
X182412500Y-79912500D03*
%TO.P,U5,43,PB7*%
%TO.N,/sda_D*%
X182912500Y-79912500D03*
%TO.P,U5,44,BOOT0*%
%TO.N,Net-(U5-BOOT0)*%
X183412500Y-79912500D03*
%TO.P,U5,45,PB8*%
%TO.N,unconnected-(U5-PB8-Pad45)*%
X183912500Y-79912500D03*
%TO.P,U5,46,PB9*%
%TO.N,unconnected-(U5-PB9-Pad46)*%
X184412500Y-79912500D03*
%TO.P,U5,47,VSS*%
%TO.N,GND*%
X184912500Y-79912500D03*
%TO.P,U5,48,VDD*%
%TO.N,/3.3V*%
X185412500Y-79912500D03*
%TD*%
D11*
%TO.P,C9,1*%
%TO.N,/3.3V*%
X170025000Y-93500000D03*
%TO.P,C9,2*%
%TO.N,GND*%
X170840000Y-93500000D03*
%TD*%
D22*
%TO.P,L1,1,1*%
%TO.N,/3.3V*%
X206500000Y-77650000D03*
%TO.P,L1,2,2*%
%TO.N,Net-(D4-K)*%
X206500000Y-69350000D03*
%TD*%
D23*
%TO.P,U3,1*%
%TO.N,Net-(R4-Pad1)*%
X193805000Y-103275000D03*
D24*
%TO.P,U3,2*%
%TO.N,GND*%
X193805000Y-100735000D03*
%TO.P,U3,3*%
X186185000Y-100735000D03*
%TO.P,U3,4*%
%TO.N,Net-(R8-Pad2)*%
X186185000Y-103275000D03*
%TD*%
D25*
%TO.P,U4,1,SW*%
%TO.N,Net-(D4-K)*%
X208960000Y-58500000D03*
%TO.P,U4,2,EN*%
%TO.N,Net-(U4-EN)*%
X210230000Y-58500000D03*
%TO.P,U4,3,COMP*%
%TO.N,Net-(U4-COMP)*%
X211500000Y-58500000D03*
%TO.P,U4,4,FB*%
%TO.N,Net-(U4-FB)*%
X212770000Y-58500000D03*
%TO.P,U4,5,GND*%
%TO.N,GND*%
X212770000Y-53051700D03*
%TO.P,U4,6,FREQ*%
%TO.N,Net-(U4-FREQ)*%
X211500000Y-53051700D03*
%TO.P,U4,7,VIN*%
%TO.N,/VBus*%
X210230000Y-53051700D03*
%TO.P,U4,8,BST*%
%TO.N,Net-(U4-BST)*%
X208960000Y-53051700D03*
D26*
%TO.P,U4,EPAD,EPAD*%
%TO.N,GND*%
X210865000Y-55775850D03*
%TD*%
D27*
%TO.P,C11,1*%
%TO.N,/3.3V*%
X188500000Y-78685000D03*
%TO.P,C11,2*%
%TO.N,GND*%
X188500000Y-79500000D03*
%TD*%
D13*
%TO.P,R15,1*%
%TO.N,/3.3V*%
X161000000Y-88762500D03*
%TO.P,R15,2*%
%TO.N,/sda_S*%
X161000000Y-90587500D03*
%TD*%
D28*
%TO.P,J1,A1,GND*%
%TO.N,GND*%
X161800000Y-72480000D03*
%TO.P,J1,A4,VBUS*%
%TO.N,/VBus*%
X161800000Y-73280000D03*
D29*
%TO.P,J1,A5,CC1*%
%TO.N,Net-(J1-CC1)*%
X161800000Y-74430000D03*
%TO.P,J1,A6,D+*%
%TO.N,Net-(U1-DP)*%
X161800000Y-75430000D03*
%TO.P,J1,A7,D-*%
%TO.N,Net-(U1-DM)*%
X161800000Y-75930000D03*
%TO.P,J1,A8,SBU1*%
%TO.N,unconnected-(J1-SBU1-PadA8)*%
X161800000Y-76930000D03*
D28*
%TO.P,J1,A9,VBUS*%
%TO.N,/VBus*%
X161800000Y-78080000D03*
%TO.P,J1,A12,GND*%
%TO.N,GND*%
X161800000Y-78880000D03*
%TO.P,J1,B1,GND*%
X161800000Y-78880000D03*
%TO.P,J1,B4,VBUS*%
%TO.N,/VBus*%
X161800000Y-78080000D03*
D29*
%TO.P,J1,B5,CC2*%
%TO.N,Net-(J1-CC2)*%
X161800000Y-77430000D03*
%TO.P,J1,B6,D+*%
%TO.N,Net-(U1-DP)*%
X161800000Y-76430000D03*
%TO.P,J1,B7,D-*%
%TO.N,Net-(U1-DM)*%
X161800000Y-74930000D03*
%TO.P,J1,B8,SBU2*%
%TO.N,unconnected-(J1-SBU2-PadB8)*%
X161800000Y-73930000D03*
D28*
%TO.P,J1,B9,VBUS*%
%TO.N,/VBus*%
X161800000Y-73280000D03*
%TO.P,J1,B12,GND*%
%TO.N,GND*%
X161800000Y-72480000D03*
D30*
%TO.P,J1,S1,SHIELD*%
X161200000Y-71360000D03*
D31*
X157000000Y-71360000D03*
D30*
X161200000Y-80000000D03*
D31*
X157000000Y-80000000D03*
%TD*%
D19*
%TO.P,C7,1*%
%TO.N,Net-(U5-PF0)*%
X195000000Y-82998750D03*
%TO.P,C7,2*%
%TO.N,GND*%
X194185000Y-82998750D03*
%TD*%
D10*
%TO.P,R22,1*%
%TO.N,GND*%
X216927500Y-62850000D03*
%TO.P,R22,2*%
%TO.N,Net-(C6-Pad2)*%
X215102500Y-62850000D03*
%TD*%
D32*
%TO.P,R21,1*%
%TO.N,GND*%
X183500000Y-85825000D03*
%TO.P,R21,2*%
%TO.N,Net-(U5-BOOT0)*%
X183500000Y-84000000D03*
%TD*%
%TO.P,R13,1*%
%TO.N,/3.3V*%
X215000000Y-73587500D03*
%TO.P,R13,2*%
%TO.N,Net-(U4-FB)*%
X215000000Y-71762500D03*
%TD*%
D33*
%TO.P,Y1,1,1*%
%TO.N,Net-(U5-PF0)*%
X194910000Y-78911250D03*
%TO.P,Y1,2,2*%
%TO.N,Net-(U5-PF1)*%
X194910000Y-70411250D03*
%TD*%
D34*
%TO.P,J2,1,Pin_1*%
%TO.N,GND*%
X174120000Y-85000000D03*
D35*
%TO.P,J2,2,Pin_2*%
%TO.N,/swclk*%
X171580000Y-85000000D03*
%TO.P,J2,3,Pin_3*%
%TO.N,/swdio*%
X169040000Y-85000000D03*
%TO.P,J2,4,Pin_4*%
%TO.N,/3.3V*%
X166500000Y-85000000D03*
%TD*%
D36*
%TO.P,J6,1,Pin_1*%
%TO.N,Net-(D5-A)*%
X166000000Y-62000000D03*
D37*
%TO.P,J6,2,Pin_2*%
%TO.N,GND*%
X161000000Y-62000000D03*
%TD*%
D32*
%TO.P,R16,1*%
%TO.N,/3.3V*%
X161037500Y-94737500D03*
%TO.P,R16,2*%
%TO.N,/scl_S*%
X161037500Y-92912500D03*
%TD*%
D16*
%TO.P,R4,1*%
%TO.N,Net-(R4-Pad1)*%
X196947500Y-103275000D03*
%TO.P,R4,2*%
%TO.N,/pureM*%
X198772500Y-103275000D03*
%TD*%
D32*
%TO.P,R14,1*%
%TO.N,/pureM*%
X202805000Y-102362500D03*
%TO.P,R14,2*%
%TO.N,GND*%
X202805000Y-100537500D03*
%TD*%
D38*
%TO.P,C2,1*%
%TO.N,/VBus*%
X212052500Y-47365000D03*
%TO.P,C2,2*%
%TO.N,GND*%
X214127500Y-47365000D03*
%TD*%
D39*
%TO.P,Q2,1,G*%
%TO.N,Net-(D2-A)*%
X166780000Y-104030000D03*
%TO.P,Q2,2,D*%
%TO.N,Net-(D3-A)*%
X166780000Y-101750000D03*
D40*
X160480000Y-101750000D03*
D39*
%TO.P,Q2,3,S*%
%TO.N,/VBus*%
X166780000Y-99470000D03*
%TD*%
D15*
%TO.P,SW1,1,1*%
%TO.N,/o{slash}f*%
X228500000Y-78500000D03*
X220550000Y-78500000D03*
%TO.P,SW1,2,2*%
%TO.N,GND*%
X228500000Y-74000000D03*
X220550000Y-74000000D03*
%TD*%
D41*
%TO.P,U1,1,VDD*%
%TO.N,Net-(U1-VDD)*%
X169500000Y-78775000D03*
%TO.P,U1,2,CFG2*%
%TO.N,/cfg2*%
X170500000Y-78775000D03*
%TO.P,U1,3,CFG3*%
%TO.N,/cfg3*%
X171500000Y-78775000D03*
%TO.P,U1,4,DP*%
%TO.N,Net-(U1-DP)*%
X172500000Y-78775000D03*
%TO.P,U1,5,DM*%
%TO.N,Net-(U1-DM)*%
X173500000Y-78775000D03*
%TO.P,U1,6,CC2*%
%TO.N,Net-(J1-CC2)*%
X173500000Y-73500000D03*
%TO.P,U1,7,CC1*%
%TO.N,Net-(J1-CC1)*%
X172500000Y-73500000D03*
%TO.P,U1,8,VBUS*%
%TO.N,Net-(U1-VBUS)*%
X171500000Y-73500000D03*
%TO.P,U1,9,CFG1*%
%TO.N,/cfg1*%
X170500000Y-73500000D03*
%TO.P,U1,10,PG*%
%TO.N,unconnected-(U1-PG-Pad10)*%
X169500000Y-73500000D03*
D42*
%TO.P,U1,11,GND*%
%TO.N,GND*%
X171500000Y-76137500D03*
%TD*%
D43*
%TO.P,D4,1,K*%
%TO.N,Net-(D4-K)*%
X206000000Y-64850000D03*
%TO.P,D4,2,A*%
%TO.N,GND*%
X210000000Y-64850000D03*
%TD*%
D44*
%TO.P,C12,1*%
%TO.N,/3.3V*%
X180000000Y-68975000D03*
%TO.P,C12,2*%
%TO.N,GND*%
X180000000Y-68160000D03*
%TD*%
D32*
%TO.P,R9,1*%
%TO.N,/buckM*%
X204375000Y-55915000D03*
%TO.P,R9,2*%
%TO.N,GND*%
X204375000Y-54090000D03*
%TD*%
D10*
%TO.P,R17,1*%
%TO.N,/3.3V*%
X232776500Y-78223500D03*
%TO.P,R17,2*%
%TO.N,/o{slash}f*%
X230951500Y-78223500D03*
%TD*%
D45*
%TO.P,J4,1,Pin_1*%
%TO.N,Net-(J4-Pin_1)*%
X208500000Y-91000000D03*
D37*
%TO.P,J4,2,Pin_2*%
%TO.N,GND*%
X208500000Y-96000000D03*
%TD*%
D16*
%TO.P,R1,1*%
%TO.N,/VBus*%
X165262500Y-80000000D03*
%TO.P,R1,2*%
%TO.N,Net-(U1-VDD)*%
X167087500Y-80000000D03*
%TD*%
D10*
%TO.P,R18,1*%
%TO.N,/3.3V*%
X232426500Y-69973500D03*
%TO.P,R18,2*%
%TO.N,/mode*%
X230601500Y-69973500D03*
%TD*%
D14*
%TO.P,D2,1,K*%
%TO.N,/VBus*%
X176305000Y-99275000D03*
%TO.P,D2,2,A*%
%TO.N,Net-(D2-A)*%
X176305000Y-103275000D03*
%TD*%
D11*
%TO.P,C5,1*%
%TO.N,Net-(U4-COMP)*%
X214247500Y-60350000D03*
%TO.P,C5,2*%
%TO.N,GND*%
X215062500Y-60350000D03*
%TD*%
D39*
%TO.P,Q1,1,G*%
%TO.N,Net-(D1-A)*%
X167595000Y-53295000D03*
%TO.P,Q1,2,D*%
%TO.N,Net-(J5-Pin_1)*%
X167595000Y-51015000D03*
D40*
X161295000Y-51015000D03*
D39*
%TO.P,Q1,3,S*%
%TO.N,/VBus*%
X167595000Y-48735000D03*
%TD*%
D16*
%TO.P,R12,1*%
%TO.N,Net-(U4-FB)*%
X214762500Y-69850000D03*
%TO.P,R12,2*%
%TO.N,GND*%
X216587500Y-69850000D03*
%TD*%
D23*
%TO.P,U2,1*%
%TO.N,Net-(R6-Pad1)*%
X195500000Y-57500000D03*
D24*
%TO.P,U2,2*%
%TO.N,GND*%
X195500000Y-54960000D03*
%TO.P,U2,3*%
X187880000Y-54960000D03*
%TO.P,U2,4*%
%TO.N,Net-(R5-Pad2)*%
X187880000Y-57500000D03*
%TD*%
D44*
%TO.P,C1,1*%
%TO.N,GND*%
X169500000Y-82062500D03*
%TO.P,C1,2*%
%TO.N,Net-(U1-VDD)*%
X169500000Y-81247500D03*
%TD*%
D10*
%TO.P,R10,1*%
%TO.N,/VBus*%
X208865000Y-47365000D03*
%TO.P,R10,2*%
%TO.N,Net-(U4-EN)*%
X207040000Y-47365000D03*
%TD*%
%TO.P,R20,1*%
%TO.N,/3.3V*%
X189825000Y-70000000D03*
%TO.P,R20,2*%
%TO.N,Net-(U5-NRST)*%
X188000000Y-70000000D03*
%TD*%
D46*
%TO.P,Shunt1,1*%
%TO.N,/MosO{slash}P*%
X189037500Y-92000000D03*
%TO.P,Shunt1,2*%
%TO.N,Net-(J4-Pin_1)*%
X194962500Y-92000000D03*
%TD*%
D10*
%TO.P,R19,1*%
%TO.N,/3.3V*%
X232776500Y-61473500D03*
%TO.P,R19,2*%
%TO.N,/level*%
X230951500Y-61473500D03*
%TD*%
D15*
%TO.P,SW3,1,1*%
%TO.N,/level*%
X228500000Y-61600000D03*
X220550000Y-61600000D03*
%TO.P,SW3,2,2*%
%TO.N,GND*%
X228500000Y-57100000D03*
X220550000Y-57100000D03*
%TD*%
D47*
%TO.P,J5,1,Pin_1*%
%TO.N,Net-(J5-Pin_1)*%
X183500000Y-47500000D03*
D37*
%TO.P,J5,2,Pin_2*%
%TO.N,GND*%
X188500000Y-47500000D03*
%TD*%
D11*
%TO.P,C6,1*%
%TO.N,Net-(U4-COMP)*%
X212282500Y-62695000D03*
%TO.P,C6,2*%
%TO.N,Net-(C6-Pad2)*%
X213097500Y-62695000D03*
%TD*%
D27*
%TO.P,C3,1*%
%TO.N,Net-(U4-BST)*%
X205770000Y-55464200D03*
%TO.P,C3,2*%
%TO.N,Net-(D4-K)*%
X205770000Y-56279200D03*
%TD*%
D48*
%TO.P,TP1,1,1*%
%TO.N,GND*%
X183025000Y-68500000D03*
%TO.P,TP1,2,2*%
%TO.N,Net-(U5-NRST)*%
X185975000Y-68500000D03*
%TD*%
D49*
%TO.P,U6,1,A1*%
%TO.N,GND*%
X164600000Y-90000000D03*
%TO.P,U6,2,A0*%
X164600000Y-90500000D03*
%TO.P,U6,3,~{Alert}*%
%TO.N,unconnected-(U6-~{Alert}-Pad3)*%
X164600000Y-91000000D03*
%TO.P,U6,4,SDA*%
%TO.N,/sda_S*%
X164600000Y-91500000D03*
%TO.P,U6,5,SCL*%
%TO.N,/scl_S*%
X164600000Y-92000000D03*
%TO.P,U6,6,VS*%
%TO.N,/3.3V*%
X169000000Y-92000000D03*
%TO.P,U6,7,GND*%
%TO.N,GND*%
X169000000Y-91500000D03*
%TO.P,U6,8,Vbus*%
%TO.N,/MosO{slash}P*%
X169000000Y-91000000D03*
%TO.P,U6,9,Vin-*%
%TO.N,Net-(J4-Pin_1)*%
X169000000Y-90500000D03*
%TO.P,U6,10,Vin+*%
%TO.N,/MosO{slash}P*%
X169000000Y-90000000D03*
%TD*%
D16*
%TO.P,R5,1*%
%TO.N,Net-(D1-A)*%
X183272500Y-57040000D03*
%TO.P,R5,2*%
%TO.N,Net-(R5-Pad2)*%
X185097500Y-57040000D03*
%TD*%
D19*
%TO.P,C13,1*%
%TO.N,/3.3V*%
X178315000Y-70000000D03*
%TO.P,C13,2*%
%TO.N,GND*%
X177500000Y-70000000D03*
%TD*%
D34*
%TO.P,J3,1,Pin_1*%
%TO.N,/3.3V*%
X221420000Y-87500000D03*
D35*
%TO.P,J3,2,Pin_2*%
%TO.N,/scl_D*%
X223960000Y-87500000D03*
%TO.P,J3,3,Pin_3*%
%TO.N,/sda_D*%
X226500000Y-87500000D03*
%TO.P,J3,4,Pin_4*%
%TO.N,GND*%
X229040000Y-87500000D03*
%TD*%
D12*
%TO.P,D5,1,K*%
%TO.N,/MosO{slash}P*%
X181500000Y-62500000D03*
%TO.P,D5,2,A*%
%TO.N,Net-(D5-A)*%
X177200000Y-62500000D03*
%TD*%
D13*
%TO.P,R3,1*%
%TO.N,/VBus*%
X172947500Y-53912500D03*
%TO.P,R3,2*%
%TO.N,Net-(D1-A)*%
X172947500Y-55737500D03*
%TD*%
D50*
%TO.N,GND*%
X191250000Y-78500000D03*
X188750000Y-75250000D03*
D51*
X215000000Y-61500000D03*
D50*
X194250000Y-67500000D03*
X202000000Y-62000000D03*
X204250000Y-59250000D03*
X183250000Y-74250000D03*
X217750000Y-67750000D03*
X213000000Y-66500000D03*
X191750000Y-54960000D03*
D51*
X171500000Y-76137500D03*
D50*
X191000000Y-86000000D03*
X204500000Y-52000000D03*
X176500000Y-68750000D03*
X224750000Y-65550000D03*
X197250000Y-62250000D03*
X166250000Y-91500000D03*
X171250000Y-92000000D03*
X210865000Y-55775850D03*
X212250000Y-82350000D03*
X213000000Y-64250000D03*
X184250000Y-81500000D03*
X224750000Y-74000000D03*
X213000000Y-68500000D03*
%TO.N,/VBus*%
X175750000Y-53912500D03*
D51*
X174250000Y-44250000D03*
D50*
X163670000Y-78080000D03*
X163750000Y-79750000D03*
X164000000Y-73250000D03*
D51*
X171250000Y-47250000D03*
D50*
X164000000Y-71750000D03*
X163000000Y-78080000D03*
X173915000Y-101665000D03*
D51*
X166780000Y-98250000D03*
X166500000Y-96750000D03*
X163500000Y-96750000D03*
D50*
X163750000Y-79000000D03*
X163000000Y-73280000D03*
X173250000Y-71500000D03*
D51*
X165000000Y-96750000D03*
X172500000Y-46000000D03*
X173375000Y-45125000D03*
D50*
X164000000Y-72500000D03*
%TO.N,/3.3V*%
X188750000Y-77500000D03*
X189500000Y-74750000D03*
X189500000Y-72000000D03*
D51*
%TO.N,/MosO{slash}P*%
X186000000Y-61250000D03*
X186250000Y-92000000D03*
X186000000Y-62250000D03*
X183750000Y-92000000D03*
X186000000Y-64750000D03*
X187500000Y-92000000D03*
X185000000Y-92000000D03*
X186000000Y-63500000D03*
D50*
%TO.N,/pureM*%
X180750000Y-77000000D03*
X198500000Y-100500000D03*
%TO.N,/buckM*%
X200250000Y-58750000D03*
X180250000Y-75750000D03*
D51*
%TO.N,/cfg1*%
X170500000Y-71500000D03*
X175000000Y-74000000D03*
%TO.N,/cfg3*%
X171500000Y-80250000D03*
X175750000Y-77000000D03*
%TD*%
D52*
%TO.N,Net-(U1-VDD)*%
X168275000Y-80000000D02*
X169500000Y-78775000D01*
X169500000Y-81247500D02*
X169500000Y-78775000D01*
X167087500Y-80000000D02*
X168275000Y-80000000D01*
%TO.N,GND*%
X165500000Y-90500000D02*
X166250000Y-91250000D01*
X224750000Y-74000000D02*
X220550000Y-74000000D01*
X169000000Y-91500000D02*
X170750000Y-91500000D01*
X183500000Y-85825000D02*
X184175000Y-86500000D01*
X215062500Y-60350000D02*
X215062500Y-61437500D01*
X228500000Y-74000000D02*
X224750000Y-74000000D01*
D53*
X161800000Y-72480000D02*
X161800000Y-71960000D01*
D52*
X182250000Y-74250000D02*
X183250000Y-74250000D01*
D53*
X161800000Y-78880000D02*
X161800000Y-79400000D01*
D52*
X217750000Y-68500000D02*
X217750000Y-67750000D01*
X194185000Y-66498750D02*
X194185000Y-67435000D01*
X220550000Y-57100000D02*
X228500000Y-57100000D01*
X215062500Y-61437500D02*
X215000000Y-61500000D01*
X220550000Y-65550000D02*
X224750000Y-65550000D01*
X184912500Y-79912500D02*
X184912500Y-80837500D01*
D53*
X161800000Y-71960000D02*
X161200000Y-71360000D01*
D52*
X194185000Y-67435000D02*
X194250000Y-67500000D01*
X188500000Y-75000000D02*
X188750000Y-75250000D01*
D53*
X161800000Y-79400000D02*
X161200000Y-80000000D01*
D52*
X164600000Y-90500000D02*
X165500000Y-90500000D01*
X216587500Y-69850000D02*
X217750000Y-68687500D01*
X191750000Y-54960000D02*
X195500000Y-54960000D01*
X170750000Y-91500000D02*
X171250000Y-92000000D01*
X204375000Y-54090000D02*
X204375000Y-52125000D01*
X164600000Y-90500000D02*
X164600000Y-90000000D01*
X204375000Y-52125000D02*
X204500000Y-52000000D01*
X166250000Y-91250000D02*
X166250000Y-91500000D01*
X187880000Y-54960000D02*
X191750000Y-54960000D01*
X209537500Y-82350000D02*
X212250000Y-82350000D01*
X180412500Y-72412500D02*
X182250000Y-74250000D01*
X191000000Y-86250000D02*
X191000000Y-86000000D01*
X224750000Y-65550000D02*
X228500000Y-65550000D01*
X184912500Y-80837500D02*
X184250000Y-81500000D01*
X190750000Y-86500000D02*
X191000000Y-86250000D01*
X186825000Y-75000000D02*
X188500000Y-75000000D01*
X180412500Y-71587500D02*
X180412500Y-72412500D01*
X217750000Y-68687500D02*
X217750000Y-68500000D01*
X184175000Y-86500000D02*
X190750000Y-86500000D01*
%TO.N,/VBus*%
X208865000Y-47365000D02*
X212052500Y-47365000D01*
X172947500Y-53912500D02*
X175750000Y-53912500D01*
D54*
X171250000Y-47250000D02*
X171375000Y-47125000D01*
D53*
X163750000Y-79750000D02*
X164000000Y-79500000D01*
X163670000Y-78080000D02*
X163750000Y-78160000D01*
D54*
X165750000Y-96750000D02*
X165000000Y-96750000D01*
D52*
X208865000Y-47365000D02*
X208137000Y-46637000D01*
D53*
X161800000Y-78080000D02*
X163000000Y-78080000D01*
D54*
X169765000Y-48735000D02*
X170875000Y-47625000D01*
D53*
X164000000Y-79500000D02*
X164762500Y-79500000D01*
D54*
X165000000Y-96750000D02*
X163500000Y-96750000D01*
D52*
X177225000Y-53912500D02*
X178097500Y-53040000D01*
D54*
X170875000Y-47625000D02*
X171250000Y-47250000D01*
D52*
X173237500Y-70000000D02*
X173237500Y-71487500D01*
D53*
X163970000Y-73280000D02*
X161800000Y-73280000D01*
X164762500Y-79500000D02*
X165262500Y-80000000D01*
D52*
X206580246Y-46637000D02*
X200177246Y-53040000D01*
D54*
X173125000Y-45375000D02*
X173375000Y-45125000D01*
D53*
X163750000Y-79000000D02*
X163750000Y-79750000D01*
D54*
X172500000Y-46000000D02*
X173125000Y-45375000D01*
D52*
X210230000Y-49187500D02*
X212052500Y-47365000D01*
D54*
X166780000Y-98250000D02*
X166780000Y-97030000D01*
D52*
X208137000Y-46637000D02*
X206580246Y-46637000D01*
X178097500Y-53040000D02*
X200177246Y-53040000D01*
D54*
X172375000Y-46125000D02*
X172500000Y-46000000D01*
X173375000Y-45125000D02*
X174125000Y-44375000D01*
D53*
X164000000Y-73250000D02*
X164000000Y-72500000D01*
X163750000Y-78160000D02*
X163750000Y-79000000D01*
D52*
X173237500Y-71487500D02*
X173250000Y-71500000D01*
D54*
X172125000Y-46375000D02*
X172375000Y-46125000D01*
D53*
X164000000Y-73250000D02*
X163970000Y-73280000D01*
D54*
X166780000Y-97030000D02*
X166750000Y-97000000D01*
X171375000Y-47125000D02*
X172125000Y-46375000D01*
D53*
X209000000Y-47500000D02*
X208865000Y-47365000D01*
D52*
X210230000Y-53051700D02*
X210230000Y-49187500D01*
X172000000Y-101925000D02*
X173655000Y-101925000D01*
D54*
X166780000Y-99470000D02*
X166780000Y-98250000D01*
D53*
X164000000Y-72500000D02*
X164000000Y-71750000D01*
X163670000Y-78080000D02*
X163000000Y-78080000D01*
D52*
X173915000Y-101665000D02*
X176305000Y-99275000D01*
D54*
X166500000Y-96750000D02*
X165750000Y-96750000D01*
X174125000Y-44375000D02*
X174250000Y-44250000D01*
X167595000Y-48735000D02*
X169765000Y-48735000D01*
D52*
X173655000Y-101925000D02*
X173915000Y-101665000D01*
D54*
X166750000Y-97000000D02*
X166500000Y-96750000D01*
D52*
X175750000Y-53912500D02*
X177225000Y-53912500D01*
%TO.N,Net-(U4-BST)*%
X208960000Y-53051700D02*
X208182500Y-53051700D01*
X208182500Y-53051700D02*
X205770000Y-55464200D01*
%TO.N,Net-(D4-K)*%
X206500000Y-65350000D02*
X206000000Y-64850000D01*
X208220800Y-58730000D02*
X205770000Y-56279200D01*
X206000000Y-64850000D02*
X206000000Y-61460000D01*
X206500000Y-69350000D02*
X206500000Y-65350000D01*
X206000000Y-61460000D02*
X208730000Y-58730000D01*
X208730000Y-58730000D02*
X208960000Y-58500000D01*
X208730000Y-58730000D02*
X208220800Y-58730000D01*
%TO.N,/3.3V*%
X229517000Y-79403000D02*
X221420000Y-87500000D01*
X179703442Y-78500000D02*
X179300442Y-78903000D01*
X188500000Y-77750000D02*
X188750000Y-77500000D01*
X188500000Y-78685000D02*
X187010000Y-78685000D01*
X206412500Y-82350000D02*
X206412500Y-77737500D01*
X232776500Y-69973500D02*
X232776500Y-61473500D01*
X168512500Y-94737500D02*
X161037500Y-94737500D01*
X185412500Y-79912500D02*
X186825000Y-78500000D01*
X179912500Y-72662500D02*
X182000000Y-74750000D01*
X172156573Y-83378000D02*
X171196572Y-83378000D01*
X179912500Y-71587500D02*
X179912500Y-69062500D01*
X189825000Y-70000000D02*
X189825000Y-71675000D01*
X167603000Y-86103000D02*
X166500000Y-85000000D01*
X182000000Y-78500000D02*
X179703442Y-78500000D01*
X166500000Y-85000000D02*
X162737500Y-88762500D01*
X169496878Y-86103000D02*
X167603000Y-86103000D01*
X170025000Y-93500000D02*
X170025000Y-93025000D01*
X219522000Y-70543427D02*
X219522000Y-69147000D01*
X219522000Y-69147000D02*
X232000000Y-69147000D01*
X170025000Y-93500000D02*
X169750000Y-93500000D01*
X179912500Y-69062500D02*
X180000000Y-68975000D01*
X232776500Y-78223500D02*
X231597000Y-79403000D01*
X169000000Y-92000000D02*
X167790942Y-92000000D01*
X186825000Y-74500000D02*
X189250000Y-74500000D01*
X178315000Y-70000000D02*
X178325000Y-70000000D01*
X167790942Y-92000000D02*
X164553442Y-88762500D01*
X206412500Y-77737500D02*
X206500000Y-77650000D01*
X170025000Y-93025000D02*
X169000000Y-92000000D01*
X232776500Y-78223500D02*
X232776500Y-69973500D01*
X185525000Y-82025000D02*
X185525000Y-81500000D01*
X176631573Y-78903000D02*
X172156573Y-83378000D01*
X189250000Y-74500000D02*
X189500000Y-74750000D01*
X185525000Y-80025000D02*
X185412500Y-79912500D01*
X179300442Y-78903000D02*
X176631573Y-78903000D01*
X170143000Y-84431572D02*
X170143000Y-85456878D01*
X164553442Y-88762500D02*
X161000000Y-88762500D01*
X188685000Y-78685000D02*
X193451750Y-83451750D01*
X179912500Y-71587500D02*
X179912500Y-72662500D01*
X216477928Y-73587500D02*
X219522000Y-70543427D01*
X206500000Y-77650000D02*
X211570000Y-77650000D01*
X187010000Y-78685000D02*
X186825000Y-78500000D01*
X171196572Y-83378000D02*
X170143000Y-84431572D01*
X170143000Y-85456878D02*
X169496878Y-86103000D01*
X193451750Y-83451750D02*
X200698250Y-83451750D01*
X232426500Y-69973500D02*
X232426500Y-69573500D01*
X186825000Y-78500000D02*
X182000000Y-78500000D01*
X169750000Y-93500000D02*
X168512500Y-94737500D01*
X188500000Y-78685000D02*
X188500000Y-77750000D01*
X215000000Y-73587500D02*
X216477928Y-73587500D01*
X178325000Y-70000000D02*
X179912500Y-71587500D01*
X182000000Y-74750000D02*
X182000000Y-78500000D01*
X232426500Y-69573500D02*
X232000000Y-69147000D01*
X188500000Y-78685000D02*
X188685000Y-78685000D01*
X189825000Y-71675000D02*
X189500000Y-72000000D01*
X185525000Y-81500000D02*
X185525000Y-80025000D01*
X200698250Y-83451750D02*
X206500000Y-77650000D01*
X188500000Y-85000000D02*
X185525000Y-82025000D01*
X211570000Y-77650000D02*
X221420000Y-87500000D01*
X231597000Y-79403000D02*
X229517000Y-79403000D01*
X162737500Y-88762500D02*
X161000000Y-88762500D01*
%TO.N,Net-(U4-COMP)*%
X211500000Y-58500000D02*
X211500000Y-59000000D01*
X211500000Y-61912500D02*
X211500000Y-58500000D01*
X212850000Y-60350000D02*
X214247500Y-60350000D01*
X211500000Y-59000000D02*
X212850000Y-60350000D01*
X212282500Y-62695000D02*
X211500000Y-61912500D01*
%TO.N,Net-(C6-Pad2)*%
X213097500Y-62695000D02*
X214947500Y-62695000D01*
X214947500Y-62695000D02*
X215102500Y-62850000D01*
%TO.N,Net-(U5-PF0)*%
X186825000Y-76500000D02*
X192498750Y-76500000D01*
X195000000Y-79001250D02*
X194910000Y-78911250D01*
X195000000Y-82998750D02*
X195000000Y-79001250D01*
X192498750Y-76500000D02*
X194910000Y-78911250D01*
%TO.N,Net-(U5-PF1)*%
X189321250Y-76000000D02*
X194910000Y-70411250D01*
X186825000Y-76000000D02*
X189321250Y-76000000D01*
X194910000Y-70411250D02*
X195000000Y-70321250D01*
X195000000Y-70321250D02*
X195000000Y-66498750D01*
%TO.N,Net-(D1-A)*%
X183272500Y-57040000D02*
X178097500Y-57040000D01*
X176487500Y-55737500D02*
X172947500Y-55737500D01*
X177790000Y-57040000D02*
X176487500Y-55737500D01*
X170037500Y-55737500D02*
X167595000Y-53295000D01*
X172947500Y-55737500D02*
X170037500Y-55737500D01*
X178097500Y-57040000D02*
X177790000Y-57040000D01*
%TO.N,Net-(D2-A)*%
X181480000Y-103275000D02*
X176305000Y-103275000D01*
X171220000Y-104030000D02*
X166780000Y-104030000D01*
X172475000Y-103275000D02*
X172000000Y-103750000D01*
X172000000Y-103750000D02*
X171500000Y-103750000D01*
X176305000Y-103275000D02*
X172475000Y-103275000D01*
X171500000Y-103750000D02*
X171220000Y-104030000D01*
D55*
%TO.N,/MosO{slash}P*%
X184750000Y-62500000D02*
X186000000Y-61250000D01*
D52*
X168022000Y-90287058D02*
X168022000Y-90746999D01*
D55*
X185000000Y-92000000D02*
X184250000Y-92000000D01*
D52*
X168275001Y-91000000D02*
X169000000Y-91000000D01*
X168022000Y-90746999D02*
X168275001Y-91000000D01*
X187750000Y-89250000D02*
X187500000Y-89000000D01*
X187500000Y-89000000D02*
X172750000Y-89000000D01*
X168309058Y-90000000D02*
X168022000Y-90287058D01*
X170750000Y-91000000D02*
X169000000Y-91000000D01*
D55*
X184250000Y-92000000D02*
X183750000Y-92000000D01*
D52*
X169000000Y-90000000D02*
X168309058Y-90000000D01*
D55*
X189037500Y-92000000D02*
X187500000Y-92000000D01*
X186000000Y-64750000D02*
X186000000Y-61250000D01*
D52*
X187750000Y-90712500D02*
X187750000Y-89250000D01*
X189037500Y-92000000D02*
X187750000Y-90712500D01*
D55*
X187500000Y-92000000D02*
X186250000Y-92000000D01*
D52*
X172750000Y-89000000D02*
X170750000Y-91000000D01*
D55*
X183750000Y-92000000D02*
X181500000Y-92000000D01*
X186250000Y-92000000D02*
X185000000Y-92000000D01*
X181500000Y-62500000D02*
X184750000Y-62500000D01*
%TO.N,Net-(D3-A)*%
X168646258Y-101750000D02*
X177200000Y-93196258D01*
X177200000Y-93196258D02*
X177200000Y-92000000D01*
X166780000Y-101750000D02*
X160480000Y-101750000D01*
X166780000Y-101750000D02*
X168646258Y-101750000D01*
%TO.N,Net-(D5-A)*%
X166500000Y-62500000D02*
X166000000Y-62000000D01*
X177200000Y-62500000D02*
X166500000Y-62500000D01*
D52*
%TO.N,Net-(U1-DP)*%
X164680500Y-77440500D02*
X163670000Y-76430000D01*
X172500000Y-78775000D02*
X172500000Y-77937501D01*
X161800000Y-75430000D02*
X162670000Y-75430000D01*
X162670000Y-75430000D02*
X163250000Y-76010000D01*
X163250000Y-76010000D02*
X163250000Y-76430000D01*
X163670000Y-76430000D02*
X163250000Y-76430000D01*
X172002999Y-77440500D02*
X164680500Y-77440500D01*
X163250000Y-76430000D02*
X161800000Y-76430000D01*
X172500000Y-77937501D02*
X172002999Y-77440500D01*
%TO.N,Net-(J1-CC1)*%
X172153000Y-73153000D02*
X172500000Y-73500000D01*
X171872254Y-69272000D02*
X172153000Y-69552746D01*
X172153000Y-69552746D02*
X172153000Y-73153000D01*
X161800000Y-74430000D02*
X165794746Y-74430000D01*
X165794746Y-74430000D02*
X170952746Y-69272000D01*
X170952746Y-69272000D02*
X171872254Y-69272000D01*
%TO.N,Net-(U1-DM)*%
X160500000Y-75250000D02*
X160820000Y-74930000D01*
X173500000Y-78775000D02*
X173500000Y-74931500D01*
X161800000Y-75930000D02*
X160680000Y-75930000D01*
X161895500Y-74834500D02*
X161800000Y-74930000D01*
X160680000Y-75930000D02*
X160500000Y-75750000D01*
X173500000Y-74931500D02*
X173403000Y-74834500D01*
X160820000Y-74930000D02*
X161800000Y-74930000D01*
X173403000Y-74834500D02*
X161895500Y-74834500D01*
X160500000Y-75750000D02*
X160500000Y-75250000D01*
%TO.N,Net-(J1-CC2)*%
X160930000Y-77430000D02*
X161800000Y-77430000D01*
X174250000Y-72750000D02*
X174250000Y-69250000D01*
X173500000Y-73500000D02*
X174250000Y-72750000D01*
X174250000Y-69250000D02*
X173500000Y-68500000D01*
X159897000Y-71048097D02*
X159897000Y-76397000D01*
X173500000Y-68500000D02*
X162445097Y-68500000D01*
X162445097Y-68500000D02*
X159897000Y-71048097D01*
X159897000Y-76397000D02*
X160930000Y-77430000D01*
%TO.N,/swdio*%
X172000000Y-83000000D02*
X177500000Y-77500000D01*
X171040000Y-83000000D02*
X172000000Y-83000000D01*
X177500000Y-77500000D02*
X178500000Y-77500000D01*
X169040000Y-85000000D02*
X171040000Y-83000000D01*
%TO.N,/swclk*%
X171580000Y-85000000D02*
X176667500Y-79912500D01*
X176667500Y-79912500D02*
X179912500Y-79912500D01*
%TO.N,/scl_D*%
X231750000Y-86000000D02*
X230500000Y-84750000D01*
X230500000Y-84750000D02*
X226750000Y-84750000D01*
X219000000Y-87500000D02*
X219000000Y-88500000D01*
X181000000Y-82500000D02*
X181000000Y-87500000D01*
X230500000Y-90250000D02*
X231750000Y-89000000D01*
X226500000Y-85000000D02*
X226460000Y-85000000D01*
X226460000Y-85000000D02*
X223960000Y-87500000D01*
X182412500Y-79912500D02*
X182412500Y-81087500D01*
X182412500Y-81087500D02*
X181000000Y-82500000D01*
X220750000Y-90250000D02*
X230500000Y-90250000D01*
X181000000Y-87500000D02*
X219000000Y-87500000D01*
X219000000Y-88500000D02*
X220750000Y-90250000D01*
X226750000Y-84750000D02*
X226500000Y-85000000D01*
X231750000Y-89000000D02*
X231750000Y-86000000D01*
%TO.N,/sda_D*%
X225750000Y-89750000D02*
X226500000Y-89000000D01*
X220928000Y-89750000D02*
X225750000Y-89750000D01*
X182912500Y-79912500D02*
X182912500Y-81587500D01*
X182912500Y-81587500D02*
X181500000Y-83000000D01*
X219714000Y-87000000D02*
X219714000Y-88536000D01*
X181500000Y-87000000D02*
X219714000Y-87000000D01*
X181500000Y-83000000D02*
X181500000Y-87000000D01*
X219714000Y-88536000D02*
X220928000Y-89750000D01*
X226500000Y-89000000D02*
X226500000Y-87500000D01*
%TO.N,Net-(J4-Pin_1)*%
X169000000Y-90500000D02*
X170500000Y-90500000D01*
D55*
X194962500Y-92000000D02*
X207500000Y-92000000D01*
D52*
X194962500Y-90462500D02*
X194962500Y-92000000D01*
X170500000Y-90500000D02*
X172500000Y-88500000D01*
X172500000Y-88500000D02*
X193000000Y-88500000D01*
X193000000Y-88500000D02*
X194962500Y-90462500D01*
D55*
X207500000Y-92000000D02*
X208500000Y-91000000D01*
%TO.N,Net-(J5-Pin_1)*%
X167595000Y-51015000D02*
X174235000Y-51015000D01*
X167595000Y-51015000D02*
X161295000Y-51015000D01*
X177750000Y-47500000D02*
X183500000Y-47500000D01*
X174235000Y-51015000D02*
X177750000Y-47500000D01*
D52*
%TO.N,Net-(U1-VBUS)*%
X171412500Y-70000000D02*
X171412500Y-73412500D01*
X171412500Y-73412500D02*
X171500000Y-73500000D01*
%TO.N,/pureM*%
X198772500Y-103275000D02*
X198772500Y-100772500D01*
X201892500Y-103275000D02*
X202805000Y-102362500D01*
X198772500Y-100772500D02*
X198500000Y-100500000D01*
X198772500Y-103275000D02*
X201892500Y-103275000D01*
X178500000Y-77000000D02*
X180750000Y-77000000D01*
%TO.N,Net-(R4-Pad1)*%
X196947500Y-103275000D02*
X193805000Y-103275000D01*
%TO.N,Net-(R5-Pad2)*%
X187880000Y-57500000D02*
X185557500Y-57500000D01*
X185557500Y-57500000D02*
X185097500Y-57040000D01*
%TO.N,/buckM*%
X178500000Y-76500000D02*
X179500000Y-76500000D01*
X201222500Y-55915000D02*
X201097500Y-56040000D01*
X201097500Y-57902500D02*
X200250000Y-58750000D01*
X204375000Y-55915000D02*
X201222500Y-55915000D01*
X201097500Y-56040000D02*
X201097500Y-57902500D01*
X179500000Y-76500000D02*
X180250000Y-75750000D01*
%TO.N,Net-(R6-Pad1)*%
X196960000Y-56040000D02*
X195500000Y-57500000D01*
X199272500Y-56040000D02*
X196960000Y-56040000D01*
%TO.N,Net-(R8-Pad2)*%
X186185000Y-103275000D02*
X183305000Y-103275000D01*
%TO.N,Net-(U4-EN)*%
X207040000Y-47365000D02*
X209697600Y-50022600D01*
X209073250Y-57500000D02*
X209680850Y-57500000D01*
X209680850Y-57500000D02*
X210230000Y-58049150D01*
X208884800Y-57311550D02*
X209073250Y-57500000D01*
X208884800Y-54240150D02*
X208884800Y-57311550D01*
X209697600Y-50022600D02*
X209697600Y-54240150D01*
X210230000Y-58049150D02*
X210230000Y-58500000D01*
X209697600Y-54240150D02*
X208884800Y-54240150D01*
%TO.N,Net-(U4-FREQ)*%
X211500000Y-53051700D02*
X211500000Y-52675000D01*
X211445000Y-52996700D02*
X211500000Y-53051700D01*
X211500000Y-52675000D02*
X213675000Y-50500000D01*
%TO.N,Net-(U4-FB)*%
X212770000Y-58500000D02*
X214031988Y-58500000D01*
X214762500Y-69850000D02*
X214762500Y-71525000D01*
X214762500Y-71525000D02*
X215000000Y-71762500D01*
X215843000Y-60311012D02*
X215843000Y-68769500D01*
X215843000Y-68769500D02*
X214762500Y-69850000D01*
X214031988Y-58500000D02*
X215843000Y-60311012D01*
%TO.N,/sda_S*%
X161000000Y-90587500D02*
X159519000Y-89106500D01*
X159519000Y-70891525D02*
X163282525Y-67128000D01*
X161912500Y-91500000D02*
X161000000Y-90587500D01*
X163282525Y-67128000D02*
X180343428Y-67128000D01*
X180912500Y-67697072D02*
X180912500Y-71587500D01*
X164600000Y-91500000D02*
X161912500Y-91500000D01*
X159519000Y-89106500D02*
X159519000Y-70891525D01*
X180343428Y-67128000D02*
X180912500Y-67697072D01*
D56*
X161000000Y-90500000D02*
X161000000Y-91000000D01*
D52*
%TO.N,/scl_S*%
X163125953Y-66750000D02*
X180500000Y-66750000D01*
X161912500Y-92000000D02*
X161000000Y-92912500D01*
X161037500Y-92912500D02*
X159141000Y-91016000D01*
X159141000Y-70734953D02*
X163125953Y-66750000D01*
D56*
X161000000Y-92500000D02*
X161000000Y-93000000D01*
D52*
X180500000Y-66750000D02*
X181412500Y-67662500D01*
X159141000Y-91016000D02*
X159141000Y-70734953D01*
X164600000Y-92000000D02*
X161912500Y-92000000D01*
X181412500Y-67662500D02*
X181412500Y-71587500D01*
%TO.N,/o{slash}f*%
X186825000Y-74000000D02*
X190750000Y-74000000D01*
X193818512Y-66045750D02*
X195366488Y-66045750D01*
X193500000Y-71250000D02*
X193500000Y-66364262D01*
X190750000Y-74000000D02*
X193500000Y-71250000D01*
X200750000Y-75250000D02*
X217300000Y-75250000D01*
X193500000Y-66364262D02*
X193818512Y-66045750D01*
X228500000Y-78500000D02*
X220550000Y-78500000D01*
X231437500Y-78350000D02*
X228650000Y-78350000D01*
X217300000Y-75250000D02*
X220550000Y-78500000D01*
X195366488Y-66045750D02*
X200750000Y-71429262D01*
X200750000Y-71429262D02*
X200750000Y-75250000D01*
X228650000Y-78350000D02*
X228500000Y-78500000D01*
%TO.N,/mode*%
X228500000Y-70050000D02*
X220550000Y-70050000D01*
X201250000Y-71394689D02*
X201250000Y-74750000D01*
X215850000Y-74750000D02*
X220550000Y-70050000D01*
X186825000Y-73500000D02*
X190000000Y-73500000D01*
X230601500Y-69973500D02*
X228576500Y-69973500D01*
X201250000Y-74750000D02*
X215850000Y-74750000D01*
X192857714Y-70642286D02*
X192857714Y-66471976D01*
X190000000Y-73500000D02*
X192857714Y-70642286D01*
X193661940Y-65667750D02*
X195523061Y-65667750D01*
X228550000Y-70100000D02*
X228500000Y-70050000D01*
X195523061Y-65667750D02*
X201250000Y-71394689D01*
X228576500Y-69973500D02*
X228500000Y-70050000D01*
X193661940Y-65667750D02*
X192857714Y-66471976D01*
%TO.N,/level*%
X228500000Y-61600000D02*
X220550000Y-61600000D01*
X198783750Y-65289750D02*
X205997000Y-72503000D01*
X192250000Y-66545117D02*
X193505368Y-65289750D01*
X218500000Y-63650000D02*
X220550000Y-61600000D01*
X186825000Y-73000000D02*
X189500000Y-73000000D01*
X193505368Y-65289750D02*
X198783750Y-65289750D01*
X189500000Y-73000000D02*
X192250000Y-70250000D01*
X192250000Y-70250000D02*
X192250000Y-66545117D01*
X205997000Y-72503000D02*
X216497000Y-72503000D01*
X218500000Y-70500000D02*
X218500000Y-63650000D01*
X231437500Y-61600000D02*
X228500000Y-61600000D01*
X216497000Y-72503000D02*
X218500000Y-70500000D01*
%TO.N,Net-(U5-NRST)*%
X187475000Y-70000000D02*
X185975000Y-68500000D01*
X185250000Y-74662499D02*
X185250000Y-73250000D01*
X188000000Y-70000000D02*
X187475000Y-70000000D01*
X185250000Y-73250000D02*
X188000000Y-70500000D01*
X186825000Y-75500000D02*
X186087501Y-75500000D01*
X188000000Y-70500000D02*
X188000000Y-70000000D01*
X186087501Y-75500000D02*
X185250000Y-74662499D01*
%TO.N,Net-(U5-BOOT0)*%
X183500000Y-84000000D02*
X184550000Y-84000000D01*
X183412500Y-79912500D02*
X183412500Y-83912500D01*
X183412500Y-83912500D02*
X183500000Y-84000000D01*
X184550000Y-84000000D02*
X185550000Y-85000000D01*
%TO.N,/cfg1*%
X178500000Y-75000000D02*
X176000000Y-75000000D01*
X176000000Y-75000000D02*
X175000000Y-74000000D01*
X170500000Y-73500000D02*
X170500000Y-71500000D01*
%TO.N,/cfg3*%
X178500000Y-76000000D02*
X176750000Y-76000000D01*
X176750000Y-76000000D02*
X175750000Y-77000000D01*
X171500000Y-78775000D02*
X171500000Y-80250000D01*
%TO.N,/cfg2*%
X175000000Y-78722442D02*
X175000000Y-76250000D01*
X170500000Y-78775000D02*
X170500000Y-80500000D01*
X175750000Y-75500000D02*
X178500000Y-75500000D01*
X172722442Y-81000000D02*
X175000000Y-78722442D01*
X175000000Y-76250000D02*
X175750000Y-75500000D01*
X171000000Y-81000000D02*
X172722442Y-81000000D01*
X170500000Y-80500000D02*
X171000000Y-81000000D01*
%TD*%
%TA.AperFunction,Conductor*%
%TO.N,GND*%
G36*
X165971751Y-91087820D02*
G01*
X165971850Y-91087819D01*
X165973218Y-91088678D01*
X166025819Y-91119467D01*
X167392204Y-92485854D01*
X167392207Y-92485857D01*
X167424591Y-92507495D01*
X167494656Y-92554311D01*
X167608490Y-92601463D01*
X167729330Y-92625499D01*
X167729334Y-92625500D01*
X167729335Y-92625500D01*
X167729336Y-92625500D01*
X168150505Y-92625500D01*
X168191871Y-92633728D01*
X168191910Y-92633583D01*
X168194126Y-92634176D01*
X168197958Y-92634939D01*
X168199764Y-92635687D01*
X168312280Y-92650500D01*
X168714548Y-92650500D01*
X168781587Y-92670185D01*
X168802229Y-92686819D01*
X169152729Y-93037319D01*
X169186214Y-93098642D01*
X169181230Y-93168334D01*
X169152729Y-93212681D01*
X168289729Y-94075681D01*
X168228406Y-94109166D01*
X168202048Y-94112000D01*
X161979691Y-94112000D01*
X161912652Y-94092315D01*
X161887926Y-94071398D01*
X161880191Y-94062887D01*
X161857840Y-94026650D01*
X161741770Y-93910580D01*
X161739787Y-93908398D01*
X161725762Y-93879518D01*
X161710386Y-93851358D01*
X161710604Y-93848303D01*
X161709266Y-93845547D01*
X161713080Y-93813678D01*
X161715370Y-93781666D01*
X161717265Y-93778716D01*
X161717570Y-93776173D01*
X161723566Y-93768911D01*
X161743871Y-93737319D01*
X161760644Y-93720546D01*
X161857840Y-93623350D01*
X161948408Y-93476516D01*
X162002674Y-93312753D01*
X162013000Y-93211677D01*
X162012999Y-92835452D01*
X162021644Y-92806009D01*
X162028167Y-92776025D01*
X162031920Y-92771011D01*
X162032683Y-92768414D01*
X162049318Y-92747771D01*
X162135272Y-92661818D01*
X162196596Y-92628334D01*
X162222953Y-92625500D01*
X163750505Y-92625500D01*
X163791871Y-92633728D01*
X163791910Y-92633583D01*
X163794126Y-92634176D01*
X163797958Y-92634939D01*
X163799764Y-92635687D01*
X163912280Y-92650500D01*
X163912287Y-92650500D01*
X165287713Y-92650500D01*
X165287720Y-92650500D01*
X165400236Y-92635687D01*
X165540233Y-92577698D01*
X165660451Y-92485451D01*
X165752698Y-92365233D01*
X165810687Y-92225236D01*
X165825500Y-92112720D01*
X165825500Y-91887280D01*
X165810687Y-91774764D01*
X165810686Y-91774763D01*
X165809626Y-91766705D01*
X165812689Y-91766301D01*
X165812689Y-91733698D01*
X165809626Y-91733295D01*
X165825500Y-91612720D01*
X165825500Y-91387286D01*
X165825500Y-91387280D01*
X165810687Y-91274764D01*
X165810686Y-91274761D01*
X165809931Y-91269026D01*
X165809875Y-91268906D01*
X165809887Y-91268687D01*
X165809626Y-91266705D01*
X165809998Y-91266655D01*
X165810763Y-91252757D01*
X165809513Y-91233613D01*
X165810602Y-91225439D01*
X165810687Y-91225236D01*
X165815226Y-91190761D01*
X165829290Y-91159108D01*
X165843465Y-91127066D01*
X165843554Y-91127007D01*
X165843597Y-91126911D01*
X165872571Y-91107867D01*
X165901790Y-91088595D01*
X165901896Y-91088593D01*
X165901984Y-91088536D01*
X165936417Y-91088182D01*
X165971654Y-91087763D01*
X165971751Y-91087820D01*
G37*
%TD.AperFunction*%
%TA.AperFunction,Conductor*%
G36*
X164310029Y-89407685D02*
G01*
X164330671Y-89424319D01*
X165044171Y-90137819D01*
X165077656Y-90199142D01*
X165072672Y-90268834D01*
X165030800Y-90324767D01*
X164965336Y-90349184D01*
X164956490Y-90349500D01*
X163912272Y-90349500D01*
X163799764Y-90364313D01*
X163799763Y-90364313D01*
X163659770Y-90422300D01*
X163659767Y-90422301D01*
X163659767Y-90422302D01*
X163539549Y-90514549D01*
X163458010Y-90620813D01*
X163447300Y-90634770D01*
X163389314Y-90774761D01*
X163387217Y-90782590D01*
X163350853Y-90842252D01*
X163288007Y-90872783D01*
X163267441Y-90874500D01*
X162222952Y-90874500D01*
X162193511Y-90865855D01*
X162163525Y-90859332D01*
X162158509Y-90855577D01*
X162155913Y-90854815D01*
X162135271Y-90838181D01*
X162011818Y-90714728D01*
X161978333Y-90653405D01*
X161975499Y-90627047D01*
X161975499Y-90288330D01*
X161975498Y-90288313D01*
X161965174Y-90187247D01*
X161938365Y-90106344D01*
X161910908Y-90023484D01*
X161820340Y-89876650D01*
X161706371Y-89762681D01*
X161703465Y-89757360D01*
X161698443Y-89753962D01*
X161686913Y-89727048D01*
X161672886Y-89701358D01*
X161673318Y-89695310D01*
X161670931Y-89689737D01*
X161675781Y-89660870D01*
X161677870Y-89631666D01*
X161681761Y-89625280D01*
X161682509Y-89620833D01*
X161696139Y-89601689D01*
X161702287Y-89591602D01*
X161704270Y-89589419D01*
X161820340Y-89473350D01*
X161842691Y-89437112D01*
X161850426Y-89428602D01*
X161870833Y-89416159D01*
X161888600Y-89400179D01*
X161902060Y-89397120D01*
X161910082Y-89392229D01*
X161922308Y-89392518D01*
X161942191Y-89388000D01*
X162675893Y-89388000D01*
X162799107Y-89388000D01*
X164242990Y-89388000D01*
X164310029Y-89407685D01*
G37*
%TD.AperFunction*%
%TA.AperFunction,Conductor*%
G36*
X179210457Y-80557685D02*
G01*
X179256212Y-80610489D01*
X179266357Y-80645815D01*
X179276812Y-80725234D01*
X179276813Y-80725236D01*
X179316206Y-80820340D01*
X179334802Y-80865233D01*
X179427049Y-80985451D01*
X179547267Y-81077698D01*
X179687264Y-81135687D01*
X179794086Y-81149750D01*
X179799764Y-81150498D01*
X179799780Y-81150500D01*
X179799787Y-81150500D01*
X180025213Y-81150500D01*
X180025220Y-81150500D01*
X180137736Y-81135687D01*
X180137736Y-81135686D01*
X180145795Y-81134626D01*
X180146198Y-81137689D01*
X180178802Y-81137689D01*
X180179205Y-81134626D01*
X180187263Y-81135686D01*
X180187264Y-81135687D01*
X180299780Y-81150500D01*
X180299787Y-81150500D01*
X180525213Y-81150500D01*
X180525220Y-81150500D01*
X180637736Y-81135687D01*
X180637736Y-81135686D01*
X180645795Y-81134626D01*
X180646198Y-81137689D01*
X180678802Y-81137689D01*
X180679205Y-81134626D01*
X180687263Y-81135686D01*
X180687264Y-81135687D01*
X180799780Y-81150500D01*
X180799787Y-81150500D01*
X181025213Y-81150500D01*
X181025220Y-81150500D01*
X181137736Y-81135687D01*
X181137738Y-81135685D01*
X181143739Y-81134896D01*
X181143880Y-81134831D01*
X181144130Y-81134845D01*
X181145795Y-81134626D01*
X181145836Y-81134940D01*
X181160367Y-81135757D01*
X181179173Y-81134551D01*
X181187127Y-81135630D01*
X181187264Y-81135687D01*
X181196713Y-81136930D01*
X181196890Y-81136955D01*
X181228547Y-81151110D01*
X181260299Y-81165156D01*
X181260440Y-81165370D01*
X181260674Y-81165475D01*
X181279653Y-81194499D01*
X181298770Y-81223481D01*
X181298773Y-81223736D01*
X181298913Y-81223951D01*
X181299189Y-81258729D01*
X181299601Y-81293345D01*
X181299466Y-81293575D01*
X181299468Y-81293819D01*
X181297493Y-81296944D01*
X181267898Y-81347510D01*
X180601269Y-82014140D01*
X180514144Y-82101264D01*
X180514138Y-82101272D01*
X180445692Y-82203705D01*
X180445684Y-82203719D01*
X180412347Y-82284207D01*
X180406823Y-82297543D01*
X180398537Y-82317545D01*
X180398535Y-82317553D01*
X180374500Y-82438389D01*
X180374500Y-87561610D01*
X180398535Y-87682444D01*
X180398538Y-87682454D01*
X180407068Y-87703047D01*
X180414537Y-87772516D01*
X180383262Y-87834996D01*
X180323173Y-87870648D01*
X180292507Y-87874500D01*
X172438389Y-87874500D01*
X172382398Y-87885637D01*
X172382391Y-87885638D01*
X172377971Y-87886518D01*
X172317548Y-87898537D01*
X172288667Y-87910500D01*
X172281579Y-87913435D01*
X172281571Y-87913438D01*
X172203718Y-87945685D01*
X172203717Y-87945686D01*
X172161472Y-87973914D01*
X172101268Y-88014140D01*
X172063759Y-88051650D01*
X172014142Y-88101267D01*
X170379975Y-89735434D01*
X170318652Y-89768919D01*
X170248960Y-89763935D01*
X170193027Y-89722063D01*
X170177733Y-89695206D01*
X170152699Y-89634770D01*
X170152698Y-89634767D01*
X170060451Y-89514549D01*
X169940233Y-89422302D01*
X169940229Y-89422300D01*
X169857421Y-89388000D01*
X169800236Y-89364313D01*
X169786171Y-89362461D01*
X169687727Y-89349500D01*
X169687720Y-89349500D01*
X168312280Y-89349500D01*
X168312272Y-89349500D01*
X168199764Y-89364313D01*
X168199763Y-89364313D01*
X168059768Y-89422301D01*
X168052726Y-89426367D01*
X168052574Y-89426104D01*
X168033585Y-89437067D01*
X168012770Y-89445689D01*
X168012768Y-89445690D01*
X167910329Y-89514138D01*
X167910327Y-89514139D01*
X167872456Y-89552011D01*
X167823200Y-89601267D01*
X167626066Y-89798400D01*
X167626058Y-89798408D01*
X167623270Y-89801197D01*
X167623267Y-89801200D01*
X167536142Y-89888325D01*
X167506658Y-89932451D01*
X167502086Y-89939292D01*
X167502086Y-89939293D01*
X167467687Y-89990773D01*
X167467685Y-89990776D01*
X167438347Y-90061604D01*
X167438348Y-90061605D01*
X167425961Y-90091511D01*
X167425960Y-90091514D01*
X167421765Y-90101643D01*
X167420537Y-90104607D01*
X167396767Y-90224112D01*
X167396523Y-90225336D01*
X167396513Y-90225382D01*
X167396500Y-90225449D01*
X167396500Y-90421605D01*
X167376815Y-90488644D01*
X167324011Y-90534399D01*
X167254853Y-90544343D01*
X167191297Y-90515318D01*
X167184819Y-90509286D01*
X165049264Y-88373732D01*
X165039301Y-88363769D01*
X165039300Y-88363767D01*
X164952175Y-88276642D01*
X164900951Y-88242415D01*
X164849728Y-88208188D01*
X164849725Y-88208186D01*
X164849722Y-88208185D01*
X164769234Y-88174847D01*
X164735896Y-88161038D01*
X164735897Y-88161038D01*
X164735894Y-88161037D01*
X164735890Y-88161036D01*
X164735886Y-88161035D01*
X164628945Y-88139763D01*
X164628938Y-88139762D01*
X164618980Y-88137782D01*
X164615049Y-88137000D01*
X164615048Y-88137000D01*
X164544915Y-88137000D01*
X164542877Y-88136933D01*
X164511544Y-88126603D01*
X164479913Y-88117315D01*
X164478529Y-88115718D01*
X164476520Y-88115056D01*
X164455738Y-88089416D01*
X164434158Y-88064511D01*
X164433857Y-88062419D01*
X164432526Y-88060777D01*
X164428906Y-88027991D01*
X164424214Y-87995353D01*
X164425091Y-87993430D01*
X164424860Y-87991329D01*
X164439541Y-87961790D01*
X164453239Y-87931797D01*
X164455834Y-87929009D01*
X164455958Y-87928761D01*
X164456201Y-87928615D01*
X164459271Y-87925319D01*
X165200833Y-87183757D01*
X166042163Y-86342426D01*
X166103484Y-86308943D01*
X166168159Y-86312178D01*
X166172677Y-86313646D01*
X166183757Y-86317246D01*
X166393713Y-86350500D01*
X166393714Y-86350500D01*
X166606286Y-86350500D01*
X166606287Y-86350500D01*
X166816243Y-86317246D01*
X166831837Y-86312178D01*
X166901676Y-86310182D01*
X166957837Y-86342428D01*
X167204263Y-86588855D01*
X167204267Y-86588858D01*
X167306710Y-86657309D01*
X167306711Y-86657309D01*
X167306715Y-86657312D01*
X167373397Y-86684932D01*
X167420548Y-86704463D01*
X167440597Y-86708451D01*
X167505624Y-86721385D01*
X167541392Y-86728501D01*
X167541394Y-86728501D01*
X167670721Y-86728501D01*
X167670741Y-86728500D01*
X169558485Y-86728500D01*
X169618907Y-86716481D01*
X169679330Y-86704463D01*
X169712670Y-86690652D01*
X169793164Y-86657312D01*
X169858929Y-86613368D01*
X169895611Y-86588858D01*
X169982736Y-86501733D01*
X169982736Y-86501731D01*
X169992944Y-86491524D01*
X169992945Y-86491521D01*
X170489608Y-85994859D01*
X170550927Y-85961377D01*
X170620619Y-85966361D01*
X170664966Y-85994862D01*
X170700213Y-86030109D01*
X170872179Y-86155048D01*
X170872181Y-86155049D01*
X170872184Y-86155051D01*
X171061588Y-86251557D01*
X171263757Y-86317246D01*
X171473713Y-86350500D01*
X171473714Y-86350500D01*
X171686286Y-86350500D01*
X171686287Y-86350500D01*
X171896243Y-86317246D01*
X172098412Y-86251557D01*
X172287816Y-86155051D01*
X172322551Y-86129815D01*
X172459786Y-86030109D01*
X172459788Y-86030106D01*
X172459792Y-86030104D01*
X172610104Y-85879792D01*
X172610106Y-85879788D01*
X172610109Y-85879786D01*
X172735048Y-85707820D01*
X172735047Y-85707820D01*
X172735051Y-85707816D01*
X172831557Y-85518412D01*
X172897246Y-85316243D01*
X172930500Y-85106287D01*
X172930500Y-84893713D01*
X172897246Y-84683757D01*
X172892178Y-84668159D01*
X172890183Y-84598318D01*
X172922426Y-84542163D01*
X176890272Y-80574319D01*
X176951595Y-80540834D01*
X176977953Y-80538000D01*
X179143418Y-80538000D01*
X179210457Y-80557685D01*
G37*
%TD.AperFunction*%
%TA.AperFunction,Conductor*%
G36*
X230256587Y-85395185D02*
G01*
X230277229Y-85411819D01*
X231088181Y-86222771D01*
X231121666Y-86284094D01*
X231124500Y-86310452D01*
X231124500Y-88689548D01*
X231104815Y-88756587D01*
X231088181Y-88777229D01*
X230277229Y-89588181D01*
X230215906Y-89621666D01*
X230189548Y-89624500D01*
X227059454Y-89624500D01*
X226992415Y-89604815D01*
X226946660Y-89552011D01*
X226936716Y-89482853D01*
X226965741Y-89419297D01*
X226971773Y-89412819D01*
X226985855Y-89398736D01*
X226985858Y-89398733D01*
X227054311Y-89296286D01*
X227101463Y-89182452D01*
X227113554Y-89121666D01*
X227117572Y-89101466D01*
X227117572Y-89101463D01*
X227125500Y-89061607D01*
X227125500Y-88938393D01*
X227125500Y-88772980D01*
X227145185Y-88705941D01*
X227193208Y-88662494D01*
X227207818Y-88655050D01*
X227379786Y-88530109D01*
X227379788Y-88530106D01*
X227379792Y-88530104D01*
X227530104Y-88379792D01*
X227530106Y-88379788D01*
X227530109Y-88379786D01*
X227655048Y-88207820D01*
X227655047Y-88207820D01*
X227655051Y-88207816D01*
X227751557Y-88018412D01*
X227817246Y-87816243D01*
X227850500Y-87606287D01*
X227850500Y-87393713D01*
X227817246Y-87183757D01*
X227751557Y-86981588D01*
X227655051Y-86792184D01*
X227655049Y-86792181D01*
X227655048Y-86792179D01*
X227530109Y-86620213D01*
X227379786Y-86469890D01*
X227207820Y-86344951D01*
X227018414Y-86248444D01*
X227018413Y-86248443D01*
X227018412Y-86248443D01*
X226816243Y-86182754D01*
X226816241Y-86182753D01*
X226816240Y-86182753D01*
X226641315Y-86155048D01*
X226606287Y-86149500D01*
X226494451Y-86149500D01*
X226427412Y-86129815D01*
X226381657Y-86077011D01*
X226371713Y-86007853D01*
X226400738Y-85944297D01*
X226406770Y-85937819D01*
X226586987Y-85757602D01*
X226770374Y-85574214D01*
X226789483Y-85558582D01*
X226795304Y-85554718D01*
X226796286Y-85554312D01*
X226849905Y-85518484D01*
X226898733Y-85485858D01*
X226972773Y-85411817D01*
X227034094Y-85378334D01*
X227060453Y-85375500D01*
X230189548Y-85375500D01*
X230256587Y-85395185D01*
G37*
%TD.AperFunction*%
%TA.AperFunction,Conductor*%
G36*
X162701355Y-78831685D02*
G01*
X162726230Y-78834395D01*
X162734734Y-78836578D01*
X162766503Y-78849737D01*
X162853040Y-78866950D01*
X162856334Y-78867796D01*
X162883539Y-78883988D01*
X162911602Y-78898668D01*
X162913345Y-78901730D01*
X162916373Y-78903532D01*
X162930506Y-78931866D01*
X162946176Y-78959384D01*
X162945987Y-78962902D01*
X162947560Y-78966055D01*
X162949500Y-78987901D01*
X162949500Y-79078846D01*
X162980261Y-79233489D01*
X162980263Y-79233497D01*
X162990061Y-79257151D01*
X162991687Y-79265328D01*
X162994477Y-79269669D01*
X162999500Y-79304604D01*
X162999500Y-79445396D01*
X162990062Y-79492844D01*
X162980263Y-79516503D01*
X162980262Y-79516506D01*
X162980260Y-79516511D01*
X162949500Y-79671153D01*
X162949500Y-79828846D01*
X162980261Y-79983489D01*
X162980264Y-79983501D01*
X163040602Y-80129172D01*
X163040609Y-80129185D01*
X163128210Y-80260288D01*
X163128213Y-80260292D01*
X163239707Y-80371786D01*
X163239711Y-80371789D01*
X163370814Y-80459390D01*
X163370827Y-80459397D01*
X163495634Y-80511093D01*
X163516503Y-80519737D01*
X163671153Y-80550499D01*
X163671156Y-80550500D01*
X163671158Y-80550500D01*
X163828844Y-80550500D01*
X163828845Y-80550499D01*
X163983497Y-80519737D01*
X164129179Y-80459394D01*
X164129184Y-80459390D01*
X164129187Y-80459389D01*
X164140665Y-80451720D01*
X164207342Y-80430841D01*
X164274723Y-80449325D01*
X164321413Y-80501303D01*
X164327259Y-80515809D01*
X164334613Y-80538000D01*
X164339091Y-80551513D01*
X164339093Y-80551518D01*
X164353157Y-80574319D01*
X164429660Y-80698350D01*
X164551650Y-80820340D01*
X164698484Y-80910908D01*
X164862247Y-80965174D01*
X164963323Y-80975500D01*
X165561676Y-80975499D01*
X165561684Y-80975498D01*
X165561687Y-80975498D01*
X165617030Y-80969844D01*
X165662753Y-80965174D01*
X165826516Y-80910908D01*
X165973350Y-80820340D01*
X166087319Y-80706371D01*
X166148642Y-80672886D01*
X166218334Y-80677870D01*
X166262681Y-80706371D01*
X166376650Y-80820340D01*
X166523484Y-80910908D01*
X166687247Y-80965174D01*
X166788323Y-80975500D01*
X167386676Y-80975499D01*
X167386684Y-80975498D01*
X167386687Y-80975498D01*
X167442030Y-80969844D01*
X167487753Y-80965174D01*
X167651516Y-80910908D01*
X167798350Y-80820340D01*
X167920340Y-80698350D01*
X167928942Y-80684404D01*
X167980890Y-80637679D01*
X168034481Y-80625500D01*
X168336608Y-80625500D01*
X168336608Y-80625499D01*
X168400857Y-80612720D01*
X168457452Y-80601463D01*
X168510929Y-80579312D01*
X168571286Y-80554312D01*
X168636319Y-80510857D01*
X168673733Y-80485858D01*
X168674844Y-80484746D01*
X168680940Y-80480616D01*
X168709007Y-80471626D01*
X168736139Y-80460102D01*
X168741908Y-80461089D01*
X168747481Y-80459305D01*
X168775951Y-80466916D01*
X168805007Y-80471890D01*
X168809325Y-80475839D01*
X168814980Y-80477351D01*
X168834822Y-80499154D01*
X168856569Y-80519040D01*
X168858183Y-80524823D01*
X168862007Y-80529025D01*
X168866055Y-80553019D01*
X168874500Y-80583268D01*
X168874500Y-80704820D01*
X168865061Y-80752272D01*
X168814957Y-80873234D01*
X168814955Y-80873239D01*
X168799500Y-80990638D01*
X168799500Y-81504363D01*
X168814953Y-81621753D01*
X168814956Y-81621762D01*
X168875176Y-81767147D01*
X168875464Y-81767841D01*
X168971718Y-81893282D01*
X169097159Y-81989536D01*
X169243238Y-82050044D01*
X169360639Y-82065500D01*
X169639360Y-82065499D01*
X169639363Y-82065499D01*
X169756753Y-82050046D01*
X169756757Y-82050044D01*
X169756762Y-82050044D01*
X169902841Y-81989536D01*
X170028282Y-81893282D01*
X170124536Y-81767841D01*
X170185044Y-81621762D01*
X170200500Y-81504361D01*
X170200499Y-81384449D01*
X170206737Y-81363205D01*
X170208317Y-81341117D01*
X170216388Y-81330334D01*
X170220183Y-81317412D01*
X170236919Y-81302910D01*
X170250189Y-81285184D01*
X170262807Y-81280477D01*
X170272987Y-81271657D01*
X170294905Y-81268505D01*
X170315653Y-81260767D01*
X170328813Y-81263629D01*
X170342145Y-81261713D01*
X170362288Y-81270912D01*
X170383926Y-81275619D01*
X170401649Y-81288886D01*
X170405701Y-81290737D01*
X170412180Y-81296770D01*
X170511016Y-81395606D01*
X170511045Y-81395637D01*
X170601262Y-81485854D01*
X170601265Y-81485856D01*
X170601267Y-81485858D01*
X170661184Y-81525893D01*
X170703715Y-81554312D01*
X170749697Y-81573358D01*
X170817548Y-81601463D01*
X170877971Y-81613481D01*
X170938393Y-81625500D01*
X170938394Y-81625500D01*
X172190548Y-81625500D01*
X172257587Y-81645185D01*
X172303342Y-81697989D01*
X172313286Y-81767147D01*
X172284261Y-81830703D01*
X172278229Y-81837181D01*
X171777229Y-82338181D01*
X171715906Y-82371666D01*
X171689548Y-82374500D01*
X170978389Y-82374500D01*
X170922576Y-82385601D01*
X170922562Y-82385604D01*
X170917971Y-82386518D01*
X170857548Y-82398537D01*
X170825997Y-82411606D01*
X170819083Y-82414469D01*
X170819075Y-82414472D01*
X170743713Y-82445688D01*
X170743708Y-82445690D01*
X170641272Y-82514138D01*
X170641264Y-82514144D01*
X170554139Y-82601270D01*
X169497837Y-83657571D01*
X169436514Y-83691056D01*
X169371838Y-83687821D01*
X169362577Y-83684812D01*
X169356241Y-83682753D01*
X169185797Y-83655757D01*
X169146287Y-83649500D01*
X168933713Y-83649500D01*
X168885042Y-83657208D01*
X168723760Y-83682753D01*
X168521585Y-83748444D01*
X168332179Y-83844951D01*
X168160213Y-83969890D01*
X168009890Y-84120213D01*
X167884949Y-84292182D01*
X167880484Y-84300946D01*
X167832509Y-84351742D01*
X167764688Y-84368536D01*
X167698553Y-84345998D01*
X167659516Y-84300946D01*
X167655050Y-84292182D01*
X167530109Y-84120213D01*
X167379786Y-83969890D01*
X167207820Y-83844951D01*
X167018414Y-83748444D01*
X167018413Y-83748443D01*
X167018412Y-83748443D01*
X166816243Y-83682754D01*
X166816241Y-83682753D01*
X166816240Y-83682753D01*
X166654957Y-83657208D01*
X166606287Y-83649500D01*
X166393713Y-83649500D01*
X166345042Y-83657208D01*
X166183760Y-83682753D01*
X165981585Y-83748444D01*
X165792179Y-83844951D01*
X165620213Y-83969890D01*
X165469890Y-84120213D01*
X165344951Y-84292179D01*
X165248444Y-84481585D01*
X165182753Y-84683760D01*
X165149500Y-84893713D01*
X165149500Y-85106286D01*
X165182754Y-85316246D01*
X165182754Y-85316247D01*
X165187821Y-85331842D01*
X165189814Y-85401683D01*
X165157570Y-85457837D01*
X162514729Y-88100681D01*
X162453406Y-88134166D01*
X162427048Y-88137000D01*
X161942191Y-88137000D01*
X161875152Y-88117315D01*
X161836652Y-88078096D01*
X161820340Y-88051650D01*
X161698351Y-87929661D01*
X161698350Y-87929660D01*
X161551516Y-87839092D01*
X161387753Y-87784826D01*
X161387751Y-87784825D01*
X161286678Y-87774500D01*
X160713330Y-87774500D01*
X160713312Y-87774501D01*
X160612247Y-87784825D01*
X160448484Y-87839092D01*
X160448481Y-87839093D01*
X160371594Y-87886518D01*
X160337623Y-87907472D01*
X160333597Y-87909955D01*
X160266204Y-87928395D01*
X160199541Y-87907472D01*
X160154771Y-87853830D01*
X160144500Y-87804416D01*
X160144500Y-79140133D01*
X160164185Y-79073094D01*
X160216989Y-79027339D01*
X160286147Y-79017395D01*
X160330496Y-79032744D01*
X160415089Y-79081584D01*
X160450841Y-79102226D01*
X160457865Y-79106281D01*
X160604234Y-79145500D01*
X160604236Y-79145500D01*
X160755764Y-79145500D01*
X160755766Y-79145500D01*
X160902135Y-79106281D01*
X161033365Y-79030515D01*
X161140515Y-78923365D01*
X161140515Y-78923364D01*
X161146262Y-78917618D01*
X161148591Y-78919947D01*
X161192622Y-78887805D01*
X161234557Y-78880499D01*
X162467871Y-78880499D01*
X162467872Y-78880499D01*
X162527483Y-78874091D01*
X162592780Y-78849737D01*
X162623396Y-78838318D01*
X162666729Y-78830500D01*
X162695396Y-78830500D01*
X162701355Y-78831685D01*
G37*
%TD.AperFunction*%
%TA.AperFunction,Conductor*%
G36*
X182706334Y-82780770D02*
G01*
X182762267Y-82822642D01*
X182786684Y-82888106D01*
X182787000Y-82896952D01*
X182787000Y-83130448D01*
X182767315Y-83197487D01*
X182750681Y-83218129D01*
X182679661Y-83289148D01*
X182589093Y-83435981D01*
X182589091Y-83435986D01*
X182563193Y-83514142D01*
X182534826Y-83599747D01*
X182534826Y-83599748D01*
X182534825Y-83599748D01*
X182524500Y-83700815D01*
X182524500Y-84299169D01*
X182524501Y-84299187D01*
X182534825Y-84400252D01*
X182552663Y-84454082D01*
X182589092Y-84564016D01*
X182679660Y-84710850D01*
X182801650Y-84832840D01*
X182948484Y-84923408D01*
X183112247Y-84977674D01*
X183213323Y-84988000D01*
X183786676Y-84987999D01*
X183786684Y-84987998D01*
X183786687Y-84987998D01*
X183842030Y-84982344D01*
X183887753Y-84977674D01*
X184051516Y-84923408D01*
X184198350Y-84832840D01*
X184260619Y-84770571D01*
X184268564Y-84766232D01*
X184273990Y-84758985D01*
X184298749Y-84749750D01*
X184321942Y-84737086D01*
X184330971Y-84737731D01*
X184339454Y-84734568D01*
X184365274Y-84740184D01*
X184391634Y-84742070D01*
X184400687Y-84747888D01*
X184407727Y-84749420D01*
X184435981Y-84770571D01*
X184438181Y-84772771D01*
X184471666Y-84834094D01*
X184474500Y-84860452D01*
X184474500Y-85700001D01*
X184474501Y-85700019D01*
X184485000Y-85802796D01*
X184485001Y-85802799D01*
X184540185Y-85969331D01*
X184540187Y-85969336D01*
X184575069Y-86025888D01*
X184606601Y-86077011D01*
X184632289Y-86118657D01*
X184676451Y-86162819D01*
X184709936Y-86224142D01*
X184704952Y-86293834D01*
X184663080Y-86349767D01*
X184597616Y-86374184D01*
X184588770Y-86374500D01*
X182249500Y-86374500D01*
X182182461Y-86354815D01*
X182136706Y-86302011D01*
X182125500Y-86250500D01*
X182125500Y-83310452D01*
X182145185Y-83243413D01*
X182161819Y-83222771D01*
X182575319Y-82809271D01*
X182636642Y-82775786D01*
X182706334Y-82780770D01*
G37*
%TD.AperFunction*%
%TA.AperFunction,Conductor*%
G36*
X211326587Y-78295185D02*
G01*
X211347229Y-78311819D01*
X219198228Y-86162819D01*
X219231713Y-86224142D01*
X219226729Y-86293834D01*
X219184857Y-86349767D01*
X219119393Y-86374184D01*
X219110547Y-86374500D01*
X189461230Y-86374500D01*
X189394191Y-86354815D01*
X189348436Y-86302011D01*
X189338492Y-86232853D01*
X189367517Y-86169297D01*
X189373549Y-86162819D01*
X189389702Y-86146666D01*
X189417712Y-86118656D01*
X189509814Y-85969334D01*
X189564999Y-85802797D01*
X189575500Y-85700009D01*
X189575499Y-84299992D01*
X189574701Y-84292184D01*
X189564999Y-84197203D01*
X189564998Y-84197200D01*
X189544185Y-84134392D01*
X189509814Y-84030666D01*
X189417712Y-83881344D01*
X189293656Y-83757288D01*
X189186276Y-83691056D01*
X189144336Y-83665187D01*
X189144331Y-83665185D01*
X189121353Y-83657571D01*
X188977797Y-83610001D01*
X188977795Y-83610000D01*
X188875010Y-83599500D01*
X188124998Y-83599500D01*
X188124980Y-83599501D01*
X188055767Y-83606572D01*
X187987074Y-83593802D01*
X187955485Y-83570895D01*
X186331596Y-81947006D01*
X186298111Y-81885683D01*
X186303095Y-81815991D01*
X186304716Y-81811872D01*
X186327544Y-81756762D01*
X186343000Y-81639361D01*
X186342999Y-81360640D01*
X186342999Y-81360639D01*
X186342999Y-81360636D01*
X186327546Y-81243246D01*
X186327544Y-81243241D01*
X186327544Y-81243238D01*
X186267036Y-81097159D01*
X186267035Y-81097158D01*
X186267035Y-81097157D01*
X186176124Y-80978680D01*
X186150930Y-80913511D01*
X186150500Y-80903194D01*
X186150500Y-80110451D01*
X186170185Y-80043412D01*
X186186815Y-80022774D01*
X186862769Y-79346819D01*
X186889694Y-79332117D01*
X186915514Y-79315524D01*
X186921716Y-79314632D01*
X186924092Y-79313335D01*
X186950449Y-79310501D01*
X187071607Y-79310501D01*
X187071611Y-79310500D01*
X187077740Y-79310500D01*
X187903194Y-79310500D01*
X187970233Y-79330185D01*
X187978680Y-79336124D01*
X188097157Y-79427035D01*
X188097158Y-79427035D01*
X188097159Y-79427036D01*
X188243238Y-79487544D01*
X188360639Y-79503000D01*
X188567045Y-79502999D01*
X188634085Y-79522683D01*
X188654727Y-79539318D01*
X192965891Y-83850482D01*
X192965892Y-83850483D01*
X193053017Y-83937608D01*
X193053019Y-83937610D01*
X193053021Y-83937611D01*
X193145644Y-83999500D01*
X193145645Y-83999500D01*
X193155464Y-84006061D01*
X193269298Y-84053213D01*
X193390138Y-84077249D01*
X193390142Y-84077250D01*
X193390143Y-84077250D01*
X200759858Y-84077250D01*
X200759858Y-84077249D01*
X200838506Y-84061606D01*
X200880702Y-84053213D01*
X200935135Y-84030666D01*
X200994536Y-84006062D01*
X201048661Y-83969896D01*
X201096983Y-83937608D01*
X201184108Y-83850483D01*
X201184108Y-83850481D01*
X201194316Y-83840274D01*
X201194318Y-83840271D01*
X205497771Y-79536818D01*
X205524698Y-79522114D01*
X205550517Y-79505522D01*
X205556717Y-79504630D01*
X205559094Y-79503333D01*
X205585452Y-79500499D01*
X205663000Y-79500499D01*
X205730039Y-79520184D01*
X205775794Y-79572988D01*
X205787000Y-79624499D01*
X205787000Y-80890409D01*
X205767315Y-80957448D01*
X205714511Y-81003203D01*
X205702006Y-81008114D01*
X205680668Y-81015184D01*
X205531342Y-81107289D01*
X205407289Y-81231342D01*
X205315187Y-81380663D01*
X205315185Y-81380668D01*
X205309199Y-81398733D01*
X205260001Y-81547203D01*
X205260001Y-81547204D01*
X205260000Y-81547204D01*
X205249500Y-81649983D01*
X205249500Y-83050001D01*
X205249501Y-83050018D01*
X205260000Y-83152796D01*
X205260001Y-83152799D01*
X205281650Y-83218129D01*
X205315186Y-83319334D01*
X205407288Y-83468656D01*
X205531344Y-83592712D01*
X205680666Y-83684814D01*
X205847203Y-83739999D01*
X205949991Y-83750500D01*
X206875008Y-83750499D01*
X206875016Y-83750498D01*
X206875019Y-83750498D01*
X206931302Y-83744748D01*
X206977797Y-83739999D01*
X207144334Y-83684814D01*
X207293656Y-83592712D01*
X207417712Y-83468656D01*
X207509814Y-83319334D01*
X207564999Y-83152797D01*
X207575500Y-83050009D01*
X207575499Y-81649992D01*
X207564999Y-81547203D01*
X207509814Y-81380666D01*
X207417712Y-81231344D01*
X207293656Y-81107288D01*
X207144334Y-81015186D01*
X207144332Y-81015185D01*
X207144330Y-81015184D01*
X207144331Y-81015184D01*
X207122994Y-81008114D01*
X207065550Y-80968341D01*
X207038728Y-80903825D01*
X207038000Y-80890409D01*
X207038000Y-79624499D01*
X207057685Y-79557460D01*
X207110489Y-79511705D01*
X207162000Y-79500499D01*
X208347871Y-79500499D01*
X208347872Y-79500499D01*
X208407483Y-79494091D01*
X208542331Y-79443796D01*
X208657546Y-79357546D01*
X208743796Y-79242331D01*
X208794091Y-79107483D01*
X208800500Y-79047873D01*
X208800500Y-78399500D01*
X208820185Y-78332461D01*
X208872989Y-78286706D01*
X208924500Y-78275500D01*
X211259548Y-78275500D01*
X211326587Y-78295185D01*
G37*
%TD.AperFunction*%
%TA.AperFunction,Conductor*%
G36*
X184187263Y-81135686D02*
G01*
X184187264Y-81135687D01*
X184299780Y-81150500D01*
X184299787Y-81150500D01*
X184525213Y-81150500D01*
X184525220Y-81150500D01*
X184578143Y-81143532D01*
X184647175Y-81154297D01*
X184699432Y-81200676D01*
X184718318Y-81267945D01*
X184717266Y-81282655D01*
X184707000Y-81360636D01*
X184707000Y-81639363D01*
X184722453Y-81756753D01*
X184722456Y-81756762D01*
X184782964Y-81902842D01*
X184874340Y-82021925D01*
X184897596Y-82080775D01*
X184898312Y-82080633D01*
X184899094Y-82084567D01*
X184899367Y-82085257D01*
X184899499Y-82086604D01*
X184907236Y-82125500D01*
X184907235Y-82125500D01*
X184922792Y-82203710D01*
X184922793Y-82203714D01*
X184923537Y-82207451D01*
X184923538Y-82207453D01*
X184970685Y-82321280D01*
X184970687Y-82321283D01*
X184970688Y-82321286D01*
X185004915Y-82372509D01*
X185039142Y-82423733D01*
X185126267Y-82510858D01*
X185126269Y-82510859D01*
X185136232Y-82520822D01*
X186003228Y-83387819D01*
X186036713Y-83449142D01*
X186031729Y-83518834D01*
X185989857Y-83574767D01*
X185924393Y-83599184D01*
X185915547Y-83599500D01*
X185174998Y-83599500D01*
X185174980Y-83599501D01*
X185105768Y-83606572D01*
X185074736Y-83600803D01*
X185043435Y-83596804D01*
X185039772Y-83594303D01*
X185037075Y-83593802D01*
X185013448Y-83578192D01*
X185009308Y-83574717D01*
X184948733Y-83514142D01*
X184897509Y-83479915D01*
X184891878Y-83476152D01*
X184891874Y-83476149D01*
X184846287Y-83445689D01*
X184846286Y-83445688D01*
X184846283Y-83445686D01*
X184846280Y-83445685D01*
X184772603Y-83415168D01*
X184772601Y-83415167D01*
X184765792Y-83412347D01*
X184732452Y-83398537D01*
X184672029Y-83386518D01*
X184667306Y-83385578D01*
X184667304Y-83385578D01*
X184611610Y-83374500D01*
X184611607Y-83374500D01*
X184611606Y-83374500D01*
X184442191Y-83374500D01*
X184375152Y-83354815D01*
X184336652Y-83315596D01*
X184320340Y-83289150D01*
X184198350Y-83167160D01*
X184198346Y-83167157D01*
X184096903Y-83104586D01*
X184050178Y-83052638D01*
X184038000Y-82999048D01*
X184038000Y-81257559D01*
X184045836Y-81230871D01*
X184050434Y-81203439D01*
X184055543Y-81197811D01*
X184057685Y-81190520D01*
X184078702Y-81172308D01*
X184097404Y-81151713D01*
X184107435Y-81147410D01*
X184110489Y-81144765D01*
X184129841Y-81137802D01*
X184130340Y-81137668D01*
X184178804Y-81137671D01*
X184179205Y-81134626D01*
X184187263Y-81135686D01*
G37*
%TD.AperFunction*%
%TA.AperFunction,Conductor*%
G36*
X192255337Y-77145185D02*
G01*
X192275979Y-77161819D01*
X193373181Y-78259021D01*
X193406666Y-78320344D01*
X193409500Y-78346702D01*
X193409500Y-80961251D01*
X193409501Y-80961268D01*
X193420000Y-81064046D01*
X193420001Y-81064049D01*
X193475185Y-81230581D01*
X193475187Y-81230586D01*
X193475655Y-81231344D01*
X193567288Y-81379906D01*
X193691344Y-81503962D01*
X193840666Y-81596064D01*
X194007203Y-81651249D01*
X194109991Y-81661750D01*
X194250500Y-81661749D01*
X194317539Y-81681433D01*
X194363294Y-81734237D01*
X194374500Y-81785749D01*
X194374500Y-82401944D01*
X194354815Y-82468983D01*
X194348876Y-82477430D01*
X194257964Y-82595907D01*
X194194346Y-82749497D01*
X194191074Y-82748141D01*
X194163222Y-82793929D01*
X194100402Y-82824515D01*
X194079730Y-82826250D01*
X193762203Y-82826250D01*
X193695164Y-82806565D01*
X193674522Y-82789931D01*
X189214920Y-78330330D01*
X189181435Y-78269007D01*
X189186419Y-78199315D01*
X189228291Y-78143382D01*
X189233679Y-78139569D01*
X189260289Y-78121789D01*
X189371789Y-78010289D01*
X189459394Y-77879179D01*
X189519737Y-77733497D01*
X189550500Y-77578842D01*
X189550500Y-77421158D01*
X189550500Y-77421155D01*
X189521167Y-77273692D01*
X189527394Y-77204100D01*
X189570257Y-77148923D01*
X189636146Y-77125678D01*
X189642784Y-77125500D01*
X192188298Y-77125500D01*
X192255337Y-77145185D01*
G37*
%TD.AperFunction*%
%TA.AperFunction,Conductor*%
G36*
X184187263Y-72810686D02*
G01*
X184187264Y-72810687D01*
X184299780Y-72825500D01*
X184299787Y-72825500D01*
X184525213Y-72825500D01*
X184525220Y-72825500D01*
X184548754Y-72822401D01*
X184554751Y-72823336D01*
X184560512Y-72821419D01*
X184588869Y-72828656D01*
X184617787Y-72833165D01*
X184622328Y-72837195D01*
X184628212Y-72838697D01*
X184648155Y-72860117D01*
X184670044Y-72879544D01*
X184671685Y-72885389D01*
X184675823Y-72889834D01*
X184681020Y-72918637D01*
X184688931Y-72946812D01*
X184687427Y-72954144D01*
X184688230Y-72958593D01*
X184679502Y-72992791D01*
X184666790Y-73023482D01*
X184666789Y-73023484D01*
X184648537Y-73067547D01*
X184648535Y-73067553D01*
X184641193Y-73104465D01*
X184633458Y-73143359D01*
X184633457Y-73143366D01*
X184624500Y-73188392D01*
X184624500Y-74724106D01*
X184631766Y-74760636D01*
X184631768Y-74760645D01*
X184632464Y-74764142D01*
X184648537Y-74844951D01*
X184658869Y-74869894D01*
X184695688Y-74958785D01*
X184717617Y-74991603D01*
X184717618Y-74991606D01*
X184717619Y-74991606D01*
X184764141Y-75061231D01*
X184764144Y-75061235D01*
X184855586Y-75152677D01*
X184855608Y-75152697D01*
X185550681Y-75847770D01*
X185584166Y-75909093D01*
X185587000Y-75935451D01*
X185587000Y-76112727D01*
X185596963Y-76188394D01*
X185600356Y-76214172D01*
X185602874Y-76233292D01*
X185599899Y-76233683D01*
X185599899Y-76266316D01*
X185602874Y-76266708D01*
X185587000Y-76387272D01*
X185587000Y-76612727D01*
X185590994Y-76643061D01*
X185600855Y-76717962D01*
X185602874Y-76733292D01*
X185599899Y-76733683D01*
X185599899Y-76766316D01*
X185602874Y-76766708D01*
X185601813Y-76774762D01*
X185601813Y-76774764D01*
X185599107Y-76795315D01*
X185587000Y-76887272D01*
X185587000Y-76887280D01*
X185587000Y-77112720D01*
X185599030Y-77204100D01*
X185602874Y-77233292D01*
X185599899Y-77233683D01*
X185599899Y-77266316D01*
X185602874Y-77266708D01*
X185601813Y-77274762D01*
X185601813Y-77274764D01*
X185598438Y-77300393D01*
X185587000Y-77387272D01*
X185587000Y-77612727D01*
X185596082Y-77681703D01*
X185600847Y-77717901D01*
X185602874Y-77733292D01*
X185599870Y-77733687D01*
X185599870Y-77733941D01*
X185604036Y-77746929D01*
X185599879Y-77781978D01*
X185599745Y-77782480D01*
X185563437Y-77842175D01*
X185500619Y-77872764D01*
X185479940Y-77874500D01*
X182749500Y-77874500D01*
X182682461Y-77854815D01*
X182636706Y-77802011D01*
X182625500Y-77750500D01*
X182625500Y-74688394D01*
X182623670Y-74679197D01*
X182622553Y-74673580D01*
X182608095Y-74600892D01*
X182601463Y-74567548D01*
X182565219Y-74480048D01*
X182554312Y-74453715D01*
X182532011Y-74420340D01*
X182485858Y-74351267D01*
X182485856Y-74351264D01*
X182395637Y-74261045D01*
X182395606Y-74261016D01*
X181166888Y-73032298D01*
X181133403Y-72970975D01*
X181138387Y-72901283D01*
X181180259Y-72845350D01*
X181245723Y-72820933D01*
X181270746Y-72821677D01*
X181299780Y-72825500D01*
X181299787Y-72825500D01*
X181525213Y-72825500D01*
X181525220Y-72825500D01*
X181637736Y-72810687D01*
X181637736Y-72810686D01*
X181645795Y-72809626D01*
X181646198Y-72812689D01*
X181678802Y-72812689D01*
X181679205Y-72809626D01*
X181687263Y-72810686D01*
X181687264Y-72810687D01*
X181799780Y-72825500D01*
X181799787Y-72825500D01*
X182025213Y-72825500D01*
X182025220Y-72825500D01*
X182137736Y-72810687D01*
X182137736Y-72810686D01*
X182145795Y-72809626D01*
X182146198Y-72812689D01*
X182178802Y-72812689D01*
X182179205Y-72809626D01*
X182187263Y-72810686D01*
X182187264Y-72810687D01*
X182299780Y-72825500D01*
X182299787Y-72825500D01*
X182525213Y-72825500D01*
X182525220Y-72825500D01*
X182637736Y-72810687D01*
X182637736Y-72810686D01*
X182645795Y-72809626D01*
X182646198Y-72812689D01*
X182678802Y-72812689D01*
X182679205Y-72809626D01*
X182687263Y-72810686D01*
X182687264Y-72810687D01*
X182799780Y-72825500D01*
X182799787Y-72825500D01*
X183025213Y-72825500D01*
X183025220Y-72825500D01*
X183137736Y-72810687D01*
X183137736Y-72810686D01*
X183145795Y-72809626D01*
X183146198Y-72812689D01*
X183178802Y-72812689D01*
X183179205Y-72809626D01*
X183187263Y-72810686D01*
X183187264Y-72810687D01*
X183299780Y-72825500D01*
X183299787Y-72825500D01*
X183525213Y-72825500D01*
X183525220Y-72825500D01*
X183637736Y-72810687D01*
X183637736Y-72810686D01*
X183645795Y-72809626D01*
X183646198Y-72812689D01*
X183678802Y-72812689D01*
X183679205Y-72809626D01*
X183687263Y-72810686D01*
X183687264Y-72810687D01*
X183799780Y-72825500D01*
X183799787Y-72825500D01*
X184025213Y-72825500D01*
X184025220Y-72825500D01*
X184137736Y-72810687D01*
X184137736Y-72810686D01*
X184145795Y-72809626D01*
X184146198Y-72812689D01*
X184178802Y-72812689D01*
X184179205Y-72809626D01*
X184187263Y-72810686D01*
G37*
%TD.AperFunction*%
%TA.AperFunction,Conductor*%
G36*
X231530974Y-70649484D02*
G01*
X231557334Y-70651370D01*
X231566387Y-70657188D01*
X231573427Y-70658720D01*
X231601681Y-70679871D01*
X231715650Y-70793840D01*
X231862484Y-70884408D01*
X232026247Y-70938674D01*
X232039600Y-70940038D01*
X232104292Y-70966432D01*
X232144445Y-71023612D01*
X232151000Y-71063396D01*
X232151000Y-77281308D01*
X232131315Y-77348347D01*
X232110399Y-77373072D01*
X232101885Y-77380809D01*
X232065650Y-77403160D01*
X231949581Y-77519228D01*
X231947399Y-77521212D01*
X231918519Y-77535236D01*
X231890358Y-77550614D01*
X231887304Y-77550395D01*
X231884548Y-77551734D01*
X231852679Y-77547919D01*
X231820666Y-77545630D01*
X231817716Y-77543734D01*
X231815173Y-77543430D01*
X231807911Y-77537433D01*
X231776319Y-77517129D01*
X231662351Y-77403161D01*
X231662350Y-77403160D01*
X231515516Y-77312592D01*
X231351753Y-77258326D01*
X231351751Y-77258325D01*
X231250678Y-77248000D01*
X230652330Y-77248000D01*
X230652312Y-77248001D01*
X230551247Y-77258325D01*
X230387484Y-77312592D01*
X230387481Y-77312593D01*
X230240648Y-77403161D01*
X230118661Y-77525148D01*
X230118660Y-77525150D01*
X230035651Y-77659730D01*
X230032032Y-77665597D01*
X230024444Y-77672421D01*
X230020206Y-77681703D01*
X229998906Y-77695391D01*
X229980084Y-77712321D01*
X229968448Y-77714965D01*
X229961428Y-77719477D01*
X229926493Y-77724500D01*
X229848467Y-77724500D01*
X229781428Y-77704815D01*
X229735673Y-77652011D01*
X229732285Y-77643834D01*
X229718796Y-77607669D01*
X229718793Y-77607664D01*
X229632547Y-77492455D01*
X229632544Y-77492452D01*
X229517335Y-77406206D01*
X229517328Y-77406202D01*
X229382482Y-77355908D01*
X229382483Y-77355908D01*
X229322883Y-77349501D01*
X229322881Y-77349500D01*
X229322873Y-77349500D01*
X229322864Y-77349500D01*
X227677129Y-77349500D01*
X227677123Y-77349501D01*
X227617516Y-77355908D01*
X227482671Y-77406202D01*
X227482664Y-77406206D01*
X227367455Y-77492452D01*
X227367452Y-77492455D01*
X227281206Y-77607664D01*
X227281202Y-77607671D01*
X227230908Y-77742516D01*
X227228625Y-77763757D01*
X227201886Y-77828308D01*
X227144493Y-77868155D01*
X227105336Y-77874500D01*
X221944664Y-77874500D01*
X221877625Y-77854815D01*
X221831870Y-77802011D01*
X221821374Y-77763754D01*
X221819565Y-77746929D01*
X221819091Y-77742517D01*
X221775447Y-77625500D01*
X221768797Y-77607671D01*
X221768793Y-77607664D01*
X221682547Y-77492455D01*
X221682544Y-77492452D01*
X221567335Y-77406206D01*
X221567328Y-77406202D01*
X221432482Y-77355908D01*
X221432483Y-77355908D01*
X221372883Y-77349501D01*
X221372881Y-77349500D01*
X221372873Y-77349500D01*
X221372865Y-77349500D01*
X220335452Y-77349500D01*
X220268413Y-77329815D01*
X220247771Y-77313181D01*
X217793411Y-74858821D01*
X217785860Y-74851270D01*
X217785858Y-74851267D01*
X217698733Y-74764142D01*
X217638815Y-74724106D01*
X217596286Y-74695688D01*
X217596287Y-74695688D01*
X217596285Y-74695687D01*
X217522905Y-74665293D01*
X217522903Y-74665292D01*
X217515792Y-74662347D01*
X217482452Y-74648537D01*
X217413223Y-74634767D01*
X217408833Y-74633893D01*
X217408823Y-74633891D01*
X217361611Y-74624500D01*
X217361607Y-74624500D01*
X217361606Y-74624500D01*
X217159452Y-74624500D01*
X217092413Y-74604815D01*
X217046658Y-74552011D01*
X217036714Y-74482853D01*
X217065739Y-74419297D01*
X217071771Y-74412819D01*
X220247771Y-71236818D01*
X220309094Y-71203333D01*
X220335452Y-71200499D01*
X221372871Y-71200499D01*
X221372872Y-71200499D01*
X221432483Y-71194091D01*
X221567331Y-71143796D01*
X221682546Y-71057546D01*
X221768796Y-70942331D01*
X221819091Y-70807483D01*
X221820735Y-70792191D01*
X221821375Y-70786243D01*
X221848114Y-70721692D01*
X221905507Y-70681845D01*
X221944664Y-70675500D01*
X227105336Y-70675500D01*
X227172375Y-70695185D01*
X227218130Y-70747989D01*
X227228626Y-70786246D01*
X227230909Y-70807483D01*
X227281202Y-70942328D01*
X227281206Y-70942335D01*
X227367452Y-71057544D01*
X227367455Y-71057547D01*
X227482664Y-71143793D01*
X227482671Y-71143797D01*
X227617517Y-71194091D01*
X227617516Y-71194091D01*
X227624444Y-71194835D01*
X227677127Y-71200500D01*
X229322872Y-71200499D01*
X229382483Y-71194091D01*
X229517331Y-71143796D01*
X229632546Y-71057546D01*
X229718796Y-70942331D01*
X229743197Y-70876908D01*
X229785066Y-70820976D01*
X229850530Y-70796558D01*
X229918803Y-70811409D01*
X229924462Y-70814695D01*
X230037484Y-70884408D01*
X230201247Y-70938674D01*
X230302323Y-70949000D01*
X230900676Y-70948999D01*
X230900684Y-70948998D01*
X230900687Y-70948998D01*
X230965913Y-70942335D01*
X231001753Y-70938674D01*
X231165516Y-70884408D01*
X231312350Y-70793840D01*
X231426319Y-70679871D01*
X231434264Y-70675532D01*
X231439690Y-70668285D01*
X231464449Y-70659050D01*
X231487642Y-70646386D01*
X231496671Y-70647031D01*
X231505154Y-70643868D01*
X231530974Y-70649484D01*
G37*
%TD.AperFunction*%
%TA.AperFunction,Conductor*%
G36*
X172817539Y-75479685D02*
G01*
X172863294Y-75532489D01*
X172874500Y-75584000D01*
X172874500Y-77128048D01*
X172868261Y-77149293D01*
X172866682Y-77171381D01*
X172858609Y-77182164D01*
X172854815Y-77195087D01*
X172838083Y-77209585D01*
X172824811Y-77227315D01*
X172812188Y-77232022D01*
X172802011Y-77240842D01*
X172780094Y-77243993D01*
X172759346Y-77251732D01*
X172746185Y-77248869D01*
X172732853Y-77250786D01*
X172712709Y-77241586D01*
X172691073Y-77236880D01*
X172673345Y-77223610D01*
X172669297Y-77221761D01*
X172662819Y-77215730D01*
X172592274Y-77145185D01*
X172488858Y-77041769D01*
X172488857Y-77041767D01*
X172401732Y-76954642D01*
X172401731Y-76954641D01*
X172401730Y-76954640D01*
X172349880Y-76919995D01*
X172349877Y-76919993D01*
X172343688Y-76915858D01*
X172299285Y-76886188D01*
X172215450Y-76851463D01*
X172211066Y-76849647D01*
X172185457Y-76839039D01*
X172185451Y-76839037D01*
X172101462Y-76822331D01*
X172083034Y-76818665D01*
X172064607Y-76815000D01*
X172064606Y-76815000D01*
X172064605Y-76815000D01*
X164990952Y-76815000D01*
X164923913Y-76795315D01*
X164903271Y-76778681D01*
X164163635Y-76039045D01*
X164155860Y-76031270D01*
X164155858Y-76031267D01*
X164068733Y-75944142D01*
X164000774Y-75898733D01*
X163977709Y-75883321D01*
X163966285Y-75875687D01*
X163915893Y-75854815D01*
X163899205Y-75847903D01*
X163844803Y-75804063D01*
X163832097Y-75780794D01*
X163818326Y-75747547D01*
X163804314Y-75713719D01*
X163804313Y-75713717D01*
X163775876Y-75671158D01*
X163775876Y-75671157D01*
X163763671Y-75652892D01*
X163742792Y-75586215D01*
X163761276Y-75518835D01*
X163813254Y-75472144D01*
X163866772Y-75460000D01*
X172750500Y-75460000D01*
X172817539Y-75479685D01*
G37*
%TD.AperFunction*%
%TA.AperFunction,Conductor*%
G36*
X188788908Y-75145185D02*
G01*
X188824977Y-75180619D01*
X188825648Y-75181623D01*
X188846518Y-75248302D01*
X188828024Y-75315680D01*
X188776040Y-75362364D01*
X188722537Y-75374500D01*
X188170059Y-75374500D01*
X188103020Y-75354815D01*
X188057265Y-75302011D01*
X188050286Y-75282599D01*
X188050018Y-75281599D01*
X188051677Y-75211749D01*
X188090837Y-75153885D01*
X188155064Y-75126378D01*
X188169791Y-75125500D01*
X188721869Y-75125500D01*
X188788908Y-75145185D01*
G37*
%TD.AperFunction*%
%TA.AperFunction,Conductor*%
G36*
X180100015Y-67773185D02*
G01*
X180120657Y-67789819D01*
X180250681Y-67919843D01*
X180265384Y-67946770D01*
X180281977Y-67972589D01*
X180282868Y-67978789D01*
X180284166Y-67981166D01*
X180287000Y-68007524D01*
X180287000Y-68035042D01*
X180267315Y-68102081D01*
X180214511Y-68147836D01*
X180146817Y-68157981D01*
X180139364Y-68157000D01*
X179860636Y-68157000D01*
X179743246Y-68172453D01*
X179743237Y-68172456D01*
X179597160Y-68232963D01*
X179471718Y-68329218D01*
X179375463Y-68454660D01*
X179314956Y-68600737D01*
X179314955Y-68600739D01*
X179299501Y-68718129D01*
X179299500Y-68718145D01*
X179299500Y-68925835D01*
X179297118Y-68950024D01*
X179287579Y-68997984D01*
X179287578Y-68997989D01*
X179287000Y-69000890D01*
X179287000Y-69532693D01*
X179267315Y-69599732D01*
X179214511Y-69645487D01*
X179145353Y-69655431D01*
X179081797Y-69626406D01*
X179062588Y-69603143D01*
X179061984Y-69603608D01*
X179057036Y-69597160D01*
X179057036Y-69597159D01*
X178960782Y-69471718D01*
X178835341Y-69375464D01*
X178689262Y-69314956D01*
X178689260Y-69314955D01*
X178571861Y-69299500D01*
X178058136Y-69299500D01*
X177940746Y-69314953D01*
X177940737Y-69314956D01*
X177794660Y-69375463D01*
X177669218Y-69471718D01*
X177572963Y-69597160D01*
X177512456Y-69743237D01*
X177512455Y-69743239D01*
X177497000Y-69860638D01*
X177497000Y-70139363D01*
X177512453Y-70256753D01*
X177512456Y-70256762D01*
X177565380Y-70384533D01*
X177572964Y-70402841D01*
X177669218Y-70528282D01*
X177794659Y-70624536D01*
X177940738Y-70685044D01*
X178058139Y-70700500D01*
X178089546Y-70700499D01*
X178156584Y-70720182D01*
X178177228Y-70736818D01*
X179225681Y-71785271D01*
X179259166Y-71846594D01*
X179262000Y-71872952D01*
X179262000Y-72225500D01*
X179242315Y-72292539D01*
X179189511Y-72338294D01*
X179138000Y-72349500D01*
X177799772Y-72349500D01*
X177687264Y-72364313D01*
X177687263Y-72364313D01*
X177547270Y-72422300D01*
X177547267Y-72422301D01*
X177547267Y-72422302D01*
X177427049Y-72514549D01*
X177336856Y-72632091D01*
X177334800Y-72634770D01*
X177276813Y-72774763D01*
X177276813Y-72774764D01*
X177262000Y-72887272D01*
X177262000Y-72887280D01*
X177262000Y-73112720D01*
X177271962Y-73188392D01*
X177277874Y-73233292D01*
X177274899Y-73233683D01*
X177274899Y-73266316D01*
X177277874Y-73266708D01*
X177262000Y-73387272D01*
X177262000Y-73612727D01*
X177268600Y-73662853D01*
X177276485Y-73722748D01*
X177277874Y-73733292D01*
X177274899Y-73733683D01*
X177274899Y-73766316D01*
X177277874Y-73766708D01*
X177262000Y-73887272D01*
X177262000Y-74112727D01*
X177267176Y-74152039D01*
X177274675Y-74209000D01*
X177277874Y-74233292D01*
X177274870Y-74233687D01*
X177274870Y-74233941D01*
X177279036Y-74246929D01*
X177274879Y-74281978D01*
X177274745Y-74282480D01*
X177238437Y-74342175D01*
X177175619Y-74372764D01*
X177154940Y-74374500D01*
X176310453Y-74374500D01*
X176243414Y-74354815D01*
X176222772Y-74338181D01*
X175986819Y-74102228D01*
X175953334Y-74040905D01*
X175950500Y-74014547D01*
X175950500Y-73906383D01*
X175950499Y-73906379D01*
X175929670Y-73801666D01*
X175913973Y-73722749D01*
X175842322Y-73549769D01*
X175842321Y-73549768D01*
X175842318Y-73549762D01*
X175738302Y-73394092D01*
X175738299Y-73394088D01*
X175605911Y-73261700D01*
X175605907Y-73261697D01*
X175450237Y-73157681D01*
X175450228Y-73157676D01*
X175277251Y-73086027D01*
X175277243Y-73086025D01*
X175093620Y-73049500D01*
X175093616Y-73049500D01*
X174979275Y-73049500D01*
X174959063Y-73043565D01*
X174938025Y-73042438D01*
X174926209Y-73033918D01*
X174912236Y-73029815D01*
X174898442Y-73013896D01*
X174881352Y-73001573D01*
X174876018Y-72988017D01*
X174866481Y-72977011D01*
X174863482Y-72956159D01*
X174855769Y-72936555D01*
X174857098Y-72911755D01*
X174856537Y-72907853D01*
X174857657Y-72901312D01*
X174861914Y-72879907D01*
X174868867Y-72844952D01*
X174875500Y-72811607D01*
X174875500Y-72688393D01*
X174875500Y-69188394D01*
X174851463Y-69067548D01*
X174804311Y-68953714D01*
X174804310Y-68953713D01*
X174804307Y-68953707D01*
X174735858Y-68851267D01*
X174735855Y-68851263D01*
X174645637Y-68761045D01*
X174645606Y-68761016D01*
X173993112Y-68108522D01*
X173985860Y-68101270D01*
X173985858Y-68101267D01*
X173898733Y-68014142D01*
X173847509Y-67979915D01*
X173841832Y-67976121D01*
X173835763Y-67970810D01*
X173821173Y-67947859D01*
X173803732Y-67926990D01*
X173802704Y-67918805D01*
X173798280Y-67911846D01*
X173798414Y-67884650D01*
X173795025Y-67857665D01*
X173798584Y-67850225D01*
X173798625Y-67841977D01*
X173813441Y-67819171D01*
X173825179Y-67794638D01*
X173832196Y-67790302D01*
X173836690Y-67783387D01*
X173861482Y-67772212D01*
X173884622Y-67757918D01*
X173896848Y-67756271D01*
X173900388Y-67754676D01*
X173904334Y-67755263D01*
X173917428Y-67753500D01*
X180032976Y-67753500D01*
X180100015Y-67773185D01*
G37*
%TD.AperFunction*%
%TA.AperFunction,Conductor*%
G36*
X169982332Y-69145185D02*
G01*
X170028087Y-69197989D01*
X170038031Y-69267147D01*
X170009006Y-69330703D01*
X170002974Y-69337181D01*
X165571975Y-73768181D01*
X165510652Y-73801666D01*
X165484294Y-73804500D01*
X164822353Y-73804500D01*
X164755314Y-73784815D01*
X164709559Y-73732011D01*
X164699615Y-73662853D01*
X164707792Y-73633048D01*
X164769735Y-73483501D01*
X164769737Y-73483497D01*
X164800500Y-73328842D01*
X164800500Y-73171158D01*
X164800500Y-73171155D01*
X164800499Y-73171153D01*
X164769739Y-73016511D01*
X164769738Y-73016508D01*
X164769737Y-73016503D01*
X164759937Y-72992844D01*
X164758311Y-72984670D01*
X164755523Y-72980331D01*
X164750500Y-72945396D01*
X164750500Y-72804604D01*
X164759939Y-72757151D01*
X164764224Y-72746806D01*
X164769737Y-72733497D01*
X164800500Y-72578842D01*
X164800500Y-72421158D01*
X164800500Y-72421155D01*
X164800499Y-72421153D01*
X164769739Y-72266511D01*
X164769738Y-72266508D01*
X164769737Y-72266503D01*
X164759937Y-72242844D01*
X164758311Y-72234670D01*
X164755523Y-72230331D01*
X164750500Y-72195396D01*
X164750500Y-72054604D01*
X164759939Y-72007151D01*
X164769737Y-71983497D01*
X164800500Y-71828842D01*
X164800500Y-71671158D01*
X164800500Y-71671155D01*
X164800499Y-71671153D01*
X164785076Y-71593616D01*
X164769737Y-71516503D01*
X164769735Y-71516498D01*
X164709397Y-71370827D01*
X164709390Y-71370814D01*
X164621789Y-71239711D01*
X164621786Y-71239707D01*
X164510292Y-71128213D01*
X164510288Y-71128210D01*
X164379185Y-71040609D01*
X164379172Y-71040602D01*
X164233501Y-70980264D01*
X164233489Y-70980261D01*
X164078845Y-70949500D01*
X164078842Y-70949500D01*
X163921158Y-70949500D01*
X163921155Y-70949500D01*
X163766510Y-70980261D01*
X163766498Y-70980264D01*
X163620827Y-71040602D01*
X163620814Y-71040609D01*
X163489711Y-71128210D01*
X163489707Y-71128213D01*
X163378213Y-71239707D01*
X163378210Y-71239711D01*
X163290609Y-71370814D01*
X163290602Y-71370827D01*
X163230264Y-71516498D01*
X163230261Y-71516510D01*
X163199500Y-71671153D01*
X163199500Y-71828846D01*
X163230261Y-71983489D01*
X163230263Y-71983497D01*
X163240061Y-72007151D01*
X163241687Y-72015328D01*
X163244477Y-72019669D01*
X163249500Y-72054604D01*
X163249500Y-72195396D01*
X163240062Y-72242844D01*
X163231611Y-72263249D01*
X163230262Y-72266506D01*
X163230261Y-72266509D01*
X163207724Y-72379807D01*
X163175339Y-72441718D01*
X163114622Y-72476292D01*
X163084934Y-72478288D01*
X163084934Y-72479500D01*
X162921155Y-72479500D01*
X162766511Y-72510260D01*
X162766506Y-72510262D01*
X162766504Y-72510262D01*
X162766503Y-72510263D01*
X162742844Y-72520062D01*
X162734670Y-72521688D01*
X162730331Y-72524477D01*
X162695396Y-72529500D01*
X162666729Y-72529500D01*
X162623396Y-72521682D01*
X162527482Y-72485908D01*
X162527483Y-72485908D01*
X162467883Y-72479501D01*
X162467881Y-72479500D01*
X162467873Y-72479500D01*
X162467865Y-72479500D01*
X161234556Y-72479500D01*
X161167517Y-72459815D01*
X161147367Y-72441276D01*
X161146262Y-72442382D01*
X161033367Y-72329487D01*
X161033365Y-72329485D01*
X160942478Y-72277011D01*
X160902136Y-72253719D01*
X160814849Y-72230331D01*
X160755766Y-72214500D01*
X160646500Y-72214500D01*
X160579461Y-72194815D01*
X160533706Y-72142011D01*
X160522500Y-72090500D01*
X160522500Y-71358549D01*
X160542185Y-71291510D01*
X160558819Y-71270868D01*
X162667869Y-69161819D01*
X162729192Y-69128334D01*
X162755550Y-69125500D01*
X169915293Y-69125500D01*
X169982332Y-69145185D01*
G37*
%TD.AperFunction*%
%TA.AperFunction,Conductor*%
G36*
X209654425Y-59635314D02*
G01*
X209669297Y-59644871D01*
X209708269Y-59674046D01*
X209843117Y-59724341D01*
X209902727Y-59730750D01*
X210557272Y-59730749D01*
X210616883Y-59724341D01*
X210707168Y-59690666D01*
X210776858Y-59685683D01*
X210838181Y-59719168D01*
X210871666Y-59780491D01*
X210874500Y-59806849D01*
X210874500Y-61974106D01*
X210893474Y-62069500D01*
X210893474Y-62069502D01*
X210898534Y-62094944D01*
X210898537Y-62094953D01*
X210945685Y-62208780D01*
X210945687Y-62208783D01*
X210945688Y-62208786D01*
X210979915Y-62260009D01*
X211014142Y-62311233D01*
X211101267Y-62398358D01*
X211101270Y-62398360D01*
X211108554Y-62405644D01*
X211428181Y-62725271D01*
X211461666Y-62786594D01*
X211464500Y-62812947D01*
X211464500Y-62834361D01*
X211479953Y-62951753D01*
X211479956Y-62951762D01*
X211540464Y-63097841D01*
X211636718Y-63223282D01*
X211762159Y-63319536D01*
X211908238Y-63380044D01*
X212025639Y-63395500D01*
X212539360Y-63395499D01*
X212539363Y-63395499D01*
X212656755Y-63380045D01*
X212656755Y-63380044D01*
X212656762Y-63380044D01*
X212656767Y-63380041D01*
X212657900Y-63379739D01*
X212659085Y-63379738D01*
X212664821Y-63378984D01*
X212664920Y-63379738D01*
X212715080Y-63379737D01*
X212715180Y-63378983D01*
X212720907Y-63379737D01*
X212722091Y-63379737D01*
X212723234Y-63380043D01*
X212723236Y-63380043D01*
X212723238Y-63380044D01*
X212840639Y-63395500D01*
X213354360Y-63395499D01*
X213354363Y-63395499D01*
X213471753Y-63380046D01*
X213471757Y-63380044D01*
X213471762Y-63380044D01*
X213592726Y-63329938D01*
X213640179Y-63320500D01*
X214062705Y-63320500D01*
X214129744Y-63340185D01*
X214175499Y-63392989D01*
X214177541Y-63398189D01*
X214179093Y-63401518D01*
X214190082Y-63419334D01*
X214269660Y-63548350D01*
X214391650Y-63670340D01*
X214538484Y-63760908D01*
X214702247Y-63815174D01*
X214803323Y-63825500D01*
X215093501Y-63825499D01*
X215160539Y-63845183D01*
X215206294Y-63897987D01*
X215217500Y-63949499D01*
X215217500Y-68459047D01*
X215197815Y-68526086D01*
X215181181Y-68546728D01*
X214889727Y-68838181D01*
X214828404Y-68871666D01*
X214802046Y-68874500D01*
X214463331Y-68874500D01*
X214463312Y-68874501D01*
X214362247Y-68884825D01*
X214198484Y-68939092D01*
X214198481Y-68939093D01*
X214051648Y-69029661D01*
X213929661Y-69151648D01*
X213839093Y-69298481D01*
X213839091Y-69298486D01*
X213826269Y-69337181D01*
X213784826Y-69462247D01*
X213784826Y-69462248D01*
X213784825Y-69462248D01*
X213774500Y-69563315D01*
X213774500Y-70136669D01*
X213774501Y-70136687D01*
X213784825Y-70237752D01*
X213793191Y-70262997D01*
X213839092Y-70401516D01*
X213917281Y-70528281D01*
X213929661Y-70548351D01*
X214051650Y-70670340D01*
X214078096Y-70686652D01*
X214124821Y-70738600D01*
X214137000Y-70792191D01*
X214137000Y-71085646D01*
X214118539Y-71150742D01*
X214089095Y-71198477D01*
X214089091Y-71198486D01*
X214069365Y-71258016D01*
X214034826Y-71362247D01*
X214034826Y-71362248D01*
X214034825Y-71362248D01*
X214024500Y-71463316D01*
X214024500Y-71463323D01*
X214024500Y-71652033D01*
X214024501Y-71753500D01*
X214004817Y-71820539D01*
X213952013Y-71866294D01*
X213900501Y-71877500D01*
X206307452Y-71877500D01*
X206240413Y-71857815D01*
X206219771Y-71841181D01*
X205790770Y-71412180D01*
X205757285Y-71350857D01*
X205762269Y-71281165D01*
X205804141Y-71225232D01*
X205869605Y-71200815D01*
X205878451Y-71200499D01*
X208347871Y-71200499D01*
X208347872Y-71200499D01*
X208407483Y-71194091D01*
X208542331Y-71143796D01*
X208657546Y-71057546D01*
X208743796Y-70942331D01*
X208794091Y-70807483D01*
X208800500Y-70747873D01*
X208800499Y-67952128D01*
X208794091Y-67892517D01*
X208759581Y-67799992D01*
X208743797Y-67757671D01*
X208743793Y-67757664D01*
X208657547Y-67642455D01*
X208657544Y-67642452D01*
X208542335Y-67556206D01*
X208542328Y-67556202D01*
X208407482Y-67505908D01*
X208407483Y-67505908D01*
X208347883Y-67499501D01*
X208347881Y-67499500D01*
X208347873Y-67499500D01*
X208347865Y-67499500D01*
X207249500Y-67499500D01*
X207182461Y-67479815D01*
X207136706Y-67427011D01*
X207125500Y-67375500D01*
X207125500Y-66338585D01*
X207145185Y-66271546D01*
X207197989Y-66225791D01*
X207210489Y-66220881D01*
X207319334Y-66184814D01*
X207468656Y-66092712D01*
X207592712Y-65968656D01*
X207684814Y-65819334D01*
X207739999Y-65652797D01*
X207750500Y-65550009D01*
X207750499Y-64149992D01*
X207747514Y-64120775D01*
X207739999Y-64047203D01*
X207739998Y-64047200D01*
X207707623Y-63949499D01*
X207684814Y-63880666D01*
X207592712Y-63731344D01*
X207468656Y-63607288D01*
X207319334Y-63515186D01*
X207152797Y-63460001D01*
X207152795Y-63460000D01*
X207050016Y-63449500D01*
X207050009Y-63449500D01*
X206749500Y-63449500D01*
X206682461Y-63429815D01*
X206636706Y-63377011D01*
X206625500Y-63325500D01*
X206625500Y-61770451D01*
X206645185Y-61703412D01*
X206661814Y-61682775D01*
X208577522Y-59767066D01*
X208638843Y-59733583D01*
X208665192Y-59730749D01*
X209287272Y-59730749D01*
X209346883Y-59724341D01*
X209481731Y-59674046D01*
X209520692Y-59644879D01*
X209586152Y-59620463D01*
X209654425Y-59635314D01*
G37*
%TD.AperFunction*%
%TA.AperFunction,Conductor*%
G36*
X231907334Y-62151370D02*
G01*
X231951681Y-62179871D01*
X232065650Y-62293840D01*
X232093766Y-62311182D01*
X232095424Y-62312279D01*
X232116725Y-62337534D01*
X232138821Y-62362100D01*
X232139328Y-62364333D01*
X232140471Y-62365688D01*
X232141590Y-62374287D01*
X232151000Y-62415691D01*
X232151000Y-68397500D01*
X232131315Y-68464539D01*
X232078511Y-68510294D01*
X232027000Y-68521500D01*
X219460389Y-68521500D01*
X219339555Y-68545535D01*
X219339550Y-68545536D01*
X219339548Y-68545537D01*
X219339546Y-68545538D01*
X219296951Y-68563181D01*
X219227482Y-68570649D01*
X219165003Y-68539373D01*
X219129351Y-68479284D01*
X219125500Y-68448619D01*
X219125500Y-63960451D01*
X219145185Y-63893412D01*
X219161814Y-63872774D01*
X220247771Y-62786817D01*
X220309094Y-62753333D01*
X220335452Y-62750499D01*
X221372871Y-62750499D01*
X221372872Y-62750499D01*
X221432483Y-62744091D01*
X221567331Y-62693796D01*
X221682546Y-62607546D01*
X221768796Y-62492331D01*
X221819091Y-62357483D01*
X221821375Y-62336243D01*
X221848114Y-62271692D01*
X221905507Y-62231845D01*
X221944664Y-62225500D01*
X227105336Y-62225500D01*
X227172375Y-62245185D01*
X227218130Y-62297989D01*
X227228626Y-62336246D01*
X227230909Y-62357483D01*
X227281202Y-62492328D01*
X227281206Y-62492335D01*
X227367452Y-62607544D01*
X227367455Y-62607547D01*
X227482664Y-62693793D01*
X227482671Y-62693797D01*
X227617517Y-62744091D01*
X227617516Y-62744091D01*
X227624444Y-62744835D01*
X227677127Y-62750500D01*
X229322872Y-62750499D01*
X229382483Y-62744091D01*
X229517331Y-62693796D01*
X229632546Y-62607546D01*
X229718796Y-62492331D01*
X229769091Y-62357483D01*
X229771375Y-62336243D01*
X229772252Y-62334124D01*
X229771926Y-62331853D01*
X229785560Y-62301997D01*
X229798114Y-62271692D01*
X229799997Y-62270384D01*
X229800951Y-62268297D01*
X229828558Y-62250554D01*
X229855507Y-62231845D01*
X229858401Y-62231375D01*
X229859729Y-62230523D01*
X229894664Y-62225500D01*
X230120948Y-62225500D01*
X230187987Y-62245185D01*
X230208629Y-62261819D01*
X230240650Y-62293840D01*
X230387484Y-62384408D01*
X230551247Y-62438674D01*
X230652323Y-62449000D01*
X231250676Y-62448999D01*
X231250684Y-62448998D01*
X231250687Y-62448998D01*
X231306030Y-62443344D01*
X231351753Y-62438674D01*
X231515516Y-62384408D01*
X231662350Y-62293840D01*
X231776319Y-62179871D01*
X231837642Y-62146386D01*
X231907334Y-62151370D01*
G37*
%TD.AperFunction*%
%TA.AperFunction,Conductor*%
G36*
X194330703Y-67000540D02*
G01*
X194347865Y-67018753D01*
X194348871Y-67020063D01*
X194374069Y-67085228D01*
X194374500Y-67095556D01*
X194374500Y-67536750D01*
X194371949Y-67545435D01*
X194373238Y-67554397D01*
X194362259Y-67578437D01*
X194354815Y-67603789D01*
X194347974Y-67609716D01*
X194344213Y-67617953D01*
X194321978Y-67632242D01*
X194302011Y-67649544D01*
X194291496Y-67651831D01*
X194285435Y-67655727D01*
X194250500Y-67660750D01*
X194249500Y-67660750D01*
X194182461Y-67641065D01*
X194136706Y-67588261D01*
X194125500Y-67536750D01*
X194125500Y-67094253D01*
X194145185Y-67027214D01*
X194197989Y-66981459D01*
X194267147Y-66971515D01*
X194330703Y-67000540D01*
G37*
%TD.AperFunction*%
%TA.AperFunction,Conductor*%
G36*
X212330703Y-60715739D02*
G01*
X212337181Y-60721771D01*
X212361016Y-60745606D01*
X212361045Y-60745637D01*
X212451263Y-60835855D01*
X212451267Y-60835858D01*
X212553707Y-60904307D01*
X212553713Y-60904310D01*
X212553714Y-60904311D01*
X212667548Y-60951463D01*
X212727971Y-60963481D01*
X212788393Y-60975500D01*
X212788394Y-60975500D01*
X213704821Y-60975500D01*
X213752273Y-60984938D01*
X213873238Y-61035044D01*
X213990639Y-61050500D01*
X214504360Y-61050499D01*
X214504363Y-61050499D01*
X214621753Y-61035046D01*
X214621757Y-61035044D01*
X214621762Y-61035044D01*
X214767841Y-60974536D01*
X214893282Y-60878282D01*
X214989536Y-60752841D01*
X214989536Y-60752839D01*
X214994484Y-60746392D01*
X214997041Y-60748354D01*
X215036659Y-60710565D01*
X215105263Y-60697329D01*
X215170133Y-60723285D01*
X215210672Y-60780191D01*
X215217500Y-60820770D01*
X215217500Y-61750500D01*
X215197815Y-61817539D01*
X215145011Y-61863294D01*
X215093500Y-61874500D01*
X214803331Y-61874500D01*
X214803312Y-61874501D01*
X214702247Y-61884825D01*
X214538484Y-61939092D01*
X214538481Y-61939093D01*
X214391648Y-62029661D01*
X214388129Y-62033181D01*
X214326806Y-62066666D01*
X214300448Y-62069500D01*
X213640179Y-62069500D01*
X213592726Y-62060061D01*
X213471762Y-62009956D01*
X213471760Y-62009955D01*
X213354361Y-61994500D01*
X212840636Y-61994500D01*
X212723234Y-62009955D01*
X212722083Y-62010264D01*
X212719400Y-62010460D01*
X212715179Y-62011016D01*
X212715146Y-62010771D01*
X212675690Y-62013659D01*
X212661808Y-62012046D01*
X212656762Y-62009956D01*
X212539361Y-61994500D01*
X212510770Y-61994500D01*
X212503643Y-61993672D01*
X212477818Y-61982715D01*
X212450913Y-61974815D01*
X212441701Y-61967392D01*
X212439323Y-61966383D01*
X212437950Y-61964369D01*
X212430271Y-61958181D01*
X212161819Y-61689729D01*
X212128334Y-61628406D01*
X212125500Y-61602048D01*
X212125500Y-60809452D01*
X212145185Y-60742413D01*
X212197989Y-60696658D01*
X212267147Y-60686714D01*
X212330703Y-60715739D01*
G37*
%TD.AperFunction*%
%TA.AperFunction,Conductor*%
G36*
X235192539Y-41520185D02*
G01*
X235238294Y-41572989D01*
X235249500Y-41624500D01*
X235249500Y-106375500D01*
X235229815Y-106442539D01*
X235177011Y-106488294D01*
X235125500Y-106499500D01*
X153624500Y-106499500D01*
X153557461Y-106479815D01*
X153511706Y-106427011D01*
X153500500Y-106375500D01*
X153500500Y-99049980D01*
X156779500Y-99049980D01*
X156779500Y-104450019D01*
X156790001Y-104552801D01*
X156845184Y-104719333D01*
X156845189Y-104719344D01*
X156937285Y-104868653D01*
X156937288Y-104868657D01*
X157061342Y-104992711D01*
X157061346Y-104992714D01*
X157210655Y-105084810D01*
X157210658Y-105084811D01*
X157210664Y-105084815D01*
X157377200Y-105139999D01*
X157479988Y-105150500D01*
X157479993Y-105150500D01*
X163480007Y-105150500D01*
X163480012Y-105150500D01*
X163582800Y-105139999D01*
X163749336Y-105084815D01*
X163898657Y-104992712D01*
X164022712Y-104868657D01*
X164114815Y-104719336D01*
X164169999Y-104552800D01*
X164180500Y-104450012D01*
X164180500Y-103624500D01*
X164200185Y-103557461D01*
X164252989Y-103511706D01*
X164304500Y-103500500D01*
X165055619Y-103500500D01*
X165122658Y-103520185D01*
X165168413Y-103572989D01*
X165178698Y-103626834D01*
X165179500Y-103626834D01*
X165179500Y-104430001D01*
X165179501Y-104430019D01*
X165190000Y-104532796D01*
X165190001Y-104532799D01*
X165245185Y-104699331D01*
X165245187Y-104699336D01*
X165262666Y-104727674D01*
X165337288Y-104848656D01*
X165461344Y-104972712D01*
X165610666Y-105064814D01*
X165777203Y-105119999D01*
X165879991Y-105130500D01*
X167680008Y-105130499D01*
X167782797Y-105119999D01*
X167949334Y-105064814D01*
X168098656Y-104972712D01*
X168222712Y-104848656D01*
X168305519Y-104714402D01*
X168357467Y-104667679D01*
X168411058Y-104655500D01*
X171281608Y-104655500D01*
X171298347Y-104652169D01*
X171338031Y-104644276D01*
X171407621Y-104650502D01*
X171427320Y-104660354D01*
X171448480Y-104673406D01*
X171448482Y-104673406D01*
X171448484Y-104673408D01*
X171612247Y-104727674D01*
X171713323Y-104738000D01*
X172286676Y-104737999D01*
X172286684Y-104737998D01*
X172286687Y-104737998D01*
X172342030Y-104732344D01*
X172387753Y-104727674D01*
X172551516Y-104673408D01*
X172698350Y-104582840D01*
X172820340Y-104460850D01*
X172910908Y-104314016D01*
X172965174Y-104150253D01*
X172975500Y-104049177D01*
X172975500Y-104024500D01*
X172995185Y-103957461D01*
X173047989Y-103911706D01*
X173099500Y-103900500D01*
X174780501Y-103900500D01*
X174847540Y-103920185D01*
X174893295Y-103972989D01*
X174904501Y-104024500D01*
X174904501Y-104325018D01*
X174915000Y-104427796D01*
X174915001Y-104427799D01*
X174956423Y-104552800D01*
X174970186Y-104594334D01*
X175062288Y-104743656D01*
X175186344Y-104867712D01*
X175335666Y-104959814D01*
X175502203Y-105014999D01*
X175604991Y-105025500D01*
X177005008Y-105025499D01*
X177107797Y-105014999D01*
X177274334Y-104959814D01*
X177423656Y-104867712D01*
X177547712Y-104743656D01*
X177639814Y-104594334D01*
X177694999Y-104427797D01*
X177705500Y-104325009D01*
X177705500Y-104024500D01*
X177725185Y-103957461D01*
X177777989Y-103911706D01*
X177829500Y-103900500D01*
X180533019Y-103900500D01*
X180600058Y-103920185D01*
X180638558Y-103959404D01*
X180647160Y-103973350D01*
X180769150Y-104095340D01*
X180915984Y-104185908D01*
X181079747Y-104240174D01*
X181180823Y-104250500D01*
X181779176Y-104250499D01*
X181779184Y-104250498D01*
X181779187Y-104250498D01*
X181834530Y-104244844D01*
X181880253Y-104240174D01*
X182044016Y-104185908D01*
X182190850Y-104095340D01*
X182304819Y-103981371D01*
X182366142Y-103947886D01*
X182435834Y-103952870D01*
X182480181Y-103981371D01*
X182594150Y-104095340D01*
X182740984Y-104185908D01*
X182904747Y-104240174D01*
X183005823Y-104250500D01*
X183604176Y-104250499D01*
X183604184Y-104250498D01*
X183604187Y-104250498D01*
X183659530Y-104244844D01*
X183705253Y-104240174D01*
X183869016Y-104185908D01*
X184015850Y-104095340D01*
X184137840Y-103973350D01*
X184146442Y-103959404D01*
X184198390Y-103912679D01*
X184251981Y-103900500D01*
X184968885Y-103900500D01*
X185035924Y-103920185D01*
X185068606Y-103953571D01*
X185069849Y-103952669D01*
X185193028Y-104122213D01*
X185337786Y-104266971D01*
X185492749Y-104379556D01*
X185503390Y-104387287D01*
X185619607Y-104446503D01*
X185685776Y-104480218D01*
X185685778Y-104480218D01*
X185685781Y-104480220D01*
X185776856Y-104509812D01*
X185880465Y-104543477D01*
X185939328Y-104552800D01*
X186082648Y-104575500D01*
X186082649Y-104575500D01*
X186287351Y-104575500D01*
X186287352Y-104575500D01*
X186489534Y-104543477D01*
X186684219Y-104480220D01*
X186866610Y-104387287D01*
X186995482Y-104293657D01*
X187032213Y-104266971D01*
X187032215Y-104266968D01*
X187032219Y-104266966D01*
X187176966Y-104122219D01*
X187176968Y-104122215D01*
X187176971Y-104122213D01*
X187281892Y-103977799D01*
X187297287Y-103956610D01*
X187390220Y-103774219D01*
X187453477Y-103579534D01*
X187485500Y-103377352D01*
X187485500Y-103172648D01*
X187469773Y-103073351D01*
X187453477Y-102970465D01*
X187390218Y-102775776D01*
X187365940Y-102728129D01*
X187338861Y-102674983D01*
X192504500Y-102674983D01*
X192504500Y-103875001D01*
X192504501Y-103875018D01*
X192515000Y-103977796D01*
X192515001Y-103977799D01*
X192570185Y-104144331D01*
X192570187Y-104144336D01*
X192573837Y-104150253D01*
X192662288Y-104293656D01*
X192786344Y-104417712D01*
X192935666Y-104509814D01*
X193102203Y-104564999D01*
X193204991Y-104575500D01*
X194405008Y-104575499D01*
X194507797Y-104564999D01*
X194674334Y-104509814D01*
X194823656Y-104417712D01*
X194947712Y-104293656D01*
X195039814Y-104144334D01*
X195092448Y-103985493D01*
X195132219Y-103928051D01*
X195196735Y-103901228D01*
X195210153Y-103900500D01*
X196000519Y-103900500D01*
X196067558Y-103920185D01*
X196106058Y-103959404D01*
X196114660Y-103973350D01*
X196236650Y-104095340D01*
X196383484Y-104185908D01*
X196547247Y-104240174D01*
X196648323Y-104250500D01*
X197246676Y-104250499D01*
X197246684Y-104250498D01*
X197246687Y-104250498D01*
X197302030Y-104244844D01*
X197347753Y-104240174D01*
X197511516Y-104185908D01*
X197658350Y-104095340D01*
X197772319Y-103981371D01*
X197833642Y-103947886D01*
X197903334Y-103952870D01*
X197947681Y-103981371D01*
X198061650Y-104095340D01*
X198208484Y-104185908D01*
X198372247Y-104240174D01*
X198473323Y-104250500D01*
X199071676Y-104250499D01*
X199071684Y-104250498D01*
X199071687Y-104250498D01*
X199127030Y-104244844D01*
X199172753Y-104240174D01*
X199336516Y-104185908D01*
X199483350Y-104095340D01*
X199605340Y-103973350D01*
X199613942Y-103959404D01*
X199665890Y-103912679D01*
X199719481Y-103900500D01*
X201954107Y-103900500D01*
X202014529Y-103888481D01*
X202074952Y-103876463D01*
X202108292Y-103862652D01*
X202188786Y-103829312D01*
X202240009Y-103795084D01*
X202291233Y-103760858D01*
X202378358Y-103673733D01*
X202378359Y-103673731D01*
X202385425Y-103666665D01*
X202385428Y-103666661D01*
X202665271Y-103386818D01*
X202726594Y-103353333D01*
X202752952Y-103350499D01*
X203091670Y-103350499D01*
X203091676Y-103350499D01*
X203192753Y-103340174D01*
X203356516Y-103285908D01*
X203503350Y-103195340D01*
X203625340Y-103073350D01*
X203715908Y-102926516D01*
X203770174Y-102762753D01*
X203780500Y-102661677D01*
X203780499Y-102063324D01*
X203778543Y-102044179D01*
X203770174Y-101962247D01*
X203749049Y-101898497D01*
X203715908Y-101798484D01*
X203625340Y-101651650D01*
X203503350Y-101529660D01*
X203356516Y-101439092D01*
X203192753Y-101384826D01*
X203192751Y-101384825D01*
X203091678Y-101374500D01*
X202518330Y-101374500D01*
X202518312Y-101374501D01*
X202417247Y-101384825D01*
X202253484Y-101439092D01*
X202253481Y-101439093D01*
X202106648Y-101529661D01*
X201984661Y-101651648D01*
X201894093Y-101798481D01*
X201894092Y-101798484D01*
X201839826Y-101962247D01*
X201839826Y-101962248D01*
X201839825Y-101962248D01*
X201829500Y-102063315D01*
X201829500Y-102402047D01*
X201820854Y-102431490D01*
X201814332Y-102461473D01*
X201810577Y-102466488D01*
X201809815Y-102469086D01*
X201793185Y-102489723D01*
X201669727Y-102613182D01*
X201608407Y-102646666D01*
X201582048Y-102649500D01*
X199719481Y-102649500D01*
X199652442Y-102629815D01*
X199613942Y-102590596D01*
X199611561Y-102586736D01*
X199605340Y-102576650D01*
X199483350Y-102454660D01*
X199483347Y-102454657D01*
X199456901Y-102438345D01*
X199410178Y-102386397D01*
X199398000Y-102332808D01*
X199398000Y-100710893D01*
X199397999Y-100710889D01*
X199374816Y-100594336D01*
X199373963Y-100590048D01*
X199326811Y-100476214D01*
X199318642Y-100463988D01*
X199300129Y-100419291D01*
X199269738Y-100266510D01*
X199269737Y-100266503D01*
X199269735Y-100266498D01*
X199209397Y-100120827D01*
X199209390Y-100120814D01*
X199121789Y-99989711D01*
X199121786Y-99989707D01*
X199010292Y-99878213D01*
X199010288Y-99878210D01*
X198879185Y-99790609D01*
X198879172Y-99790602D01*
X198733501Y-99730264D01*
X198733489Y-99730261D01*
X198578845Y-99699500D01*
X198578842Y-99699500D01*
X198421158Y-99699500D01*
X198421155Y-99699500D01*
X198266510Y-99730261D01*
X198266498Y-99730264D01*
X198120827Y-99790602D01*
X198120814Y-99790609D01*
X197989711Y-99878210D01*
X197989707Y-99878213D01*
X197878213Y-99989707D01*
X197878210Y-99989711D01*
X197790609Y-100120814D01*
X197790602Y-100120827D01*
X197730264Y-100266498D01*
X197730261Y-100266510D01*
X197699500Y-100421153D01*
X197699500Y-100578846D01*
X197730261Y-100733489D01*
X197730264Y-100733501D01*
X197790602Y-100879172D01*
X197790609Y-100879185D01*
X197878210Y-101010288D01*
X197878213Y-101010292D01*
X197989708Y-101121787D01*
X197989711Y-101121789D01*
X198091891Y-101190064D01*
X198136696Y-101243674D01*
X198147000Y-101293165D01*
X198147000Y-102332808D01*
X198127315Y-102399847D01*
X198106399Y-102424572D01*
X198097885Y-102432309D01*
X198061650Y-102454660D01*
X197945581Y-102570728D01*
X197943399Y-102572712D01*
X197914519Y-102586736D01*
X197886358Y-102602114D01*
X197883304Y-102601895D01*
X197880548Y-102603234D01*
X197848679Y-102599419D01*
X197816666Y-102597130D01*
X197813716Y-102595234D01*
X197811173Y-102594930D01*
X197803911Y-102588933D01*
X197772319Y-102568629D01*
X197658351Y-102454661D01*
X197658350Y-102454660D01*
X197511516Y-102364092D01*
X197347753Y-102309826D01*
X197347751Y-102309825D01*
X197246678Y-102299500D01*
X196648330Y-102299500D01*
X196648312Y-102299501D01*
X196547247Y-102309825D01*
X196383484Y-102364092D01*
X196383481Y-102364093D01*
X196236648Y-102454661D01*
X196114660Y-102576649D01*
X196114659Y-102576651D01*
X196106058Y-102590596D01*
X196054110Y-102637321D01*
X196000519Y-102649500D01*
X195210154Y-102649500D01*
X195143115Y-102629815D01*
X195097360Y-102577011D01*
X195092448Y-102564504D01*
X195067434Y-102489018D01*
X195039814Y-102405666D01*
X194947712Y-102256344D01*
X194823656Y-102132288D01*
X194711832Y-102063315D01*
X194674336Y-102040187D01*
X194674331Y-102040185D01*
X194630114Y-102025533D01*
X194507797Y-101985001D01*
X194507795Y-101985000D01*
X194405010Y-101974500D01*
X193204998Y-101974500D01*
X193204981Y-101974501D01*
X193102203Y-101985000D01*
X193102200Y-101985001D01*
X192935668Y-102040185D01*
X192935663Y-102040187D01*
X192786342Y-102132289D01*
X192662289Y-102256342D01*
X192570187Y-102405663D01*
X192570185Y-102405668D01*
X192549171Y-102469086D01*
X192515001Y-102572203D01*
X192515001Y-102572204D01*
X192515000Y-102572204D01*
X192504500Y-102674983D01*
X187338861Y-102674983D01*
X187297287Y-102593390D01*
X187297285Y-102593387D01*
X187297284Y-102593385D01*
X187176971Y-102427786D01*
X187032213Y-102283028D01*
X186866613Y-102162715D01*
X186866612Y-102162714D01*
X186866610Y-102162713D01*
X186787099Y-102122200D01*
X186684223Y-102069781D01*
X186489534Y-102006522D01*
X186314995Y-101978878D01*
X186287352Y-101974500D01*
X186082648Y-101974500D01*
X186058329Y-101978351D01*
X185880465Y-102006522D01*
X185685776Y-102069781D01*
X185503386Y-102162715D01*
X185337786Y-102283028D01*
X185193028Y-102427786D01*
X185069849Y-102597331D01*
X185068176Y-102596115D01*
X185022792Y-102637169D01*
X184968885Y-102649500D01*
X184251981Y-102649500D01*
X184184942Y-102629815D01*
X184146442Y-102590596D01*
X184144061Y-102586736D01*
X184137840Y-102576650D01*
X184015850Y-102454660D01*
X183869016Y-102364092D01*
X183705253Y-102309826D01*
X183705251Y-102309825D01*
X183604178Y-102299500D01*
X183005830Y-102299500D01*
X183005812Y-102299501D01*
X182904747Y-102309825D01*
X182740984Y-102364092D01*
X182740981Y-102364093D01*
X182594148Y-102454661D01*
X182480181Y-102568629D01*
X182418858Y-102602114D01*
X182349166Y-102597130D01*
X182304819Y-102568629D01*
X182190851Y-102454661D01*
X182190850Y-102454660D01*
X182044016Y-102364092D01*
X181880253Y-102309826D01*
X181880251Y-102309825D01*
X181779178Y-102299500D01*
X181180830Y-102299500D01*
X181180812Y-102299501D01*
X181079747Y-102309825D01*
X180915984Y-102364092D01*
X180915981Y-102364093D01*
X180769148Y-102454661D01*
X180647160Y-102576649D01*
X180647159Y-102576651D01*
X180638558Y-102590596D01*
X180586610Y-102637321D01*
X180533019Y-102649500D01*
X177829499Y-102649500D01*
X177762460Y-102629815D01*
X177716705Y-102577011D01*
X177705499Y-102525500D01*
X177705499Y-102224998D01*
X177705498Y-102224981D01*
X177694999Y-102122203D01*
X177694998Y-102122200D01*
X177677628Y-102069781D01*
X177639814Y-101955666D01*
X177547712Y-101806344D01*
X177423656Y-101682288D01*
X177274334Y-101590186D01*
X177107797Y-101535001D01*
X177107795Y-101535000D01*
X177005010Y-101524500D01*
X175604998Y-101524500D01*
X175604981Y-101524501D01*
X175502203Y-101535000D01*
X175502200Y-101535001D01*
X175335668Y-101590185D01*
X175335663Y-101590187D01*
X175186342Y-101682289D01*
X175062289Y-101806342D01*
X174970187Y-101955663D01*
X174970185Y-101955668D01*
X174947034Y-102025533D01*
X174915001Y-102122203D01*
X174915001Y-102122204D01*
X174915000Y-102122204D01*
X174904500Y-102224983D01*
X174904500Y-102525500D01*
X174884815Y-102592539D01*
X174832011Y-102638294D01*
X174780500Y-102649500D01*
X174253404Y-102649500D01*
X174186365Y-102629815D01*
X174140610Y-102577011D01*
X174130666Y-102507853D01*
X174159691Y-102444297D01*
X174205952Y-102410939D01*
X174294172Y-102374397D01*
X174294172Y-102374396D01*
X174294179Y-102374394D01*
X174425289Y-102286789D01*
X174536789Y-102175289D01*
X174624394Y-102044179D01*
X174684737Y-101898497D01*
X174706858Y-101787282D01*
X174739240Y-101725375D01*
X174740733Y-101723855D01*
X175412804Y-101051785D01*
X175474125Y-101018302D01*
X175513081Y-101016110D01*
X175604991Y-101025500D01*
X177005008Y-101025499D01*
X177107797Y-101014999D01*
X177274334Y-100959814D01*
X177423656Y-100867712D01*
X177547712Y-100743656D01*
X177639814Y-100594334D01*
X177694999Y-100427797D01*
X177705500Y-100325009D01*
X177705499Y-98224992D01*
X177694999Y-98122203D01*
X177639814Y-97955666D01*
X177547712Y-97806344D01*
X177423656Y-97682288D01*
X177274334Y-97590186D01*
X177107797Y-97535001D01*
X177107795Y-97535000D01*
X177005016Y-97524500D01*
X175646699Y-97524500D01*
X175579660Y-97504815D01*
X175533905Y-97452011D01*
X175523961Y-97382853D01*
X175552986Y-97319297D01*
X175559002Y-97312835D01*
X178518920Y-94352919D01*
X178596632Y-94251642D01*
X178658611Y-94170870D01*
X178773344Y-93972146D01*
X178861158Y-93760145D01*
X178861690Y-93758157D01*
X178865126Y-93745338D01*
X178887681Y-93661159D01*
X178920549Y-93538497D01*
X178942908Y-93368656D01*
X178950500Y-93310992D01*
X178950500Y-91885266D01*
X178950500Y-91879153D01*
X178950499Y-91879131D01*
X178950499Y-91049998D01*
X178950498Y-91049981D01*
X178939999Y-90947203D01*
X178939998Y-90947200D01*
X178916239Y-90875500D01*
X178884814Y-90780666D01*
X178792712Y-90631344D01*
X178668656Y-90507288D01*
X178530868Y-90422300D01*
X178519336Y-90415187D01*
X178519331Y-90415185D01*
X178517862Y-90414698D01*
X178352797Y-90360001D01*
X178352795Y-90360000D01*
X178250016Y-90349500D01*
X178250009Y-90349500D01*
X177814283Y-90349500D01*
X177766828Y-90340060D01*
X177763887Y-90338842D01*
X177542238Y-90279452D01*
X177504215Y-90274446D01*
X177314741Y-90249500D01*
X177314734Y-90249500D01*
X177085266Y-90249500D01*
X177085258Y-90249500D01*
X176868715Y-90278009D01*
X176857762Y-90279452D01*
X176822886Y-90288797D01*
X176636108Y-90338843D01*
X176636106Y-90338843D01*
X176633162Y-90340063D01*
X176585715Y-90349500D01*
X176149998Y-90349500D01*
X176149980Y-90349501D01*
X176047203Y-90360000D01*
X176047200Y-90360001D01*
X175880668Y-90415185D01*
X175880663Y-90415187D01*
X175731342Y-90507289D01*
X175607289Y-90631342D01*
X175515187Y-90780663D01*
X175515185Y-90780668D01*
X175494418Y-90843339D01*
X175460001Y-90947203D01*
X175460001Y-90947204D01*
X175460000Y-90947204D01*
X175449500Y-91049983D01*
X175449500Y-92419814D01*
X175429815Y-92486853D01*
X175413181Y-92507495D01*
X168592180Y-99328496D01*
X168530857Y-99361981D01*
X168461165Y-99356997D01*
X168405232Y-99315125D01*
X168380815Y-99249661D01*
X168380499Y-99240815D01*
X168380499Y-99069998D01*
X168380498Y-99069981D01*
X168369999Y-98967203D01*
X168369998Y-98967200D01*
X168363370Y-98947198D01*
X168314814Y-98800666D01*
X168222712Y-98651344D01*
X168098656Y-98527288D01*
X167949334Y-98435186D01*
X167865495Y-98407404D01*
X167808051Y-98367632D01*
X167781228Y-98303116D01*
X167780500Y-98289699D01*
X167780500Y-96931456D01*
X167742052Y-96738170D01*
X167742051Y-96738169D01*
X167742051Y-96738165D01*
X167729624Y-96708164D01*
X167706136Y-96651459D01*
X167666632Y-96556086D01*
X167601207Y-96458170D01*
X167557140Y-96392219D01*
X167557139Y-96392218D01*
X167417782Y-96252861D01*
X167417781Y-96252860D01*
X167277140Y-96112219D01*
X167277139Y-96112218D01*
X167137782Y-95972861D01*
X167137781Y-95972860D01*
X167137780Y-95972859D01*
X166973920Y-95863371D01*
X166973907Y-95863364D01*
X166827878Y-95802878D01*
X166827876Y-95802877D01*
X166819722Y-95799500D01*
X166791836Y-95787949D01*
X166695188Y-95768724D01*
X166691884Y-95768066D01*
X166691881Y-95768066D01*
X166598544Y-95749500D01*
X166598541Y-95749500D01*
X165848541Y-95749500D01*
X165098541Y-95749500D01*
X163401459Y-95749500D01*
X163401457Y-95749500D01*
X163208170Y-95787947D01*
X163208160Y-95787950D01*
X163026092Y-95863364D01*
X163026079Y-95863371D01*
X162862218Y-95972860D01*
X162862214Y-95972863D01*
X162722863Y-96112214D01*
X162722860Y-96112218D01*
X162613371Y-96276079D01*
X162613364Y-96276092D01*
X162537950Y-96458160D01*
X162537947Y-96458170D01*
X162499500Y-96651456D01*
X162499500Y-96651458D01*
X162499500Y-96651459D01*
X162499500Y-96848541D01*
X162499500Y-96848543D01*
X162499499Y-96848543D01*
X162537947Y-97041829D01*
X162537950Y-97041839D01*
X162613364Y-97223907D01*
X162613371Y-97223920D01*
X162722860Y-97387781D01*
X162722863Y-97387785D01*
X162862214Y-97527136D01*
X162862218Y-97527139D01*
X163026079Y-97636628D01*
X163026092Y-97636635D01*
X163208160Y-97712049D01*
X163208165Y-97712051D01*
X163208169Y-97712051D01*
X163208170Y-97712052D01*
X163401456Y-97750500D01*
X163401459Y-97750500D01*
X164901459Y-97750500D01*
X165651459Y-97750500D01*
X165655500Y-97750500D01*
X165722539Y-97770185D01*
X165768294Y-97822989D01*
X165779500Y-97874500D01*
X165779500Y-98289699D01*
X165759815Y-98356738D01*
X165707011Y-98402493D01*
X165694507Y-98407403D01*
X165671028Y-98415184D01*
X165610668Y-98435185D01*
X165610663Y-98435187D01*
X165461342Y-98527289D01*
X165337289Y-98651342D01*
X165245187Y-98800663D01*
X165245186Y-98800666D01*
X165190001Y-98967203D01*
X165190001Y-98967204D01*
X165190000Y-98967204D01*
X165179500Y-99069983D01*
X165179500Y-99069996D01*
X165179501Y-99873165D01*
X165178508Y-99873165D01*
X165163212Y-99937143D01*
X165112806Y-99985526D01*
X165055620Y-99999500D01*
X164304500Y-99999500D01*
X164237461Y-99979815D01*
X164191706Y-99927011D01*
X164180500Y-99875500D01*
X164180500Y-99049993D01*
X164180499Y-99049980D01*
X164169999Y-98947200D01*
X164114815Y-98780664D01*
X164114811Y-98780658D01*
X164114810Y-98780655D01*
X164022714Y-98631346D01*
X164022711Y-98631342D01*
X163898657Y-98507288D01*
X163898653Y-98507285D01*
X163749344Y-98415189D01*
X163749338Y-98415186D01*
X163749336Y-98415185D01*
X163643157Y-98380001D01*
X163582801Y-98360001D01*
X163480019Y-98349500D01*
X163480012Y-98349500D01*
X157479988Y-98349500D01*
X157479980Y-98349500D01*
X157377198Y-98360001D01*
X157210666Y-98415184D01*
X157210655Y-98415189D01*
X157061346Y-98507285D01*
X157061342Y-98507288D01*
X156937288Y-98631342D01*
X156937285Y-98631346D01*
X156845189Y-98780655D01*
X156845184Y-98780666D01*
X156790001Y-98947198D01*
X156779500Y-99049980D01*
X153500500Y-99049980D01*
X153500500Y-60849984D01*
X164149500Y-60849984D01*
X164149500Y-63150015D01*
X164160000Y-63252795D01*
X164160001Y-63252796D01*
X164215186Y-63419335D01*
X164215187Y-63419337D01*
X164307286Y-63568651D01*
X164307289Y-63568655D01*
X164431344Y-63692710D01*
X164431348Y-63692713D01*
X164580662Y-63784812D01*
X164580664Y-63784813D01*
X164580666Y-63784814D01*
X164747203Y-63839999D01*
X164849992Y-63850500D01*
X165342402Y-63850500D01*
X165409441Y-63870185D01*
X165417888Y-63876124D01*
X165525386Y-63958610D01*
X165525388Y-63958611D01*
X165617338Y-64011698D01*
X165724112Y-64073345D01*
X165838620Y-64120775D01*
X165936113Y-64161158D01*
X165974781Y-64171519D01*
X166157761Y-64220549D01*
X166328389Y-64243012D01*
X166385265Y-64250500D01*
X166385266Y-64250500D01*
X177314727Y-64250500D01*
X177314734Y-64250500D01*
X177542238Y-64220548D01*
X177763887Y-64161158D01*
X177766830Y-64159938D01*
X177814285Y-64150499D01*
X178250002Y-64150499D01*
X178250008Y-64150499D01*
X178352797Y-64139999D01*
X178519334Y-64084814D01*
X178668656Y-63992712D01*
X178792712Y-63868656D01*
X178884814Y-63719334D01*
X178939999Y-63552797D01*
X178950500Y-63450009D01*
X178950500Y-62512548D01*
X178950500Y-62385266D01*
X178950500Y-62379153D01*
X178950499Y-62379131D01*
X178950499Y-61549999D01*
X178950498Y-61549983D01*
X179749500Y-61549983D01*
X179749500Y-63450001D01*
X179749501Y-63450019D01*
X179760000Y-63552796D01*
X179760001Y-63552799D01*
X179815185Y-63719331D01*
X179815187Y-63719336D01*
X179822594Y-63731344D01*
X179907288Y-63868656D01*
X180031344Y-63992712D01*
X180180666Y-64084814D01*
X180347203Y-64139999D01*
X180449991Y-64150500D01*
X180885715Y-64150499D01*
X180933169Y-64159938D01*
X180936113Y-64161158D01*
X181157762Y-64220548D01*
X181385266Y-64250500D01*
X184125500Y-64250500D01*
X184192539Y-64270185D01*
X184238294Y-64322989D01*
X184249500Y-64374500D01*
X184249500Y-64864741D01*
X184274446Y-65054215D01*
X184279452Y-65092238D01*
X184279453Y-65092240D01*
X184338842Y-65313887D01*
X184426650Y-65525876D01*
X184426657Y-65525890D01*
X184541392Y-65724617D01*
X184681081Y-65906661D01*
X184681089Y-65906670D01*
X184843330Y-66068911D01*
X184843338Y-66068918D01*
X184843339Y-66068919D01*
X184893962Y-66107764D01*
X185025382Y-66208607D01*
X185025385Y-66208608D01*
X185025388Y-66208611D01*
X185224112Y-66323344D01*
X185224117Y-66323346D01*
X185224123Y-66323349D01*
X185291524Y-66351267D01*
X185436113Y-66411158D01*
X185657762Y-66470548D01*
X185885266Y-66500500D01*
X185885273Y-66500500D01*
X186114727Y-66500500D01*
X186114734Y-66500500D01*
X186342238Y-66470548D01*
X186563887Y-66411158D01*
X186775888Y-66323344D01*
X186974612Y-66208611D01*
X187156661Y-66068919D01*
X187156665Y-66068914D01*
X187156670Y-66068911D01*
X187318911Y-65906670D01*
X187318914Y-65906665D01*
X187318919Y-65906661D01*
X187458611Y-65724612D01*
X187573344Y-65525888D01*
X187661158Y-65313887D01*
X187720548Y-65092238D01*
X187750500Y-64864734D01*
X187750500Y-61135266D01*
X187731065Y-60987642D01*
X187720549Y-60907761D01*
X187661158Y-60686113D01*
X187573344Y-60474112D01*
X187559134Y-60449500D01*
X187458611Y-60275388D01*
X187370073Y-60160002D01*
X187370069Y-60159999D01*
X187318919Y-60093337D01*
X187156668Y-59931086D01*
X187156663Y-59931082D01*
X187156661Y-59931080D01*
X187065636Y-59861235D01*
X186994760Y-59806849D01*
X186974622Y-59791396D01*
X186974616Y-59791392D01*
X186974612Y-59791389D01*
X186869582Y-59730750D01*
X186775891Y-59676657D01*
X186775881Y-59676652D01*
X186563893Y-59588844D01*
X186563874Y-59588837D01*
X186559989Y-59587797D01*
X186559983Y-59587793D01*
X186559983Y-59587796D01*
X186342239Y-59529451D01*
X186342236Y-59529450D01*
X186342233Y-59529450D01*
X186221460Y-59513551D01*
X186114741Y-59499500D01*
X186114734Y-59499500D01*
X185885266Y-59499500D01*
X185885258Y-59499500D01*
X185790397Y-59511989D01*
X185778539Y-59513551D01*
X185657766Y-59529450D01*
X185657761Y-59529451D01*
X185440017Y-59587796D01*
X185440014Y-59587796D01*
X185436126Y-59588837D01*
X185436106Y-59588844D01*
X185224118Y-59676652D01*
X185224108Y-59676657D01*
X185025392Y-59791385D01*
X184975499Y-59829670D01*
X184934363Y-59861235D01*
X184843340Y-59931078D01*
X184843333Y-59931084D01*
X184061238Y-60713181D01*
X183999915Y-60746666D01*
X183973557Y-60749500D01*
X181385258Y-60749500D01*
X181190438Y-60775150D01*
X181157762Y-60779452D01*
X181097384Y-60795630D01*
X180936108Y-60838843D01*
X180936106Y-60838843D01*
X180933162Y-60840063D01*
X180885715Y-60849500D01*
X180449998Y-60849500D01*
X180449980Y-60849501D01*
X180347203Y-60860000D01*
X180347200Y-60860001D01*
X180180668Y-60915185D01*
X180180663Y-60915187D01*
X180031342Y-61007289D01*
X179907289Y-61131342D01*
X179815187Y-61280663D01*
X179815186Y-61280666D01*
X179760001Y-61447203D01*
X179760001Y-61447204D01*
X179760000Y-61447204D01*
X179749500Y-61549983D01*
X178950498Y-61549983D01*
X178950498Y-61549980D01*
X178939999Y-61447203D01*
X178939998Y-61447200D01*
X178923825Y-61398394D01*
X178884814Y-61280666D01*
X178792712Y-61131344D01*
X178668656Y-61007288D01*
X178568304Y-60945391D01*
X178519336Y-60915187D01*
X178519331Y-60915185D01*
X178496927Y-60907761D01*
X178352797Y-60860001D01*
X178352795Y-60860000D01*
X178250016Y-60849500D01*
X178250009Y-60849500D01*
X177814283Y-60849500D01*
X177766828Y-60840060D01*
X177763887Y-60838842D01*
X177542238Y-60779452D01*
X177504215Y-60774446D01*
X177314741Y-60749500D01*
X177314734Y-60749500D01*
X167930301Y-60749500D01*
X167863262Y-60729815D01*
X167817507Y-60677011D01*
X167812595Y-60664504D01*
X167784814Y-60580666D01*
X167773666Y-60562593D01*
X167692713Y-60431348D01*
X167692710Y-60431344D01*
X167568655Y-60307289D01*
X167568651Y-60307286D01*
X167419337Y-60215187D01*
X167419335Y-60215186D01*
X167336065Y-60187593D01*
X167252797Y-60160001D01*
X167252795Y-60160000D01*
X167150015Y-60149500D01*
X167150008Y-60149500D01*
X164849992Y-60149500D01*
X164849984Y-60149500D01*
X164747204Y-60160000D01*
X164747203Y-60160001D01*
X164580664Y-60215186D01*
X164580662Y-60215187D01*
X164431348Y-60307286D01*
X164431344Y-60307289D01*
X164307289Y-60431344D01*
X164307286Y-60431348D01*
X164215187Y-60580662D01*
X164215186Y-60580664D01*
X164160001Y-60747203D01*
X164160000Y-60747204D01*
X164149500Y-60849984D01*
X153500500Y-60849984D01*
X153500500Y-48314980D01*
X157594500Y-48314980D01*
X157594500Y-53715019D01*
X157605001Y-53817801D01*
X157660184Y-53984333D01*
X157660189Y-53984344D01*
X157752285Y-54133653D01*
X157752288Y-54133657D01*
X157876342Y-54257711D01*
X157876346Y-54257714D01*
X158025655Y-54349810D01*
X158025658Y-54349811D01*
X158025664Y-54349815D01*
X158192200Y-54404999D01*
X158294988Y-54415500D01*
X158294993Y-54415500D01*
X164295007Y-54415500D01*
X164295012Y-54415500D01*
X164397800Y-54404999D01*
X164564336Y-54349815D01*
X164713657Y-54257712D01*
X164837712Y-54133657D01*
X164929815Y-53984336D01*
X164984999Y-53817800D01*
X164995500Y-53715012D01*
X164995500Y-52889500D01*
X165015185Y-52822461D01*
X165067989Y-52776706D01*
X165119500Y-52765500D01*
X165870619Y-52765500D01*
X165937658Y-52785185D01*
X165983413Y-52837989D01*
X165993698Y-52891834D01*
X165994500Y-52891834D01*
X165994500Y-53695001D01*
X165994501Y-53695019D01*
X166005000Y-53797796D01*
X166005001Y-53797799D01*
X166060185Y-53964331D01*
X166060186Y-53964334D01*
X166152288Y-54113656D01*
X166276344Y-54237712D01*
X166425666Y-54329814D01*
X166592203Y-54384999D01*
X166694991Y-54395500D01*
X167759547Y-54395499D01*
X167826586Y-54415183D01*
X167847228Y-54431818D01*
X169638763Y-56223355D01*
X169638767Y-56223358D01*
X169741210Y-56291809D01*
X169741211Y-56291809D01*
X169741215Y-56291812D01*
X169794138Y-56313733D01*
X169855048Y-56338963D01*
X169864319Y-56340807D01*
X169936288Y-56355122D01*
X169975892Y-56363001D01*
X169975894Y-56363001D01*
X170105221Y-56363001D01*
X170105241Y-56363000D01*
X172005309Y-56363000D01*
X172072348Y-56382685D01*
X172110848Y-56421904D01*
X172127160Y-56448350D01*
X172249150Y-56570340D01*
X172395984Y-56660908D01*
X172559747Y-56715174D01*
X172660823Y-56725500D01*
X173234176Y-56725499D01*
X173234184Y-56725498D01*
X173234187Y-56725498D01*
X173308860Y-56717870D01*
X173335253Y-56715174D01*
X173499016Y-56660908D01*
X173645850Y-56570340D01*
X173767840Y-56448350D01*
X173784152Y-56421904D01*
X173836100Y-56375179D01*
X173889691Y-56363000D01*
X176177048Y-56363000D01*
X176244087Y-56382685D01*
X176264729Y-56399319D01*
X176660681Y-56795271D01*
X176694166Y-56856594D01*
X176697000Y-56882952D01*
X176697000Y-58090001D01*
X176697001Y-58090018D01*
X176707500Y-58192796D01*
X176707501Y-58192799D01*
X176743433Y-58301233D01*
X176762686Y-58359334D01*
X176854788Y-58508656D01*
X176978844Y-58632712D01*
X177128166Y-58724814D01*
X177294703Y-58779999D01*
X177397491Y-58790500D01*
X178797508Y-58790499D01*
X178900297Y-58779999D01*
X179066834Y-58724814D01*
X179216156Y-58632712D01*
X179340212Y-58508656D01*
X179432314Y-58359334D01*
X179487499Y-58192797D01*
X179498000Y-58090009D01*
X179498000Y-57789500D01*
X179517685Y-57722461D01*
X179570489Y-57676706D01*
X179622000Y-57665500D01*
X182325519Y-57665500D01*
X182392558Y-57685185D01*
X182431058Y-57724404D01*
X182439660Y-57738350D01*
X182561650Y-57860340D01*
X182708484Y-57950908D01*
X182872247Y-58005174D01*
X182973323Y-58015500D01*
X183571676Y-58015499D01*
X183571684Y-58015498D01*
X183571687Y-58015498D01*
X183627030Y-58009844D01*
X183672753Y-58005174D01*
X183836516Y-57950908D01*
X183983350Y-57860340D01*
X184097319Y-57746371D01*
X184158642Y-57712886D01*
X184228334Y-57717870D01*
X184272681Y-57746371D01*
X184386650Y-57860340D01*
X184533484Y-57950908D01*
X184697247Y-58005174D01*
X184798323Y-58015500D01*
X185165513Y-58015499D01*
X185214666Y-58025657D01*
X185225022Y-58030128D01*
X185261214Y-58054311D01*
X185375048Y-58101463D01*
X185390317Y-58104500D01*
X185495891Y-58125499D01*
X185495892Y-58125500D01*
X185495893Y-58125500D01*
X185495894Y-58125500D01*
X186663885Y-58125500D01*
X186730924Y-58145185D01*
X186763606Y-58178571D01*
X186764849Y-58177669D01*
X186888028Y-58347213D01*
X187032786Y-58491971D01*
X187187749Y-58604556D01*
X187198390Y-58612287D01*
X187313921Y-58671153D01*
X187380776Y-58705218D01*
X187380778Y-58705218D01*
X187380781Y-58705220D01*
X187471856Y-58734812D01*
X187575465Y-58768477D01*
X187648212Y-58779999D01*
X187777648Y-58800500D01*
X187777649Y-58800500D01*
X187982351Y-58800500D01*
X187982352Y-58800500D01*
X188184534Y-58768477D01*
X188379219Y-58705220D01*
X188561610Y-58612287D01*
X188690482Y-58518657D01*
X188727213Y-58491971D01*
X188727215Y-58491968D01*
X188727219Y-58491966D01*
X188871966Y-58347219D01*
X188871968Y-58347215D01*
X188871971Y-58347213D01*
X188969985Y-58212306D01*
X188992287Y-58181610D01*
X189085220Y-57999219D01*
X189148477Y-57804534D01*
X189180500Y-57602352D01*
X189180500Y-57397648D01*
X189169145Y-57325954D01*
X189148477Y-57195465D01*
X189085218Y-57000776D01*
X189040485Y-56912984D01*
X188992287Y-56818390D01*
X188947260Y-56756415D01*
X188871971Y-56652786D01*
X188727213Y-56508028D01*
X188561613Y-56387715D01*
X188561612Y-56387714D01*
X188561610Y-56387713D01*
X188498577Y-56355596D01*
X188379223Y-56294781D01*
X188184534Y-56231522D01*
X188009995Y-56203878D01*
X187982352Y-56199500D01*
X187777648Y-56199500D01*
X187753329Y-56203351D01*
X187575465Y-56231522D01*
X187380776Y-56294781D01*
X187198386Y-56387715D01*
X187032786Y-56508028D01*
X186888028Y-56652786D01*
X186764849Y-56822331D01*
X186763176Y-56821115D01*
X186717792Y-56862169D01*
X186663885Y-56874500D01*
X186209499Y-56874500D01*
X186142460Y-56854815D01*
X186096705Y-56802011D01*
X186086785Y-56756415D01*
X186085659Y-56756473D01*
X186085498Y-56753313D01*
X186075174Y-56652247D01*
X186066427Y-56625850D01*
X186020908Y-56488484D01*
X185930340Y-56341650D01*
X185808350Y-56219660D01*
X185661516Y-56129092D01*
X185497753Y-56074826D01*
X185497751Y-56074825D01*
X185396678Y-56064500D01*
X184798330Y-56064500D01*
X184798312Y-56064501D01*
X184697247Y-56074825D01*
X184533484Y-56129092D01*
X184533481Y-56129093D01*
X184386648Y-56219661D01*
X184272681Y-56333629D01*
X184211358Y-56367114D01*
X184141666Y-56362130D01*
X184097319Y-56333629D01*
X183983351Y-56219661D01*
X183983350Y-56219660D01*
X183836516Y-56129092D01*
X183672753Y-56074826D01*
X183672751Y-56074825D01*
X183571678Y-56064500D01*
X182973330Y-56064500D01*
X182973312Y-56064501D01*
X182872247Y-56074825D01*
X182708484Y-56129092D01*
X182708481Y-56129093D01*
X182561648Y-56219661D01*
X182439660Y-56341649D01*
X182439659Y-56341651D01*
X182431058Y-56355596D01*
X182379110Y-56402321D01*
X182325519Y-56414500D01*
X179621999Y-56414500D01*
X179554960Y-56394815D01*
X179509205Y-56342011D01*
X179497999Y-56290500D01*
X179497999Y-55989998D01*
X179497998Y-55989981D01*
X179487499Y-55887203D01*
X179487498Y-55887200D01*
X179472120Y-55840792D01*
X179432314Y-55720666D01*
X179340212Y-55571344D01*
X179216156Y-55447288D01*
X179094564Y-55372290D01*
X179066836Y-55355187D01*
X179066831Y-55355185D01*
X179025982Y-55341649D01*
X178900297Y-55300001D01*
X178900295Y-55300000D01*
X178797510Y-55289500D01*
X177397498Y-55289500D01*
X177397481Y-55289501D01*
X177294703Y-55300000D01*
X177294700Y-55300001D01*
X177128168Y-55355185D01*
X177128160Y-55355189D01*
X177126016Y-55356512D01*
X177124341Y-55356970D01*
X177121618Y-55358240D01*
X177121400Y-55357774D01*
X177101472Y-55363226D01*
X177078306Y-55373746D01*
X177068338Y-55372290D01*
X177058622Y-55374949D01*
X177034346Y-55367328D01*
X177009169Y-55363653D01*
X176998101Y-55355950D01*
X176991960Y-55354023D01*
X176979519Y-55344507D01*
X176976265Y-55341675D01*
X176973360Y-55338770D01*
X176973358Y-55338767D01*
X176886233Y-55251642D01*
X176835009Y-55217415D01*
X176783786Y-55183188D01*
X176783783Y-55183186D01*
X176783780Y-55183185D01*
X176710103Y-55152668D01*
X176710101Y-55152667D01*
X176703292Y-55149847D01*
X176669952Y-55136037D01*
X176609529Y-55124018D01*
X176604806Y-55123078D01*
X176604804Y-55123078D01*
X176549110Y-55112000D01*
X176549107Y-55112000D01*
X176549106Y-55112000D01*
X173889691Y-55112000D01*
X173822652Y-55092315D01*
X173797926Y-55071398D01*
X173790191Y-55062887D01*
X173767840Y-55026650D01*
X173651770Y-54910580D01*
X173649787Y-54908398D01*
X173635762Y-54879518D01*
X173620386Y-54851358D01*
X173620604Y-54848303D01*
X173619266Y-54845547D01*
X173623080Y-54813678D01*
X173625370Y-54781666D01*
X173627265Y-54778716D01*
X173627570Y-54776173D01*
X173633566Y-54768911D01*
X173653871Y-54737319D01*
X173708955Y-54682235D01*
X173767840Y-54623350D01*
X173784152Y-54596904D01*
X173836100Y-54550179D01*
X173889691Y-54538000D01*
X175207650Y-54538000D01*
X175274689Y-54557685D01*
X175276541Y-54558898D01*
X175370821Y-54621894D01*
X175370823Y-54621895D01*
X175370827Y-54621897D01*
X175516498Y-54682235D01*
X175516503Y-54682237D01*
X175671153Y-54712999D01*
X175671156Y-54713000D01*
X175671158Y-54713000D01*
X175828844Y-54713000D01*
X175828845Y-54712999D01*
X175983497Y-54682237D01*
X176103067Y-54632710D01*
X176129172Y-54621897D01*
X176129172Y-54621896D01*
X176129179Y-54621894D01*
X176223459Y-54558898D01*
X176290136Y-54538020D01*
X176292350Y-54538000D01*
X176832770Y-54538000D01*
X176899809Y-54557685D01*
X176920451Y-54574319D01*
X176978844Y-54632712D01*
X177128166Y-54724814D01*
X177294703Y-54779999D01*
X177397491Y-54790500D01*
X178797508Y-54790499D01*
X178900297Y-54779999D01*
X179066834Y-54724814D01*
X179216156Y-54632712D01*
X179340212Y-54508656D01*
X179432314Y-54359334D01*
X179487499Y-54192797D01*
X179498000Y-54090009D01*
X179498000Y-53789500D01*
X179517685Y-53722461D01*
X179570489Y-53676706D01*
X179622000Y-53665500D01*
X200238854Y-53665500D01*
X200238854Y-53665499D01*
X200300876Y-53653163D01*
X200359698Y-53641463D01*
X200393038Y-53627652D01*
X200473532Y-53594312D01*
X200524755Y-53560084D01*
X200575979Y-53525858D01*
X200663104Y-53438733D01*
X200663104Y-53438731D01*
X200673312Y-53428524D01*
X200673313Y-53428521D01*
X206035145Y-48066690D01*
X206096464Y-48033208D01*
X206166156Y-48038192D01*
X206210503Y-48066693D01*
X206329150Y-48185340D01*
X206475984Y-48275908D01*
X206639747Y-48330174D01*
X206740823Y-48340500D01*
X207079547Y-48340499D01*
X207146586Y-48360183D01*
X207167228Y-48376818D01*
X209035781Y-50245371D01*
X209069266Y-50306694D01*
X209072100Y-50333052D01*
X209072100Y-51696950D01*
X209052415Y-51763989D01*
X208999611Y-51809744D01*
X208948100Y-51820950D01*
X208632730Y-51820950D01*
X208632723Y-51820951D01*
X208573116Y-51827358D01*
X208438271Y-51877652D01*
X208438264Y-51877656D01*
X208323055Y-51963902D01*
X208323052Y-51963905D01*
X208236806Y-52079114D01*
X208236802Y-52079121D01*
X208186508Y-52213967D01*
X208180101Y-52273566D01*
X208180100Y-52273585D01*
X208180100Y-52312658D01*
X208171157Y-52343112D01*
X208163856Y-52374015D01*
X208161382Y-52376401D01*
X208160415Y-52379697D01*
X208136432Y-52400478D01*
X208113578Y-52422532D01*
X208109197Y-52424077D01*
X208107611Y-52425452D01*
X208080294Y-52434275D01*
X208075618Y-52435205D01*
X208060471Y-52438218D01*
X208017243Y-52446816D01*
X208000046Y-52450237D01*
X207886216Y-52497387D01*
X207886207Y-52497392D01*
X207783768Y-52565840D01*
X207761267Y-52588342D01*
X207696642Y-52652967D01*
X207696639Y-52652970D01*
X205739727Y-54609881D01*
X205678404Y-54643366D01*
X205652051Y-54646200D01*
X205630638Y-54646200D01*
X205513246Y-54661653D01*
X205513237Y-54661656D01*
X205367160Y-54722163D01*
X205241718Y-54818418D01*
X205145463Y-54943860D01*
X205140883Y-54954918D01*
X205097040Y-55009320D01*
X205030746Y-55031383D01*
X204963047Y-55014102D01*
X204961228Y-55013002D01*
X204926520Y-54991594D01*
X204926517Y-54991592D01*
X204926516Y-54991592D01*
X204762753Y-54937326D01*
X204762751Y-54937325D01*
X204661678Y-54927000D01*
X204088330Y-54927000D01*
X204088312Y-54927001D01*
X203987247Y-54937325D01*
X203823484Y-54991592D01*
X203823481Y-54991593D01*
X203676648Y-55082161D01*
X203554659Y-55204150D01*
X203538348Y-55230596D01*
X203486400Y-55277321D01*
X203432809Y-55289500D01*
X201929552Y-55289500D01*
X201862513Y-55269815D01*
X201841871Y-55253181D01*
X201808351Y-55219661D01*
X201808350Y-55219660D01*
X201661516Y-55129092D01*
X201497753Y-55074826D01*
X201497751Y-55074825D01*
X201396678Y-55064500D01*
X200798330Y-55064500D01*
X200798312Y-55064501D01*
X200697247Y-55074825D01*
X200533484Y-55129092D01*
X200533481Y-55129093D01*
X200386648Y-55219661D01*
X200272681Y-55333629D01*
X200211358Y-55367114D01*
X200141666Y-55362130D01*
X200097319Y-55333629D01*
X199983351Y-55219661D01*
X199983350Y-55219660D01*
X199836516Y-55129092D01*
X199672753Y-55074826D01*
X199672751Y-55074825D01*
X199571678Y-55064500D01*
X198973330Y-55064500D01*
X198973312Y-55064501D01*
X198872247Y-55074825D01*
X198708484Y-55129092D01*
X198708481Y-55129093D01*
X198561648Y-55219661D01*
X198439660Y-55341649D01*
X198439659Y-55341651D01*
X198431058Y-55355596D01*
X198379110Y-55402321D01*
X198325519Y-55414500D01*
X196898389Y-55414500D01*
X196847535Y-55424615D01*
X196847530Y-55424616D01*
X196837971Y-55426518D01*
X196777548Y-55438537D01*
X196730397Y-55458067D01*
X196663715Y-55485688D01*
X196663714Y-55485689D01*
X196641347Y-55500633D01*
X196641344Y-55500635D01*
X196561268Y-55554140D01*
X196517705Y-55597703D01*
X196474142Y-55641267D01*
X196474139Y-55641270D01*
X195952227Y-56163181D01*
X195890904Y-56196666D01*
X195864546Y-56199500D01*
X194899998Y-56199500D01*
X194899980Y-56199501D01*
X194797203Y-56210000D01*
X194797200Y-56210001D01*
X194630668Y-56265185D01*
X194630663Y-56265187D01*
X194481342Y-56357289D01*
X194357289Y-56481342D01*
X194265187Y-56630663D01*
X194265186Y-56630666D01*
X194210001Y-56797203D01*
X194210001Y-56797204D01*
X194210000Y-56797204D01*
X194199500Y-56899983D01*
X194199500Y-58100001D01*
X194199501Y-58100018D01*
X194210000Y-58202796D01*
X194210001Y-58202799D01*
X194257856Y-58347213D01*
X194265186Y-58369334D01*
X194357288Y-58518656D01*
X194481344Y-58642712D01*
X194630666Y-58734814D01*
X194797203Y-58789999D01*
X194899991Y-58800500D01*
X196100008Y-58800499D01*
X196202797Y-58789999D01*
X196369334Y-58734814D01*
X196518656Y-58642712D01*
X196642712Y-58518656D01*
X196734814Y-58369334D01*
X196789999Y-58202797D01*
X196800500Y-58100009D01*
X196800499Y-57135451D01*
X196820183Y-57068413D01*
X196836818Y-57047771D01*
X197182771Y-56701819D01*
X197244094Y-56668334D01*
X197270452Y-56665500D01*
X198325519Y-56665500D01*
X198392558Y-56685185D01*
X198431058Y-56724404D01*
X198439660Y-56738350D01*
X198561650Y-56860340D01*
X198708484Y-56950908D01*
X198872247Y-57005174D01*
X198973323Y-57015500D01*
X199571676Y-57015499D01*
X199571684Y-57015498D01*
X199571687Y-57015498D01*
X199627030Y-57009844D01*
X199672753Y-57005174D01*
X199836516Y-56950908D01*
X199983350Y-56860340D01*
X200097319Y-56746371D01*
X200102639Y-56743465D01*
X200106038Y-56738443D01*
X200132951Y-56726913D01*
X200158642Y-56712886D01*
X200164689Y-56713318D01*
X200170263Y-56710931D01*
X200199129Y-56715781D01*
X200228334Y-56717870D01*
X200234719Y-56721761D01*
X200239167Y-56722509D01*
X200258310Y-56736139D01*
X200268398Y-56742287D01*
X200270580Y-56744270D01*
X200386650Y-56860340D01*
X200422887Y-56882691D01*
X200431398Y-56890426D01*
X200443840Y-56910833D01*
X200459821Y-56928600D01*
X200462879Y-56942060D01*
X200467771Y-56950082D01*
X200467481Y-56962308D01*
X200472000Y-56982191D01*
X200472000Y-57592047D01*
X200452315Y-57659086D01*
X200435681Y-57679728D01*
X200191203Y-57924205D01*
X200129880Y-57957690D01*
X200127714Y-57958141D01*
X200016508Y-57980261D01*
X200016498Y-57980264D01*
X199870827Y-58040602D01*
X199870814Y-58040609D01*
X199739711Y-58128210D01*
X199739707Y-58128213D01*
X199628213Y-58239707D01*
X199628210Y-58239711D01*
X199540609Y-58370814D01*
X199540602Y-58370827D01*
X199480264Y-58516498D01*
X199480261Y-58516510D01*
X199449500Y-58671153D01*
X199449500Y-58828846D01*
X199480261Y-58983489D01*
X199480264Y-58983501D01*
X199540602Y-59129172D01*
X199540609Y-59129185D01*
X199628210Y-59260288D01*
X199628213Y-59260292D01*
X199739707Y-59371786D01*
X199739711Y-59371789D01*
X199870814Y-59459390D01*
X199870827Y-59459397D01*
X200016498Y-59519735D01*
X200016503Y-59519737D01*
X200171153Y-59550499D01*
X200171156Y-59550500D01*
X200171158Y-59550500D01*
X200328844Y-59550500D01*
X200328845Y-59550499D01*
X200483497Y-59519737D01*
X200629179Y-59459394D01*
X200760289Y-59371789D01*
X200871789Y-59260289D01*
X200959394Y-59129179D01*
X201019737Y-58983497D01*
X201041858Y-58872282D01*
X201074240Y-58810375D01*
X201075735Y-58808853D01*
X201496229Y-58388360D01*
X201496233Y-58388358D01*
X201583358Y-58301233D01*
X201648518Y-58203715D01*
X201651812Y-58198786D01*
X201685152Y-58118292D01*
X201693757Y-58097518D01*
X201698960Y-58084960D01*
X201698960Y-58084957D01*
X201698963Y-58084952D01*
X201707784Y-58040606D01*
X201718339Y-57987542D01*
X201718339Y-57987537D01*
X201723000Y-57964107D01*
X201723000Y-57840893D01*
X201723000Y-56982191D01*
X201742685Y-56915152D01*
X201781904Y-56876652D01*
X201785393Y-56874500D01*
X201808350Y-56860340D01*
X201930340Y-56738350D01*
X202016043Y-56599402D01*
X202067991Y-56552679D01*
X202121582Y-56540500D01*
X203432809Y-56540500D01*
X203499848Y-56560185D01*
X203538347Y-56599403D01*
X203554660Y-56625850D01*
X203676650Y-56747840D01*
X203823484Y-56838408D01*
X203987247Y-56892674D01*
X204088323Y-56903000D01*
X204661676Y-56902999D01*
X204661684Y-56902998D01*
X204661687Y-56902998D01*
X204717030Y-56897344D01*
X204762753Y-56892674D01*
X204926516Y-56838408D01*
X205000067Y-56793041D01*
X205067456Y-56774601D01*
X205134120Y-56795523D01*
X205163533Y-56823090D01*
X205215202Y-56890426D01*
X205232511Y-56912984D01*
X205241718Y-56924982D01*
X205367159Y-57021236D01*
X205513238Y-57081744D01*
X205630639Y-57097200D01*
X205652044Y-57097199D01*
X205719082Y-57116881D01*
X205739727Y-57133517D01*
X207503129Y-58896920D01*
X207536613Y-58958241D01*
X207531629Y-59027933D01*
X207503128Y-59072280D01*
X205601270Y-60974139D01*
X205514143Y-61061265D01*
X205514142Y-61061267D01*
X205505122Y-61074767D01*
X205505120Y-61074770D01*
X205505119Y-61074769D01*
X205445689Y-61163712D01*
X205445687Y-61163716D01*
X205420670Y-61224111D01*
X205420671Y-61224112D01*
X205398536Y-61277549D01*
X205398535Y-61277555D01*
X205374500Y-61398389D01*
X205374500Y-63325500D01*
X205354815Y-63392539D01*
X205302011Y-63438294D01*
X205250500Y-63449500D01*
X204949999Y-63449500D01*
X204949980Y-63449501D01*
X204847203Y-63460000D01*
X204847200Y-63460001D01*
X204680668Y-63515185D01*
X204680663Y-63515187D01*
X204531342Y-63607289D01*
X204407289Y-63731342D01*
X204315187Y-63880663D01*
X204315186Y-63880666D01*
X204260001Y-64047203D01*
X204260001Y-64047204D01*
X204260000Y-64047204D01*
X204249500Y-64149983D01*
X204249500Y-65550001D01*
X204249501Y-65550018D01*
X204260000Y-65652796D01*
X204260001Y-65652799D01*
X204315185Y-65819331D01*
X204315186Y-65819334D01*
X204407288Y-65968656D01*
X204531344Y-66092712D01*
X204680666Y-66184814D01*
X204847203Y-66239999D01*
X204949991Y-66250500D01*
X205750500Y-66250499D01*
X205817539Y-66270183D01*
X205863294Y-66322987D01*
X205874500Y-66374499D01*
X205874500Y-67375500D01*
X205854815Y-67442539D01*
X205802011Y-67488294D01*
X205750500Y-67499500D01*
X204652129Y-67499500D01*
X204652123Y-67499501D01*
X204592516Y-67505908D01*
X204457671Y-67556202D01*
X204457664Y-67556206D01*
X204342455Y-67642452D01*
X204342452Y-67642455D01*
X204256206Y-67757664D01*
X204256202Y-67757671D01*
X204205908Y-67892517D01*
X204200525Y-67942594D01*
X204199501Y-67952123D01*
X204199500Y-67952135D01*
X204199500Y-69521548D01*
X204179815Y-69588587D01*
X204127011Y-69634342D01*
X204057853Y-69644286D01*
X203994297Y-69615261D01*
X203987819Y-69609229D01*
X199273948Y-64895358D01*
X199273928Y-64895336D01*
X199182483Y-64803891D01*
X199107103Y-64753524D01*
X199107101Y-64753523D01*
X199099639Y-64748537D01*
X199080036Y-64735438D01*
X198999542Y-64702097D01*
X198996566Y-64700864D01*
X198996555Y-64700859D01*
X198966204Y-64688288D01*
X198966205Y-64688288D01*
X198966202Y-64688287D01*
X198966198Y-64688286D01*
X198966194Y-64688285D01*
X198861942Y-64667548D01*
X198861941Y-64667548D01*
X198845361Y-64664250D01*
X198845357Y-64664250D01*
X198845356Y-64664250D01*
X193566975Y-64664250D01*
X193443763Y-64664249D01*
X193443762Y-64664249D01*
X193342965Y-64684298D01*
X193342960Y-64684298D01*
X193322917Y-64688286D01*
X193322915Y-64688286D01*
X193275765Y-64707817D01*
X193209087Y-64735435D01*
X193209085Y-64735436D01*
X193106634Y-64803891D01*
X193106631Y-64803894D01*
X192384650Y-65525876D01*
X191851270Y-66059256D01*
X191851267Y-66059259D01*
X191817816Y-66092710D01*
X191764140Y-66146385D01*
X191695692Y-66248824D01*
X191695687Y-66248833D01*
X191648538Y-66362662D01*
X191648536Y-66362669D01*
X191624500Y-66483506D01*
X191624500Y-69939548D01*
X191604815Y-70006587D01*
X191588181Y-70027229D01*
X190962014Y-70653395D01*
X190900691Y-70686880D01*
X190830999Y-70681896D01*
X190775066Y-70640024D01*
X190750649Y-70574560D01*
X190756626Y-70526715D01*
X190802674Y-70387753D01*
X190813000Y-70286677D01*
X190812999Y-69713324D01*
X190806069Y-69645487D01*
X190802674Y-69612247D01*
X190793893Y-69585747D01*
X190748408Y-69448484D01*
X190657840Y-69301650D01*
X190535850Y-69179660D01*
X190389016Y-69089092D01*
X190225253Y-69034826D01*
X190225251Y-69034825D01*
X190124178Y-69024500D01*
X189525830Y-69024500D01*
X189525812Y-69024501D01*
X189424747Y-69034825D01*
X189260984Y-69089092D01*
X189260981Y-69089093D01*
X189114148Y-69179661D01*
X189000181Y-69293629D01*
X188938858Y-69327114D01*
X188869166Y-69322130D01*
X188824819Y-69293629D01*
X188710851Y-69179661D01*
X188710850Y-69179660D01*
X188564016Y-69089092D01*
X188400253Y-69034826D01*
X188400251Y-69034825D01*
X188299178Y-69024500D01*
X187700830Y-69024500D01*
X187700812Y-69024501D01*
X187599747Y-69034825D01*
X187599743Y-69034826D01*
X187518123Y-69061873D01*
X187448294Y-69064275D01*
X187391440Y-69031849D01*
X187239633Y-68880043D01*
X187086818Y-68727227D01*
X187053333Y-68665904D01*
X187050499Y-68639546D01*
X187050499Y-67799998D01*
X187050498Y-67799981D01*
X187039999Y-67697203D01*
X187039998Y-67697200D01*
X187031399Y-67671251D01*
X186984814Y-67530666D01*
X186892712Y-67381344D01*
X186768656Y-67257288D01*
X186637907Y-67176642D01*
X186619336Y-67165187D01*
X186619331Y-67165185D01*
X186617862Y-67164698D01*
X186452797Y-67110001D01*
X186452795Y-67110000D01*
X186350010Y-67099500D01*
X185599998Y-67099500D01*
X185599980Y-67099501D01*
X185497203Y-67110000D01*
X185497200Y-67110001D01*
X185330668Y-67165185D01*
X185330663Y-67165187D01*
X185181342Y-67257289D01*
X185057289Y-67381342D01*
X184965187Y-67530663D01*
X184965185Y-67530668D01*
X184956723Y-67556206D01*
X184910001Y-67697203D01*
X184910001Y-67697204D01*
X184910000Y-67697204D01*
X184899500Y-67799983D01*
X184899500Y-69200001D01*
X184899501Y-69200018D01*
X184910000Y-69302796D01*
X184910001Y-69302799D01*
X184952417Y-69430799D01*
X184965186Y-69469334D01*
X185057288Y-69618656D01*
X185181344Y-69742712D01*
X185330666Y-69834814D01*
X185497203Y-69889999D01*
X185599991Y-69900500D01*
X186350008Y-69900499D01*
X186419233Y-69893427D01*
X186487923Y-69906196D01*
X186519514Y-69929104D01*
X186989141Y-70398732D01*
X187015228Y-70424819D01*
X187048713Y-70486142D01*
X187043729Y-70555834D01*
X187015228Y-70600181D01*
X186274681Y-71340728D01*
X186213358Y-71374213D01*
X186143666Y-71369229D01*
X186087733Y-71327357D01*
X186063316Y-71261893D01*
X186063000Y-71253047D01*
X186063000Y-70887286D01*
X186062999Y-70887272D01*
X186061118Y-70872984D01*
X186048187Y-70774764D01*
X185990198Y-70634767D01*
X185897951Y-70514549D01*
X185777733Y-70422302D01*
X185777729Y-70422300D01*
X185662498Y-70374570D01*
X185637736Y-70364313D01*
X185621785Y-70362213D01*
X185525227Y-70349500D01*
X185525220Y-70349500D01*
X185299780Y-70349500D01*
X185299772Y-70349500D01*
X185212893Y-70360938D01*
X185187264Y-70364313D01*
X185187262Y-70364313D01*
X185179208Y-70365374D01*
X185178816Y-70362399D01*
X185146184Y-70362399D01*
X185145792Y-70365374D01*
X185137737Y-70364313D01*
X185137736Y-70364313D01*
X185108771Y-70360499D01*
X185025227Y-70349500D01*
X185025220Y-70349500D01*
X184799780Y-70349500D01*
X184799772Y-70349500D01*
X184712893Y-70360938D01*
X184687264Y-70364313D01*
X184687262Y-70364313D01*
X184679208Y-70365374D01*
X184678816Y-70362399D01*
X184646184Y-70362399D01*
X184645792Y-70365374D01*
X184637737Y-70364313D01*
X184637736Y-70364313D01*
X184608771Y-70360499D01*
X184525227Y-70349500D01*
X184525220Y-70349500D01*
X184299780Y-70349500D01*
X184299772Y-70349500D01*
X184212893Y-70360938D01*
X184187264Y-70364313D01*
X184187262Y-70364313D01*
X184179208Y-70365374D01*
X184178816Y-70362399D01*
X184146184Y-70362399D01*
X184145792Y-70365374D01*
X184137737Y-70364313D01*
X184137736Y-70364313D01*
X184108771Y-70360499D01*
X184025227Y-70349500D01*
X184025220Y-70349500D01*
X183799780Y-70349500D01*
X183799772Y-70349500D01*
X183712893Y-70360938D01*
X183687264Y-70364313D01*
X183687262Y-70364313D01*
X183679208Y-70365374D01*
X183678816Y-70362399D01*
X183646184Y-70362399D01*
X183645792Y-70365374D01*
X183637737Y-70364313D01*
X183637736Y-70364313D01*
X183608771Y-70360499D01*
X183525227Y-70349500D01*
X183525220Y-70349500D01*
X183299780Y-70349500D01*
X183299772Y-70349500D01*
X183212893Y-70360938D01*
X183187264Y-70364313D01*
X183187262Y-70364313D01*
X183179208Y-70365374D01*
X183178816Y-70362399D01*
X183146184Y-70362399D01*
X183145792Y-70365374D01*
X183137737Y-70364313D01*
X183137736Y-70364313D01*
X183108771Y-70360499D01*
X183025227Y-70349500D01*
X183025220Y-70349500D01*
X182799780Y-70349500D01*
X182799772Y-70349500D01*
X182712893Y-70360938D01*
X182687264Y-70364313D01*
X182687262Y-70364313D01*
X182679208Y-70365374D01*
X182678816Y-70362399D01*
X182646184Y-70362399D01*
X182645792Y-70365374D01*
X182637737Y-70364313D01*
X182637736Y-70364313D01*
X182608771Y-70360499D01*
X182525227Y-70349500D01*
X182525220Y-70349500D01*
X182299780Y-70349500D01*
X182299772Y-70349500D01*
X182212893Y-70360938D01*
X182187264Y-70364313D01*
X182187262Y-70364313D01*
X182179208Y-70365374D01*
X182178814Y-70362386D01*
X182178438Y-70362386D01*
X182165445Y-70366539D01*
X182130401Y-70362347D01*
X182129901Y-70362213D01*
X182070242Y-70325846D01*
X182039716Y-70262997D01*
X182038000Y-70242440D01*
X182038000Y-67600896D01*
X182029111Y-67556206D01*
X182013963Y-67480048D01*
X181990865Y-67424286D01*
X181966812Y-67366215D01*
X181929551Y-67310451D01*
X181898358Y-67263767D01*
X181898355Y-67263763D01*
X181808137Y-67173545D01*
X181808106Y-67173516D01*
X180993229Y-66358639D01*
X180985860Y-66351270D01*
X180985858Y-66351267D01*
X180898733Y-66264142D01*
X180844944Y-66228201D01*
X180796286Y-66195688D01*
X180796276Y-66195684D01*
X180770033Y-66184814D01*
X180694694Y-66153608D01*
X180682452Y-66148537D01*
X180622029Y-66136518D01*
X180615784Y-66135275D01*
X180561610Y-66124500D01*
X180561607Y-66124500D01*
X180561606Y-66124500D01*
X163193694Y-66124500D01*
X163193674Y-66124499D01*
X163187560Y-66124499D01*
X163064347Y-66124499D01*
X162963550Y-66144548D01*
X162963545Y-66144548D01*
X162943508Y-66148534D01*
X162943501Y-66148537D01*
X162931259Y-66153608D01*
X162829673Y-66195684D01*
X162829661Y-66195691D01*
X162727220Y-66264141D01*
X162727216Y-66264144D01*
X159736004Y-69255358D01*
X158742269Y-70249093D01*
X158742267Y-70249095D01*
X158714133Y-70277229D01*
X158655140Y-70336221D01*
X158636373Y-70364310D01*
X158636371Y-70364313D01*
X158586690Y-70438663D01*
X158586685Y-70438672D01*
X158559751Y-70503699D01*
X158539538Y-70552496D01*
X158539538Y-70552498D01*
X158539537Y-70552501D01*
X158515500Y-70673347D01*
X158515500Y-91077606D01*
X158525307Y-91126911D01*
X158539529Y-91198413D01*
X158539536Y-91198447D01*
X158539539Y-91198457D01*
X158586685Y-91312280D01*
X158586687Y-91312283D01*
X158586688Y-91312286D01*
X158620915Y-91363509D01*
X158655142Y-91414733D01*
X158742267Y-91501858D01*
X158742270Y-91501860D01*
X158749554Y-91509144D01*
X160025681Y-92785271D01*
X160059166Y-92846594D01*
X160062000Y-92872952D01*
X160062000Y-93211668D01*
X160062001Y-93211687D01*
X160072325Y-93312752D01*
X160090851Y-93368657D01*
X160126092Y-93475008D01*
X160126592Y-93476515D01*
X160126593Y-93476518D01*
X160136582Y-93492712D01*
X160189061Y-93577795D01*
X160217161Y-93623351D01*
X160331129Y-93737319D01*
X160364614Y-93798642D01*
X160359630Y-93868334D01*
X160331129Y-93912681D01*
X160217161Y-94026648D01*
X160126593Y-94173481D01*
X160126591Y-94173486D01*
X160117640Y-94200499D01*
X160072326Y-94337247D01*
X160072326Y-94337248D01*
X160072325Y-94337248D01*
X160062000Y-94438315D01*
X160062000Y-95036669D01*
X160062001Y-95036687D01*
X160072325Y-95137752D01*
X160100693Y-95223358D01*
X160123376Y-95291812D01*
X160126592Y-95301515D01*
X160126593Y-95301518D01*
X160157102Y-95350981D01*
X160217160Y-95448350D01*
X160339150Y-95570340D01*
X160485984Y-95660908D01*
X160649747Y-95715174D01*
X160750823Y-95725500D01*
X161324176Y-95725499D01*
X161324184Y-95725498D01*
X161324187Y-95725498D01*
X161379530Y-95719844D01*
X161425253Y-95715174D01*
X161589016Y-95660908D01*
X161735850Y-95570340D01*
X161857840Y-95448350D01*
X161874152Y-95421904D01*
X161926100Y-95375179D01*
X161979691Y-95363000D01*
X168574107Y-95363000D01*
X168634529Y-95350981D01*
X168694952Y-95338963D01*
X168728292Y-95325152D01*
X168808786Y-95291812D01*
X168860009Y-95257584D01*
X168911233Y-95223358D01*
X168998358Y-95136233D01*
X168998359Y-95136231D01*
X169005425Y-95129165D01*
X169005428Y-95129161D01*
X169897771Y-94236818D01*
X169959094Y-94203333D01*
X169985452Y-94200499D01*
X170281863Y-94200499D01*
X170399253Y-94185046D01*
X170399257Y-94185044D01*
X170399262Y-94185044D01*
X170545341Y-94124536D01*
X170670782Y-94028282D01*
X170767036Y-93902841D01*
X170827544Y-93756762D01*
X170843000Y-93639361D01*
X170842999Y-93360640D01*
X170842999Y-93360636D01*
X170827546Y-93243246D01*
X170827544Y-93243241D01*
X170827544Y-93243238D01*
X170767036Y-93097159D01*
X170670782Y-92971718D01*
X170670779Y-92971716D01*
X170665834Y-92965271D01*
X170667390Y-92964076D01*
X170667152Y-92963687D01*
X170659485Y-92957424D01*
X170651113Y-92937529D01*
X170643897Y-92925759D01*
X170641625Y-92918779D01*
X170632818Y-92874500D01*
X170626463Y-92842548D01*
X170583283Y-92738302D01*
X170579312Y-92728715D01*
X170573027Y-92719310D01*
X170560461Y-92700502D01*
X170560459Y-92700500D01*
X170510858Y-92626267D01*
X170510856Y-92626264D01*
X170420637Y-92536045D01*
X170420606Y-92536016D01*
X170239732Y-92355142D01*
X170206247Y-92293819D01*
X170210552Y-92233617D01*
X170208583Y-92233090D01*
X170210686Y-92225240D01*
X170225499Y-92112727D01*
X170225500Y-92112720D01*
X170225500Y-91887280D01*
X170210687Y-91774764D01*
X170210686Y-91774763D01*
X170209626Y-91766707D01*
X170212888Y-91766277D01*
X170214164Y-91711789D01*
X170253304Y-91653912D01*
X170317522Y-91626383D01*
X170332291Y-91625500D01*
X170811608Y-91625500D01*
X170811608Y-91625499D01*
X170875857Y-91612720D01*
X170932452Y-91601463D01*
X170965792Y-91587652D01*
X171046286Y-91554312D01*
X171097509Y-91520084D01*
X171148733Y-91485858D01*
X171235858Y-91398733D01*
X171235859Y-91398731D01*
X171242925Y-91391665D01*
X171242927Y-91391661D01*
X172972771Y-89661819D01*
X173034094Y-89628334D01*
X173060452Y-89625500D01*
X187000500Y-89625500D01*
X187067539Y-89645185D01*
X187113294Y-89697989D01*
X187124500Y-89749500D01*
X187124500Y-90125500D01*
X187104815Y-90192539D01*
X187052011Y-90238294D01*
X187000500Y-90249500D01*
X181385258Y-90249500D01*
X181168715Y-90278009D01*
X181157762Y-90279452D01*
X181122886Y-90288797D01*
X180936108Y-90338843D01*
X180936106Y-90338843D01*
X180933162Y-90340063D01*
X180885715Y-90349500D01*
X180449998Y-90349500D01*
X180449980Y-90349501D01*
X180347203Y-90360000D01*
X180347200Y-90360001D01*
X180180668Y-90415185D01*
X180180663Y-90415187D01*
X180031342Y-90507289D01*
X179907289Y-90631342D01*
X179815187Y-90780663D01*
X179815185Y-90780668D01*
X179794418Y-90843339D01*
X179760001Y-90947203D01*
X179760001Y-90947204D01*
X179760000Y-90947204D01*
X179749500Y-91049983D01*
X179749500Y-92950001D01*
X179749501Y-92950019D01*
X179760000Y-93052796D01*
X179760001Y-93052799D01*
X179794418Y-93156661D01*
X179815186Y-93219334D01*
X179907288Y-93368656D01*
X180031344Y-93492712D01*
X180180666Y-93584814D01*
X180347203Y-93639999D01*
X180449991Y-93650500D01*
X180885715Y-93650499D01*
X180933169Y-93659938D01*
X180936113Y-93661158D01*
X181157762Y-93720548D01*
X181385266Y-93750500D01*
X183635266Y-93750500D01*
X184135266Y-93750500D01*
X184885266Y-93750500D01*
X186135266Y-93750500D01*
X187385266Y-93750500D01*
X187924782Y-93750500D01*
X187991821Y-93770185D01*
X188030319Y-93809401D01*
X188082288Y-93893656D01*
X188206344Y-94017712D01*
X188355666Y-94109814D01*
X188522203Y-94164999D01*
X188624991Y-94175500D01*
X189450008Y-94175499D01*
X189450016Y-94175498D01*
X189450019Y-94175498D01*
X189506302Y-94169748D01*
X189552797Y-94164999D01*
X189719334Y-94109814D01*
X189868656Y-94017712D01*
X189992712Y-93893656D01*
X190084814Y-93744334D01*
X190139999Y-93577797D01*
X190150500Y-93475009D01*
X190150499Y-93413393D01*
X190170183Y-93346355D01*
X190191318Y-93321817D01*
X190191291Y-93321790D01*
X190191661Y-93321419D01*
X190192749Y-93320157D01*
X190194152Y-93318925D01*
X190194161Y-93318919D01*
X190269843Y-93243237D01*
X190356411Y-93156670D01*
X190356414Y-93156665D01*
X190356419Y-93156661D01*
X190496111Y-92974612D01*
X190610844Y-92775888D01*
X190698658Y-92563887D01*
X190758048Y-92342238D01*
X190788000Y-92114734D01*
X190788000Y-91885266D01*
X190758048Y-91657762D01*
X190698658Y-91436113D01*
X190629448Y-91269026D01*
X190610849Y-91224123D01*
X190610846Y-91224117D01*
X190610844Y-91224112D01*
X190496111Y-91025388D01*
X190496108Y-91025385D01*
X190496107Y-91025382D01*
X190371037Y-90862390D01*
X190356419Y-90843339D01*
X190194161Y-90681081D01*
X190194156Y-90681077D01*
X190194150Y-90681071D01*
X190192725Y-90679821D01*
X190192421Y-90679342D01*
X190191291Y-90678212D01*
X190191544Y-90677958D01*
X190155311Y-90620813D01*
X190150499Y-90586606D01*
X190150499Y-90524998D01*
X190150498Y-90524981D01*
X190139999Y-90422203D01*
X190139998Y-90422200D01*
X190120816Y-90364313D01*
X190084814Y-90255666D01*
X189992712Y-90106344D01*
X189868656Y-89982288D01*
X189719334Y-89890186D01*
X189552797Y-89835001D01*
X189552795Y-89835000D01*
X189450010Y-89824500D01*
X188624998Y-89824500D01*
X188624980Y-89824501D01*
X188515468Y-89835689D01*
X188515249Y-89833545D01*
X188455756Y-89829079D01*
X188399971Y-89787010D01*
X188375785Y-89721460D01*
X188375500Y-89713051D01*
X188375500Y-89249500D01*
X188395185Y-89182461D01*
X188447989Y-89136706D01*
X188499500Y-89125500D01*
X192689548Y-89125500D01*
X192756587Y-89145185D01*
X192777229Y-89161819D01*
X193850124Y-90234714D01*
X193883609Y-90296037D01*
X193880149Y-90361399D01*
X193860001Y-90422201D01*
X193849500Y-90524983D01*
X193849500Y-90586607D01*
X193829815Y-90653646D01*
X193808682Y-90678185D01*
X193808709Y-90678212D01*
X193808358Y-90678562D01*
X193807273Y-90679823D01*
X193805847Y-90681073D01*
X193643581Y-90843338D01*
X193503892Y-91025382D01*
X193389157Y-91224109D01*
X193389150Y-91224123D01*
X193301342Y-91436112D01*
X193301342Y-91436113D01*
X193248114Y-91634767D01*
X193241953Y-91657759D01*
X193241951Y-91657770D01*
X193212000Y-91885258D01*
X193212000Y-92114741D01*
X193235577Y-92293819D01*
X193241952Y-92342238D01*
X193280434Y-92485857D01*
X193301342Y-92563887D01*
X193389150Y-92775876D01*
X193389157Y-92775890D01*
X193432233Y-92850500D01*
X193497581Y-92963687D01*
X193503892Y-92974617D01*
X193643581Y-93156661D01*
X193805839Y-93318919D01*
X193805843Y-93318922D01*
X193805846Y-93318925D01*
X193807261Y-93320166D01*
X193807562Y-93320641D01*
X193808709Y-93321788D01*
X193808452Y-93322044D01*
X193844684Y-93379168D01*
X193849500Y-93413390D01*
X193849500Y-93475000D01*
X193849501Y-93475019D01*
X193860000Y-93577796D01*
X193860001Y-93577799D01*
X193915185Y-93744331D01*
X193915187Y-93744336D01*
X193924936Y-93760141D01*
X194007288Y-93893656D01*
X194131344Y-94017712D01*
X194280666Y-94109814D01*
X194447203Y-94164999D01*
X194549991Y-94175500D01*
X195375008Y-94175499D01*
X195375016Y-94175498D01*
X195375019Y-94175498D01*
X195431302Y-94169748D01*
X195477797Y-94164999D01*
X195644334Y-94109814D01*
X195793656Y-94017712D01*
X195917712Y-93893656D01*
X195969680Y-93809402D01*
X196021627Y-93762679D01*
X196075218Y-93750500D01*
X207614727Y-93750500D01*
X207614734Y-93750500D01*
X207815771Y-93724032D01*
X207815772Y-93724032D01*
X207842229Y-93720550D01*
X207842234Y-93720548D01*
X207842239Y-93720548D01*
X208063887Y-93661158D01*
X208275888Y-93573344D01*
X208296219Y-93561606D01*
X208474612Y-93458611D01*
X208591843Y-93368656D01*
X208656661Y-93318920D01*
X209088762Y-92886819D01*
X209150085Y-92853334D01*
X209176443Y-92850500D01*
X209650003Y-92850500D01*
X209650008Y-92850500D01*
X209752797Y-92839999D01*
X209919334Y-92784814D01*
X210068655Y-92692711D01*
X210192711Y-92568655D01*
X210284814Y-92419334D01*
X210339999Y-92252797D01*
X210350500Y-92150008D01*
X210350500Y-89849992D01*
X210339999Y-89747203D01*
X210284814Y-89580666D01*
X210267139Y-89552011D01*
X210192713Y-89431348D01*
X210192710Y-89431344D01*
X210068655Y-89307289D01*
X210068651Y-89307286D01*
X209919337Y-89215187D01*
X209919335Y-89215186D01*
X209836065Y-89187593D01*
X209752797Y-89160001D01*
X209752795Y-89160000D01*
X209650015Y-89149500D01*
X209650008Y-89149500D01*
X207349992Y-89149500D01*
X207349984Y-89149500D01*
X207247204Y-89160000D01*
X207247203Y-89160001D01*
X207080664Y-89215186D01*
X207080662Y-89215187D01*
X206931348Y-89307286D01*
X206931344Y-89307289D01*
X206807289Y-89431344D01*
X206807286Y-89431348D01*
X206715187Y-89580662D01*
X206715186Y-89580664D01*
X206660001Y-89747203D01*
X206660000Y-89747204D01*
X206649500Y-89849984D01*
X206649500Y-90125500D01*
X206629815Y-90192539D01*
X206577011Y-90238294D01*
X206525500Y-90249500D01*
X196075218Y-90249500D01*
X196008179Y-90229815D01*
X195969679Y-90190597D01*
X195967613Y-90187247D01*
X195917712Y-90106344D01*
X195793656Y-89982288D01*
X195644334Y-89890186D01*
X195477797Y-89835001D01*
X195477795Y-89835000D01*
X195375016Y-89824500D01*
X195375009Y-89824500D01*
X195260452Y-89824500D01*
X195193413Y-89804815D01*
X195172771Y-89788181D01*
X193721771Y-88337181D01*
X193688286Y-88275858D01*
X193693270Y-88206166D01*
X193735142Y-88150233D01*
X193800606Y-88125816D01*
X193809452Y-88125500D01*
X218250500Y-88125500D01*
X218317539Y-88145185D01*
X218363294Y-88197989D01*
X218374500Y-88249500D01*
X218374500Y-88561611D01*
X218398535Y-88682444D01*
X218398540Y-88682461D01*
X218445685Y-88796281D01*
X218445688Y-88796286D01*
X218464278Y-88824107D01*
X218514142Y-88898733D01*
X218601267Y-88985858D01*
X218601270Y-88985860D01*
X218609214Y-88993804D01*
X220261016Y-90645606D01*
X220261045Y-90645637D01*
X220351261Y-90735853D01*
X220351264Y-90735855D01*
X220351267Y-90735858D01*
X220385580Y-90758785D01*
X220453715Y-90804312D01*
X220520396Y-90831931D01*
X220520398Y-90831933D01*
X220545311Y-90842252D01*
X220567548Y-90851463D01*
X220688394Y-90875500D01*
X220688396Y-90875500D01*
X230561608Y-90875500D01*
X230561608Y-90875499D01*
X230633333Y-90861233D01*
X230682452Y-90851463D01*
X230725700Y-90833549D01*
X230796286Y-90804312D01*
X230864420Y-90758785D01*
X230898733Y-90735858D01*
X230985858Y-90648733D01*
X230985859Y-90648731D01*
X230992925Y-90641665D01*
X230992928Y-90641661D01*
X232148729Y-89485860D01*
X232148733Y-89485858D01*
X232235858Y-89398733D01*
X232290597Y-89316811D01*
X232304312Y-89296285D01*
X232345980Y-89195689D01*
X232351463Y-89182452D01*
X232363554Y-89121666D01*
X232367572Y-89101466D01*
X232367572Y-89101463D01*
X232375500Y-89061607D01*
X232375500Y-88938393D01*
X232375500Y-85938394D01*
X232351463Y-85817548D01*
X232324794Y-85753164D01*
X232304312Y-85703715D01*
X232287256Y-85678190D01*
X232235858Y-85601267D01*
X232235856Y-85601264D01*
X232145637Y-85511045D01*
X232145606Y-85511016D01*
X230993462Y-84358872D01*
X230985860Y-84351270D01*
X230985858Y-84351267D01*
X230898733Y-84264142D01*
X230836952Y-84222861D01*
X230814025Y-84207541D01*
X230796285Y-84195687D01*
X230758546Y-84180056D01*
X230715792Y-84162347D01*
X230682452Y-84148537D01*
X230615833Y-84135286D01*
X230611347Y-84134393D01*
X230611341Y-84134392D01*
X230561608Y-84124500D01*
X230561607Y-84124500D01*
X230561606Y-84124500D01*
X226811606Y-84124500D01*
X226688393Y-84124500D01*
X226688392Y-84124500D01*
X226661280Y-84129893D01*
X226634167Y-84135286D01*
X226580798Y-84145901D01*
X226567547Y-84148537D01*
X226453716Y-84195687D01*
X226373748Y-84249121D01*
X226373747Y-84249122D01*
X226351265Y-84264143D01*
X226189622Y-84425786D01*
X226169801Y-84441888D01*
X226164463Y-84445377D01*
X226163715Y-84445688D01*
X226151702Y-84453715D01*
X226151232Y-84454028D01*
X226151151Y-84454082D01*
X226061268Y-84514140D01*
X226037060Y-84538349D01*
X225974142Y-84601267D01*
X225974139Y-84601270D01*
X224417837Y-86157571D01*
X224356514Y-86191056D01*
X224291838Y-86187821D01*
X224284219Y-86185345D01*
X224276241Y-86182753D01*
X224101315Y-86155048D01*
X224066287Y-86149500D01*
X223954451Y-86149500D01*
X223887412Y-86129815D01*
X223841657Y-86077011D01*
X223831713Y-86007853D01*
X223860738Y-85944297D01*
X223866770Y-85937819D01*
X226700004Y-83104586D01*
X229739771Y-80064819D01*
X229801094Y-80031334D01*
X229827452Y-80028500D01*
X231658608Y-80028500D01*
X231658608Y-80028499D01*
X231730786Y-80014143D01*
X231779452Y-80004463D01*
X231837108Y-79980581D01*
X231893286Y-79957312D01*
X231951836Y-79918189D01*
X231995733Y-79888858D01*
X232082858Y-79801733D01*
X232082859Y-79801731D01*
X232089925Y-79794665D01*
X232089928Y-79794661D01*
X232649271Y-79235318D01*
X232710594Y-79201833D01*
X232736952Y-79198999D01*
X233075670Y-79198999D01*
X233075676Y-79198999D01*
X233085564Y-79197989D01*
X233093258Y-79197202D01*
X233176753Y-79188674D01*
X233340516Y-79134408D01*
X233487350Y-79043840D01*
X233609340Y-78921850D01*
X233699908Y-78775016D01*
X233754174Y-78611253D01*
X233764500Y-78510177D01*
X233764499Y-77936824D01*
X233762357Y-77915858D01*
X233754174Y-77835747D01*
X233744004Y-77805056D01*
X233699908Y-77671984D01*
X233609340Y-77525150D01*
X233487350Y-77403160D01*
X233487347Y-77403157D01*
X233460901Y-77386845D01*
X233414178Y-77334897D01*
X233402000Y-77281308D01*
X233402000Y-70384533D01*
X233403748Y-70368015D01*
X233403486Y-70367989D01*
X233414499Y-70260186D01*
X233414500Y-70260177D01*
X233414499Y-69686824D01*
X233410276Y-69645487D01*
X233403486Y-69579012D01*
X233403747Y-69578985D01*
X233402000Y-69562467D01*
X233402000Y-62415691D01*
X233421685Y-62348652D01*
X233460904Y-62310152D01*
X233480811Y-62297873D01*
X233487350Y-62293840D01*
X233609340Y-62171850D01*
X233699908Y-62025016D01*
X233754174Y-61861253D01*
X233764500Y-61760177D01*
X233764499Y-61186824D01*
X233754174Y-61085747D01*
X233699908Y-60921984D01*
X233609340Y-60775150D01*
X233487350Y-60653160D01*
X233369819Y-60580666D01*
X233340518Y-60562593D01*
X233340513Y-60562591D01*
X233339069Y-60562112D01*
X233176753Y-60508326D01*
X233176751Y-60508325D01*
X233075678Y-60498000D01*
X232477330Y-60498000D01*
X232477312Y-60498001D01*
X232376247Y-60508325D01*
X232212484Y-60562592D01*
X232212481Y-60562593D01*
X232065648Y-60653161D01*
X231951681Y-60767129D01*
X231890358Y-60800614D01*
X231820666Y-60795630D01*
X231776319Y-60767129D01*
X231662351Y-60653161D01*
X231662350Y-60653160D01*
X231544819Y-60580666D01*
X231515518Y-60562593D01*
X231515513Y-60562591D01*
X231514069Y-60562112D01*
X231351753Y-60508326D01*
X231351751Y-60508325D01*
X231250678Y-60498000D01*
X230652330Y-60498000D01*
X230652312Y-60498001D01*
X230551247Y-60508325D01*
X230387484Y-60562592D01*
X230387481Y-60562593D01*
X230240648Y-60653161D01*
X230118661Y-60775148D01*
X230106028Y-60795630D01*
X230032285Y-60915187D01*
X230032032Y-60915597D01*
X230024444Y-60922421D01*
X230020206Y-60931703D01*
X229998906Y-60945391D01*
X229980084Y-60962321D01*
X229968448Y-60964965D01*
X229961428Y-60969477D01*
X229926493Y-60974500D01*
X229894664Y-60974500D01*
X229827625Y-60954815D01*
X229781870Y-60902011D01*
X229771374Y-60863754D01*
X229770970Y-60860000D01*
X229769091Y-60842517D01*
X229727056Y-60729815D01*
X229718797Y-60707671D01*
X229718793Y-60707664D01*
X229632547Y-60592455D01*
X229632544Y-60592452D01*
X229517335Y-60506206D01*
X229517328Y-60506202D01*
X229382482Y-60455908D01*
X229382483Y-60455908D01*
X229322883Y-60449501D01*
X229322881Y-60449500D01*
X229322873Y-60449500D01*
X229322864Y-60449500D01*
X227677129Y-60449500D01*
X227677123Y-60449501D01*
X227617516Y-60455908D01*
X227482671Y-60506202D01*
X227482664Y-60506206D01*
X227367455Y-60592452D01*
X227367452Y-60592455D01*
X227281206Y-60707664D01*
X227281202Y-60707671D01*
X227230908Y-60842516D01*
X227228625Y-60863757D01*
X227201886Y-60928308D01*
X227144493Y-60968155D01*
X227105336Y-60974500D01*
X221944664Y-60974500D01*
X221877625Y-60954815D01*
X221831870Y-60902011D01*
X221821374Y-60863754D01*
X221820970Y-60860000D01*
X221819091Y-60842517D01*
X221777056Y-60729815D01*
X221768797Y-60707671D01*
X221768793Y-60707664D01*
X221682547Y-60592455D01*
X221682544Y-60592452D01*
X221567335Y-60506206D01*
X221567328Y-60506202D01*
X221432482Y-60455908D01*
X221432483Y-60455908D01*
X221372883Y-60449501D01*
X221372881Y-60449500D01*
X221372873Y-60449500D01*
X221372864Y-60449500D01*
X219727129Y-60449500D01*
X219727123Y-60449501D01*
X219667516Y-60455908D01*
X219532671Y-60506202D01*
X219532664Y-60506206D01*
X219417455Y-60592452D01*
X219417452Y-60592455D01*
X219331206Y-60707664D01*
X219331202Y-60707671D01*
X219280908Y-60842517D01*
X219274501Y-60902116D01*
X219274500Y-60902135D01*
X219274500Y-61939547D01*
X219254815Y-62006586D01*
X219238181Y-62027228D01*
X218104107Y-63161301D01*
X218104099Y-63161309D01*
X218101270Y-63164139D01*
X218101267Y-63164142D01*
X218014142Y-63251267D01*
X217983943Y-63296463D01*
X217979400Y-63303261D01*
X217979398Y-63303264D01*
X217945687Y-63353714D01*
X217934781Y-63380046D01*
X217924730Y-63404312D01*
X217898538Y-63467544D01*
X217898535Y-63467556D01*
X217874500Y-63588389D01*
X217874500Y-70189548D01*
X217854815Y-70256587D01*
X217838181Y-70277229D01*
X216274229Y-71841181D01*
X216247301Y-71855884D01*
X216221483Y-71872477D01*
X216215282Y-71873368D01*
X216212906Y-71874666D01*
X216186548Y-71877500D01*
X216099500Y-71877500D01*
X216032461Y-71857815D01*
X215986706Y-71805011D01*
X215975500Y-71753500D01*
X215975499Y-71463331D01*
X215975498Y-71463312D01*
X215965174Y-71362247D01*
X215955510Y-71333083D01*
X215910908Y-71198484D01*
X215820340Y-71051650D01*
X215698350Y-70929660D01*
X215551516Y-70839092D01*
X215551514Y-70839091D01*
X215551512Y-70839090D01*
X215544971Y-70836040D01*
X215546172Y-70833463D01*
X215499410Y-70801063D01*
X215472610Y-70736537D01*
X215484950Y-70667766D01*
X215508200Y-70635489D01*
X215595340Y-70548350D01*
X215685908Y-70401516D01*
X215740174Y-70237753D01*
X215750500Y-70136677D01*
X215750499Y-69797950D01*
X215770183Y-69730912D01*
X215786813Y-69710275D01*
X216241729Y-69255360D01*
X216241733Y-69255358D01*
X216328858Y-69168233D01*
X216397311Y-69065786D01*
X216397312Y-69065785D01*
X216425389Y-68998000D01*
X216444463Y-68951952D01*
X216457815Y-68884825D01*
X216458765Y-68880051D01*
X216458765Y-68880048D01*
X216468500Y-68831107D01*
X216468500Y-68707893D01*
X216468500Y-60249406D01*
X216444463Y-60128560D01*
X216429873Y-60093337D01*
X216424962Y-60081480D01*
X216424947Y-60081447D01*
X216424932Y-60081409D01*
X216397312Y-60014727D01*
X216328858Y-59912279D01*
X216328855Y-59912275D01*
X214527810Y-58111232D01*
X214517847Y-58101269D01*
X214517846Y-58101267D01*
X214430721Y-58014142D01*
X214379497Y-57979915D01*
X214328274Y-57945688D01*
X214328271Y-57945686D01*
X214328268Y-57945685D01*
X214254591Y-57915168D01*
X214254589Y-57915167D01*
X214247780Y-57912347D01*
X214214440Y-57898537D01*
X214154017Y-57886518D01*
X214149294Y-57885578D01*
X214149292Y-57885578D01*
X214093598Y-57874500D01*
X214093595Y-57874500D01*
X214093594Y-57874500D01*
X213673899Y-57874500D01*
X213606860Y-57854815D01*
X213561105Y-57802011D01*
X213549899Y-57750500D01*
X213549899Y-57721879D01*
X213549898Y-57721873D01*
X213543491Y-57662266D01*
X213493197Y-57527421D01*
X213493193Y-57527414D01*
X213406947Y-57412205D01*
X213406944Y-57412202D01*
X213291735Y-57325956D01*
X213291728Y-57325952D01*
X213156886Y-57275660D01*
X213156885Y-57275659D01*
X213156883Y-57275659D01*
X213097273Y-57269250D01*
X213097263Y-57269250D01*
X212442729Y-57269250D01*
X212442723Y-57269251D01*
X212383116Y-57275658D01*
X212248271Y-57325952D01*
X212248269Y-57325953D01*
X212209310Y-57355118D01*
X212143845Y-57379534D01*
X212075572Y-57364682D01*
X212060690Y-57355118D01*
X212021730Y-57325953D01*
X212021728Y-57325952D01*
X211886886Y-57275660D01*
X211886885Y-57275659D01*
X211886883Y-57275659D01*
X211827273Y-57269250D01*
X211827263Y-57269250D01*
X211172729Y-57269250D01*
X211172723Y-57269251D01*
X211113116Y-57275658D01*
X210978271Y-57325952D01*
X210978269Y-57325953D01*
X210939310Y-57355118D01*
X210873845Y-57379534D01*
X210805572Y-57364682D01*
X210790690Y-57355118D01*
X210751730Y-57325953D01*
X210751728Y-57325952D01*
X210616882Y-57275658D01*
X210616883Y-57275658D01*
X210557283Y-57269251D01*
X210557281Y-57269250D01*
X210557273Y-57269250D01*
X210557265Y-57269250D01*
X210386052Y-57269250D01*
X210356611Y-57260605D01*
X210326625Y-57254082D01*
X210321609Y-57250327D01*
X210319013Y-57249565D01*
X210298371Y-57232931D01*
X210173778Y-57108338D01*
X210173776Y-57108335D01*
X210173775Y-57108334D01*
X210173775Y-57108335D01*
X210166709Y-57101269D01*
X210166708Y-57101267D01*
X210079583Y-57014142D01*
X210079579Y-57014139D01*
X210079578Y-57014138D01*
X210031992Y-56982342D01*
X210031988Y-56982339D01*
X210026081Y-56978393D01*
X209977136Y-56945688D01*
X209896642Y-56912347D01*
X209874077Y-56903000D01*
X209863303Y-56898537D01*
X209853277Y-56896543D01*
X209802879Y-56886518D01*
X209742460Y-56874500D01*
X209742457Y-56874500D01*
X209742456Y-56874500D01*
X209634300Y-56874500D01*
X209567261Y-56854815D01*
X209521506Y-56802011D01*
X209510300Y-56750500D01*
X209510300Y-54989650D01*
X209529985Y-54922611D01*
X209582789Y-54876856D01*
X209634300Y-54865650D01*
X209759207Y-54865650D01*
X209759208Y-54865649D01*
X209880052Y-54841613D01*
X209993886Y-54794461D01*
X210096333Y-54726008D01*
X210183458Y-54638883D01*
X210251911Y-54536436D01*
X210299063Y-54422602D01*
X210304454Y-54395499D01*
X210307088Y-54382258D01*
X210339472Y-54320347D01*
X210400188Y-54285773D01*
X210428705Y-54282449D01*
X210557271Y-54282449D01*
X210557272Y-54282449D01*
X210616883Y-54276041D01*
X210751731Y-54225746D01*
X210790692Y-54196579D01*
X210856152Y-54172163D01*
X210924425Y-54187014D01*
X210939297Y-54196571D01*
X210978269Y-54225746D01*
X211113117Y-54276041D01*
X211172727Y-54282450D01*
X211827272Y-54282449D01*
X211886883Y-54276041D01*
X212021731Y-54225746D01*
X212136946Y-54139496D01*
X212223196Y-54024281D01*
X212273491Y-53889433D01*
X212279900Y-53829823D01*
X212279899Y-52831050D01*
X212299583Y-52764012D01*
X212316213Y-52743375D01*
X213547772Y-51511818D01*
X213609095Y-51478333D01*
X213635453Y-51475499D01*
X213974170Y-51475499D01*
X213974176Y-51475499D01*
X214075253Y-51465174D01*
X214239016Y-51410908D01*
X214385850Y-51320340D01*
X214507840Y-51198350D01*
X214598408Y-51051516D01*
X214652674Y-50887753D01*
X214663000Y-50786677D01*
X214662999Y-50213324D01*
X214652674Y-50112247D01*
X214598408Y-49948484D01*
X214507840Y-49801650D01*
X214385850Y-49679660D01*
X214239016Y-49589092D01*
X214075253Y-49534826D01*
X214075251Y-49534825D01*
X213974178Y-49524500D01*
X213375830Y-49524500D01*
X213375812Y-49524501D01*
X213274747Y-49534825D01*
X213110984Y-49589092D01*
X213110981Y-49589093D01*
X212964148Y-49679661D01*
X212842161Y-49801648D01*
X212751593Y-49948481D01*
X212751592Y-49948484D01*
X212697326Y-50112247D01*
X212697326Y-50112248D01*
X212697325Y-50112248D01*
X212687000Y-50213315D01*
X212687000Y-50552046D01*
X212667315Y-50619085D01*
X212650681Y-50639727D01*
X211505777Y-51784631D01*
X211444454Y-51818116D01*
X211418096Y-51820950D01*
X211172730Y-51820950D01*
X211172723Y-51820951D01*
X211113115Y-51827359D01*
X211022832Y-51861032D01*
X210953141Y-51866016D01*
X210891818Y-51832530D01*
X210858334Y-51771207D01*
X210855500Y-51744850D01*
X210855500Y-49497951D01*
X210875185Y-49430912D01*
X210891815Y-49410274D01*
X211675271Y-48626817D01*
X211736594Y-48593333D01*
X211762952Y-48590499D01*
X212440002Y-48590499D01*
X212440008Y-48590499D01*
X212542797Y-48579999D01*
X212709334Y-48524814D01*
X212858656Y-48432712D01*
X212982712Y-48308656D01*
X213074814Y-48159334D01*
X213129999Y-47992797D01*
X213140500Y-47890009D01*
X213140499Y-46839992D01*
X213129999Y-46737203D01*
X213074814Y-46570666D01*
X212982712Y-46421344D01*
X212858656Y-46297288D01*
X212709334Y-46205186D01*
X212542797Y-46150001D01*
X212542795Y-46150000D01*
X212440010Y-46139500D01*
X211664998Y-46139500D01*
X211664980Y-46139501D01*
X211562203Y-46150000D01*
X211562200Y-46150001D01*
X211395668Y-46205185D01*
X211395663Y-46205187D01*
X211246342Y-46297289D01*
X211122289Y-46421342D01*
X211030187Y-46570663D01*
X211030185Y-46570668D01*
X211002405Y-46654504D01*
X210962632Y-46711949D01*
X210898116Y-46738772D01*
X210884699Y-46739500D01*
X209811981Y-46739500D01*
X209744942Y-46719815D01*
X209706442Y-46680596D01*
X209705408Y-46678920D01*
X209697840Y-46666650D01*
X209575850Y-46544660D01*
X209429016Y-46454092D01*
X209265253Y-46399826D01*
X209265251Y-46399825D01*
X209164184Y-46389500D01*
X209164177Y-46389500D01*
X208825452Y-46389500D01*
X208796011Y-46380855D01*
X208766025Y-46374332D01*
X208761009Y-46370577D01*
X208758413Y-46369815D01*
X208737771Y-46353181D01*
X208629928Y-46245338D01*
X208629926Y-46245335D01*
X208629925Y-46245334D01*
X208629925Y-46245335D01*
X208622859Y-46238269D01*
X208622858Y-46238267D01*
X208535733Y-46151142D01*
X208535729Y-46151139D01*
X208535728Y-46151138D01*
X208464593Y-46103607D01*
X208464590Y-46103605D01*
X208457009Y-46098540D01*
X208433286Y-46082688D01*
X208333582Y-46041390D01*
X208330733Y-46040210D01*
X208330727Y-46040207D01*
X208319455Y-46035538D01*
X208319453Y-46035537D01*
X208319452Y-46035537D01*
X208259029Y-46023518D01*
X208198610Y-46011500D01*
X208198607Y-46011500D01*
X208198606Y-46011500D01*
X206641852Y-46011500D01*
X206518639Y-46011500D01*
X206518634Y-46011500D01*
X206397801Y-46035535D01*
X206397793Y-46035537D01*
X206283962Y-46082687D01*
X206183971Y-46149500D01*
X206183964Y-46149505D01*
X206181511Y-46151143D01*
X199954475Y-52378181D01*
X199893152Y-52411666D01*
X199866794Y-52414500D01*
X179621999Y-52414500D01*
X179554960Y-52394815D01*
X179509205Y-52342011D01*
X179497999Y-52290500D01*
X179497999Y-51989998D01*
X179497998Y-51989981D01*
X179487499Y-51887203D01*
X179487498Y-51887200D01*
X179469382Y-51832530D01*
X179432314Y-51720666D01*
X179340212Y-51571344D01*
X179216156Y-51447288D01*
X179066834Y-51355186D01*
X178900297Y-51300001D01*
X178900295Y-51300000D01*
X178797510Y-51289500D01*
X177397498Y-51289500D01*
X177397481Y-51289501D01*
X177294703Y-51300000D01*
X177294700Y-51300001D01*
X177128168Y-51355185D01*
X177128163Y-51355187D01*
X176978842Y-51447289D01*
X176854789Y-51571342D01*
X176762687Y-51720663D01*
X176762686Y-51720666D01*
X176707501Y-51887203D01*
X176707501Y-51887204D01*
X176707500Y-51887204D01*
X176697000Y-51989983D01*
X176697000Y-51989991D01*
X176697000Y-52588349D01*
X176697001Y-53163000D01*
X176677316Y-53230039D01*
X176624513Y-53275794D01*
X176573001Y-53287000D01*
X176292350Y-53287000D01*
X176225311Y-53267315D01*
X176223459Y-53266102D01*
X176129184Y-53203109D01*
X176129172Y-53203102D01*
X175983501Y-53142764D01*
X175983489Y-53142761D01*
X175828845Y-53112000D01*
X175828842Y-53112000D01*
X175671158Y-53112000D01*
X175671155Y-53112000D01*
X175516510Y-53142761D01*
X175516498Y-53142764D01*
X175370827Y-53203102D01*
X175370815Y-53203109D01*
X175276541Y-53266102D01*
X175209864Y-53286980D01*
X175207650Y-53287000D01*
X173889691Y-53287000D01*
X173822652Y-53267315D01*
X173784152Y-53228096D01*
X173767840Y-53201650D01*
X173645851Y-53079661D01*
X173645850Y-53079660D01*
X173508656Y-52995038D01*
X173461933Y-52943091D01*
X173450710Y-52874128D01*
X173478554Y-52810046D01*
X173536623Y-52771190D01*
X173573754Y-52765500D01*
X174349727Y-52765500D01*
X174349734Y-52765500D01*
X174550771Y-52739032D01*
X174550772Y-52739032D01*
X174577229Y-52735550D01*
X174577234Y-52735548D01*
X174577239Y-52735548D01*
X174798887Y-52676158D01*
X175010888Y-52588344D01*
X175049861Y-52565843D01*
X175209612Y-52473611D01*
X175311750Y-52395237D01*
X175391661Y-52333920D01*
X178438762Y-49286819D01*
X178500085Y-49253334D01*
X178526443Y-49250500D01*
X181989868Y-49250500D01*
X182054966Y-49268962D01*
X182080666Y-49284814D01*
X182247203Y-49339999D01*
X182349992Y-49350500D01*
X182349997Y-49350500D01*
X184650003Y-49350500D01*
X184650008Y-49350500D01*
X184752797Y-49339999D01*
X184919334Y-49284814D01*
X185068655Y-49192711D01*
X185192711Y-49068655D01*
X185284814Y-48919334D01*
X185339999Y-48752797D01*
X185350500Y-48650008D01*
X185350500Y-46349992D01*
X185339999Y-46247203D01*
X185284814Y-46080666D01*
X185260587Y-46041389D01*
X185192713Y-45931348D01*
X185192710Y-45931344D01*
X185068655Y-45807289D01*
X185068651Y-45807286D01*
X184919337Y-45715187D01*
X184919335Y-45715186D01*
X184836065Y-45687593D01*
X184752797Y-45660001D01*
X184752795Y-45660000D01*
X184650015Y-45649500D01*
X184650008Y-45649500D01*
X182349992Y-45649500D01*
X182349984Y-45649500D01*
X182247204Y-45660000D01*
X182247203Y-45660001D01*
X182080667Y-45715185D01*
X182080661Y-45715188D01*
X182054966Y-45731038D01*
X181989868Y-45749500D01*
X177635265Y-45749500D01*
X177611557Y-45752620D01*
X177611557Y-45752621D01*
X177588124Y-45755706D01*
X177407771Y-45779449D01*
X177407764Y-45779450D01*
X177407761Y-45779451D01*
X177224781Y-45828480D01*
X177224778Y-45828480D01*
X177186113Y-45838842D01*
X177161795Y-45848915D01*
X177161794Y-45848915D01*
X176974120Y-45926650D01*
X176974111Y-45926655D01*
X176906098Y-45965923D01*
X176906087Y-45965929D01*
X176903676Y-45967322D01*
X176775388Y-46041389D01*
X176715881Y-46087051D01*
X176711686Y-46090269D01*
X176711678Y-46090275D01*
X176593340Y-46181078D01*
X176593333Y-46181084D01*
X173546238Y-49228181D01*
X173484915Y-49261666D01*
X173458557Y-49264500D01*
X170949782Y-49264500D01*
X170882743Y-49244815D01*
X170836988Y-49192011D01*
X170827044Y-49122853D01*
X170856069Y-49059297D01*
X170862101Y-49052819D01*
X171652139Y-48262781D01*
X171729582Y-48185338D01*
X172018577Y-47896343D01*
X172152140Y-47762781D01*
X172152142Y-47762777D01*
X172902139Y-47012781D01*
X173152139Y-46762782D01*
X173152139Y-46762780D01*
X173169578Y-46745342D01*
X173169580Y-46745340D01*
X173195105Y-46719815D01*
X173277140Y-46637781D01*
X173277141Y-46637778D01*
X173902139Y-46012782D01*
X173902140Y-46012780D01*
X174152139Y-45762782D01*
X174152141Y-45762778D01*
X174888460Y-45026460D01*
X175027140Y-44887781D01*
X175136632Y-44723914D01*
X175212052Y-44541835D01*
X175250500Y-44348540D01*
X175250500Y-44151460D01*
X175212052Y-43958164D01*
X175136632Y-43776086D01*
X175027140Y-43612218D01*
X175027135Y-43612212D01*
X174887787Y-43472864D01*
X174887780Y-43472858D01*
X174723915Y-43363368D01*
X174541836Y-43287948D01*
X174541828Y-43287946D01*
X174348544Y-43249500D01*
X174348540Y-43249500D01*
X174151460Y-43249500D01*
X174151455Y-43249500D01*
X173958172Y-43287946D01*
X173958164Y-43287948D01*
X173776088Y-43363366D01*
X173776079Y-43363371D01*
X173612220Y-43472858D01*
X173472862Y-43612218D01*
X173472861Y-43612218D01*
X172737218Y-44347861D01*
X172480151Y-44604927D01*
X172480148Y-44604930D01*
X171862221Y-45222858D01*
X171737218Y-45347861D01*
X171487219Y-45597861D01*
X170737222Y-46347857D01*
X170597861Y-46487218D01*
X170237219Y-46847861D01*
X169386899Y-47698181D01*
X169325576Y-47731666D01*
X169299218Y-47734500D01*
X168855132Y-47734500D01*
X168790036Y-47716039D01*
X168764334Y-47700186D01*
X168597797Y-47645001D01*
X168597795Y-47645000D01*
X168495010Y-47634500D01*
X166694998Y-47634500D01*
X166694981Y-47634501D01*
X166592203Y-47645000D01*
X166592200Y-47645001D01*
X166425668Y-47700185D01*
X166425663Y-47700187D01*
X166276342Y-47792289D01*
X166152289Y-47916342D01*
X166060187Y-48065663D01*
X166060185Y-48065668D01*
X166038156Y-48132147D01*
X166005001Y-48232203D01*
X166005001Y-48232204D01*
X166005000Y-48232204D01*
X165994500Y-48334983D01*
X165994500Y-48334996D01*
X165994501Y-49138165D01*
X165993508Y-49138165D01*
X165978212Y-49202143D01*
X165927806Y-49250526D01*
X165870620Y-49264500D01*
X165119500Y-49264500D01*
X165052461Y-49244815D01*
X165006706Y-49192011D01*
X164995500Y-49140500D01*
X164995500Y-48314993D01*
X164995499Y-48314980D01*
X164994853Y-48308656D01*
X164984999Y-48212200D01*
X164929815Y-48045664D01*
X164929811Y-48045658D01*
X164929810Y-48045655D01*
X164837713Y-47896344D01*
X164713657Y-47772288D01*
X164713653Y-47772285D01*
X164564344Y-47680189D01*
X164564338Y-47680186D01*
X164564336Y-47680185D01*
X164458154Y-47645000D01*
X164397801Y-47625001D01*
X164295019Y-47614500D01*
X164295012Y-47614500D01*
X158294988Y-47614500D01*
X158294980Y-47614500D01*
X158192198Y-47625001D01*
X158025666Y-47680184D01*
X158025655Y-47680189D01*
X157876346Y-47772285D01*
X157876342Y-47772288D01*
X157752288Y-47896342D01*
X157752287Y-47896344D01*
X157660189Y-48045655D01*
X157660184Y-48045666D01*
X157605001Y-48212198D01*
X157594500Y-48314980D01*
X153500500Y-48314980D01*
X153500500Y-41624500D01*
X153520185Y-41557461D01*
X153572989Y-41511706D01*
X153624500Y-41500500D01*
X235125500Y-41500500D01*
X235192539Y-41520185D01*
G37*
%TD.AperFunction*%
%TD*%
M02*
