%TF.GenerationSoftware,KiCad,Pcbnew,9.0.6*%
%TF.CreationDate,2025-12-15T22:58:16+05:30*%
%TF.ProjectId,usb_ps_1,7573625f-7073-45f3-912e-6b696361645f,rev?*%
%TF.SameCoordinates,Original*%
%TF.FileFunction,Legend,Top*%
%TF.FilePolarity,Positive*%
%FSLAX46Y46*%
G04 Gerber Fmt 4.6, Leading zero omitted, Abs format (unit mm)*
G04 Created by KiCad (PCBNEW 9.0.6) date 2025-12-15 22:58:16*
%MOMM*%
%LPD*%
G01*
G04 APERTURE LIST*
%ADD10C,0.152400*%
%ADD11C,0.150000*%
%ADD12C,0.120000*%
G04 APERTURE END LIST*
D10*
X217043786Y-104642603D02*
X217043786Y-103829803D01*
X217043786Y-103829803D02*
X217237310Y-103829803D01*
X217237310Y-103829803D02*
X217353424Y-103868508D01*
X217353424Y-103868508D02*
X217430834Y-103945918D01*
X217430834Y-103945918D02*
X217469539Y-104023327D01*
X217469539Y-104023327D02*
X217508243Y-104178146D01*
X217508243Y-104178146D02*
X217508243Y-104294260D01*
X217508243Y-104294260D02*
X217469539Y-104449079D01*
X217469539Y-104449079D02*
X217430834Y-104526489D01*
X217430834Y-104526489D02*
X217353424Y-104603899D01*
X217353424Y-104603899D02*
X217237310Y-104642603D01*
X217237310Y-104642603D02*
X217043786Y-104642603D01*
X217856586Y-104216851D02*
X218127520Y-104216851D01*
X218243634Y-104642603D02*
X217856586Y-104642603D01*
X217856586Y-104642603D02*
X217856586Y-103829803D01*
X217856586Y-103829803D02*
X218243634Y-103829803D01*
X218553272Y-104603899D02*
X218669386Y-104642603D01*
X218669386Y-104642603D02*
X218862910Y-104642603D01*
X218862910Y-104642603D02*
X218940319Y-104603899D01*
X218940319Y-104603899D02*
X218979024Y-104565194D01*
X218979024Y-104565194D02*
X219017729Y-104487784D01*
X219017729Y-104487784D02*
X219017729Y-104410375D01*
X219017729Y-104410375D02*
X218979024Y-104332965D01*
X218979024Y-104332965D02*
X218940319Y-104294260D01*
X218940319Y-104294260D02*
X218862910Y-104255556D01*
X218862910Y-104255556D02*
X218708091Y-104216851D01*
X218708091Y-104216851D02*
X218630681Y-104178146D01*
X218630681Y-104178146D02*
X218591976Y-104139441D01*
X218591976Y-104139441D02*
X218553272Y-104062032D01*
X218553272Y-104062032D02*
X218553272Y-103984622D01*
X218553272Y-103984622D02*
X218591976Y-103907213D01*
X218591976Y-103907213D02*
X218630681Y-103868508D01*
X218630681Y-103868508D02*
X218708091Y-103829803D01*
X218708091Y-103829803D02*
X218901614Y-103829803D01*
X218901614Y-103829803D02*
X219017729Y-103868508D01*
X219366071Y-104642603D02*
X219366071Y-103829803D01*
X220178872Y-103868508D02*
X220101462Y-103829803D01*
X220101462Y-103829803D02*
X219985348Y-103829803D01*
X219985348Y-103829803D02*
X219869234Y-103868508D01*
X219869234Y-103868508D02*
X219791824Y-103945918D01*
X219791824Y-103945918D02*
X219753119Y-104023327D01*
X219753119Y-104023327D02*
X219714415Y-104178146D01*
X219714415Y-104178146D02*
X219714415Y-104294260D01*
X219714415Y-104294260D02*
X219753119Y-104449079D01*
X219753119Y-104449079D02*
X219791824Y-104526489D01*
X219791824Y-104526489D02*
X219869234Y-104603899D01*
X219869234Y-104603899D02*
X219985348Y-104642603D01*
X219985348Y-104642603D02*
X220062757Y-104642603D01*
X220062757Y-104642603D02*
X220178872Y-104603899D01*
X220178872Y-104603899D02*
X220217576Y-104565194D01*
X220217576Y-104565194D02*
X220217576Y-104294260D01*
X220217576Y-104294260D02*
X220062757Y-104294260D01*
X220565919Y-104642603D02*
X220565919Y-103829803D01*
X220565919Y-103829803D02*
X221030376Y-104642603D01*
X221030376Y-104642603D02*
X221030376Y-103829803D01*
X221417424Y-104216851D02*
X221688358Y-104216851D01*
X221804472Y-104642603D02*
X221417424Y-104642603D01*
X221417424Y-104642603D02*
X221417424Y-103829803D01*
X221417424Y-103829803D02*
X221804472Y-103829803D01*
X222152814Y-104642603D02*
X222152814Y-103829803D01*
X222152814Y-103829803D02*
X222346338Y-103829803D01*
X222346338Y-103829803D02*
X222462452Y-103868508D01*
X222462452Y-103868508D02*
X222539862Y-103945918D01*
X222539862Y-103945918D02*
X222578567Y-104023327D01*
X222578567Y-104023327D02*
X222617271Y-104178146D01*
X222617271Y-104178146D02*
X222617271Y-104294260D01*
X222617271Y-104294260D02*
X222578567Y-104449079D01*
X222578567Y-104449079D02*
X222539862Y-104526489D01*
X222539862Y-104526489D02*
X222462452Y-104603899D01*
X222462452Y-104603899D02*
X222346338Y-104642603D01*
X222346338Y-104642603D02*
X222152814Y-104642603D01*
X223855824Y-104216851D02*
X223971938Y-104255556D01*
X223971938Y-104255556D02*
X224010643Y-104294260D01*
X224010643Y-104294260D02*
X224049347Y-104371670D01*
X224049347Y-104371670D02*
X224049347Y-104487784D01*
X224049347Y-104487784D02*
X224010643Y-104565194D01*
X224010643Y-104565194D02*
X223971938Y-104603899D01*
X223971938Y-104603899D02*
X223894528Y-104642603D01*
X223894528Y-104642603D02*
X223584890Y-104642603D01*
X223584890Y-104642603D02*
X223584890Y-103829803D01*
X223584890Y-103829803D02*
X223855824Y-103829803D01*
X223855824Y-103829803D02*
X223933233Y-103868508D01*
X223933233Y-103868508D02*
X223971938Y-103907213D01*
X223971938Y-103907213D02*
X224010643Y-103984622D01*
X224010643Y-103984622D02*
X224010643Y-104062032D01*
X224010643Y-104062032D02*
X223971938Y-104139441D01*
X223971938Y-104139441D02*
X223933233Y-104178146D01*
X223933233Y-104178146D02*
X223855824Y-104216851D01*
X223855824Y-104216851D02*
X223584890Y-104216851D01*
X224552509Y-104255556D02*
X224552509Y-104642603D01*
X224281576Y-103829803D02*
X224552509Y-104255556D01*
X224552509Y-104255556D02*
X224823443Y-103829803D01*
X225094376Y-104565194D02*
X225133081Y-104603899D01*
X225133081Y-104603899D02*
X225094376Y-104642603D01*
X225094376Y-104642603D02*
X225055672Y-104603899D01*
X225055672Y-104603899D02*
X225094376Y-104565194D01*
X225094376Y-104565194D02*
X225094376Y-104642603D01*
X225094376Y-104139441D02*
X225133081Y-104178146D01*
X225133081Y-104178146D02*
X225094376Y-104216851D01*
X225094376Y-104216851D02*
X225055672Y-104178146D01*
X225055672Y-104178146D02*
X225094376Y-104139441D01*
X225094376Y-104139441D02*
X225094376Y-104216851D01*
X226061996Y-104410375D02*
X226449043Y-104410375D01*
X225984586Y-104642603D02*
X226255519Y-103829803D01*
X226255519Y-103829803D02*
X226526453Y-104642603D01*
X226797386Y-104642603D02*
X226797386Y-103829803D01*
X226797386Y-104216851D02*
X227261843Y-104216851D01*
X227261843Y-104642603D02*
X227261843Y-103829803D01*
X227610187Y-104410375D02*
X227997234Y-104410375D01*
X227532777Y-104642603D02*
X227803710Y-103829803D01*
X227803710Y-103829803D02*
X228074644Y-104642603D01*
X228306873Y-104603899D02*
X228422987Y-104642603D01*
X228422987Y-104642603D02*
X228616511Y-104642603D01*
X228616511Y-104642603D02*
X228693920Y-104603899D01*
X228693920Y-104603899D02*
X228732625Y-104565194D01*
X228732625Y-104565194D02*
X228771330Y-104487784D01*
X228771330Y-104487784D02*
X228771330Y-104410375D01*
X228771330Y-104410375D02*
X228732625Y-104332965D01*
X228732625Y-104332965D02*
X228693920Y-104294260D01*
X228693920Y-104294260D02*
X228616511Y-104255556D01*
X228616511Y-104255556D02*
X228461692Y-104216851D01*
X228461692Y-104216851D02*
X228384282Y-104178146D01*
X228384282Y-104178146D02*
X228345577Y-104139441D01*
X228345577Y-104139441D02*
X228306873Y-104062032D01*
X228306873Y-104062032D02*
X228306873Y-103984622D01*
X228306873Y-103984622D02*
X228345577Y-103907213D01*
X228345577Y-103907213D02*
X228384282Y-103868508D01*
X228384282Y-103868508D02*
X228461692Y-103829803D01*
X228461692Y-103829803D02*
X228655215Y-103829803D01*
X228655215Y-103829803D02*
X228771330Y-103868508D01*
X229080968Y-104410375D02*
X229468015Y-104410375D01*
X229003558Y-104642603D02*
X229274491Y-103829803D01*
X229274491Y-103829803D02*
X229545425Y-104642603D01*
X229777654Y-104603899D02*
X229893768Y-104642603D01*
X229893768Y-104642603D02*
X230087292Y-104642603D01*
X230087292Y-104642603D02*
X230164701Y-104603899D01*
X230164701Y-104603899D02*
X230203406Y-104565194D01*
X230203406Y-104565194D02*
X230242111Y-104487784D01*
X230242111Y-104487784D02*
X230242111Y-104410375D01*
X230242111Y-104410375D02*
X230203406Y-104332965D01*
X230203406Y-104332965D02*
X230164701Y-104294260D01*
X230164701Y-104294260D02*
X230087292Y-104255556D01*
X230087292Y-104255556D02*
X229932473Y-104216851D01*
X229932473Y-104216851D02*
X229855063Y-104178146D01*
X229855063Y-104178146D02*
X229816358Y-104139441D01*
X229816358Y-104139441D02*
X229777654Y-104062032D01*
X229777654Y-104062032D02*
X229777654Y-103984622D01*
X229777654Y-103984622D02*
X229816358Y-103907213D01*
X229816358Y-103907213D02*
X229855063Y-103868508D01*
X229855063Y-103868508D02*
X229932473Y-103829803D01*
X229932473Y-103829803D02*
X230125996Y-103829803D01*
X230125996Y-103829803D02*
X230242111Y-103868508D01*
X231364548Y-104255556D02*
X231364548Y-104642603D01*
X231093615Y-103829803D02*
X231364548Y-104255556D01*
X231364548Y-104255556D02*
X231635482Y-103829803D01*
X231867711Y-104410375D02*
X232254758Y-104410375D01*
X231790301Y-104642603D02*
X232061234Y-103829803D01*
X232061234Y-103829803D02*
X232332168Y-104642603D01*
X232603101Y-104642603D02*
X232603101Y-103829803D01*
X232603101Y-103829803D02*
X232796625Y-103829803D01*
X232796625Y-103829803D02*
X232912739Y-103868508D01*
X232912739Y-103868508D02*
X232990149Y-103945918D01*
X232990149Y-103945918D02*
X233028854Y-104023327D01*
X233028854Y-104023327D02*
X233067558Y-104178146D01*
X233067558Y-104178146D02*
X233067558Y-104294260D01*
X233067558Y-104294260D02*
X233028854Y-104449079D01*
X233028854Y-104449079D02*
X232990149Y-104526489D01*
X232990149Y-104526489D02*
X232912739Y-104603899D01*
X232912739Y-104603899D02*
X232796625Y-104642603D01*
X232796625Y-104642603D02*
X232603101Y-104642603D01*
X233377197Y-104410375D02*
X233764244Y-104410375D01*
X233299787Y-104642603D02*
X233570720Y-103829803D01*
X233570720Y-103829803D02*
X233841654Y-104642603D01*
X233996473Y-103829803D02*
X234267406Y-104642603D01*
X234267406Y-104642603D02*
X234538340Y-103829803D01*
G36*
X232980260Y-47409623D02*
G01*
X233041162Y-47423777D01*
X233082342Y-47443974D01*
X233102636Y-47461575D01*
X233118301Y-47483476D01*
X233129549Y-47510414D01*
X233136474Y-47554850D01*
X233131417Y-47606749D01*
X233116641Y-47655935D01*
X233094996Y-47696883D01*
X233066576Y-47730889D01*
X233030850Y-47758754D01*
X232990835Y-47779120D01*
X232941813Y-47794742D01*
X232882062Y-47804919D01*
X232809603Y-47808598D01*
X232571759Y-47808598D01*
X232526092Y-48028196D01*
X232524817Y-48045403D01*
X232528235Y-48056278D01*
X232536749Y-48064462D01*
X232555273Y-48072984D01*
X232550272Y-48097000D01*
X232308526Y-48097000D01*
X232313582Y-48072710D01*
X232334371Y-48065470D01*
X232346885Y-48057102D01*
X232355468Y-48045477D01*
X232361173Y-48028746D01*
X232433276Y-47681982D01*
X232598082Y-47681982D01*
X232825594Y-47681982D01*
X232883796Y-47678345D01*
X232915280Y-47669947D01*
X232937749Y-47655351D01*
X232953791Y-47634525D01*
X232963860Y-47605980D01*
X232965513Y-47576679D01*
X232958053Y-47556647D01*
X232942208Y-47542727D01*
X232915634Y-47534539D01*
X232857743Y-47530747D01*
X232629516Y-47530747D01*
X232598082Y-47681982D01*
X232433276Y-47681982D01*
X232477017Y-47471616D01*
X232478214Y-47454779D01*
X232474709Y-47444358D01*
X232466191Y-47436497D01*
X232447561Y-47428147D01*
X232452562Y-47404131D01*
X232892969Y-47404131D01*
X232980260Y-47409623D01*
G37*
G36*
X233912267Y-47468923D02*
G01*
X233795599Y-47632688D01*
X233780266Y-47623126D01*
X233780950Y-47604139D01*
X233774991Y-47591527D01*
X233754875Y-47573496D01*
X233725810Y-47556347D01*
X233685415Y-47540364D01*
X233622031Y-47525290D01*
X233554952Y-47520196D01*
X233498421Y-47524426D01*
X233448615Y-47536572D01*
X233406127Y-47556549D01*
X233381783Y-47579018D01*
X233370470Y-47604221D01*
X233370336Y-47621551D01*
X233377313Y-47634610D01*
X233392452Y-47644888D01*
X233427929Y-47654543D01*
X233508076Y-47664342D01*
X233601664Y-47671651D01*
X233683235Y-47682957D01*
X233741435Y-47700019D01*
X233781695Y-47721110D01*
X233809479Y-47747050D01*
X233829561Y-47780736D01*
X233839244Y-47812317D01*
X233842090Y-47846956D01*
X233837584Y-47885589D01*
X233821600Y-47935085D01*
X233795614Y-47978864D01*
X233758854Y-48017887D01*
X233709650Y-48052541D01*
X233658644Y-48077138D01*
X233600356Y-48095439D01*
X233533669Y-48106999D01*
X233457298Y-48111068D01*
X233381573Y-48106775D01*
X233309879Y-48094120D01*
X233241632Y-48073265D01*
X233176315Y-48044133D01*
X233161862Y-48039957D01*
X233151014Y-48043197D01*
X233136912Y-48055344D01*
X233120206Y-48047705D01*
X233226379Y-47875312D01*
X233242865Y-47882676D01*
X233241491Y-47889051D01*
X233241508Y-47903168D01*
X233247536Y-47914550D01*
X233265561Y-47929589D01*
X233295309Y-47945195D01*
X233341069Y-47961097D01*
X233411193Y-47975980D01*
X233482522Y-47980935D01*
X233544427Y-47976592D01*
X233599740Y-47964064D01*
X233640054Y-47946130D01*
X233663639Y-47924455D01*
X233674973Y-47898778D01*
X233674749Y-47877698D01*
X233664964Y-47861820D01*
X233643429Y-47849374D01*
X233610830Y-47841511D01*
X233543247Y-47833162D01*
X233450429Y-47825194D01*
X233379939Y-47817459D01*
X233336728Y-47809147D01*
X233300479Y-47796515D01*
X233271881Y-47779966D01*
X233243433Y-47750761D01*
X233225060Y-47712097D01*
X233218008Y-47668050D01*
X233222697Y-47618290D01*
X233239809Y-47564733D01*
X233266956Y-47518575D01*
X233304679Y-47478625D01*
X233354478Y-47444358D01*
X233421891Y-47414660D01*
X233496775Y-47396388D01*
X233580616Y-47390063D01*
X233648160Y-47394200D01*
X233706737Y-47405945D01*
X233764885Y-47426491D01*
X233838408Y-47461669D01*
X233859051Y-47471019D01*
X233869458Y-47473209D01*
X233879166Y-47470524D01*
X233896825Y-47459196D01*
X233912267Y-47468923D01*
G37*
G36*
X234362621Y-47791836D02*
G01*
X234313326Y-48028746D01*
X234312050Y-48045695D01*
X234315470Y-48056443D01*
X234324037Y-48064560D01*
X234342672Y-48072984D01*
X234337671Y-48097000D01*
X234095926Y-48097000D01*
X234100982Y-48072710D01*
X234122420Y-48064998D01*
X234134669Y-48056773D01*
X234142982Y-48045314D01*
X234148792Y-48027976D01*
X234197977Y-47791287D01*
X234056194Y-47515030D01*
X234032211Y-47472822D01*
X234016022Y-47451612D01*
X233997430Y-47437574D01*
X233972113Y-47428311D01*
X233977169Y-47404131D01*
X234283816Y-47404131D01*
X234278760Y-47428421D01*
X234253277Y-47438058D01*
X234238865Y-47450006D01*
X234232213Y-47464252D01*
X234233980Y-47479734D01*
X234249304Y-47516459D01*
X234317778Y-47650713D01*
X234440052Y-47516074D01*
X234471171Y-47478196D01*
X234479125Y-47462933D01*
X234478226Y-47449369D01*
X234469092Y-47438083D01*
X234447855Y-47428202D01*
X234452197Y-47404131D01*
X234744501Y-47404131D01*
X234739445Y-47428476D01*
X234711125Y-47437468D01*
X234686194Y-47451777D01*
X234660957Y-47473217D01*
X234619424Y-47515415D01*
X234362621Y-47791836D01*
G37*
X226755082Y-45407213D02*
X226793786Y-45368508D01*
X226793786Y-45368508D02*
X226871196Y-45329803D01*
X226871196Y-45329803D02*
X227064720Y-45329803D01*
X227064720Y-45329803D02*
X227142129Y-45368508D01*
X227142129Y-45368508D02*
X227180834Y-45407213D01*
X227180834Y-45407213D02*
X227219539Y-45484622D01*
X227219539Y-45484622D02*
X227219539Y-45562032D01*
X227219539Y-45562032D02*
X227180834Y-45678146D01*
X227180834Y-45678146D02*
X226716377Y-46142603D01*
X226716377Y-46142603D02*
X227219539Y-46142603D01*
X227722700Y-45329803D02*
X227800110Y-45329803D01*
X227800110Y-45329803D02*
X227877519Y-45368508D01*
X227877519Y-45368508D02*
X227916224Y-45407213D01*
X227916224Y-45407213D02*
X227954929Y-45484622D01*
X227954929Y-45484622D02*
X227993634Y-45639441D01*
X227993634Y-45639441D02*
X227993634Y-45832965D01*
X227993634Y-45832965D02*
X227954929Y-45987784D01*
X227954929Y-45987784D02*
X227916224Y-46065194D01*
X227916224Y-46065194D02*
X227877519Y-46103899D01*
X227877519Y-46103899D02*
X227800110Y-46142603D01*
X227800110Y-46142603D02*
X227722700Y-46142603D01*
X227722700Y-46142603D02*
X227645291Y-46103899D01*
X227645291Y-46103899D02*
X227606586Y-46065194D01*
X227606586Y-46065194D02*
X227567881Y-45987784D01*
X227567881Y-45987784D02*
X227529177Y-45832965D01*
X227529177Y-45832965D02*
X227529177Y-45639441D01*
X227529177Y-45639441D02*
X227567881Y-45484622D01*
X227567881Y-45484622D02*
X227606586Y-45407213D01*
X227606586Y-45407213D02*
X227645291Y-45368508D01*
X227645291Y-45368508D02*
X227722700Y-45329803D01*
X228225862Y-45329803D02*
X228496795Y-46142603D01*
X228496795Y-46142603D02*
X228767729Y-45329803D01*
X229077367Y-46103899D02*
X229077367Y-46142603D01*
X229077367Y-46142603D02*
X229038662Y-46220013D01*
X229038662Y-46220013D02*
X228999958Y-46258718D01*
X230432034Y-45329803D02*
X230044986Y-45329803D01*
X230044986Y-45329803D02*
X230006282Y-45716851D01*
X230006282Y-45716851D02*
X230044986Y-45678146D01*
X230044986Y-45678146D02*
X230122396Y-45639441D01*
X230122396Y-45639441D02*
X230315920Y-45639441D01*
X230315920Y-45639441D02*
X230393329Y-45678146D01*
X230393329Y-45678146D02*
X230432034Y-45716851D01*
X230432034Y-45716851D02*
X230470739Y-45794260D01*
X230470739Y-45794260D02*
X230470739Y-45987784D01*
X230470739Y-45987784D02*
X230432034Y-46065194D01*
X230432034Y-46065194D02*
X230393329Y-46103899D01*
X230393329Y-46103899D02*
X230315920Y-46142603D01*
X230315920Y-46142603D02*
X230122396Y-46142603D01*
X230122396Y-46142603D02*
X230044986Y-46103899D01*
X230044986Y-46103899D02*
X230006282Y-46065194D01*
X230780377Y-45910375D02*
X231167424Y-45910375D01*
X230702967Y-46142603D02*
X230973900Y-45329803D01*
X230973900Y-45329803D02*
X231244834Y-46142603D01*
X231747996Y-46452241D02*
X231709291Y-46413537D01*
X231709291Y-46413537D02*
X231631882Y-46297422D01*
X231631882Y-46297422D02*
X231593177Y-46220013D01*
X231593177Y-46220013D02*
X231554472Y-46103899D01*
X231554472Y-46103899D02*
X231515767Y-45910375D01*
X231515767Y-45910375D02*
X231515767Y-45755556D01*
X231515767Y-45755556D02*
X231554472Y-45562032D01*
X231554472Y-45562032D02*
X231593177Y-45445918D01*
X231593177Y-45445918D02*
X231631882Y-45368508D01*
X231631882Y-45368508D02*
X231709291Y-45252394D01*
X231709291Y-45252394D02*
X231747996Y-45213689D01*
X232057634Y-46142603D02*
X232057634Y-45329803D01*
X232057634Y-45329803D02*
X232328568Y-45910375D01*
X232328568Y-45910375D02*
X232599501Y-45329803D01*
X232599501Y-45329803D02*
X232599501Y-46142603D01*
X232947844Y-45910375D02*
X233334891Y-45910375D01*
X232870434Y-46142603D02*
X233141367Y-45329803D01*
X233141367Y-45329803D02*
X233412301Y-46142603D01*
X233605825Y-45329803D02*
X234147691Y-46142603D01*
X234147691Y-45329803D02*
X233605825Y-46142603D01*
X234379920Y-46452241D02*
X234418625Y-46413537D01*
X234418625Y-46413537D02*
X234496034Y-46297422D01*
X234496034Y-46297422D02*
X234534739Y-46220013D01*
X234534739Y-46220013D02*
X234573444Y-46103899D01*
X234573444Y-46103899D02*
X234612148Y-45910375D01*
X234612148Y-45910375D02*
X234612148Y-45755556D01*
X234612148Y-45755556D02*
X234573444Y-45562032D01*
X234573444Y-45562032D02*
X234534739Y-45445918D01*
X234534739Y-45445918D02*
X234496034Y-45368508D01*
X234496034Y-45368508D02*
X234418625Y-45252394D01*
X234418625Y-45252394D02*
X234379920Y-45213689D01*
X218543786Y-43079803D02*
X218543786Y-43737784D01*
X218543786Y-43737784D02*
X218582491Y-43815194D01*
X218582491Y-43815194D02*
X218621196Y-43853899D01*
X218621196Y-43853899D02*
X218698605Y-43892603D01*
X218698605Y-43892603D02*
X218853424Y-43892603D01*
X218853424Y-43892603D02*
X218930834Y-43853899D01*
X218930834Y-43853899D02*
X218969539Y-43815194D01*
X218969539Y-43815194D02*
X219008243Y-43737784D01*
X219008243Y-43737784D02*
X219008243Y-43079803D01*
X219356587Y-43853899D02*
X219472701Y-43892603D01*
X219472701Y-43892603D02*
X219666225Y-43892603D01*
X219666225Y-43892603D02*
X219743634Y-43853899D01*
X219743634Y-43853899D02*
X219782339Y-43815194D01*
X219782339Y-43815194D02*
X219821044Y-43737784D01*
X219821044Y-43737784D02*
X219821044Y-43660375D01*
X219821044Y-43660375D02*
X219782339Y-43582965D01*
X219782339Y-43582965D02*
X219743634Y-43544260D01*
X219743634Y-43544260D02*
X219666225Y-43505556D01*
X219666225Y-43505556D02*
X219511406Y-43466851D01*
X219511406Y-43466851D02*
X219433996Y-43428146D01*
X219433996Y-43428146D02*
X219395291Y-43389441D01*
X219395291Y-43389441D02*
X219356587Y-43312032D01*
X219356587Y-43312032D02*
X219356587Y-43234622D01*
X219356587Y-43234622D02*
X219395291Y-43157213D01*
X219395291Y-43157213D02*
X219433996Y-43118508D01*
X219433996Y-43118508D02*
X219511406Y-43079803D01*
X219511406Y-43079803D02*
X219704929Y-43079803D01*
X219704929Y-43079803D02*
X219821044Y-43118508D01*
X220440320Y-43466851D02*
X220556434Y-43505556D01*
X220556434Y-43505556D02*
X220595139Y-43544260D01*
X220595139Y-43544260D02*
X220633843Y-43621670D01*
X220633843Y-43621670D02*
X220633843Y-43737784D01*
X220633843Y-43737784D02*
X220595139Y-43815194D01*
X220595139Y-43815194D02*
X220556434Y-43853899D01*
X220556434Y-43853899D02*
X220479024Y-43892603D01*
X220479024Y-43892603D02*
X220169386Y-43892603D01*
X220169386Y-43892603D02*
X220169386Y-43079803D01*
X220169386Y-43079803D02*
X220440320Y-43079803D01*
X220440320Y-43079803D02*
X220517729Y-43118508D01*
X220517729Y-43118508D02*
X220556434Y-43157213D01*
X220556434Y-43157213D02*
X220595139Y-43234622D01*
X220595139Y-43234622D02*
X220595139Y-43312032D01*
X220595139Y-43312032D02*
X220556434Y-43389441D01*
X220556434Y-43389441D02*
X220517729Y-43428146D01*
X220517729Y-43428146D02*
X220440320Y-43466851D01*
X220440320Y-43466851D02*
X220169386Y-43466851D01*
X220982186Y-43582965D02*
X221601463Y-43582965D01*
X222452967Y-43815194D02*
X222414263Y-43853899D01*
X222414263Y-43853899D02*
X222298148Y-43892603D01*
X222298148Y-43892603D02*
X222220739Y-43892603D01*
X222220739Y-43892603D02*
X222104625Y-43853899D01*
X222104625Y-43853899D02*
X222027215Y-43776489D01*
X222027215Y-43776489D02*
X221988510Y-43699079D01*
X221988510Y-43699079D02*
X221949806Y-43544260D01*
X221949806Y-43544260D02*
X221949806Y-43428146D01*
X221949806Y-43428146D02*
X221988510Y-43273327D01*
X221988510Y-43273327D02*
X222027215Y-43195918D01*
X222027215Y-43195918D02*
X222104625Y-43118508D01*
X222104625Y-43118508D02*
X222220739Y-43079803D01*
X222220739Y-43079803D02*
X222298148Y-43079803D01*
X222298148Y-43079803D02*
X222414263Y-43118508D01*
X222414263Y-43118508D02*
X222452967Y-43157213D01*
X223885043Y-43815194D02*
X223846339Y-43853899D01*
X223846339Y-43853899D02*
X223730224Y-43892603D01*
X223730224Y-43892603D02*
X223652815Y-43892603D01*
X223652815Y-43892603D02*
X223536701Y-43853899D01*
X223536701Y-43853899D02*
X223459291Y-43776489D01*
X223459291Y-43776489D02*
X223420586Y-43699079D01*
X223420586Y-43699079D02*
X223381882Y-43544260D01*
X223381882Y-43544260D02*
X223381882Y-43428146D01*
X223381882Y-43428146D02*
X223420586Y-43273327D01*
X223420586Y-43273327D02*
X223459291Y-43195918D01*
X223459291Y-43195918D02*
X223536701Y-43118508D01*
X223536701Y-43118508D02*
X223652815Y-43079803D01*
X223652815Y-43079803D02*
X223730224Y-43079803D01*
X223730224Y-43079803D02*
X223846339Y-43118508D01*
X223846339Y-43118508D02*
X223885043Y-43157213D01*
X224117272Y-43079803D02*
X224388205Y-43892603D01*
X224388205Y-43892603D02*
X224659139Y-43079803D01*
X225549348Y-43892603D02*
X225549348Y-43079803D01*
X225549348Y-43079803D02*
X225858986Y-43079803D01*
X225858986Y-43079803D02*
X225936396Y-43118508D01*
X225936396Y-43118508D02*
X225975101Y-43157213D01*
X225975101Y-43157213D02*
X226013805Y-43234622D01*
X226013805Y-43234622D02*
X226013805Y-43350737D01*
X226013805Y-43350737D02*
X225975101Y-43428146D01*
X225975101Y-43428146D02*
X225936396Y-43466851D01*
X225936396Y-43466851D02*
X225858986Y-43505556D01*
X225858986Y-43505556D02*
X225549348Y-43505556D01*
X226516967Y-43079803D02*
X226671786Y-43079803D01*
X226671786Y-43079803D02*
X226749196Y-43118508D01*
X226749196Y-43118508D02*
X226826605Y-43195918D01*
X226826605Y-43195918D02*
X226865310Y-43350737D01*
X226865310Y-43350737D02*
X226865310Y-43621670D01*
X226865310Y-43621670D02*
X226826605Y-43776489D01*
X226826605Y-43776489D02*
X226749196Y-43853899D01*
X226749196Y-43853899D02*
X226671786Y-43892603D01*
X226671786Y-43892603D02*
X226516967Y-43892603D01*
X226516967Y-43892603D02*
X226439558Y-43853899D01*
X226439558Y-43853899D02*
X226362148Y-43776489D01*
X226362148Y-43776489D02*
X226323444Y-43621670D01*
X226323444Y-43621670D02*
X226323444Y-43350737D01*
X226323444Y-43350737D02*
X226362148Y-43195918D01*
X226362148Y-43195918D02*
X226439558Y-43118508D01*
X226439558Y-43118508D02*
X226516967Y-43079803D01*
X227136244Y-43079803D02*
X227329768Y-43892603D01*
X227329768Y-43892603D02*
X227484587Y-43312032D01*
X227484587Y-43312032D02*
X227639406Y-43892603D01*
X227639406Y-43892603D02*
X227832930Y-43079803D01*
X228142567Y-43466851D02*
X228413501Y-43466851D01*
X228529615Y-43892603D02*
X228142567Y-43892603D01*
X228142567Y-43892603D02*
X228142567Y-43079803D01*
X228142567Y-43079803D02*
X228529615Y-43079803D01*
X229342414Y-43892603D02*
X229071481Y-43505556D01*
X228877957Y-43892603D02*
X228877957Y-43079803D01*
X228877957Y-43079803D02*
X229187595Y-43079803D01*
X229187595Y-43079803D02*
X229265005Y-43118508D01*
X229265005Y-43118508D02*
X229303710Y-43157213D01*
X229303710Y-43157213D02*
X229342414Y-43234622D01*
X229342414Y-43234622D02*
X229342414Y-43350737D01*
X229342414Y-43350737D02*
X229303710Y-43428146D01*
X229303710Y-43428146D02*
X229265005Y-43466851D01*
X229265005Y-43466851D02*
X229187595Y-43505556D01*
X229187595Y-43505556D02*
X228877957Y-43505556D01*
X230271329Y-43853899D02*
X230387443Y-43892603D01*
X230387443Y-43892603D02*
X230580967Y-43892603D01*
X230580967Y-43892603D02*
X230658376Y-43853899D01*
X230658376Y-43853899D02*
X230697081Y-43815194D01*
X230697081Y-43815194D02*
X230735786Y-43737784D01*
X230735786Y-43737784D02*
X230735786Y-43660375D01*
X230735786Y-43660375D02*
X230697081Y-43582965D01*
X230697081Y-43582965D02*
X230658376Y-43544260D01*
X230658376Y-43544260D02*
X230580967Y-43505556D01*
X230580967Y-43505556D02*
X230426148Y-43466851D01*
X230426148Y-43466851D02*
X230348738Y-43428146D01*
X230348738Y-43428146D02*
X230310033Y-43389441D01*
X230310033Y-43389441D02*
X230271329Y-43312032D01*
X230271329Y-43312032D02*
X230271329Y-43234622D01*
X230271329Y-43234622D02*
X230310033Y-43157213D01*
X230310033Y-43157213D02*
X230348738Y-43118508D01*
X230348738Y-43118508D02*
X230426148Y-43079803D01*
X230426148Y-43079803D02*
X230619671Y-43079803D01*
X230619671Y-43079803D02*
X230735786Y-43118508D01*
X231084128Y-43079803D02*
X231084128Y-43737784D01*
X231084128Y-43737784D02*
X231122833Y-43815194D01*
X231122833Y-43815194D02*
X231161538Y-43853899D01*
X231161538Y-43853899D02*
X231238947Y-43892603D01*
X231238947Y-43892603D02*
X231393766Y-43892603D01*
X231393766Y-43892603D02*
X231471176Y-43853899D01*
X231471176Y-43853899D02*
X231509881Y-43815194D01*
X231509881Y-43815194D02*
X231548585Y-43737784D01*
X231548585Y-43737784D02*
X231548585Y-43079803D01*
X231935633Y-43892603D02*
X231935633Y-43079803D01*
X231935633Y-43079803D02*
X232245271Y-43079803D01*
X232245271Y-43079803D02*
X232322681Y-43118508D01*
X232322681Y-43118508D02*
X232361386Y-43157213D01*
X232361386Y-43157213D02*
X232400090Y-43234622D01*
X232400090Y-43234622D02*
X232400090Y-43350737D01*
X232400090Y-43350737D02*
X232361386Y-43428146D01*
X232361386Y-43428146D02*
X232322681Y-43466851D01*
X232322681Y-43466851D02*
X232245271Y-43505556D01*
X232245271Y-43505556D02*
X231935633Y-43505556D01*
X232748433Y-43892603D02*
X232748433Y-43079803D01*
X232748433Y-43079803D02*
X233058071Y-43079803D01*
X233058071Y-43079803D02*
X233135481Y-43118508D01*
X233135481Y-43118508D02*
X233174186Y-43157213D01*
X233174186Y-43157213D02*
X233212890Y-43234622D01*
X233212890Y-43234622D02*
X233212890Y-43350737D01*
X233212890Y-43350737D02*
X233174186Y-43428146D01*
X233174186Y-43428146D02*
X233135481Y-43466851D01*
X233135481Y-43466851D02*
X233058071Y-43505556D01*
X233058071Y-43505556D02*
X232748433Y-43505556D01*
X233948281Y-43892603D02*
X233561233Y-43892603D01*
X233561233Y-43892603D02*
X233561233Y-43079803D01*
X234374033Y-43505556D02*
X234374033Y-43892603D01*
X234103100Y-43079803D02*
X234374033Y-43505556D01*
X234374033Y-43505556D02*
X234644967Y-43079803D01*
D11*
X172158333Y-71884819D02*
X171825000Y-71408628D01*
X171586905Y-71884819D02*
X171586905Y-70884819D01*
X171586905Y-70884819D02*
X171967857Y-70884819D01*
X171967857Y-70884819D02*
X172063095Y-70932438D01*
X172063095Y-70932438D02*
X172110714Y-70980057D01*
X172110714Y-70980057D02*
X172158333Y-71075295D01*
X172158333Y-71075295D02*
X172158333Y-71218152D01*
X172158333Y-71218152D02*
X172110714Y-71313390D01*
X172110714Y-71313390D02*
X172063095Y-71361009D01*
X172063095Y-71361009D02*
X171967857Y-71408628D01*
X171967857Y-71408628D02*
X171586905Y-71408628D01*
X172539286Y-70980057D02*
X172586905Y-70932438D01*
X172586905Y-70932438D02*
X172682143Y-70884819D01*
X172682143Y-70884819D02*
X172920238Y-70884819D01*
X172920238Y-70884819D02*
X173015476Y-70932438D01*
X173015476Y-70932438D02*
X173063095Y-70980057D01*
X173063095Y-70980057D02*
X173110714Y-71075295D01*
X173110714Y-71075295D02*
X173110714Y-71170533D01*
X173110714Y-71170533D02*
X173063095Y-71313390D01*
X173063095Y-71313390D02*
X172491667Y-71884819D01*
X172491667Y-71884819D02*
X173110714Y-71884819D01*
X185357142Y-82859580D02*
X185309523Y-82907200D01*
X185309523Y-82907200D02*
X185166666Y-82954819D01*
X185166666Y-82954819D02*
X185071428Y-82954819D01*
X185071428Y-82954819D02*
X184928571Y-82907200D01*
X184928571Y-82907200D02*
X184833333Y-82811961D01*
X184833333Y-82811961D02*
X184785714Y-82716723D01*
X184785714Y-82716723D02*
X184738095Y-82526247D01*
X184738095Y-82526247D02*
X184738095Y-82383390D01*
X184738095Y-82383390D02*
X184785714Y-82192914D01*
X184785714Y-82192914D02*
X184833333Y-82097676D01*
X184833333Y-82097676D02*
X184928571Y-82002438D01*
X184928571Y-82002438D02*
X185071428Y-81954819D01*
X185071428Y-81954819D02*
X185166666Y-81954819D01*
X185166666Y-81954819D02*
X185309523Y-82002438D01*
X185309523Y-82002438D02*
X185357142Y-82050057D01*
X186309523Y-82954819D02*
X185738095Y-82954819D01*
X186023809Y-82954819D02*
X186023809Y-81954819D01*
X186023809Y-81954819D02*
X185928571Y-82097676D01*
X185928571Y-82097676D02*
X185833333Y-82192914D01*
X185833333Y-82192914D02*
X185738095Y-82240533D01*
X186928571Y-81954819D02*
X187023809Y-81954819D01*
X187023809Y-81954819D02*
X187119047Y-82002438D01*
X187119047Y-82002438D02*
X187166666Y-82050057D01*
X187166666Y-82050057D02*
X187214285Y-82145295D01*
X187214285Y-82145295D02*
X187261904Y-82335771D01*
X187261904Y-82335771D02*
X187261904Y-82573866D01*
X187261904Y-82573866D02*
X187214285Y-82764342D01*
X187214285Y-82764342D02*
X187166666Y-82859580D01*
X187166666Y-82859580D02*
X187119047Y-82907200D01*
X187119047Y-82907200D02*
X187023809Y-82954819D01*
X187023809Y-82954819D02*
X186928571Y-82954819D01*
X186928571Y-82954819D02*
X186833333Y-82907200D01*
X186833333Y-82907200D02*
X186785714Y-82859580D01*
X186785714Y-82859580D02*
X186738095Y-82764342D01*
X186738095Y-82764342D02*
X186690476Y-82573866D01*
X186690476Y-82573866D02*
X186690476Y-82335771D01*
X186690476Y-82335771D02*
X186738095Y-82145295D01*
X186738095Y-82145295D02*
X186785714Y-82050057D01*
X186785714Y-82050057D02*
X186833333Y-82002438D01*
X186833333Y-82002438D02*
X186928571Y-81954819D01*
X178611905Y-95454819D02*
X178611905Y-94454819D01*
X178611905Y-94454819D02*
X178850000Y-94454819D01*
X178850000Y-94454819D02*
X178992857Y-94502438D01*
X178992857Y-94502438D02*
X179088095Y-94597676D01*
X179088095Y-94597676D02*
X179135714Y-94692914D01*
X179135714Y-94692914D02*
X179183333Y-94883390D01*
X179183333Y-94883390D02*
X179183333Y-95026247D01*
X179183333Y-95026247D02*
X179135714Y-95216723D01*
X179135714Y-95216723D02*
X179088095Y-95311961D01*
X179088095Y-95311961D02*
X178992857Y-95407200D01*
X178992857Y-95407200D02*
X178850000Y-95454819D01*
X178850000Y-95454819D02*
X178611905Y-95454819D01*
X179516667Y-94454819D02*
X180135714Y-94454819D01*
X180135714Y-94454819D02*
X179802381Y-94835771D01*
X179802381Y-94835771D02*
X179945238Y-94835771D01*
X179945238Y-94835771D02*
X180040476Y-94883390D01*
X180040476Y-94883390D02*
X180088095Y-94931009D01*
X180088095Y-94931009D02*
X180135714Y-95026247D01*
X180135714Y-95026247D02*
X180135714Y-95264342D01*
X180135714Y-95264342D02*
X180088095Y-95359580D01*
X180088095Y-95359580D02*
X180040476Y-95407200D01*
X180040476Y-95407200D02*
X179945238Y-95454819D01*
X179945238Y-95454819D02*
X179659524Y-95454819D01*
X179659524Y-95454819D02*
X179564286Y-95407200D01*
X179564286Y-95407200D02*
X179516667Y-95359580D01*
X173884819Y-103004166D02*
X173408628Y-103337499D01*
X173884819Y-103575594D02*
X172884819Y-103575594D01*
X172884819Y-103575594D02*
X172884819Y-103194642D01*
X172884819Y-103194642D02*
X172932438Y-103099404D01*
X172932438Y-103099404D02*
X172980057Y-103051785D01*
X172980057Y-103051785D02*
X173075295Y-103004166D01*
X173075295Y-103004166D02*
X173218152Y-103004166D01*
X173218152Y-103004166D02*
X173313390Y-103051785D01*
X173313390Y-103051785D02*
X173361009Y-103099404D01*
X173361009Y-103099404D02*
X173408628Y-103194642D01*
X173408628Y-103194642D02*
X173408628Y-103575594D01*
X172884819Y-102670832D02*
X172884819Y-102004166D01*
X172884819Y-102004166D02*
X173884819Y-102432737D01*
X181052319Y-55778094D02*
X180052319Y-55778094D01*
X180052319Y-55778094D02*
X180052319Y-55539999D01*
X180052319Y-55539999D02*
X180099938Y-55397142D01*
X180099938Y-55397142D02*
X180195176Y-55301904D01*
X180195176Y-55301904D02*
X180290414Y-55254285D01*
X180290414Y-55254285D02*
X180480890Y-55206666D01*
X180480890Y-55206666D02*
X180623747Y-55206666D01*
X180623747Y-55206666D02*
X180814223Y-55254285D01*
X180814223Y-55254285D02*
X180909461Y-55301904D01*
X180909461Y-55301904D02*
X181004700Y-55397142D01*
X181004700Y-55397142D02*
X181052319Y-55539999D01*
X181052319Y-55539999D02*
X181052319Y-55778094D01*
X181052319Y-54254285D02*
X181052319Y-54825713D01*
X181052319Y-54539999D02*
X180052319Y-54539999D01*
X180052319Y-54539999D02*
X180195176Y-54635237D01*
X180195176Y-54635237D02*
X180290414Y-54730475D01*
X180290414Y-54730475D02*
X180338033Y-54825713D01*
X223191667Y-72707200D02*
X223334524Y-72754819D01*
X223334524Y-72754819D02*
X223572619Y-72754819D01*
X223572619Y-72754819D02*
X223667857Y-72707200D01*
X223667857Y-72707200D02*
X223715476Y-72659580D01*
X223715476Y-72659580D02*
X223763095Y-72564342D01*
X223763095Y-72564342D02*
X223763095Y-72469104D01*
X223763095Y-72469104D02*
X223715476Y-72373866D01*
X223715476Y-72373866D02*
X223667857Y-72326247D01*
X223667857Y-72326247D02*
X223572619Y-72278628D01*
X223572619Y-72278628D02*
X223382143Y-72231009D01*
X223382143Y-72231009D02*
X223286905Y-72183390D01*
X223286905Y-72183390D02*
X223239286Y-72135771D01*
X223239286Y-72135771D02*
X223191667Y-72040533D01*
X223191667Y-72040533D02*
X223191667Y-71945295D01*
X223191667Y-71945295D02*
X223239286Y-71850057D01*
X223239286Y-71850057D02*
X223286905Y-71802438D01*
X223286905Y-71802438D02*
X223382143Y-71754819D01*
X223382143Y-71754819D02*
X223620238Y-71754819D01*
X223620238Y-71754819D02*
X223763095Y-71802438D01*
X224096429Y-71754819D02*
X224334524Y-72754819D01*
X224334524Y-72754819D02*
X224525000Y-72040533D01*
X224525000Y-72040533D02*
X224715476Y-72754819D01*
X224715476Y-72754819D02*
X224953572Y-71754819D01*
X225286905Y-71850057D02*
X225334524Y-71802438D01*
X225334524Y-71802438D02*
X225429762Y-71754819D01*
X225429762Y-71754819D02*
X225667857Y-71754819D01*
X225667857Y-71754819D02*
X225763095Y-71802438D01*
X225763095Y-71802438D02*
X225810714Y-71850057D01*
X225810714Y-71850057D02*
X225858333Y-71945295D01*
X225858333Y-71945295D02*
X225858333Y-72040533D01*
X225858333Y-72040533D02*
X225810714Y-72183390D01*
X225810714Y-72183390D02*
X225239286Y-72754819D01*
X225239286Y-72754819D02*
X225858333Y-72754819D01*
X182225833Y-102299819D02*
X181892500Y-101823628D01*
X181654405Y-102299819D02*
X181654405Y-101299819D01*
X181654405Y-101299819D02*
X182035357Y-101299819D01*
X182035357Y-101299819D02*
X182130595Y-101347438D01*
X182130595Y-101347438D02*
X182178214Y-101395057D01*
X182178214Y-101395057D02*
X182225833Y-101490295D01*
X182225833Y-101490295D02*
X182225833Y-101633152D01*
X182225833Y-101633152D02*
X182178214Y-101728390D01*
X182178214Y-101728390D02*
X182130595Y-101776009D01*
X182130595Y-101776009D02*
X182035357Y-101823628D01*
X182035357Y-101823628D02*
X181654405Y-101823628D01*
X182797262Y-101728390D02*
X182702024Y-101680771D01*
X182702024Y-101680771D02*
X182654405Y-101633152D01*
X182654405Y-101633152D02*
X182606786Y-101537914D01*
X182606786Y-101537914D02*
X182606786Y-101490295D01*
X182606786Y-101490295D02*
X182654405Y-101395057D01*
X182654405Y-101395057D02*
X182702024Y-101347438D01*
X182702024Y-101347438D02*
X182797262Y-101299819D01*
X182797262Y-101299819D02*
X182987738Y-101299819D01*
X182987738Y-101299819D02*
X183082976Y-101347438D01*
X183082976Y-101347438D02*
X183130595Y-101395057D01*
X183130595Y-101395057D02*
X183178214Y-101490295D01*
X183178214Y-101490295D02*
X183178214Y-101537914D01*
X183178214Y-101537914D02*
X183130595Y-101633152D01*
X183130595Y-101633152D02*
X183082976Y-101680771D01*
X183082976Y-101680771D02*
X182987738Y-101728390D01*
X182987738Y-101728390D02*
X182797262Y-101728390D01*
X182797262Y-101728390D02*
X182702024Y-101776009D01*
X182702024Y-101776009D02*
X182654405Y-101823628D01*
X182654405Y-101823628D02*
X182606786Y-101918866D01*
X182606786Y-101918866D02*
X182606786Y-102109342D01*
X182606786Y-102109342D02*
X182654405Y-102204580D01*
X182654405Y-102204580D02*
X182702024Y-102252200D01*
X182702024Y-102252200D02*
X182797262Y-102299819D01*
X182797262Y-102299819D02*
X182987738Y-102299819D01*
X182987738Y-102299819D02*
X183082976Y-102252200D01*
X183082976Y-102252200D02*
X183130595Y-102204580D01*
X183130595Y-102204580D02*
X183178214Y-102109342D01*
X183178214Y-102109342D02*
X183178214Y-101918866D01*
X183178214Y-101918866D02*
X183130595Y-101823628D01*
X183130595Y-101823628D02*
X183082976Y-101776009D01*
X183082976Y-101776009D02*
X182987738Y-101728390D01*
X213944642Y-49524819D02*
X213611309Y-49048628D01*
X213373214Y-49524819D02*
X213373214Y-48524819D01*
X213373214Y-48524819D02*
X213754166Y-48524819D01*
X213754166Y-48524819D02*
X213849404Y-48572438D01*
X213849404Y-48572438D02*
X213897023Y-48620057D01*
X213897023Y-48620057D02*
X213944642Y-48715295D01*
X213944642Y-48715295D02*
X213944642Y-48858152D01*
X213944642Y-48858152D02*
X213897023Y-48953390D01*
X213897023Y-48953390D02*
X213849404Y-49001009D01*
X213849404Y-49001009D02*
X213754166Y-49048628D01*
X213754166Y-49048628D02*
X213373214Y-49048628D01*
X214897023Y-49524819D02*
X214325595Y-49524819D01*
X214611309Y-49524819D02*
X214611309Y-48524819D01*
X214611309Y-48524819D02*
X214516071Y-48667676D01*
X214516071Y-48667676D02*
X214420833Y-48762914D01*
X214420833Y-48762914D02*
X214325595Y-48810533D01*
X215849404Y-49524819D02*
X215277976Y-49524819D01*
X215563690Y-49524819D02*
X215563690Y-48524819D01*
X215563690Y-48524819D02*
X215468452Y-48667676D01*
X215468452Y-48667676D02*
X215373214Y-48762914D01*
X215373214Y-48762914D02*
X215277976Y-48810533D01*
X185738095Y-86954819D02*
X186309523Y-86954819D01*
X186023809Y-87954819D02*
X186023809Y-86954819D01*
X186642857Y-87954819D02*
X186642857Y-86954819D01*
X186642857Y-86954819D02*
X187023809Y-86954819D01*
X187023809Y-86954819D02*
X187119047Y-87002438D01*
X187119047Y-87002438D02*
X187166666Y-87050057D01*
X187166666Y-87050057D02*
X187214285Y-87145295D01*
X187214285Y-87145295D02*
X187214285Y-87288152D01*
X187214285Y-87288152D02*
X187166666Y-87383390D01*
X187166666Y-87383390D02*
X187119047Y-87431009D01*
X187119047Y-87431009D02*
X187023809Y-87478628D01*
X187023809Y-87478628D02*
X186642857Y-87478628D01*
X187595238Y-87050057D02*
X187642857Y-87002438D01*
X187642857Y-87002438D02*
X187738095Y-86954819D01*
X187738095Y-86954819D02*
X187976190Y-86954819D01*
X187976190Y-86954819D02*
X188071428Y-87002438D01*
X188071428Y-87002438D02*
X188119047Y-87050057D01*
X188119047Y-87050057D02*
X188166666Y-87145295D01*
X188166666Y-87145295D02*
X188166666Y-87240533D01*
X188166666Y-87240533D02*
X188119047Y-87383390D01*
X188119047Y-87383390D02*
X187547619Y-87954819D01*
X187547619Y-87954819D02*
X188166666Y-87954819D01*
X207808333Y-80859580D02*
X207760714Y-80907200D01*
X207760714Y-80907200D02*
X207617857Y-80954819D01*
X207617857Y-80954819D02*
X207522619Y-80954819D01*
X207522619Y-80954819D02*
X207379762Y-80907200D01*
X207379762Y-80907200D02*
X207284524Y-80811961D01*
X207284524Y-80811961D02*
X207236905Y-80716723D01*
X207236905Y-80716723D02*
X207189286Y-80526247D01*
X207189286Y-80526247D02*
X207189286Y-80383390D01*
X207189286Y-80383390D02*
X207236905Y-80192914D01*
X207236905Y-80192914D02*
X207284524Y-80097676D01*
X207284524Y-80097676D02*
X207379762Y-80002438D01*
X207379762Y-80002438D02*
X207522619Y-79954819D01*
X207522619Y-79954819D02*
X207617857Y-79954819D01*
X207617857Y-79954819D02*
X207760714Y-80002438D01*
X207760714Y-80002438D02*
X207808333Y-80050057D01*
X208665476Y-80288152D02*
X208665476Y-80954819D01*
X208427381Y-79907200D02*
X208189286Y-80621485D01*
X208189286Y-80621485D02*
X208808333Y-80621485D01*
X194425833Y-65445830D02*
X194378214Y-65493450D01*
X194378214Y-65493450D02*
X194235357Y-65541069D01*
X194235357Y-65541069D02*
X194140119Y-65541069D01*
X194140119Y-65541069D02*
X193997262Y-65493450D01*
X193997262Y-65493450D02*
X193902024Y-65398211D01*
X193902024Y-65398211D02*
X193854405Y-65302973D01*
X193854405Y-65302973D02*
X193806786Y-65112497D01*
X193806786Y-65112497D02*
X193806786Y-64969640D01*
X193806786Y-64969640D02*
X193854405Y-64779164D01*
X193854405Y-64779164D02*
X193902024Y-64683926D01*
X193902024Y-64683926D02*
X193997262Y-64588688D01*
X193997262Y-64588688D02*
X194140119Y-64541069D01*
X194140119Y-64541069D02*
X194235357Y-64541069D01*
X194235357Y-64541069D02*
X194378214Y-64588688D01*
X194378214Y-64588688D02*
X194425833Y-64636307D01*
X194997262Y-64969640D02*
X194902024Y-64922021D01*
X194902024Y-64922021D02*
X194854405Y-64874402D01*
X194854405Y-64874402D02*
X194806786Y-64779164D01*
X194806786Y-64779164D02*
X194806786Y-64731545D01*
X194806786Y-64731545D02*
X194854405Y-64636307D01*
X194854405Y-64636307D02*
X194902024Y-64588688D01*
X194902024Y-64588688D02*
X194997262Y-64541069D01*
X194997262Y-64541069D02*
X195187738Y-64541069D01*
X195187738Y-64541069D02*
X195282976Y-64588688D01*
X195282976Y-64588688D02*
X195330595Y-64636307D01*
X195330595Y-64636307D02*
X195378214Y-64731545D01*
X195378214Y-64731545D02*
X195378214Y-64779164D01*
X195378214Y-64779164D02*
X195330595Y-64874402D01*
X195330595Y-64874402D02*
X195282976Y-64922021D01*
X195282976Y-64922021D02*
X195187738Y-64969640D01*
X195187738Y-64969640D02*
X194997262Y-64969640D01*
X194997262Y-64969640D02*
X194902024Y-65017259D01*
X194902024Y-65017259D02*
X194854405Y-65064878D01*
X194854405Y-65064878D02*
X194806786Y-65160116D01*
X194806786Y-65160116D02*
X194806786Y-65350592D01*
X194806786Y-65350592D02*
X194854405Y-65445830D01*
X194854405Y-65445830D02*
X194902024Y-65493450D01*
X194902024Y-65493450D02*
X194997262Y-65541069D01*
X194997262Y-65541069D02*
X195187738Y-65541069D01*
X195187738Y-65541069D02*
X195282976Y-65493450D01*
X195282976Y-65493450D02*
X195330595Y-65445830D01*
X195330595Y-65445830D02*
X195378214Y-65350592D01*
X195378214Y-65350592D02*
X195378214Y-65160116D01*
X195378214Y-65160116D02*
X195330595Y-65064878D01*
X195330595Y-65064878D02*
X195282976Y-65017259D01*
X195282976Y-65017259D02*
X195187738Y-64969640D01*
X200018333Y-55064819D02*
X199685000Y-54588628D01*
X199446905Y-55064819D02*
X199446905Y-54064819D01*
X199446905Y-54064819D02*
X199827857Y-54064819D01*
X199827857Y-54064819D02*
X199923095Y-54112438D01*
X199923095Y-54112438D02*
X199970714Y-54160057D01*
X199970714Y-54160057D02*
X200018333Y-54255295D01*
X200018333Y-54255295D02*
X200018333Y-54398152D01*
X200018333Y-54398152D02*
X199970714Y-54493390D01*
X199970714Y-54493390D02*
X199923095Y-54541009D01*
X199923095Y-54541009D02*
X199827857Y-54588628D01*
X199827857Y-54588628D02*
X199446905Y-54588628D01*
X200875476Y-54064819D02*
X200685000Y-54064819D01*
X200685000Y-54064819D02*
X200589762Y-54112438D01*
X200589762Y-54112438D02*
X200542143Y-54160057D01*
X200542143Y-54160057D02*
X200446905Y-54302914D01*
X200446905Y-54302914D02*
X200399286Y-54493390D01*
X200399286Y-54493390D02*
X200399286Y-54874342D01*
X200399286Y-54874342D02*
X200446905Y-54969580D01*
X200446905Y-54969580D02*
X200494524Y-55017200D01*
X200494524Y-55017200D02*
X200589762Y-55064819D01*
X200589762Y-55064819D02*
X200780238Y-55064819D01*
X200780238Y-55064819D02*
X200875476Y-55017200D01*
X200875476Y-55017200D02*
X200923095Y-54969580D01*
X200923095Y-54969580D02*
X200970714Y-54874342D01*
X200970714Y-54874342D02*
X200970714Y-54636247D01*
X200970714Y-54636247D02*
X200923095Y-54541009D01*
X200923095Y-54541009D02*
X200875476Y-54493390D01*
X200875476Y-54493390D02*
X200780238Y-54445771D01*
X200780238Y-54445771D02*
X200589762Y-54445771D01*
X200589762Y-54445771D02*
X200494524Y-54493390D01*
X200494524Y-54493390D02*
X200446905Y-54541009D01*
X200446905Y-54541009D02*
X200399286Y-54636247D01*
X181900595Y-81054819D02*
X181900595Y-81864342D01*
X181900595Y-81864342D02*
X181948214Y-81959580D01*
X181948214Y-81959580D02*
X181995833Y-82007200D01*
X181995833Y-82007200D02*
X182091071Y-82054819D01*
X182091071Y-82054819D02*
X182281547Y-82054819D01*
X182281547Y-82054819D02*
X182376785Y-82007200D01*
X182376785Y-82007200D02*
X182424404Y-81959580D01*
X182424404Y-81959580D02*
X182472023Y-81864342D01*
X182472023Y-81864342D02*
X182472023Y-81054819D01*
X183424404Y-81054819D02*
X182948214Y-81054819D01*
X182948214Y-81054819D02*
X182900595Y-81531009D01*
X182900595Y-81531009D02*
X182948214Y-81483390D01*
X182948214Y-81483390D02*
X183043452Y-81435771D01*
X183043452Y-81435771D02*
X183281547Y-81435771D01*
X183281547Y-81435771D02*
X183376785Y-81483390D01*
X183376785Y-81483390D02*
X183424404Y-81531009D01*
X183424404Y-81531009D02*
X183472023Y-81626247D01*
X183472023Y-81626247D02*
X183472023Y-81864342D01*
X183472023Y-81864342D02*
X183424404Y-81959580D01*
X183424404Y-81959580D02*
X183376785Y-82007200D01*
X183376785Y-82007200D02*
X183281547Y-82054819D01*
X183281547Y-82054819D02*
X183043452Y-82054819D01*
X183043452Y-82054819D02*
X182948214Y-82007200D01*
X182948214Y-82007200D02*
X182900595Y-81959580D01*
X170265833Y-94859580D02*
X170218214Y-94907200D01*
X170218214Y-94907200D02*
X170075357Y-94954819D01*
X170075357Y-94954819D02*
X169980119Y-94954819D01*
X169980119Y-94954819D02*
X169837262Y-94907200D01*
X169837262Y-94907200D02*
X169742024Y-94811961D01*
X169742024Y-94811961D02*
X169694405Y-94716723D01*
X169694405Y-94716723D02*
X169646786Y-94526247D01*
X169646786Y-94526247D02*
X169646786Y-94383390D01*
X169646786Y-94383390D02*
X169694405Y-94192914D01*
X169694405Y-94192914D02*
X169742024Y-94097676D01*
X169742024Y-94097676D02*
X169837262Y-94002438D01*
X169837262Y-94002438D02*
X169980119Y-93954819D01*
X169980119Y-93954819D02*
X170075357Y-93954819D01*
X170075357Y-93954819D02*
X170218214Y-94002438D01*
X170218214Y-94002438D02*
X170265833Y-94050057D01*
X170742024Y-94954819D02*
X170932500Y-94954819D01*
X170932500Y-94954819D02*
X171027738Y-94907200D01*
X171027738Y-94907200D02*
X171075357Y-94859580D01*
X171075357Y-94859580D02*
X171170595Y-94716723D01*
X171170595Y-94716723D02*
X171218214Y-94526247D01*
X171218214Y-94526247D02*
X171218214Y-94145295D01*
X171218214Y-94145295D02*
X171170595Y-94050057D01*
X171170595Y-94050057D02*
X171122976Y-94002438D01*
X171122976Y-94002438D02*
X171027738Y-93954819D01*
X171027738Y-93954819D02*
X170837262Y-93954819D01*
X170837262Y-93954819D02*
X170742024Y-94002438D01*
X170742024Y-94002438D02*
X170694405Y-94050057D01*
X170694405Y-94050057D02*
X170646786Y-94145295D01*
X170646786Y-94145295D02*
X170646786Y-94383390D01*
X170646786Y-94383390D02*
X170694405Y-94478628D01*
X170694405Y-94478628D02*
X170742024Y-94526247D01*
X170742024Y-94526247D02*
X170837262Y-94573866D01*
X170837262Y-94573866D02*
X171027738Y-94573866D01*
X171027738Y-94573866D02*
X171122976Y-94526247D01*
X171122976Y-94526247D02*
X171170595Y-94478628D01*
X171170595Y-94478628D02*
X171218214Y-94383390D01*
X200604819Y-73666666D02*
X200604819Y-74142856D01*
X200604819Y-74142856D02*
X199604819Y-74142856D01*
X200604819Y-72809523D02*
X200604819Y-73380951D01*
X200604819Y-73095237D02*
X199604819Y-73095237D01*
X199604819Y-73095237D02*
X199747676Y-73190475D01*
X199747676Y-73190475D02*
X199842914Y-73285713D01*
X199842914Y-73285713D02*
X199890533Y-73380951D01*
X189233095Y-105059819D02*
X189233095Y-105869342D01*
X189233095Y-105869342D02*
X189280714Y-105964580D01*
X189280714Y-105964580D02*
X189328333Y-106012200D01*
X189328333Y-106012200D02*
X189423571Y-106059819D01*
X189423571Y-106059819D02*
X189614047Y-106059819D01*
X189614047Y-106059819D02*
X189709285Y-106012200D01*
X189709285Y-106012200D02*
X189756904Y-105964580D01*
X189756904Y-105964580D02*
X189804523Y-105869342D01*
X189804523Y-105869342D02*
X189804523Y-105059819D01*
X190185476Y-105059819D02*
X190804523Y-105059819D01*
X190804523Y-105059819D02*
X190471190Y-105440771D01*
X190471190Y-105440771D02*
X190614047Y-105440771D01*
X190614047Y-105440771D02*
X190709285Y-105488390D01*
X190709285Y-105488390D02*
X190756904Y-105536009D01*
X190756904Y-105536009D02*
X190804523Y-105631247D01*
X190804523Y-105631247D02*
X190804523Y-105869342D01*
X190804523Y-105869342D02*
X190756904Y-105964580D01*
X190756904Y-105964580D02*
X190709285Y-106012200D01*
X190709285Y-106012200D02*
X190614047Y-106059819D01*
X190614047Y-106059819D02*
X190328333Y-106059819D01*
X190328333Y-106059819D02*
X190233095Y-106012200D01*
X190233095Y-106012200D02*
X190185476Y-105964580D01*
X210319819Y-56537754D02*
X211129342Y-56537754D01*
X211129342Y-56537754D02*
X211224580Y-56490135D01*
X211224580Y-56490135D02*
X211272200Y-56442516D01*
X211272200Y-56442516D02*
X211319819Y-56347278D01*
X211319819Y-56347278D02*
X211319819Y-56156802D01*
X211319819Y-56156802D02*
X211272200Y-56061564D01*
X211272200Y-56061564D02*
X211224580Y-56013945D01*
X211224580Y-56013945D02*
X211129342Y-55966326D01*
X211129342Y-55966326D02*
X210319819Y-55966326D01*
X210653152Y-55061564D02*
X211319819Y-55061564D01*
X210272200Y-55299659D02*
X210986485Y-55537754D01*
X210986485Y-55537754D02*
X210986485Y-54918707D01*
X206713019Y-58753999D02*
X206951114Y-58753999D01*
X206855876Y-58992094D02*
X206951114Y-58753999D01*
X206951114Y-58753999D02*
X206855876Y-58515904D01*
X207141590Y-58896856D02*
X206951114Y-58753999D01*
X206951114Y-58753999D02*
X207141590Y-58611142D01*
X206713019Y-58753999D02*
X206951114Y-58753999D01*
X206855876Y-58992094D02*
X206951114Y-58753999D01*
X206951114Y-58753999D02*
X206855876Y-58515904D01*
X207141590Y-58896856D02*
X206951114Y-58753999D01*
X206951114Y-58753999D02*
X207141590Y-58611142D01*
X189909580Y-79735357D02*
X189957200Y-79782976D01*
X189957200Y-79782976D02*
X190004819Y-79925833D01*
X190004819Y-79925833D02*
X190004819Y-80021071D01*
X190004819Y-80021071D02*
X189957200Y-80163928D01*
X189957200Y-80163928D02*
X189861961Y-80259166D01*
X189861961Y-80259166D02*
X189766723Y-80306785D01*
X189766723Y-80306785D02*
X189576247Y-80354404D01*
X189576247Y-80354404D02*
X189433390Y-80354404D01*
X189433390Y-80354404D02*
X189242914Y-80306785D01*
X189242914Y-80306785D02*
X189147676Y-80259166D01*
X189147676Y-80259166D02*
X189052438Y-80163928D01*
X189052438Y-80163928D02*
X189004819Y-80021071D01*
X189004819Y-80021071D02*
X189004819Y-79925833D01*
X189004819Y-79925833D02*
X189052438Y-79782976D01*
X189052438Y-79782976D02*
X189100057Y-79735357D01*
X190004819Y-78782976D02*
X190004819Y-79354404D01*
X190004819Y-79068690D02*
X189004819Y-79068690D01*
X189004819Y-79068690D02*
X189147676Y-79163928D01*
X189147676Y-79163928D02*
X189242914Y-79259166D01*
X189242914Y-79259166D02*
X189290533Y-79354404D01*
X190004819Y-77830595D02*
X190004819Y-78402023D01*
X190004819Y-78116309D02*
X189004819Y-78116309D01*
X189004819Y-78116309D02*
X189147676Y-78211547D01*
X189147676Y-78211547D02*
X189242914Y-78306785D01*
X189242914Y-78306785D02*
X189290533Y-78402023D01*
X162884819Y-90317857D02*
X162408628Y-90651190D01*
X162884819Y-90889285D02*
X161884819Y-90889285D01*
X161884819Y-90889285D02*
X161884819Y-90508333D01*
X161884819Y-90508333D02*
X161932438Y-90413095D01*
X161932438Y-90413095D02*
X161980057Y-90365476D01*
X161980057Y-90365476D02*
X162075295Y-90317857D01*
X162075295Y-90317857D02*
X162218152Y-90317857D01*
X162218152Y-90317857D02*
X162313390Y-90365476D01*
X162313390Y-90365476D02*
X162361009Y-90413095D01*
X162361009Y-90413095D02*
X162408628Y-90508333D01*
X162408628Y-90508333D02*
X162408628Y-90889285D01*
X162884819Y-89365476D02*
X162884819Y-89936904D01*
X162884819Y-89651190D02*
X161884819Y-89651190D01*
X161884819Y-89651190D02*
X162027676Y-89746428D01*
X162027676Y-89746428D02*
X162122914Y-89841666D01*
X162122914Y-89841666D02*
X162170533Y-89936904D01*
X161884819Y-88460714D02*
X161884819Y-88936904D01*
X161884819Y-88936904D02*
X162361009Y-88984523D01*
X162361009Y-88984523D02*
X162313390Y-88936904D01*
X162313390Y-88936904D02*
X162265771Y-88841666D01*
X162265771Y-88841666D02*
X162265771Y-88603571D01*
X162265771Y-88603571D02*
X162313390Y-88508333D01*
X162313390Y-88508333D02*
X162361009Y-88460714D01*
X162361009Y-88460714D02*
X162456247Y-88413095D01*
X162456247Y-88413095D02*
X162694342Y-88413095D01*
X162694342Y-88413095D02*
X162789580Y-88460714D01*
X162789580Y-88460714D02*
X162837200Y-88508333D01*
X162837200Y-88508333D02*
X162884819Y-88603571D01*
X162884819Y-88603571D02*
X162884819Y-88841666D01*
X162884819Y-88841666D02*
X162837200Y-88936904D01*
X162837200Y-88936904D02*
X162789580Y-88984523D01*
X163029819Y-76013333D02*
X163744104Y-76013333D01*
X163744104Y-76013333D02*
X163886961Y-76060952D01*
X163886961Y-76060952D02*
X163982200Y-76156190D01*
X163982200Y-76156190D02*
X164029819Y-76299047D01*
X164029819Y-76299047D02*
X164029819Y-76394285D01*
X164029819Y-75013333D02*
X164029819Y-75584761D01*
X164029819Y-75299047D02*
X163029819Y-75299047D01*
X163029819Y-75299047D02*
X163172676Y-75394285D01*
X163172676Y-75394285D02*
X163267914Y-75489523D01*
X163267914Y-75489523D02*
X163315533Y-75584761D01*
X194425833Y-84408330D02*
X194378214Y-84455950D01*
X194378214Y-84455950D02*
X194235357Y-84503569D01*
X194235357Y-84503569D02*
X194140119Y-84503569D01*
X194140119Y-84503569D02*
X193997262Y-84455950D01*
X193997262Y-84455950D02*
X193902024Y-84360711D01*
X193902024Y-84360711D02*
X193854405Y-84265473D01*
X193854405Y-84265473D02*
X193806786Y-84074997D01*
X193806786Y-84074997D02*
X193806786Y-83932140D01*
X193806786Y-83932140D02*
X193854405Y-83741664D01*
X193854405Y-83741664D02*
X193902024Y-83646426D01*
X193902024Y-83646426D02*
X193997262Y-83551188D01*
X193997262Y-83551188D02*
X194140119Y-83503569D01*
X194140119Y-83503569D02*
X194235357Y-83503569D01*
X194235357Y-83503569D02*
X194378214Y-83551188D01*
X194378214Y-83551188D02*
X194425833Y-83598807D01*
X194759167Y-83503569D02*
X195425833Y-83503569D01*
X195425833Y-83503569D02*
X194997262Y-84503569D01*
X215372142Y-64734819D02*
X215038809Y-64258628D01*
X214800714Y-64734819D02*
X214800714Y-63734819D01*
X214800714Y-63734819D02*
X215181666Y-63734819D01*
X215181666Y-63734819D02*
X215276904Y-63782438D01*
X215276904Y-63782438D02*
X215324523Y-63830057D01*
X215324523Y-63830057D02*
X215372142Y-63925295D01*
X215372142Y-63925295D02*
X215372142Y-64068152D01*
X215372142Y-64068152D02*
X215324523Y-64163390D01*
X215324523Y-64163390D02*
X215276904Y-64211009D01*
X215276904Y-64211009D02*
X215181666Y-64258628D01*
X215181666Y-64258628D02*
X214800714Y-64258628D01*
X215753095Y-63830057D02*
X215800714Y-63782438D01*
X215800714Y-63782438D02*
X215895952Y-63734819D01*
X215895952Y-63734819D02*
X216134047Y-63734819D01*
X216134047Y-63734819D02*
X216229285Y-63782438D01*
X216229285Y-63782438D02*
X216276904Y-63830057D01*
X216276904Y-63830057D02*
X216324523Y-63925295D01*
X216324523Y-63925295D02*
X216324523Y-64020533D01*
X216324523Y-64020533D02*
X216276904Y-64163390D01*
X216276904Y-64163390D02*
X215705476Y-64734819D01*
X215705476Y-64734819D02*
X216324523Y-64734819D01*
X216705476Y-63830057D02*
X216753095Y-63782438D01*
X216753095Y-63782438D02*
X216848333Y-63734819D01*
X216848333Y-63734819D02*
X217086428Y-63734819D01*
X217086428Y-63734819D02*
X217181666Y-63782438D01*
X217181666Y-63782438D02*
X217229285Y-63830057D01*
X217229285Y-63830057D02*
X217276904Y-63925295D01*
X217276904Y-63925295D02*
X217276904Y-64020533D01*
X217276904Y-64020533D02*
X217229285Y-64163390D01*
X217229285Y-64163390D02*
X216657857Y-64734819D01*
X216657857Y-64734819D02*
X217276904Y-64734819D01*
X182524819Y-85555357D02*
X182048628Y-85888690D01*
X182524819Y-86126785D02*
X181524819Y-86126785D01*
X181524819Y-86126785D02*
X181524819Y-85745833D01*
X181524819Y-85745833D02*
X181572438Y-85650595D01*
X181572438Y-85650595D02*
X181620057Y-85602976D01*
X181620057Y-85602976D02*
X181715295Y-85555357D01*
X181715295Y-85555357D02*
X181858152Y-85555357D01*
X181858152Y-85555357D02*
X181953390Y-85602976D01*
X181953390Y-85602976D02*
X182001009Y-85650595D01*
X182001009Y-85650595D02*
X182048628Y-85745833D01*
X182048628Y-85745833D02*
X182048628Y-86126785D01*
X181620057Y-85174404D02*
X181572438Y-85126785D01*
X181572438Y-85126785D02*
X181524819Y-85031547D01*
X181524819Y-85031547D02*
X181524819Y-84793452D01*
X181524819Y-84793452D02*
X181572438Y-84698214D01*
X181572438Y-84698214D02*
X181620057Y-84650595D01*
X181620057Y-84650595D02*
X181715295Y-84602976D01*
X181715295Y-84602976D02*
X181810533Y-84602976D01*
X181810533Y-84602976D02*
X181953390Y-84650595D01*
X181953390Y-84650595D02*
X182524819Y-85222023D01*
X182524819Y-85222023D02*
X182524819Y-84602976D01*
X182524819Y-83650595D02*
X182524819Y-84222023D01*
X182524819Y-83936309D02*
X181524819Y-83936309D01*
X181524819Y-83936309D02*
X181667676Y-84031547D01*
X181667676Y-84031547D02*
X181762914Y-84126785D01*
X181762914Y-84126785D02*
X181810533Y-84222023D01*
X214024819Y-73317857D02*
X213548628Y-73651190D01*
X214024819Y-73889285D02*
X213024819Y-73889285D01*
X213024819Y-73889285D02*
X213024819Y-73508333D01*
X213024819Y-73508333D02*
X213072438Y-73413095D01*
X213072438Y-73413095D02*
X213120057Y-73365476D01*
X213120057Y-73365476D02*
X213215295Y-73317857D01*
X213215295Y-73317857D02*
X213358152Y-73317857D01*
X213358152Y-73317857D02*
X213453390Y-73365476D01*
X213453390Y-73365476D02*
X213501009Y-73413095D01*
X213501009Y-73413095D02*
X213548628Y-73508333D01*
X213548628Y-73508333D02*
X213548628Y-73889285D01*
X214024819Y-72365476D02*
X214024819Y-72936904D01*
X214024819Y-72651190D02*
X213024819Y-72651190D01*
X213024819Y-72651190D02*
X213167676Y-72746428D01*
X213167676Y-72746428D02*
X213262914Y-72841666D01*
X213262914Y-72841666D02*
X213310533Y-72936904D01*
X213024819Y-72032142D02*
X213024819Y-71413095D01*
X213024819Y-71413095D02*
X213405771Y-71746428D01*
X213405771Y-71746428D02*
X213405771Y-71603571D01*
X213405771Y-71603571D02*
X213453390Y-71508333D01*
X213453390Y-71508333D02*
X213501009Y-71460714D01*
X213501009Y-71460714D02*
X213596247Y-71413095D01*
X213596247Y-71413095D02*
X213834342Y-71413095D01*
X213834342Y-71413095D02*
X213929580Y-71460714D01*
X213929580Y-71460714D02*
X213977200Y-71508333D01*
X213977200Y-71508333D02*
X214024819Y-71603571D01*
X214024819Y-71603571D02*
X214024819Y-71889285D01*
X214024819Y-71889285D02*
X213977200Y-71984523D01*
X213977200Y-71984523D02*
X213929580Y-72032142D01*
X191338628Y-75137440D02*
X191814819Y-75137440D01*
X190814819Y-75470773D02*
X191338628Y-75137440D01*
X191338628Y-75137440D02*
X190814819Y-74804107D01*
X191814819Y-73946964D02*
X191814819Y-74518392D01*
X191814819Y-74232678D02*
X190814819Y-74232678D01*
X190814819Y-74232678D02*
X190957676Y-74327916D01*
X190957676Y-74327916D02*
X191052914Y-74423154D01*
X191052914Y-74423154D02*
X191100533Y-74518392D01*
X175954819Y-85333333D02*
X176669104Y-85333333D01*
X176669104Y-85333333D02*
X176811961Y-85380952D01*
X176811961Y-85380952D02*
X176907200Y-85476190D01*
X176907200Y-85476190D02*
X176954819Y-85619047D01*
X176954819Y-85619047D02*
X176954819Y-85714285D01*
X176050057Y-84904761D02*
X176002438Y-84857142D01*
X176002438Y-84857142D02*
X175954819Y-84761904D01*
X175954819Y-84761904D02*
X175954819Y-84523809D01*
X175954819Y-84523809D02*
X176002438Y-84428571D01*
X176002438Y-84428571D02*
X176050057Y-84380952D01*
X176050057Y-84380952D02*
X176145295Y-84333333D01*
X176145295Y-84333333D02*
X176240533Y-84333333D01*
X176240533Y-84333333D02*
X176383390Y-84380952D01*
X176383390Y-84380952D02*
X176954819Y-84952380D01*
X176954819Y-84952380D02*
X176954819Y-84333333D01*
X160062319Y-94467857D02*
X159586128Y-94801190D01*
X160062319Y-95039285D02*
X159062319Y-95039285D01*
X159062319Y-95039285D02*
X159062319Y-94658333D01*
X159062319Y-94658333D02*
X159109938Y-94563095D01*
X159109938Y-94563095D02*
X159157557Y-94515476D01*
X159157557Y-94515476D02*
X159252795Y-94467857D01*
X159252795Y-94467857D02*
X159395652Y-94467857D01*
X159395652Y-94467857D02*
X159490890Y-94515476D01*
X159490890Y-94515476D02*
X159538509Y-94563095D01*
X159538509Y-94563095D02*
X159586128Y-94658333D01*
X159586128Y-94658333D02*
X159586128Y-95039285D01*
X160062319Y-93515476D02*
X160062319Y-94086904D01*
X160062319Y-93801190D02*
X159062319Y-93801190D01*
X159062319Y-93801190D02*
X159205176Y-93896428D01*
X159205176Y-93896428D02*
X159300414Y-93991666D01*
X159300414Y-93991666D02*
X159348033Y-94086904D01*
X159062319Y-92658333D02*
X159062319Y-92848809D01*
X159062319Y-92848809D02*
X159109938Y-92944047D01*
X159109938Y-92944047D02*
X159157557Y-92991666D01*
X159157557Y-92991666D02*
X159300414Y-93086904D01*
X159300414Y-93086904D02*
X159490890Y-93134523D01*
X159490890Y-93134523D02*
X159871842Y-93134523D01*
X159871842Y-93134523D02*
X159967080Y-93086904D01*
X159967080Y-93086904D02*
X160014700Y-93039285D01*
X160014700Y-93039285D02*
X160062319Y-92944047D01*
X160062319Y-92944047D02*
X160062319Y-92753571D01*
X160062319Y-92753571D02*
X160014700Y-92658333D01*
X160014700Y-92658333D02*
X159967080Y-92610714D01*
X159967080Y-92610714D02*
X159871842Y-92563095D01*
X159871842Y-92563095D02*
X159633747Y-92563095D01*
X159633747Y-92563095D02*
X159538509Y-92610714D01*
X159538509Y-92610714D02*
X159490890Y-92658333D01*
X159490890Y-92658333D02*
X159443271Y-92753571D01*
X159443271Y-92753571D02*
X159443271Y-92944047D01*
X159443271Y-92944047D02*
X159490890Y-93039285D01*
X159490890Y-93039285D02*
X159538509Y-93086904D01*
X159538509Y-93086904D02*
X159633747Y-93134523D01*
X197693333Y-102299819D02*
X197360000Y-101823628D01*
X197121905Y-102299819D02*
X197121905Y-101299819D01*
X197121905Y-101299819D02*
X197502857Y-101299819D01*
X197502857Y-101299819D02*
X197598095Y-101347438D01*
X197598095Y-101347438D02*
X197645714Y-101395057D01*
X197645714Y-101395057D02*
X197693333Y-101490295D01*
X197693333Y-101490295D02*
X197693333Y-101633152D01*
X197693333Y-101633152D02*
X197645714Y-101728390D01*
X197645714Y-101728390D02*
X197598095Y-101776009D01*
X197598095Y-101776009D02*
X197502857Y-101823628D01*
X197502857Y-101823628D02*
X197121905Y-101823628D01*
X198550476Y-101633152D02*
X198550476Y-102299819D01*
X198312381Y-101252200D02*
X198074286Y-101966485D01*
X198074286Y-101966485D02*
X198693333Y-101966485D01*
X201829819Y-102092857D02*
X201353628Y-102426190D01*
X201829819Y-102664285D02*
X200829819Y-102664285D01*
X200829819Y-102664285D02*
X200829819Y-102283333D01*
X200829819Y-102283333D02*
X200877438Y-102188095D01*
X200877438Y-102188095D02*
X200925057Y-102140476D01*
X200925057Y-102140476D02*
X201020295Y-102092857D01*
X201020295Y-102092857D02*
X201163152Y-102092857D01*
X201163152Y-102092857D02*
X201258390Y-102140476D01*
X201258390Y-102140476D02*
X201306009Y-102188095D01*
X201306009Y-102188095D02*
X201353628Y-102283333D01*
X201353628Y-102283333D02*
X201353628Y-102664285D01*
X201829819Y-101140476D02*
X201829819Y-101711904D01*
X201829819Y-101426190D02*
X200829819Y-101426190D01*
X200829819Y-101426190D02*
X200972676Y-101521428D01*
X200972676Y-101521428D02*
X201067914Y-101616666D01*
X201067914Y-101616666D02*
X201115533Y-101711904D01*
X201163152Y-100283333D02*
X201829819Y-100283333D01*
X200782200Y-100521428D02*
X201496485Y-100759523D01*
X201496485Y-100759523D02*
X201496485Y-100140476D01*
X212923333Y-46044580D02*
X212875714Y-46092200D01*
X212875714Y-46092200D02*
X212732857Y-46139819D01*
X212732857Y-46139819D02*
X212637619Y-46139819D01*
X212637619Y-46139819D02*
X212494762Y-46092200D01*
X212494762Y-46092200D02*
X212399524Y-45996961D01*
X212399524Y-45996961D02*
X212351905Y-45901723D01*
X212351905Y-45901723D02*
X212304286Y-45711247D01*
X212304286Y-45711247D02*
X212304286Y-45568390D01*
X212304286Y-45568390D02*
X212351905Y-45377914D01*
X212351905Y-45377914D02*
X212399524Y-45282676D01*
X212399524Y-45282676D02*
X212494762Y-45187438D01*
X212494762Y-45187438D02*
X212637619Y-45139819D01*
X212637619Y-45139819D02*
X212732857Y-45139819D01*
X212732857Y-45139819D02*
X212875714Y-45187438D01*
X212875714Y-45187438D02*
X212923333Y-45235057D01*
X213304286Y-45235057D02*
X213351905Y-45187438D01*
X213351905Y-45187438D02*
X213447143Y-45139819D01*
X213447143Y-45139819D02*
X213685238Y-45139819D01*
X213685238Y-45139819D02*
X213780476Y-45187438D01*
X213780476Y-45187438D02*
X213828095Y-45235057D01*
X213828095Y-45235057D02*
X213875714Y-45330295D01*
X213875714Y-45330295D02*
X213875714Y-45425533D01*
X213875714Y-45425533D02*
X213828095Y-45568390D01*
X213828095Y-45568390D02*
X213256667Y-46139819D01*
X213256667Y-46139819D02*
X213875714Y-46139819D01*
X161644761Y-106800057D02*
X161549523Y-106752438D01*
X161549523Y-106752438D02*
X161454285Y-106657200D01*
X161454285Y-106657200D02*
X161311428Y-106514342D01*
X161311428Y-106514342D02*
X161216190Y-106466723D01*
X161216190Y-106466723D02*
X161120952Y-106466723D01*
X161168571Y-106704819D02*
X161073333Y-106657200D01*
X161073333Y-106657200D02*
X160978095Y-106561961D01*
X160978095Y-106561961D02*
X160930476Y-106371485D01*
X160930476Y-106371485D02*
X160930476Y-106038152D01*
X160930476Y-106038152D02*
X160978095Y-105847676D01*
X160978095Y-105847676D02*
X161073333Y-105752438D01*
X161073333Y-105752438D02*
X161168571Y-105704819D01*
X161168571Y-105704819D02*
X161359047Y-105704819D01*
X161359047Y-105704819D02*
X161454285Y-105752438D01*
X161454285Y-105752438D02*
X161549523Y-105847676D01*
X161549523Y-105847676D02*
X161597142Y-106038152D01*
X161597142Y-106038152D02*
X161597142Y-106371485D01*
X161597142Y-106371485D02*
X161549523Y-106561961D01*
X161549523Y-106561961D02*
X161454285Y-106657200D01*
X161454285Y-106657200D02*
X161359047Y-106704819D01*
X161359047Y-106704819D02*
X161168571Y-106704819D01*
X161978095Y-105800057D02*
X162025714Y-105752438D01*
X162025714Y-105752438D02*
X162120952Y-105704819D01*
X162120952Y-105704819D02*
X162359047Y-105704819D01*
X162359047Y-105704819D02*
X162454285Y-105752438D01*
X162454285Y-105752438D02*
X162501904Y-105800057D01*
X162501904Y-105800057D02*
X162549523Y-105895295D01*
X162549523Y-105895295D02*
X162549523Y-105990533D01*
X162549523Y-105990533D02*
X162501904Y-106133390D01*
X162501904Y-106133390D02*
X161930476Y-106704819D01*
X161930476Y-106704819D02*
X162549523Y-106704819D01*
X223191667Y-81157200D02*
X223334524Y-81204819D01*
X223334524Y-81204819D02*
X223572619Y-81204819D01*
X223572619Y-81204819D02*
X223667857Y-81157200D01*
X223667857Y-81157200D02*
X223715476Y-81109580D01*
X223715476Y-81109580D02*
X223763095Y-81014342D01*
X223763095Y-81014342D02*
X223763095Y-80919104D01*
X223763095Y-80919104D02*
X223715476Y-80823866D01*
X223715476Y-80823866D02*
X223667857Y-80776247D01*
X223667857Y-80776247D02*
X223572619Y-80728628D01*
X223572619Y-80728628D02*
X223382143Y-80681009D01*
X223382143Y-80681009D02*
X223286905Y-80633390D01*
X223286905Y-80633390D02*
X223239286Y-80585771D01*
X223239286Y-80585771D02*
X223191667Y-80490533D01*
X223191667Y-80490533D02*
X223191667Y-80395295D01*
X223191667Y-80395295D02*
X223239286Y-80300057D01*
X223239286Y-80300057D02*
X223286905Y-80252438D01*
X223286905Y-80252438D02*
X223382143Y-80204819D01*
X223382143Y-80204819D02*
X223620238Y-80204819D01*
X223620238Y-80204819D02*
X223763095Y-80252438D01*
X224096429Y-80204819D02*
X224334524Y-81204819D01*
X224334524Y-81204819D02*
X224525000Y-80490533D01*
X224525000Y-80490533D02*
X224715476Y-81204819D01*
X224715476Y-81204819D02*
X224953572Y-80204819D01*
X225858333Y-81204819D02*
X225286905Y-81204819D01*
X225572619Y-81204819D02*
X225572619Y-80204819D01*
X225572619Y-80204819D02*
X225477381Y-80347676D01*
X225477381Y-80347676D02*
X225382143Y-80442914D01*
X225382143Y-80442914D02*
X225286905Y-80490533D01*
X167554819Y-76899404D02*
X168364342Y-76899404D01*
X168364342Y-76899404D02*
X168459580Y-76851785D01*
X168459580Y-76851785D02*
X168507200Y-76804166D01*
X168507200Y-76804166D02*
X168554819Y-76708928D01*
X168554819Y-76708928D02*
X168554819Y-76518452D01*
X168554819Y-76518452D02*
X168507200Y-76423214D01*
X168507200Y-76423214D02*
X168459580Y-76375595D01*
X168459580Y-76375595D02*
X168364342Y-76327976D01*
X168364342Y-76327976D02*
X167554819Y-76327976D01*
X168554819Y-75327976D02*
X168554819Y-75899404D01*
X168554819Y-75613690D02*
X167554819Y-75613690D01*
X167554819Y-75613690D02*
X167697676Y-75708928D01*
X167697676Y-75708928D02*
X167792914Y-75804166D01*
X167792914Y-75804166D02*
X167840533Y-75899404D01*
X207261905Y-62804819D02*
X207261905Y-61804819D01*
X207261905Y-61804819D02*
X207500000Y-61804819D01*
X207500000Y-61804819D02*
X207642857Y-61852438D01*
X207642857Y-61852438D02*
X207738095Y-61947676D01*
X207738095Y-61947676D02*
X207785714Y-62042914D01*
X207785714Y-62042914D02*
X207833333Y-62233390D01*
X207833333Y-62233390D02*
X207833333Y-62376247D01*
X207833333Y-62376247D02*
X207785714Y-62566723D01*
X207785714Y-62566723D02*
X207738095Y-62661961D01*
X207738095Y-62661961D02*
X207642857Y-62757200D01*
X207642857Y-62757200D02*
X207500000Y-62804819D01*
X207500000Y-62804819D02*
X207261905Y-62804819D01*
X208690476Y-62138152D02*
X208690476Y-62804819D01*
X208452381Y-61757200D02*
X208214286Y-62471485D01*
X208214286Y-62471485D02*
X208833333Y-62471485D01*
X181359580Y-69277857D02*
X181407200Y-69325476D01*
X181407200Y-69325476D02*
X181454819Y-69468333D01*
X181454819Y-69468333D02*
X181454819Y-69563571D01*
X181454819Y-69563571D02*
X181407200Y-69706428D01*
X181407200Y-69706428D02*
X181311961Y-69801666D01*
X181311961Y-69801666D02*
X181216723Y-69849285D01*
X181216723Y-69849285D02*
X181026247Y-69896904D01*
X181026247Y-69896904D02*
X180883390Y-69896904D01*
X180883390Y-69896904D02*
X180692914Y-69849285D01*
X180692914Y-69849285D02*
X180597676Y-69801666D01*
X180597676Y-69801666D02*
X180502438Y-69706428D01*
X180502438Y-69706428D02*
X180454819Y-69563571D01*
X180454819Y-69563571D02*
X180454819Y-69468333D01*
X180454819Y-69468333D02*
X180502438Y-69325476D01*
X180502438Y-69325476D02*
X180550057Y-69277857D01*
X181454819Y-68325476D02*
X181454819Y-68896904D01*
X181454819Y-68611190D02*
X180454819Y-68611190D01*
X180454819Y-68611190D02*
X180597676Y-68706428D01*
X180597676Y-68706428D02*
X180692914Y-68801666D01*
X180692914Y-68801666D02*
X180740533Y-68896904D01*
X180550057Y-67944523D02*
X180502438Y-67896904D01*
X180502438Y-67896904D02*
X180454819Y-67801666D01*
X180454819Y-67801666D02*
X180454819Y-67563571D01*
X180454819Y-67563571D02*
X180502438Y-67468333D01*
X180502438Y-67468333D02*
X180550057Y-67420714D01*
X180550057Y-67420714D02*
X180645295Y-67373095D01*
X180645295Y-67373095D02*
X180740533Y-67373095D01*
X180740533Y-67373095D02*
X180883390Y-67420714D01*
X180883390Y-67420714D02*
X181454819Y-67992142D01*
X181454819Y-67992142D02*
X181454819Y-67373095D01*
X202922319Y-52619166D02*
X202446128Y-52952499D01*
X202922319Y-53190594D02*
X201922319Y-53190594D01*
X201922319Y-53190594D02*
X201922319Y-52809642D01*
X201922319Y-52809642D02*
X201969938Y-52714404D01*
X201969938Y-52714404D02*
X202017557Y-52666785D01*
X202017557Y-52666785D02*
X202112795Y-52619166D01*
X202112795Y-52619166D02*
X202255652Y-52619166D01*
X202255652Y-52619166D02*
X202350890Y-52666785D01*
X202350890Y-52666785D02*
X202398509Y-52714404D01*
X202398509Y-52714404D02*
X202446128Y-52809642D01*
X202446128Y-52809642D02*
X202446128Y-53190594D01*
X202922319Y-52142975D02*
X202922319Y-51952499D01*
X202922319Y-51952499D02*
X202874700Y-51857261D01*
X202874700Y-51857261D02*
X202827080Y-51809642D01*
X202827080Y-51809642D02*
X202684223Y-51714404D01*
X202684223Y-51714404D02*
X202493747Y-51666785D01*
X202493747Y-51666785D02*
X202112795Y-51666785D01*
X202112795Y-51666785D02*
X202017557Y-51714404D01*
X202017557Y-51714404D02*
X201969938Y-51762023D01*
X201969938Y-51762023D02*
X201922319Y-51857261D01*
X201922319Y-51857261D02*
X201922319Y-52047737D01*
X201922319Y-52047737D02*
X201969938Y-52142975D01*
X201969938Y-52142975D02*
X202017557Y-52190594D01*
X202017557Y-52190594D02*
X202112795Y-52238213D01*
X202112795Y-52238213D02*
X202350890Y-52238213D01*
X202350890Y-52238213D02*
X202446128Y-52190594D01*
X202446128Y-52190594D02*
X202493747Y-52142975D01*
X202493747Y-52142975D02*
X202541366Y-52047737D01*
X202541366Y-52047737D02*
X202541366Y-51857261D01*
X202541366Y-51857261D02*
X202493747Y-51762023D01*
X202493747Y-51762023D02*
X202446128Y-51714404D01*
X202446128Y-51714404D02*
X202350890Y-51666785D01*
X231221142Y-80108319D02*
X230887809Y-79632128D01*
X230649714Y-80108319D02*
X230649714Y-79108319D01*
X230649714Y-79108319D02*
X231030666Y-79108319D01*
X231030666Y-79108319D02*
X231125904Y-79155938D01*
X231125904Y-79155938D02*
X231173523Y-79203557D01*
X231173523Y-79203557D02*
X231221142Y-79298795D01*
X231221142Y-79298795D02*
X231221142Y-79441652D01*
X231221142Y-79441652D02*
X231173523Y-79536890D01*
X231173523Y-79536890D02*
X231125904Y-79584509D01*
X231125904Y-79584509D02*
X231030666Y-79632128D01*
X231030666Y-79632128D02*
X230649714Y-79632128D01*
X232173523Y-80108319D02*
X231602095Y-80108319D01*
X231887809Y-80108319D02*
X231887809Y-79108319D01*
X231887809Y-79108319D02*
X231792571Y-79251176D01*
X231792571Y-79251176D02*
X231697333Y-79346414D01*
X231697333Y-79346414D02*
X231602095Y-79394033D01*
X232506857Y-79108319D02*
X233173523Y-79108319D01*
X233173523Y-79108319D02*
X232744952Y-80108319D01*
X213454819Y-93333333D02*
X214169104Y-93333333D01*
X214169104Y-93333333D02*
X214311961Y-93380952D01*
X214311961Y-93380952D02*
X214407200Y-93476190D01*
X214407200Y-93476190D02*
X214454819Y-93619047D01*
X214454819Y-93619047D02*
X214454819Y-93714285D01*
X213788152Y-92428571D02*
X214454819Y-92428571D01*
X213407200Y-92666666D02*
X214121485Y-92904761D01*
X214121485Y-92904761D02*
X214121485Y-92285714D01*
X166008333Y-79024819D02*
X165675000Y-78548628D01*
X165436905Y-79024819D02*
X165436905Y-78024819D01*
X165436905Y-78024819D02*
X165817857Y-78024819D01*
X165817857Y-78024819D02*
X165913095Y-78072438D01*
X165913095Y-78072438D02*
X165960714Y-78120057D01*
X165960714Y-78120057D02*
X166008333Y-78215295D01*
X166008333Y-78215295D02*
X166008333Y-78358152D01*
X166008333Y-78358152D02*
X165960714Y-78453390D01*
X165960714Y-78453390D02*
X165913095Y-78501009D01*
X165913095Y-78501009D02*
X165817857Y-78548628D01*
X165817857Y-78548628D02*
X165436905Y-78548628D01*
X166960714Y-79024819D02*
X166389286Y-79024819D01*
X166675000Y-79024819D02*
X166675000Y-78024819D01*
X166675000Y-78024819D02*
X166579762Y-78167676D01*
X166579762Y-78167676D02*
X166484524Y-78262914D01*
X166484524Y-78262914D02*
X166389286Y-78310533D01*
X230871142Y-71858319D02*
X230537809Y-71382128D01*
X230299714Y-71858319D02*
X230299714Y-70858319D01*
X230299714Y-70858319D02*
X230680666Y-70858319D01*
X230680666Y-70858319D02*
X230775904Y-70905938D01*
X230775904Y-70905938D02*
X230823523Y-70953557D01*
X230823523Y-70953557D02*
X230871142Y-71048795D01*
X230871142Y-71048795D02*
X230871142Y-71191652D01*
X230871142Y-71191652D02*
X230823523Y-71286890D01*
X230823523Y-71286890D02*
X230775904Y-71334509D01*
X230775904Y-71334509D02*
X230680666Y-71382128D01*
X230680666Y-71382128D02*
X230299714Y-71382128D01*
X231823523Y-71858319D02*
X231252095Y-71858319D01*
X231537809Y-71858319D02*
X231537809Y-70858319D01*
X231537809Y-70858319D02*
X231442571Y-71001176D01*
X231442571Y-71001176D02*
X231347333Y-71096414D01*
X231347333Y-71096414D02*
X231252095Y-71144033D01*
X232394952Y-71286890D02*
X232299714Y-71239271D01*
X232299714Y-71239271D02*
X232252095Y-71191652D01*
X232252095Y-71191652D02*
X232204476Y-71096414D01*
X232204476Y-71096414D02*
X232204476Y-71048795D01*
X232204476Y-71048795D02*
X232252095Y-70953557D01*
X232252095Y-70953557D02*
X232299714Y-70905938D01*
X232299714Y-70905938D02*
X232394952Y-70858319D01*
X232394952Y-70858319D02*
X232585428Y-70858319D01*
X232585428Y-70858319D02*
X232680666Y-70905938D01*
X232680666Y-70905938D02*
X232728285Y-70953557D01*
X232728285Y-70953557D02*
X232775904Y-71048795D01*
X232775904Y-71048795D02*
X232775904Y-71096414D01*
X232775904Y-71096414D02*
X232728285Y-71191652D01*
X232728285Y-71191652D02*
X232680666Y-71239271D01*
X232680666Y-71239271D02*
X232585428Y-71286890D01*
X232585428Y-71286890D02*
X232394952Y-71286890D01*
X232394952Y-71286890D02*
X232299714Y-71334509D01*
X232299714Y-71334509D02*
X232252095Y-71382128D01*
X232252095Y-71382128D02*
X232204476Y-71477366D01*
X232204476Y-71477366D02*
X232204476Y-71667842D01*
X232204476Y-71667842D02*
X232252095Y-71763080D01*
X232252095Y-71763080D02*
X232299714Y-71810700D01*
X232299714Y-71810700D02*
X232394952Y-71858319D01*
X232394952Y-71858319D02*
X232585428Y-71858319D01*
X232585428Y-71858319D02*
X232680666Y-71810700D01*
X232680666Y-71810700D02*
X232728285Y-71763080D01*
X232728285Y-71763080D02*
X232775904Y-71667842D01*
X232775904Y-71667842D02*
X232775904Y-71477366D01*
X232775904Y-71477366D02*
X232728285Y-71382128D01*
X232728285Y-71382128D02*
X232680666Y-71334509D01*
X232680666Y-71334509D02*
X232585428Y-71286890D01*
X179259819Y-102013094D02*
X178259819Y-102013094D01*
X178259819Y-102013094D02*
X178259819Y-101774999D01*
X178259819Y-101774999D02*
X178307438Y-101632142D01*
X178307438Y-101632142D02*
X178402676Y-101536904D01*
X178402676Y-101536904D02*
X178497914Y-101489285D01*
X178497914Y-101489285D02*
X178688390Y-101441666D01*
X178688390Y-101441666D02*
X178831247Y-101441666D01*
X178831247Y-101441666D02*
X179021723Y-101489285D01*
X179021723Y-101489285D02*
X179116961Y-101536904D01*
X179116961Y-101536904D02*
X179212200Y-101632142D01*
X179212200Y-101632142D02*
X179259819Y-101774999D01*
X179259819Y-101774999D02*
X179259819Y-102013094D01*
X178355057Y-101060713D02*
X178307438Y-101013094D01*
X178307438Y-101013094D02*
X178259819Y-100917856D01*
X178259819Y-100917856D02*
X178259819Y-100679761D01*
X178259819Y-100679761D02*
X178307438Y-100584523D01*
X178307438Y-100584523D02*
X178355057Y-100536904D01*
X178355057Y-100536904D02*
X178450295Y-100489285D01*
X178450295Y-100489285D02*
X178545533Y-100489285D01*
X178545533Y-100489285D02*
X178688390Y-100536904D01*
X178688390Y-100536904D02*
X179259819Y-101108332D01*
X179259819Y-101108332D02*
X179259819Y-100489285D01*
X214488333Y-59659580D02*
X214440714Y-59707200D01*
X214440714Y-59707200D02*
X214297857Y-59754819D01*
X214297857Y-59754819D02*
X214202619Y-59754819D01*
X214202619Y-59754819D02*
X214059762Y-59707200D01*
X214059762Y-59707200D02*
X213964524Y-59611961D01*
X213964524Y-59611961D02*
X213916905Y-59516723D01*
X213916905Y-59516723D02*
X213869286Y-59326247D01*
X213869286Y-59326247D02*
X213869286Y-59183390D01*
X213869286Y-59183390D02*
X213916905Y-58992914D01*
X213916905Y-58992914D02*
X213964524Y-58897676D01*
X213964524Y-58897676D02*
X214059762Y-58802438D01*
X214059762Y-58802438D02*
X214202619Y-58754819D01*
X214202619Y-58754819D02*
X214297857Y-58754819D01*
X214297857Y-58754819D02*
X214440714Y-58802438D01*
X214440714Y-58802438D02*
X214488333Y-58850057D01*
X215393095Y-58754819D02*
X214916905Y-58754819D01*
X214916905Y-58754819D02*
X214869286Y-59231009D01*
X214869286Y-59231009D02*
X214916905Y-59183390D01*
X214916905Y-59183390D02*
X215012143Y-59135771D01*
X215012143Y-59135771D02*
X215250238Y-59135771D01*
X215250238Y-59135771D02*
X215345476Y-59183390D01*
X215345476Y-59183390D02*
X215393095Y-59231009D01*
X215393095Y-59231009D02*
X215440714Y-59326247D01*
X215440714Y-59326247D02*
X215440714Y-59564342D01*
X215440714Y-59564342D02*
X215393095Y-59659580D01*
X215393095Y-59659580D02*
X215345476Y-59707200D01*
X215345476Y-59707200D02*
X215250238Y-59754819D01*
X215250238Y-59754819D02*
X215012143Y-59754819D01*
X215012143Y-59754819D02*
X214916905Y-59707200D01*
X214916905Y-59707200D02*
X214869286Y-59659580D01*
X162459761Y-56065057D02*
X162364523Y-56017438D01*
X162364523Y-56017438D02*
X162269285Y-55922200D01*
X162269285Y-55922200D02*
X162126428Y-55779342D01*
X162126428Y-55779342D02*
X162031190Y-55731723D01*
X162031190Y-55731723D02*
X161935952Y-55731723D01*
X161983571Y-55969819D02*
X161888333Y-55922200D01*
X161888333Y-55922200D02*
X161793095Y-55826961D01*
X161793095Y-55826961D02*
X161745476Y-55636485D01*
X161745476Y-55636485D02*
X161745476Y-55303152D01*
X161745476Y-55303152D02*
X161793095Y-55112676D01*
X161793095Y-55112676D02*
X161888333Y-55017438D01*
X161888333Y-55017438D02*
X161983571Y-54969819D01*
X161983571Y-54969819D02*
X162174047Y-54969819D01*
X162174047Y-54969819D02*
X162269285Y-55017438D01*
X162269285Y-55017438D02*
X162364523Y-55112676D01*
X162364523Y-55112676D02*
X162412142Y-55303152D01*
X162412142Y-55303152D02*
X162412142Y-55636485D01*
X162412142Y-55636485D02*
X162364523Y-55826961D01*
X162364523Y-55826961D02*
X162269285Y-55922200D01*
X162269285Y-55922200D02*
X162174047Y-55969819D01*
X162174047Y-55969819D02*
X161983571Y-55969819D01*
X163364523Y-55969819D02*
X162793095Y-55969819D01*
X163078809Y-55969819D02*
X163078809Y-54969819D01*
X163078809Y-54969819D02*
X162983571Y-55112676D01*
X162983571Y-55112676D02*
X162888333Y-55207914D01*
X162888333Y-55207914D02*
X162793095Y-55255533D01*
X215032142Y-68874819D02*
X214698809Y-68398628D01*
X214460714Y-68874819D02*
X214460714Y-67874819D01*
X214460714Y-67874819D02*
X214841666Y-67874819D01*
X214841666Y-67874819D02*
X214936904Y-67922438D01*
X214936904Y-67922438D02*
X214984523Y-67970057D01*
X214984523Y-67970057D02*
X215032142Y-68065295D01*
X215032142Y-68065295D02*
X215032142Y-68208152D01*
X215032142Y-68208152D02*
X214984523Y-68303390D01*
X214984523Y-68303390D02*
X214936904Y-68351009D01*
X214936904Y-68351009D02*
X214841666Y-68398628D01*
X214841666Y-68398628D02*
X214460714Y-68398628D01*
X215984523Y-68874819D02*
X215413095Y-68874819D01*
X215698809Y-68874819D02*
X215698809Y-67874819D01*
X215698809Y-67874819D02*
X215603571Y-68017676D01*
X215603571Y-68017676D02*
X215508333Y-68112914D01*
X215508333Y-68112914D02*
X215413095Y-68160533D01*
X216365476Y-67970057D02*
X216413095Y-67922438D01*
X216413095Y-67922438D02*
X216508333Y-67874819D01*
X216508333Y-67874819D02*
X216746428Y-67874819D01*
X216746428Y-67874819D02*
X216841666Y-67922438D01*
X216841666Y-67922438D02*
X216889285Y-67970057D01*
X216889285Y-67970057D02*
X216936904Y-68065295D01*
X216936904Y-68065295D02*
X216936904Y-68160533D01*
X216936904Y-68160533D02*
X216889285Y-68303390D01*
X216889285Y-68303390D02*
X216317857Y-68874819D01*
X216317857Y-68874819D02*
X216936904Y-68874819D01*
X190928095Y-59284819D02*
X190928095Y-60094342D01*
X190928095Y-60094342D02*
X190975714Y-60189580D01*
X190975714Y-60189580D02*
X191023333Y-60237200D01*
X191023333Y-60237200D02*
X191118571Y-60284819D01*
X191118571Y-60284819D02*
X191309047Y-60284819D01*
X191309047Y-60284819D02*
X191404285Y-60237200D01*
X191404285Y-60237200D02*
X191451904Y-60189580D01*
X191451904Y-60189580D02*
X191499523Y-60094342D01*
X191499523Y-60094342D02*
X191499523Y-59284819D01*
X191928095Y-59380057D02*
X191975714Y-59332438D01*
X191975714Y-59332438D02*
X192070952Y-59284819D01*
X192070952Y-59284819D02*
X192309047Y-59284819D01*
X192309047Y-59284819D02*
X192404285Y-59332438D01*
X192404285Y-59332438D02*
X192451904Y-59380057D01*
X192451904Y-59380057D02*
X192499523Y-59475295D01*
X192499523Y-59475295D02*
X192499523Y-59570533D01*
X192499523Y-59570533D02*
X192451904Y-59713390D01*
X192451904Y-59713390D02*
X191880476Y-60284819D01*
X191880476Y-60284819D02*
X192499523Y-60284819D01*
X168809580Y-81821666D02*
X168857200Y-81869285D01*
X168857200Y-81869285D02*
X168904819Y-82012142D01*
X168904819Y-82012142D02*
X168904819Y-82107380D01*
X168904819Y-82107380D02*
X168857200Y-82250237D01*
X168857200Y-82250237D02*
X168761961Y-82345475D01*
X168761961Y-82345475D02*
X168666723Y-82393094D01*
X168666723Y-82393094D02*
X168476247Y-82440713D01*
X168476247Y-82440713D02*
X168333390Y-82440713D01*
X168333390Y-82440713D02*
X168142914Y-82393094D01*
X168142914Y-82393094D02*
X168047676Y-82345475D01*
X168047676Y-82345475D02*
X167952438Y-82250237D01*
X167952438Y-82250237D02*
X167904819Y-82107380D01*
X167904819Y-82107380D02*
X167904819Y-82012142D01*
X167904819Y-82012142D02*
X167952438Y-81869285D01*
X167952438Y-81869285D02*
X168000057Y-81821666D01*
X168904819Y-80869285D02*
X168904819Y-81440713D01*
X168904819Y-81154999D02*
X167904819Y-81154999D01*
X167904819Y-81154999D02*
X168047676Y-81250237D01*
X168047676Y-81250237D02*
X168142914Y-81345475D01*
X168142914Y-81345475D02*
X168190533Y-81440713D01*
X207309642Y-49249819D02*
X206976309Y-48773628D01*
X206738214Y-49249819D02*
X206738214Y-48249819D01*
X206738214Y-48249819D02*
X207119166Y-48249819D01*
X207119166Y-48249819D02*
X207214404Y-48297438D01*
X207214404Y-48297438D02*
X207262023Y-48345057D01*
X207262023Y-48345057D02*
X207309642Y-48440295D01*
X207309642Y-48440295D02*
X207309642Y-48583152D01*
X207309642Y-48583152D02*
X207262023Y-48678390D01*
X207262023Y-48678390D02*
X207214404Y-48726009D01*
X207214404Y-48726009D02*
X207119166Y-48773628D01*
X207119166Y-48773628D02*
X206738214Y-48773628D01*
X208262023Y-49249819D02*
X207690595Y-49249819D01*
X207976309Y-49249819D02*
X207976309Y-48249819D01*
X207976309Y-48249819D02*
X207881071Y-48392676D01*
X207881071Y-48392676D02*
X207785833Y-48487914D01*
X207785833Y-48487914D02*
X207690595Y-48535533D01*
X208881071Y-48249819D02*
X208976309Y-48249819D01*
X208976309Y-48249819D02*
X209071547Y-48297438D01*
X209071547Y-48297438D02*
X209119166Y-48345057D01*
X209119166Y-48345057D02*
X209166785Y-48440295D01*
X209166785Y-48440295D02*
X209214404Y-48630771D01*
X209214404Y-48630771D02*
X209214404Y-48868866D01*
X209214404Y-48868866D02*
X209166785Y-49059342D01*
X209166785Y-49059342D02*
X209119166Y-49154580D01*
X209119166Y-49154580D02*
X209071547Y-49202200D01*
X209071547Y-49202200D02*
X208976309Y-49249819D01*
X208976309Y-49249819D02*
X208881071Y-49249819D01*
X208881071Y-49249819D02*
X208785833Y-49202200D01*
X208785833Y-49202200D02*
X208738214Y-49154580D01*
X208738214Y-49154580D02*
X208690595Y-49059342D01*
X208690595Y-49059342D02*
X208642976Y-48868866D01*
X208642976Y-48868866D02*
X208642976Y-48630771D01*
X208642976Y-48630771D02*
X208690595Y-48440295D01*
X208690595Y-48440295D02*
X208738214Y-48345057D01*
X208738214Y-48345057D02*
X208785833Y-48297438D01*
X208785833Y-48297438D02*
X208881071Y-48249819D01*
X188269642Y-68954819D02*
X187936309Y-68478628D01*
X187698214Y-68954819D02*
X187698214Y-67954819D01*
X187698214Y-67954819D02*
X188079166Y-67954819D01*
X188079166Y-67954819D02*
X188174404Y-68002438D01*
X188174404Y-68002438D02*
X188222023Y-68050057D01*
X188222023Y-68050057D02*
X188269642Y-68145295D01*
X188269642Y-68145295D02*
X188269642Y-68288152D01*
X188269642Y-68288152D02*
X188222023Y-68383390D01*
X188222023Y-68383390D02*
X188174404Y-68431009D01*
X188174404Y-68431009D02*
X188079166Y-68478628D01*
X188079166Y-68478628D02*
X187698214Y-68478628D01*
X188650595Y-68050057D02*
X188698214Y-68002438D01*
X188698214Y-68002438D02*
X188793452Y-67954819D01*
X188793452Y-67954819D02*
X189031547Y-67954819D01*
X189031547Y-67954819D02*
X189126785Y-68002438D01*
X189126785Y-68002438D02*
X189174404Y-68050057D01*
X189174404Y-68050057D02*
X189222023Y-68145295D01*
X189222023Y-68145295D02*
X189222023Y-68240533D01*
X189222023Y-68240533D02*
X189174404Y-68383390D01*
X189174404Y-68383390D02*
X188602976Y-68954819D01*
X188602976Y-68954819D02*
X189222023Y-68954819D01*
X189841071Y-67954819D02*
X189936309Y-67954819D01*
X189936309Y-67954819D02*
X190031547Y-68002438D01*
X190031547Y-68002438D02*
X190079166Y-68050057D01*
X190079166Y-68050057D02*
X190126785Y-68145295D01*
X190126785Y-68145295D02*
X190174404Y-68335771D01*
X190174404Y-68335771D02*
X190174404Y-68573866D01*
X190174404Y-68573866D02*
X190126785Y-68764342D01*
X190126785Y-68764342D02*
X190079166Y-68859580D01*
X190079166Y-68859580D02*
X190031547Y-68907200D01*
X190031547Y-68907200D02*
X189936309Y-68954819D01*
X189936309Y-68954819D02*
X189841071Y-68954819D01*
X189841071Y-68954819D02*
X189745833Y-68907200D01*
X189745833Y-68907200D02*
X189698214Y-68859580D01*
X189698214Y-68859580D02*
X189650595Y-68764342D01*
X189650595Y-68764342D02*
X189602976Y-68573866D01*
X189602976Y-68573866D02*
X189602976Y-68335771D01*
X189602976Y-68335771D02*
X189650595Y-68145295D01*
X189650595Y-68145295D02*
X189698214Y-68050057D01*
X189698214Y-68050057D02*
X189745833Y-68002438D01*
X189745833Y-68002438D02*
X189841071Y-67954819D01*
X189595238Y-89407200D02*
X189738095Y-89454819D01*
X189738095Y-89454819D02*
X189976190Y-89454819D01*
X189976190Y-89454819D02*
X190071428Y-89407200D01*
X190071428Y-89407200D02*
X190119047Y-89359580D01*
X190119047Y-89359580D02*
X190166666Y-89264342D01*
X190166666Y-89264342D02*
X190166666Y-89169104D01*
X190166666Y-89169104D02*
X190119047Y-89073866D01*
X190119047Y-89073866D02*
X190071428Y-89026247D01*
X190071428Y-89026247D02*
X189976190Y-88978628D01*
X189976190Y-88978628D02*
X189785714Y-88931009D01*
X189785714Y-88931009D02*
X189690476Y-88883390D01*
X189690476Y-88883390D02*
X189642857Y-88835771D01*
X189642857Y-88835771D02*
X189595238Y-88740533D01*
X189595238Y-88740533D02*
X189595238Y-88645295D01*
X189595238Y-88645295D02*
X189642857Y-88550057D01*
X189642857Y-88550057D02*
X189690476Y-88502438D01*
X189690476Y-88502438D02*
X189785714Y-88454819D01*
X189785714Y-88454819D02*
X190023809Y-88454819D01*
X190023809Y-88454819D02*
X190166666Y-88502438D01*
X190595238Y-89454819D02*
X190595238Y-88454819D01*
X191023809Y-89454819D02*
X191023809Y-88931009D01*
X191023809Y-88931009D02*
X190976190Y-88835771D01*
X190976190Y-88835771D02*
X190880952Y-88788152D01*
X190880952Y-88788152D02*
X190738095Y-88788152D01*
X190738095Y-88788152D02*
X190642857Y-88835771D01*
X190642857Y-88835771D02*
X190595238Y-88883390D01*
X191928571Y-88788152D02*
X191928571Y-89454819D01*
X191500000Y-88788152D02*
X191500000Y-89311961D01*
X191500000Y-89311961D02*
X191547619Y-89407200D01*
X191547619Y-89407200D02*
X191642857Y-89454819D01*
X191642857Y-89454819D02*
X191785714Y-89454819D01*
X191785714Y-89454819D02*
X191880952Y-89407200D01*
X191880952Y-89407200D02*
X191928571Y-89359580D01*
X192404762Y-88788152D02*
X192404762Y-89454819D01*
X192404762Y-88883390D02*
X192452381Y-88835771D01*
X192452381Y-88835771D02*
X192547619Y-88788152D01*
X192547619Y-88788152D02*
X192690476Y-88788152D01*
X192690476Y-88788152D02*
X192785714Y-88835771D01*
X192785714Y-88835771D02*
X192833333Y-88931009D01*
X192833333Y-88931009D02*
X192833333Y-89454819D01*
X193166667Y-88788152D02*
X193547619Y-88788152D01*
X193309524Y-88454819D02*
X193309524Y-89311961D01*
X193309524Y-89311961D02*
X193357143Y-89407200D01*
X193357143Y-89407200D02*
X193452381Y-89454819D01*
X193452381Y-89454819D02*
X193547619Y-89454819D01*
X194404762Y-89454819D02*
X193833334Y-89454819D01*
X194119048Y-89454819D02*
X194119048Y-88454819D01*
X194119048Y-88454819D02*
X194023810Y-88597676D01*
X194023810Y-88597676D02*
X193928572Y-88692914D01*
X193928572Y-88692914D02*
X193833334Y-88740533D01*
X231221142Y-63358319D02*
X230887809Y-62882128D01*
X230649714Y-63358319D02*
X230649714Y-62358319D01*
X230649714Y-62358319D02*
X231030666Y-62358319D01*
X231030666Y-62358319D02*
X231125904Y-62405938D01*
X231125904Y-62405938D02*
X231173523Y-62453557D01*
X231173523Y-62453557D02*
X231221142Y-62548795D01*
X231221142Y-62548795D02*
X231221142Y-62691652D01*
X231221142Y-62691652D02*
X231173523Y-62786890D01*
X231173523Y-62786890D02*
X231125904Y-62834509D01*
X231125904Y-62834509D02*
X231030666Y-62882128D01*
X231030666Y-62882128D02*
X230649714Y-62882128D01*
X232173523Y-63358319D02*
X231602095Y-63358319D01*
X231887809Y-63358319D02*
X231887809Y-62358319D01*
X231887809Y-62358319D02*
X231792571Y-62501176D01*
X231792571Y-62501176D02*
X231697333Y-62596414D01*
X231697333Y-62596414D02*
X231602095Y-62644033D01*
X232649714Y-63358319D02*
X232840190Y-63358319D01*
X232840190Y-63358319D02*
X232935428Y-63310700D01*
X232935428Y-63310700D02*
X232983047Y-63263080D01*
X232983047Y-63263080D02*
X233078285Y-63120223D01*
X233078285Y-63120223D02*
X233125904Y-62929747D01*
X233125904Y-62929747D02*
X233125904Y-62548795D01*
X233125904Y-62548795D02*
X233078285Y-62453557D01*
X233078285Y-62453557D02*
X233030666Y-62405938D01*
X233030666Y-62405938D02*
X232935428Y-62358319D01*
X232935428Y-62358319D02*
X232744952Y-62358319D01*
X232744952Y-62358319D02*
X232649714Y-62405938D01*
X232649714Y-62405938D02*
X232602095Y-62453557D01*
X232602095Y-62453557D02*
X232554476Y-62548795D01*
X232554476Y-62548795D02*
X232554476Y-62786890D01*
X232554476Y-62786890D02*
X232602095Y-62882128D01*
X232602095Y-62882128D02*
X232649714Y-62929747D01*
X232649714Y-62929747D02*
X232744952Y-62977366D01*
X232744952Y-62977366D02*
X232935428Y-62977366D01*
X232935428Y-62977366D02*
X233030666Y-62929747D01*
X233030666Y-62929747D02*
X233078285Y-62882128D01*
X233078285Y-62882128D02*
X233125904Y-62786890D01*
X223191667Y-64257200D02*
X223334524Y-64304819D01*
X223334524Y-64304819D02*
X223572619Y-64304819D01*
X223572619Y-64304819D02*
X223667857Y-64257200D01*
X223667857Y-64257200D02*
X223715476Y-64209580D01*
X223715476Y-64209580D02*
X223763095Y-64114342D01*
X223763095Y-64114342D02*
X223763095Y-64019104D01*
X223763095Y-64019104D02*
X223715476Y-63923866D01*
X223715476Y-63923866D02*
X223667857Y-63876247D01*
X223667857Y-63876247D02*
X223572619Y-63828628D01*
X223572619Y-63828628D02*
X223382143Y-63781009D01*
X223382143Y-63781009D02*
X223286905Y-63733390D01*
X223286905Y-63733390D02*
X223239286Y-63685771D01*
X223239286Y-63685771D02*
X223191667Y-63590533D01*
X223191667Y-63590533D02*
X223191667Y-63495295D01*
X223191667Y-63495295D02*
X223239286Y-63400057D01*
X223239286Y-63400057D02*
X223286905Y-63352438D01*
X223286905Y-63352438D02*
X223382143Y-63304819D01*
X223382143Y-63304819D02*
X223620238Y-63304819D01*
X223620238Y-63304819D02*
X223763095Y-63352438D01*
X224096429Y-63304819D02*
X224334524Y-64304819D01*
X224334524Y-64304819D02*
X224525000Y-63590533D01*
X224525000Y-63590533D02*
X224715476Y-64304819D01*
X224715476Y-64304819D02*
X224953572Y-63304819D01*
X225239286Y-63304819D02*
X225858333Y-63304819D01*
X225858333Y-63304819D02*
X225525000Y-63685771D01*
X225525000Y-63685771D02*
X225667857Y-63685771D01*
X225667857Y-63685771D02*
X225763095Y-63733390D01*
X225763095Y-63733390D02*
X225810714Y-63781009D01*
X225810714Y-63781009D02*
X225858333Y-63876247D01*
X225858333Y-63876247D02*
X225858333Y-64114342D01*
X225858333Y-64114342D02*
X225810714Y-64209580D01*
X225810714Y-64209580D02*
X225763095Y-64257200D01*
X225763095Y-64257200D02*
X225667857Y-64304819D01*
X225667857Y-64304819D02*
X225382143Y-64304819D01*
X225382143Y-64304819D02*
X225286905Y-64257200D01*
X225286905Y-64257200D02*
X225239286Y-64209580D01*
X185666666Y-42054819D02*
X185666666Y-42769104D01*
X185666666Y-42769104D02*
X185619047Y-42911961D01*
X185619047Y-42911961D02*
X185523809Y-43007200D01*
X185523809Y-43007200D02*
X185380952Y-43054819D01*
X185380952Y-43054819D02*
X185285714Y-43054819D01*
X186619047Y-42054819D02*
X186142857Y-42054819D01*
X186142857Y-42054819D02*
X186095238Y-42531009D01*
X186095238Y-42531009D02*
X186142857Y-42483390D01*
X186142857Y-42483390D02*
X186238095Y-42435771D01*
X186238095Y-42435771D02*
X186476190Y-42435771D01*
X186476190Y-42435771D02*
X186571428Y-42483390D01*
X186571428Y-42483390D02*
X186619047Y-42531009D01*
X186619047Y-42531009D02*
X186666666Y-42626247D01*
X186666666Y-42626247D02*
X186666666Y-42864342D01*
X186666666Y-42864342D02*
X186619047Y-42959580D01*
X186619047Y-42959580D02*
X186571428Y-43007200D01*
X186571428Y-43007200D02*
X186476190Y-43054819D01*
X186476190Y-43054819D02*
X186238095Y-43054819D01*
X186238095Y-43054819D02*
X186142857Y-43007200D01*
X186142857Y-43007200D02*
X186095238Y-42959580D01*
X212523333Y-62004580D02*
X212475714Y-62052200D01*
X212475714Y-62052200D02*
X212332857Y-62099819D01*
X212332857Y-62099819D02*
X212237619Y-62099819D01*
X212237619Y-62099819D02*
X212094762Y-62052200D01*
X212094762Y-62052200D02*
X211999524Y-61956961D01*
X211999524Y-61956961D02*
X211951905Y-61861723D01*
X211951905Y-61861723D02*
X211904286Y-61671247D01*
X211904286Y-61671247D02*
X211904286Y-61528390D01*
X211904286Y-61528390D02*
X211951905Y-61337914D01*
X211951905Y-61337914D02*
X211999524Y-61242676D01*
X211999524Y-61242676D02*
X212094762Y-61147438D01*
X212094762Y-61147438D02*
X212237619Y-61099819D01*
X212237619Y-61099819D02*
X212332857Y-61099819D01*
X212332857Y-61099819D02*
X212475714Y-61147438D01*
X212475714Y-61147438D02*
X212523333Y-61195057D01*
X213380476Y-61099819D02*
X213190000Y-61099819D01*
X213190000Y-61099819D02*
X213094762Y-61147438D01*
X213094762Y-61147438D02*
X213047143Y-61195057D01*
X213047143Y-61195057D02*
X212951905Y-61337914D01*
X212951905Y-61337914D02*
X212904286Y-61528390D01*
X212904286Y-61528390D02*
X212904286Y-61909342D01*
X212904286Y-61909342D02*
X212951905Y-62004580D01*
X212951905Y-62004580D02*
X212999524Y-62052200D01*
X212999524Y-62052200D02*
X213094762Y-62099819D01*
X213094762Y-62099819D02*
X213285238Y-62099819D01*
X213285238Y-62099819D02*
X213380476Y-62052200D01*
X213380476Y-62052200D02*
X213428095Y-62004580D01*
X213428095Y-62004580D02*
X213475714Y-61909342D01*
X213475714Y-61909342D02*
X213475714Y-61671247D01*
X213475714Y-61671247D02*
X213428095Y-61576009D01*
X213428095Y-61576009D02*
X213380476Y-61528390D01*
X213380476Y-61528390D02*
X213285238Y-61480771D01*
X213285238Y-61480771D02*
X213094762Y-61480771D01*
X213094762Y-61480771D02*
X212999524Y-61528390D01*
X212999524Y-61528390D02*
X212951905Y-61576009D01*
X212951905Y-61576009D02*
X212904286Y-61671247D01*
X207179580Y-56038366D02*
X207227200Y-56085985D01*
X207227200Y-56085985D02*
X207274819Y-56228842D01*
X207274819Y-56228842D02*
X207274819Y-56324080D01*
X207274819Y-56324080D02*
X207227200Y-56466937D01*
X207227200Y-56466937D02*
X207131961Y-56562175D01*
X207131961Y-56562175D02*
X207036723Y-56609794D01*
X207036723Y-56609794D02*
X206846247Y-56657413D01*
X206846247Y-56657413D02*
X206703390Y-56657413D01*
X206703390Y-56657413D02*
X206512914Y-56609794D01*
X206512914Y-56609794D02*
X206417676Y-56562175D01*
X206417676Y-56562175D02*
X206322438Y-56466937D01*
X206322438Y-56466937D02*
X206274819Y-56324080D01*
X206274819Y-56324080D02*
X206274819Y-56228842D01*
X206274819Y-56228842D02*
X206322438Y-56085985D01*
X206322438Y-56085985D02*
X206370057Y-56038366D01*
X206274819Y-55705032D02*
X206274819Y-55085985D01*
X206274819Y-55085985D02*
X206655771Y-55419318D01*
X206655771Y-55419318D02*
X206655771Y-55276461D01*
X206655771Y-55276461D02*
X206703390Y-55181223D01*
X206703390Y-55181223D02*
X206751009Y-55133604D01*
X206751009Y-55133604D02*
X206846247Y-55085985D01*
X206846247Y-55085985D02*
X207084342Y-55085985D01*
X207084342Y-55085985D02*
X207179580Y-55133604D01*
X207179580Y-55133604D02*
X207227200Y-55181223D01*
X207227200Y-55181223D02*
X207274819Y-55276461D01*
X207274819Y-55276461D02*
X207274819Y-55562175D01*
X207274819Y-55562175D02*
X207227200Y-55657413D01*
X207227200Y-55657413D02*
X207179580Y-55705032D01*
X183238095Y-66104819D02*
X183809523Y-66104819D01*
X183523809Y-67104819D02*
X183523809Y-66104819D01*
X184142857Y-67104819D02*
X184142857Y-66104819D01*
X184142857Y-66104819D02*
X184523809Y-66104819D01*
X184523809Y-66104819D02*
X184619047Y-66152438D01*
X184619047Y-66152438D02*
X184666666Y-66200057D01*
X184666666Y-66200057D02*
X184714285Y-66295295D01*
X184714285Y-66295295D02*
X184714285Y-66438152D01*
X184714285Y-66438152D02*
X184666666Y-66533390D01*
X184666666Y-66533390D02*
X184619047Y-66581009D01*
X184619047Y-66581009D02*
X184523809Y-66628628D01*
X184523809Y-66628628D02*
X184142857Y-66628628D01*
X185666666Y-67104819D02*
X185095238Y-67104819D01*
X185380952Y-67104819D02*
X185380952Y-66104819D01*
X185380952Y-66104819D02*
X185285714Y-66247676D01*
X185285714Y-66247676D02*
X185190476Y-66342914D01*
X185190476Y-66342914D02*
X185095238Y-66390533D01*
X166038095Y-88004819D02*
X166038095Y-88814342D01*
X166038095Y-88814342D02*
X166085714Y-88909580D01*
X166085714Y-88909580D02*
X166133333Y-88957200D01*
X166133333Y-88957200D02*
X166228571Y-89004819D01*
X166228571Y-89004819D02*
X166419047Y-89004819D01*
X166419047Y-89004819D02*
X166514285Y-88957200D01*
X166514285Y-88957200D02*
X166561904Y-88909580D01*
X166561904Y-88909580D02*
X166609523Y-88814342D01*
X166609523Y-88814342D02*
X166609523Y-88004819D01*
X167514285Y-88004819D02*
X167323809Y-88004819D01*
X167323809Y-88004819D02*
X167228571Y-88052438D01*
X167228571Y-88052438D02*
X167180952Y-88100057D01*
X167180952Y-88100057D02*
X167085714Y-88242914D01*
X167085714Y-88242914D02*
X167038095Y-88433390D01*
X167038095Y-88433390D02*
X167038095Y-88814342D01*
X167038095Y-88814342D02*
X167085714Y-88909580D01*
X167085714Y-88909580D02*
X167133333Y-88957200D01*
X167133333Y-88957200D02*
X167228571Y-89004819D01*
X167228571Y-89004819D02*
X167419047Y-89004819D01*
X167419047Y-89004819D02*
X167514285Y-88957200D01*
X167514285Y-88957200D02*
X167561904Y-88909580D01*
X167561904Y-88909580D02*
X167609523Y-88814342D01*
X167609523Y-88814342D02*
X167609523Y-88576247D01*
X167609523Y-88576247D02*
X167561904Y-88481009D01*
X167561904Y-88481009D02*
X167514285Y-88433390D01*
X167514285Y-88433390D02*
X167419047Y-88385771D01*
X167419047Y-88385771D02*
X167228571Y-88385771D01*
X167228571Y-88385771D02*
X167133333Y-88433390D01*
X167133333Y-88433390D02*
X167085714Y-88481009D01*
X167085714Y-88481009D02*
X167038095Y-88576247D01*
X184018333Y-56064819D02*
X183685000Y-55588628D01*
X183446905Y-56064819D02*
X183446905Y-55064819D01*
X183446905Y-55064819D02*
X183827857Y-55064819D01*
X183827857Y-55064819D02*
X183923095Y-55112438D01*
X183923095Y-55112438D02*
X183970714Y-55160057D01*
X183970714Y-55160057D02*
X184018333Y-55255295D01*
X184018333Y-55255295D02*
X184018333Y-55398152D01*
X184018333Y-55398152D02*
X183970714Y-55493390D01*
X183970714Y-55493390D02*
X183923095Y-55541009D01*
X183923095Y-55541009D02*
X183827857Y-55588628D01*
X183827857Y-55588628D02*
X183446905Y-55588628D01*
X184923095Y-55064819D02*
X184446905Y-55064819D01*
X184446905Y-55064819D02*
X184399286Y-55541009D01*
X184399286Y-55541009D02*
X184446905Y-55493390D01*
X184446905Y-55493390D02*
X184542143Y-55445771D01*
X184542143Y-55445771D02*
X184780238Y-55445771D01*
X184780238Y-55445771D02*
X184875476Y-55493390D01*
X184875476Y-55493390D02*
X184923095Y-55541009D01*
X184923095Y-55541009D02*
X184970714Y-55636247D01*
X184970714Y-55636247D02*
X184970714Y-55874342D01*
X184970714Y-55874342D02*
X184923095Y-55969580D01*
X184923095Y-55969580D02*
X184875476Y-56017200D01*
X184875476Y-56017200D02*
X184780238Y-56064819D01*
X184780238Y-56064819D02*
X184542143Y-56064819D01*
X184542143Y-56064819D02*
X184446905Y-56017200D01*
X184446905Y-56017200D02*
X184399286Y-55969580D01*
X177264642Y-71409580D02*
X177217023Y-71457200D01*
X177217023Y-71457200D02*
X177074166Y-71504819D01*
X177074166Y-71504819D02*
X176978928Y-71504819D01*
X176978928Y-71504819D02*
X176836071Y-71457200D01*
X176836071Y-71457200D02*
X176740833Y-71361961D01*
X176740833Y-71361961D02*
X176693214Y-71266723D01*
X176693214Y-71266723D02*
X176645595Y-71076247D01*
X176645595Y-71076247D02*
X176645595Y-70933390D01*
X176645595Y-70933390D02*
X176693214Y-70742914D01*
X176693214Y-70742914D02*
X176740833Y-70647676D01*
X176740833Y-70647676D02*
X176836071Y-70552438D01*
X176836071Y-70552438D02*
X176978928Y-70504819D01*
X176978928Y-70504819D02*
X177074166Y-70504819D01*
X177074166Y-70504819D02*
X177217023Y-70552438D01*
X177217023Y-70552438D02*
X177264642Y-70600057D01*
X178217023Y-71504819D02*
X177645595Y-71504819D01*
X177931309Y-71504819D02*
X177931309Y-70504819D01*
X177931309Y-70504819D02*
X177836071Y-70647676D01*
X177836071Y-70647676D02*
X177740833Y-70742914D01*
X177740833Y-70742914D02*
X177645595Y-70790533D01*
X178550357Y-70504819D02*
X179169404Y-70504819D01*
X179169404Y-70504819D02*
X178836071Y-70885771D01*
X178836071Y-70885771D02*
X178978928Y-70885771D01*
X178978928Y-70885771D02*
X179074166Y-70933390D01*
X179074166Y-70933390D02*
X179121785Y-70981009D01*
X179121785Y-70981009D02*
X179169404Y-71076247D01*
X179169404Y-71076247D02*
X179169404Y-71314342D01*
X179169404Y-71314342D02*
X179121785Y-71409580D01*
X179121785Y-71409580D02*
X179074166Y-71457200D01*
X179074166Y-71457200D02*
X178978928Y-71504819D01*
X178978928Y-71504819D02*
X178693214Y-71504819D01*
X178693214Y-71504819D02*
X178597976Y-71457200D01*
X178597976Y-71457200D02*
X178550357Y-71409580D01*
X218494819Y-87833333D02*
X219209104Y-87833333D01*
X219209104Y-87833333D02*
X219351961Y-87880952D01*
X219351961Y-87880952D02*
X219447200Y-87976190D01*
X219447200Y-87976190D02*
X219494819Y-88119047D01*
X219494819Y-88119047D02*
X219494819Y-88214285D01*
X218494819Y-87452380D02*
X218494819Y-86833333D01*
X218494819Y-86833333D02*
X218875771Y-87166666D01*
X218875771Y-87166666D02*
X218875771Y-87023809D01*
X218875771Y-87023809D02*
X218923390Y-86928571D01*
X218923390Y-86928571D02*
X218971009Y-86880952D01*
X218971009Y-86880952D02*
X219066247Y-86833333D01*
X219066247Y-86833333D02*
X219304342Y-86833333D01*
X219304342Y-86833333D02*
X219399580Y-86880952D01*
X219399580Y-86880952D02*
X219447200Y-86928571D01*
X219447200Y-86928571D02*
X219494819Y-87023809D01*
X219494819Y-87023809D02*
X219494819Y-87309523D01*
X219494819Y-87309523D02*
X219447200Y-87404761D01*
X219447200Y-87404761D02*
X219399580Y-87452380D01*
X178611905Y-65954819D02*
X178611905Y-64954819D01*
X178611905Y-64954819D02*
X178850000Y-64954819D01*
X178850000Y-64954819D02*
X178992857Y-65002438D01*
X178992857Y-65002438D02*
X179088095Y-65097676D01*
X179088095Y-65097676D02*
X179135714Y-65192914D01*
X179135714Y-65192914D02*
X179183333Y-65383390D01*
X179183333Y-65383390D02*
X179183333Y-65526247D01*
X179183333Y-65526247D02*
X179135714Y-65716723D01*
X179135714Y-65716723D02*
X179088095Y-65811961D01*
X179088095Y-65811961D02*
X178992857Y-65907200D01*
X178992857Y-65907200D02*
X178850000Y-65954819D01*
X178850000Y-65954819D02*
X178611905Y-65954819D01*
X180088095Y-64954819D02*
X179611905Y-64954819D01*
X179611905Y-64954819D02*
X179564286Y-65431009D01*
X179564286Y-65431009D02*
X179611905Y-65383390D01*
X179611905Y-65383390D02*
X179707143Y-65335771D01*
X179707143Y-65335771D02*
X179945238Y-65335771D01*
X179945238Y-65335771D02*
X180040476Y-65383390D01*
X180040476Y-65383390D02*
X180088095Y-65431009D01*
X180088095Y-65431009D02*
X180135714Y-65526247D01*
X180135714Y-65526247D02*
X180135714Y-65764342D01*
X180135714Y-65764342D02*
X180088095Y-65859580D01*
X180088095Y-65859580D02*
X180040476Y-65907200D01*
X180040476Y-65907200D02*
X179945238Y-65954819D01*
X179945238Y-65954819D02*
X179707143Y-65954819D01*
X179707143Y-65954819D02*
X179611905Y-65907200D01*
X179611905Y-65907200D02*
X179564286Y-65859580D01*
X174832319Y-54991666D02*
X174356128Y-55324999D01*
X174832319Y-55563094D02*
X173832319Y-55563094D01*
X173832319Y-55563094D02*
X173832319Y-55182142D01*
X173832319Y-55182142D02*
X173879938Y-55086904D01*
X173879938Y-55086904D02*
X173927557Y-55039285D01*
X173927557Y-55039285D02*
X174022795Y-54991666D01*
X174022795Y-54991666D02*
X174165652Y-54991666D01*
X174165652Y-54991666D02*
X174260890Y-55039285D01*
X174260890Y-55039285D02*
X174308509Y-55086904D01*
X174308509Y-55086904D02*
X174356128Y-55182142D01*
X174356128Y-55182142D02*
X174356128Y-55563094D01*
X173832319Y-54658332D02*
X173832319Y-54039285D01*
X173832319Y-54039285D02*
X174213271Y-54372618D01*
X174213271Y-54372618D02*
X174213271Y-54229761D01*
X174213271Y-54229761D02*
X174260890Y-54134523D01*
X174260890Y-54134523D02*
X174308509Y-54086904D01*
X174308509Y-54086904D02*
X174403747Y-54039285D01*
X174403747Y-54039285D02*
X174641842Y-54039285D01*
X174641842Y-54039285D02*
X174737080Y-54086904D01*
X174737080Y-54086904D02*
X174784700Y-54134523D01*
X174784700Y-54134523D02*
X174832319Y-54229761D01*
X174832319Y-54229761D02*
X174832319Y-54515475D01*
X174832319Y-54515475D02*
X174784700Y-54610713D01*
X174784700Y-54610713D02*
X174737080Y-54658332D01*
D12*
%TO.C,R2*%
X172579724Y-69477500D02*
X172070276Y-69477500D01*
X172579724Y-70522500D02*
X172070276Y-70522500D01*
%TO.C,D3*%
X183010000Y-89850000D02*
X177200000Y-89850000D01*
X183010000Y-94150000D02*
X177200000Y-94150000D01*
X183010000Y-94150000D02*
X183010000Y-89850000D01*
%TO.C,R7*%
X171477500Y-102582776D02*
X171477500Y-103092224D01*
X172522500Y-102582776D02*
X172522500Y-103092224D01*
%TO.C,D1*%
X176447500Y-51530000D02*
X176447500Y-57040000D01*
X179747500Y-51530000D02*
X176447500Y-51530000D01*
X179747500Y-51530000D02*
X179747500Y-57040000D01*
%TO.C,SW2*%
X221375000Y-64350000D02*
X227675000Y-64350000D01*
X221375000Y-64600000D02*
X221375000Y-64350000D01*
X221375000Y-69100000D02*
X221375000Y-66500000D01*
X221375000Y-71250000D02*
X221375000Y-71000000D01*
X227675000Y-64350000D02*
X227675000Y-64600000D01*
X227675000Y-66500000D02*
X227675000Y-69100000D01*
X227675000Y-71000000D02*
X227675000Y-71250000D01*
X227675000Y-71250000D02*
X221375000Y-71250000D01*
%TO.C,R8*%
X182137776Y-102752500D02*
X182647224Y-102752500D01*
X182137776Y-103797500D02*
X182647224Y-103797500D01*
%TO.C,R11*%
X214332776Y-49977500D02*
X214842224Y-49977500D01*
X214332776Y-51022500D02*
X214842224Y-51022500D01*
%TO.C,TP2*%
X187736252Y-84090000D02*
X186313748Y-84090000D01*
X187736252Y-85910000D02*
X186313748Y-85910000D01*
%TO.C,C4*%
X207263748Y-81440000D02*
X208686252Y-81440000D01*
X207263748Y-83260000D02*
X208686252Y-83260000D01*
%TO.C,R6*%
X199930276Y-55517500D02*
X200439724Y-55517500D01*
X199930276Y-56562500D02*
X200439724Y-56562500D01*
%TO.C,U5*%
X179052500Y-72140000D02*
X179502500Y-72140000D01*
X179052500Y-72590000D02*
X179052500Y-72140000D01*
X179052500Y-79360000D02*
X179052500Y-78910000D01*
X179502500Y-79360000D02*
X179052500Y-79360000D01*
X185822500Y-72140000D02*
X186272500Y-72140000D01*
X186272500Y-72140000D02*
X186272500Y-72590000D01*
X186272500Y-78910000D02*
X186272500Y-79360000D01*
X186272500Y-79360000D02*
X185822500Y-79360000D01*
X187252500Y-79380000D02*
X186572500Y-79380000D01*
X186912500Y-78910000D01*
X187252500Y-79380000D01*
G36*
X187252500Y-79380000D02*
G01*
X186572500Y-79380000D01*
X186912500Y-78910000D01*
X187252500Y-79380000D01*
G37*
%TO.C,L1*%
X201200000Y-68200000D02*
X204400000Y-68200000D01*
X201200000Y-78800000D02*
X201200000Y-68200000D01*
X204400000Y-78800000D02*
X201200000Y-78800000D01*
X208600000Y-68200000D02*
X211800000Y-68200000D01*
X211800000Y-68200000D02*
X211800000Y-78800000D01*
X211800000Y-78800000D02*
X208600000Y-78800000D01*
%TO.C,U3*%
X187345000Y-99405000D02*
X187345000Y-104605000D01*
X187345000Y-104605000D02*
X188995000Y-104605000D01*
X190995000Y-104605000D02*
X192645000Y-104605000D01*
X192645000Y-99405000D02*
X187345000Y-99405000D01*
X192645000Y-104605000D02*
X192645000Y-99405000D01*
X188995000Y-104605000D02*
G75*
G02*
X190995000Y-104605000I1000000J0D01*
G01*
D10*
%TO.C,U4*%
X208236100Y-53654950D02*
X208236100Y-57896750D01*
X213493900Y-57896750D02*
X213493900Y-53654950D01*
D12*
%TO.C,R15*%
X160477500Y-89420276D02*
X160477500Y-89929724D01*
X161522500Y-89420276D02*
X161522500Y-89929724D01*
%TO.C,J1*%
X154290000Y-71100000D02*
X155995000Y-71100000D01*
X154290000Y-80260000D02*
X154290000Y-71100000D01*
X155995000Y-80260000D02*
X154290000Y-80260000D01*
X158005000Y-80260000D02*
X159925000Y-80260000D01*
X159925000Y-71100000D02*
X158005000Y-71100000D01*
%TO.C,R22*%
X216269724Y-62327500D02*
X215760276Y-62327500D01*
X216269724Y-63372500D02*
X215760276Y-63372500D01*
%TO.C,R21*%
X182977500Y-85167224D02*
X182977500Y-84657776D01*
X184022500Y-85167224D02*
X184022500Y-84657776D01*
%TO.C,R13*%
X214477500Y-72929724D02*
X214477500Y-72420276D01*
X215522500Y-72929724D02*
X215522500Y-72420276D01*
%TO.C,Y1*%
X192300000Y-68701250D02*
X192300000Y-81421250D01*
X192300000Y-81421250D02*
X197520000Y-81421250D01*
X197520000Y-81421250D02*
X197520000Y-68701250D01*
%TO.C,J2*%
X165120000Y-83620000D02*
X165120000Y-86380000D01*
X172850000Y-83620000D02*
X165120000Y-83620000D01*
X172850000Y-83620000D02*
X172850000Y-86380000D01*
X172850000Y-86380000D02*
X165120000Y-86380000D01*
X174120000Y-83620000D02*
X175500000Y-83620000D01*
X175500000Y-83620000D02*
X175500000Y-85000000D01*
%TO.C,J6*%
X158390000Y-57090000D02*
X158390000Y-65810000D01*
X158390000Y-65810000D02*
X168610000Y-65810000D01*
X168610000Y-57090000D02*
X158390000Y-57090000D01*
X168610000Y-65810000D02*
X168610000Y-57090000D01*
X168810000Y-62000000D02*
X169410000Y-61700000D01*
X169410000Y-61700000D02*
X169410000Y-62300000D01*
X169410000Y-62300000D02*
X168810000Y-62000000D01*
%TO.C,R16*%
X160515000Y-94079724D02*
X160515000Y-93570276D01*
X161560000Y-94079724D02*
X161560000Y-93570276D01*
%TO.C,R4*%
X197605276Y-102752500D02*
X198114724Y-102752500D01*
X197605276Y-103797500D02*
X198114724Y-103797500D01*
%TO.C,R14*%
X202282500Y-101704724D02*
X202282500Y-101195276D01*
X203327500Y-101704724D02*
X203327500Y-101195276D01*
%TO.C,C2*%
X212828748Y-46630000D02*
X213351252Y-46630000D01*
X212828748Y-48100000D02*
X213351252Y-48100000D01*
%TO.C,Q2*%
X158630000Y-98300000D02*
X165050000Y-98300000D01*
X158630000Y-105200000D02*
X165050000Y-105200000D01*
X165050000Y-98300000D02*
X165050000Y-98570000D01*
X165050000Y-105200000D02*
X165050000Y-104930000D01*
X167120000Y-105360000D02*
X166440000Y-105360000D01*
X166780000Y-104890000D01*
X167120000Y-105360000D01*
G36*
X167120000Y-105360000D02*
G01*
X166440000Y-105360000D01*
X166780000Y-104890000D01*
X167120000Y-105360000D01*
G37*
%TO.C,SW1*%
X221375000Y-72800000D02*
X227675000Y-72800000D01*
X221375000Y-73050000D02*
X221375000Y-72800000D01*
X221375000Y-77550000D02*
X221375000Y-74950000D01*
X221375000Y-79700000D02*
X221375000Y-79450000D01*
X227675000Y-72800000D02*
X227675000Y-73050000D01*
X227675000Y-74950000D02*
X227675000Y-77550000D01*
X227675000Y-79450000D02*
X227675000Y-79700000D01*
X227675000Y-79700000D02*
X221375000Y-79700000D01*
%TO.C,U1*%
X168940000Y-78197500D02*
X168940000Y-74077500D01*
X174060000Y-74077500D02*
X174060000Y-78197500D01*
X169740000Y-80207500D02*
X169260000Y-80207500D01*
X169500000Y-79877500D01*
X169740000Y-80207500D01*
G36*
X169740000Y-80207500D02*
G01*
X169260000Y-80207500D01*
X169500000Y-79877500D01*
X169740000Y-80207500D01*
G37*
%TO.C,D4*%
X204490000Y-63200000D02*
X204490000Y-66500000D01*
X204490000Y-63200000D02*
X210000000Y-63200000D01*
X204490000Y-66500000D02*
X210000000Y-66500000D01*
%TO.C,R9*%
X203852500Y-55257224D02*
X203852500Y-54747776D01*
X204897500Y-55257224D02*
X204897500Y-54747776D01*
%TO.C,R17*%
X232118724Y-77701000D02*
X231609276Y-77701000D01*
X232118724Y-78746000D02*
X231609276Y-78746000D01*
%TO.C,J4*%
X203590000Y-88390000D02*
X203590000Y-98610000D01*
X203590000Y-98610000D02*
X212310000Y-98610000D01*
X208200000Y-87590000D02*
X208800000Y-87590000D01*
X208500000Y-88190000D02*
X208200000Y-87590000D01*
X208800000Y-87590000D02*
X208500000Y-88190000D01*
X212310000Y-88390000D02*
X203590000Y-88390000D01*
X212310000Y-98610000D02*
X212310000Y-88390000D01*
%TO.C,R1*%
X165920276Y-79477500D02*
X166429724Y-79477500D01*
X165920276Y-80522500D02*
X166429724Y-80522500D01*
%TO.C,R18*%
X231768724Y-69451000D02*
X231259276Y-69451000D01*
X231768724Y-70496000D02*
X231259276Y-70496000D01*
%TO.C,D2*%
X174655000Y-97765000D02*
X174655000Y-103275000D01*
X177955000Y-97765000D02*
X174655000Y-97765000D01*
X177955000Y-97765000D02*
X177955000Y-103275000D01*
%TO.C,Q1*%
X159445000Y-47565000D02*
X165865000Y-47565000D01*
X159445000Y-54465000D02*
X165865000Y-54465000D01*
X165865000Y-47565000D02*
X165865000Y-47835000D01*
X165865000Y-54465000D02*
X165865000Y-54195000D01*
X167935000Y-54625000D02*
X167255000Y-54625000D01*
X167595000Y-54155000D01*
X167935000Y-54625000D01*
G36*
X167935000Y-54625000D02*
G01*
X167255000Y-54625000D01*
X167595000Y-54155000D01*
X167935000Y-54625000D01*
G37*
%TO.C,R12*%
X215420276Y-69327500D02*
X215929724Y-69327500D01*
X215420276Y-70372500D02*
X215929724Y-70372500D01*
%TO.C,U2*%
X189040000Y-53630000D02*
X189040000Y-58830000D01*
X189040000Y-58830000D02*
X190690000Y-58830000D01*
X192690000Y-58830000D02*
X194340000Y-58830000D01*
X194340000Y-53630000D02*
X189040000Y-53630000D01*
X194340000Y-58830000D02*
X194340000Y-53630000D01*
X190690000Y-58830000D02*
G75*
G02*
X192690000Y-58830000I1000000J0D01*
G01*
%TO.C,R10*%
X208207224Y-46842500D02*
X207697776Y-46842500D01*
X208207224Y-47887500D02*
X207697776Y-47887500D01*
%TO.C,R20*%
X189167224Y-69477500D02*
X188657776Y-69477500D01*
X189167224Y-70522500D02*
X188657776Y-70522500D01*
%TO.C,Shunt1*%
X189822936Y-90290000D02*
X194177064Y-90290000D01*
X189822936Y-93710000D02*
X194177064Y-93710000D01*
%TO.C,R19*%
X232118724Y-60951000D02*
X231609276Y-60951000D01*
X232118724Y-61996000D02*
X231609276Y-61996000D01*
%TO.C,SW3*%
X221375000Y-55900000D02*
X227675000Y-55900000D01*
X221375000Y-56150000D02*
X221375000Y-55900000D01*
X221375000Y-60650000D02*
X221375000Y-58050000D01*
X221375000Y-62800000D02*
X221375000Y-62550000D01*
X227675000Y-55900000D02*
X227675000Y-56150000D01*
X227675000Y-58050000D02*
X227675000Y-60650000D01*
X227675000Y-62550000D02*
X227675000Y-62800000D01*
X227675000Y-62800000D02*
X221375000Y-62800000D01*
%TO.C,J5*%
X180090000Y-47200000D02*
X180690000Y-47500000D01*
X180090000Y-47800000D02*
X180090000Y-47200000D01*
X180690000Y-47500000D02*
X180090000Y-47800000D01*
X180890000Y-43690000D02*
X180890000Y-52410000D01*
X180890000Y-52410000D02*
X191110000Y-52410000D01*
X191110000Y-43690000D02*
X180890000Y-43690000D01*
X191110000Y-52410000D02*
X191110000Y-43690000D01*
%TO.C,TP1*%
X183788748Y-67590000D02*
X185211252Y-67590000D01*
X183788748Y-69410000D02*
X185211252Y-69410000D01*
%TO.C,U6*%
X165190000Y-89390000D02*
X168410000Y-89390000D01*
X165190000Y-89590000D02*
X165190000Y-89390000D01*
X165190000Y-92610000D02*
X165190000Y-92410000D01*
X168410000Y-89390000D02*
X168410000Y-89590000D01*
X168410000Y-92410000D02*
X168410000Y-92610000D01*
X168410000Y-92610000D02*
X165190000Y-92610000D01*
X164600000Y-89590000D02*
X164360000Y-89260000D01*
X164840000Y-89260000D01*
X164600000Y-89590000D01*
G36*
X164600000Y-89590000D02*
G01*
X164360000Y-89260000D01*
X164840000Y-89260000D01*
X164600000Y-89590000D01*
G37*
%TO.C,R5*%
X183930276Y-56517500D02*
X184439724Y-56517500D01*
X183930276Y-57562500D02*
X184439724Y-57562500D01*
%TO.C,J3*%
X220040000Y-88880000D02*
X220040000Y-87500000D01*
X221420000Y-88880000D02*
X220040000Y-88880000D01*
X222690000Y-86120000D02*
X230420000Y-86120000D01*
X222690000Y-88880000D02*
X222690000Y-86120000D01*
X222690000Y-88880000D02*
X230420000Y-88880000D01*
X230420000Y-88880000D02*
X230420000Y-86120000D01*
%TO.C,D5*%
X183010000Y-60350000D02*
X177200000Y-60350000D01*
X183010000Y-64650000D02*
X177200000Y-64650000D01*
X183010000Y-64650000D02*
X183010000Y-60350000D01*
%TO.C,R3*%
X172425000Y-54570276D02*
X172425000Y-55079724D01*
X173470000Y-54570276D02*
X173470000Y-55079724D01*
%TD*%
M02*
