%TF.GenerationSoftware,KiCad,Pcbnew,9.0.6*%
%TF.CreationDate,2025-12-15T22:58:16+05:30*%
%TF.ProjectId,usb_ps_1,7573625f-7073-45f3-912e-6b696361645f,rev?*%
%TF.SameCoordinates,Original*%
%TF.FileFunction,Soldermask,Bot*%
%TF.FilePolarity,Negative*%
%FSLAX46Y46*%
G04 Gerber Fmt 4.6, Leading zero omitted, Abs format (unit mm)*
G04 Created by KiCad (PCBNEW 9.0.6) date 2025-12-15 22:58:16*
%MOMM*%
%LPD*%
G01*
G04 APERTURE LIST*
G04 APERTURE END LIST*
G36*
X194359850Y-102475964D02*
G01*
X194410040Y-102481787D01*
X194427189Y-102489359D01*
X194450671Y-102494030D01*
X194475810Y-102510827D01*
X194495696Y-102519608D01*
X194509277Y-102533189D01*
X194531777Y-102548223D01*
X194546810Y-102570722D01*
X194560391Y-102584303D01*
X194569170Y-102604186D01*
X194585970Y-102629329D01*
X194590641Y-102652812D01*
X194598212Y-102669959D01*
X194604033Y-102720139D01*
X194605000Y-102725000D01*
X194605000Y-103825000D01*
X194604032Y-103829863D01*
X194598212Y-103880040D01*
X194590641Y-103897185D01*
X194585970Y-103920671D01*
X194569169Y-103945815D01*
X194560391Y-103965696D01*
X194546812Y-103979274D01*
X194531777Y-104001777D01*
X194509274Y-104016812D01*
X194495696Y-104030391D01*
X194475815Y-104039169D01*
X194450671Y-104055970D01*
X194427185Y-104060641D01*
X194410040Y-104068212D01*
X194359861Y-104074032D01*
X194355000Y-104075000D01*
X193255000Y-104075000D01*
X193250138Y-104074032D01*
X193199959Y-104068212D01*
X193182812Y-104060641D01*
X193159329Y-104055970D01*
X193134186Y-104039170D01*
X193114303Y-104030391D01*
X193100722Y-104016810D01*
X193078223Y-104001777D01*
X193063189Y-103979277D01*
X193049608Y-103965696D01*
X193040827Y-103945810D01*
X193024030Y-103920671D01*
X193019359Y-103897189D01*
X193011787Y-103880040D01*
X193005964Y-103829849D01*
X193005000Y-103825000D01*
X193005000Y-102725000D01*
X193005964Y-102720150D01*
X193011787Y-102669959D01*
X193019359Y-102652808D01*
X193024030Y-102629329D01*
X193040826Y-102604191D01*
X193049608Y-102584303D01*
X193063191Y-102570719D01*
X193078223Y-102548223D01*
X193100719Y-102533191D01*
X193114303Y-102519608D01*
X193134191Y-102510826D01*
X193159329Y-102494030D01*
X193182808Y-102489359D01*
X193199959Y-102481787D01*
X193250151Y-102475964D01*
X193255000Y-102475000D01*
X194355000Y-102475000D01*
X194359850Y-102475964D01*
G37*
G36*
X186417228Y-102509448D02*
G01*
X186562117Y-102569463D01*
X186692515Y-102656592D01*
X186803408Y-102767485D01*
X186890537Y-102897883D01*
X186950552Y-103042772D01*
X186981148Y-103196586D01*
X186981148Y-103353414D01*
X186950552Y-103507228D01*
X186890537Y-103652117D01*
X186803408Y-103782515D01*
X186692515Y-103893408D01*
X186562117Y-103980537D01*
X186417228Y-104040552D01*
X186263414Y-104071148D01*
X186106586Y-104071148D01*
X185952772Y-104040552D01*
X185807883Y-103980537D01*
X185677485Y-103893408D01*
X185566592Y-103782515D01*
X185479463Y-103652117D01*
X185419448Y-103507228D01*
X185388852Y-103353414D01*
X185388852Y-103196586D01*
X185419448Y-103042772D01*
X185479463Y-102897883D01*
X185566592Y-102767485D01*
X185677485Y-102656592D01*
X185807883Y-102569463D01*
X185952772Y-102509448D01*
X186106586Y-102478852D01*
X186263414Y-102478852D01*
X186417228Y-102509448D01*
G37*
G36*
X186417228Y-99969448D02*
G01*
X186562117Y-100029463D01*
X186692515Y-100116592D01*
X186803408Y-100227485D01*
X186890537Y-100357883D01*
X186950552Y-100502772D01*
X186981148Y-100656586D01*
X186981148Y-100813414D01*
X186950552Y-100967228D01*
X186890537Y-101112117D01*
X186803408Y-101242515D01*
X186692515Y-101353408D01*
X186562117Y-101440537D01*
X186417228Y-101500552D01*
X186263414Y-101531148D01*
X186106586Y-101531148D01*
X185952772Y-101500552D01*
X185807883Y-101440537D01*
X185677485Y-101353408D01*
X185566592Y-101242515D01*
X185479463Y-101112117D01*
X185419448Y-100967228D01*
X185388852Y-100813414D01*
X185388852Y-100656586D01*
X185419448Y-100502772D01*
X185479463Y-100357883D01*
X185566592Y-100227485D01*
X185677485Y-100116592D01*
X185807883Y-100029463D01*
X185952772Y-99969448D01*
X186106586Y-99938852D01*
X186263414Y-99938852D01*
X186417228Y-99969448D01*
G37*
G36*
X194037228Y-99969448D02*
G01*
X194182117Y-100029463D01*
X194312515Y-100116592D01*
X194423408Y-100227485D01*
X194510537Y-100357883D01*
X194570552Y-100502772D01*
X194601148Y-100656586D01*
X194601148Y-100813414D01*
X194570552Y-100967228D01*
X194510537Y-101112117D01*
X194423408Y-101242515D01*
X194312515Y-101353408D01*
X194182117Y-101440537D01*
X194037228Y-101500552D01*
X193883414Y-101531148D01*
X193726586Y-101531148D01*
X193572772Y-101500552D01*
X193427883Y-101440537D01*
X193297485Y-101353408D01*
X193186592Y-101242515D01*
X193099463Y-101112117D01*
X193039448Y-100967228D01*
X193008852Y-100813414D01*
X193008852Y-100656586D01*
X193039448Y-100502772D01*
X193099463Y-100357883D01*
X193186592Y-100227485D01*
X193297485Y-100116592D01*
X193427883Y-100029463D01*
X193572772Y-99969448D01*
X193726586Y-99938852D01*
X193883414Y-99938852D01*
X194037228Y-99969448D01*
G37*
G36*
X208815151Y-94687301D02*
G01*
X209016623Y-94752763D01*
X209205373Y-94848936D01*
X209376755Y-94973452D01*
X209526548Y-95123245D01*
X209651064Y-95294627D01*
X209747237Y-95483377D01*
X209812699Y-95684849D01*
X209845838Y-95894080D01*
X209845838Y-96105920D01*
X209812699Y-96315151D01*
X209747237Y-96516623D01*
X209651064Y-96705373D01*
X209526548Y-96876755D01*
X209376755Y-97026548D01*
X209205373Y-97151064D01*
X209016623Y-97247237D01*
X208815151Y-97312699D01*
X208605920Y-97345838D01*
X208394080Y-97345838D01*
X208184849Y-97312699D01*
X207983377Y-97247237D01*
X207794627Y-97151064D01*
X207623245Y-97026548D01*
X207473452Y-96876755D01*
X207348936Y-96705373D01*
X207252763Y-96516623D01*
X207187301Y-96315151D01*
X207154162Y-96105920D01*
X207154162Y-95894080D01*
X207187301Y-95684849D01*
X207252763Y-95483377D01*
X207348936Y-95294627D01*
X207473452Y-95123245D01*
X207623245Y-94973452D01*
X207794627Y-94848936D01*
X207983377Y-94752763D01*
X208184849Y-94687301D01*
X208394080Y-94654162D01*
X208605920Y-94654162D01*
X208815151Y-94687301D01*
G37*
G36*
X209604848Y-89650964D02*
G01*
X209655040Y-89656787D01*
X209672189Y-89664359D01*
X209695670Y-89669030D01*
X209720807Y-89685826D01*
X209740695Y-89694608D01*
X209754278Y-89708191D01*
X209776776Y-89723224D01*
X209791808Y-89745721D01*
X209805391Y-89759304D01*
X209814171Y-89779189D01*
X209830970Y-89804330D01*
X209835640Y-89827811D01*
X209843212Y-89844959D01*
X209849036Y-89895163D01*
X209849999Y-89900002D01*
X209849999Y-89903458D01*
X209850000Y-89903467D01*
X209850000Y-92096532D01*
X209850000Y-92099999D01*
X209849034Y-92104851D01*
X209843212Y-92155040D01*
X209835641Y-92172185D01*
X209830970Y-92195670D01*
X209814170Y-92220812D01*
X209805391Y-92240695D01*
X209791810Y-92254275D01*
X209776776Y-92276776D01*
X209754275Y-92291810D01*
X209740695Y-92305391D01*
X209720812Y-92314170D01*
X209695670Y-92330970D01*
X209672187Y-92335640D01*
X209655040Y-92343212D01*
X209604836Y-92349036D01*
X209599998Y-92349999D01*
X209596541Y-92349999D01*
X209596533Y-92350000D01*
X207403467Y-92350000D01*
X207403466Y-92349999D01*
X207400001Y-92350000D01*
X207395149Y-92349035D01*
X207344959Y-92343212D01*
X207327812Y-92335640D01*
X207304330Y-92330970D01*
X207279189Y-92314171D01*
X207259304Y-92305391D01*
X207245721Y-92291808D01*
X207223224Y-92276776D01*
X207208191Y-92254278D01*
X207194608Y-92240695D01*
X207185826Y-92220807D01*
X207169030Y-92195670D01*
X207164360Y-92172191D01*
X207156787Y-92155040D01*
X207150963Y-92104836D01*
X207150001Y-92099998D01*
X207150000Y-92096540D01*
X207150000Y-92096532D01*
X207150000Y-89903467D01*
X207150000Y-89903466D01*
X207150000Y-89900001D01*
X207150964Y-89895151D01*
X207156787Y-89844959D01*
X207164359Y-89827808D01*
X207169030Y-89804330D01*
X207185825Y-89779193D01*
X207194608Y-89759304D01*
X207208193Y-89745718D01*
X207223224Y-89723224D01*
X207245718Y-89708193D01*
X207259304Y-89694608D01*
X207279193Y-89685825D01*
X207304330Y-89669030D01*
X207327807Y-89664360D01*
X207344959Y-89656787D01*
X207395165Y-89650963D01*
X207400002Y-89650001D01*
X207403458Y-89650000D01*
X207403467Y-89650000D01*
X209596533Y-89650000D01*
X209599999Y-89650000D01*
X209604848Y-89650964D01*
G37*
G36*
X222270000Y-88350000D02*
G01*
X220570000Y-88350000D01*
X220570000Y-86650000D01*
X222270000Y-86650000D01*
X222270000Y-88350000D01*
G37*
G36*
X224206742Y-86686601D02*
G01*
X224360687Y-86750367D01*
X224499234Y-86842941D01*
X224617059Y-86960766D01*
X224709633Y-87099313D01*
X224773399Y-87253258D01*
X224805907Y-87416685D01*
X224805907Y-87583315D01*
X224773399Y-87746742D01*
X224709633Y-87900687D01*
X224617059Y-88039234D01*
X224499234Y-88157059D01*
X224360687Y-88249633D01*
X224206742Y-88313399D01*
X224043315Y-88345907D01*
X223876685Y-88345907D01*
X223713258Y-88313399D01*
X223559313Y-88249633D01*
X223420766Y-88157059D01*
X223302941Y-88039234D01*
X223210367Y-87900687D01*
X223146601Y-87746742D01*
X223114093Y-87583315D01*
X223114093Y-87416685D01*
X223146601Y-87253258D01*
X223210367Y-87099313D01*
X223302941Y-86960766D01*
X223420766Y-86842941D01*
X223559313Y-86750367D01*
X223713258Y-86686601D01*
X223876685Y-86654093D01*
X224043315Y-86654093D01*
X224206742Y-86686601D01*
G37*
G36*
X226746742Y-86686601D02*
G01*
X226900687Y-86750367D01*
X227039234Y-86842941D01*
X227157059Y-86960766D01*
X227249633Y-87099313D01*
X227313399Y-87253258D01*
X227345907Y-87416685D01*
X227345907Y-87583315D01*
X227313399Y-87746742D01*
X227249633Y-87900687D01*
X227157059Y-88039234D01*
X227039234Y-88157059D01*
X226900687Y-88249633D01*
X226746742Y-88313399D01*
X226583315Y-88345907D01*
X226416685Y-88345907D01*
X226253258Y-88313399D01*
X226099313Y-88249633D01*
X225960766Y-88157059D01*
X225842941Y-88039234D01*
X225750367Y-87900687D01*
X225686601Y-87746742D01*
X225654093Y-87583315D01*
X225654093Y-87416685D01*
X225686601Y-87253258D01*
X225750367Y-87099313D01*
X225842941Y-86960766D01*
X225960766Y-86842941D01*
X226099313Y-86750367D01*
X226253258Y-86686601D01*
X226416685Y-86654093D01*
X226583315Y-86654093D01*
X226746742Y-86686601D01*
G37*
G36*
X229286742Y-86686601D02*
G01*
X229440687Y-86750367D01*
X229579234Y-86842941D01*
X229697059Y-86960766D01*
X229789633Y-87099313D01*
X229853399Y-87253258D01*
X229885907Y-87416685D01*
X229885907Y-87583315D01*
X229853399Y-87746742D01*
X229789633Y-87900687D01*
X229697059Y-88039234D01*
X229579234Y-88157059D01*
X229440687Y-88249633D01*
X229286742Y-88313399D01*
X229123315Y-88345907D01*
X228956685Y-88345907D01*
X228793258Y-88313399D01*
X228639313Y-88249633D01*
X228500766Y-88157059D01*
X228382941Y-88039234D01*
X228290367Y-87900687D01*
X228226601Y-87746742D01*
X228194093Y-87583315D01*
X228194093Y-87416685D01*
X228226601Y-87253258D01*
X228290367Y-87099313D01*
X228382941Y-86960766D01*
X228500766Y-86842941D01*
X228639313Y-86750367D01*
X228793258Y-86686601D01*
X228956685Y-86654093D01*
X229123315Y-86654093D01*
X229286742Y-86686601D01*
G37*
G36*
X174970000Y-85850000D02*
G01*
X173270000Y-85850000D01*
X173270000Y-84150000D01*
X174970000Y-84150000D01*
X174970000Y-85850000D01*
G37*
G36*
X166746742Y-84186601D02*
G01*
X166900687Y-84250367D01*
X167039234Y-84342941D01*
X167157059Y-84460766D01*
X167249633Y-84599313D01*
X167313399Y-84753258D01*
X167345907Y-84916685D01*
X167345907Y-85083315D01*
X167313399Y-85246742D01*
X167249633Y-85400687D01*
X167157059Y-85539234D01*
X167039234Y-85657059D01*
X166900687Y-85749633D01*
X166746742Y-85813399D01*
X166583315Y-85845907D01*
X166416685Y-85845907D01*
X166253258Y-85813399D01*
X166099313Y-85749633D01*
X165960766Y-85657059D01*
X165842941Y-85539234D01*
X165750367Y-85400687D01*
X165686601Y-85246742D01*
X165654093Y-85083315D01*
X165654093Y-84916685D01*
X165686601Y-84753258D01*
X165750367Y-84599313D01*
X165842941Y-84460766D01*
X165960766Y-84342941D01*
X166099313Y-84250367D01*
X166253258Y-84186601D01*
X166416685Y-84154093D01*
X166583315Y-84154093D01*
X166746742Y-84186601D01*
G37*
G36*
X169286742Y-84186601D02*
G01*
X169440687Y-84250367D01*
X169579234Y-84342941D01*
X169697059Y-84460766D01*
X169789633Y-84599313D01*
X169853399Y-84753258D01*
X169885907Y-84916685D01*
X169885907Y-85083315D01*
X169853399Y-85246742D01*
X169789633Y-85400687D01*
X169697059Y-85539234D01*
X169579234Y-85657059D01*
X169440687Y-85749633D01*
X169286742Y-85813399D01*
X169123315Y-85845907D01*
X168956685Y-85845907D01*
X168793258Y-85813399D01*
X168639313Y-85749633D01*
X168500766Y-85657059D01*
X168382941Y-85539234D01*
X168290367Y-85400687D01*
X168226601Y-85246742D01*
X168194093Y-85083315D01*
X168194093Y-84916685D01*
X168226601Y-84753258D01*
X168290367Y-84599313D01*
X168382941Y-84460766D01*
X168500766Y-84342941D01*
X168639313Y-84250367D01*
X168793258Y-84186601D01*
X168956685Y-84154093D01*
X169123315Y-84154093D01*
X169286742Y-84186601D01*
G37*
G36*
X171826742Y-84186601D02*
G01*
X171980687Y-84250367D01*
X172119234Y-84342941D01*
X172237059Y-84460766D01*
X172329633Y-84599313D01*
X172393399Y-84753258D01*
X172425907Y-84916685D01*
X172425907Y-85083315D01*
X172393399Y-85246742D01*
X172329633Y-85400687D01*
X172237059Y-85539234D01*
X172119234Y-85657059D01*
X171980687Y-85749633D01*
X171826742Y-85813399D01*
X171663315Y-85845907D01*
X171496685Y-85845907D01*
X171333258Y-85813399D01*
X171179313Y-85749633D01*
X171040766Y-85657059D01*
X170922941Y-85539234D01*
X170830367Y-85400687D01*
X170766601Y-85246742D01*
X170734093Y-85083315D01*
X170734093Y-84916685D01*
X170766601Y-84753258D01*
X170830367Y-84599313D01*
X170922941Y-84460766D01*
X171040766Y-84342941D01*
X171179313Y-84250367D01*
X171333258Y-84186601D01*
X171496685Y-84154093D01*
X171663315Y-84154093D01*
X171826742Y-84186601D01*
G37*
G36*
X157465263Y-79504278D02*
G01*
X157591342Y-79538060D01*
X157704381Y-79603323D01*
X157796677Y-79695619D01*
X157861940Y-79808658D01*
X157895722Y-79934737D01*
X157895722Y-80065263D01*
X157861940Y-80191342D01*
X157796677Y-80304381D01*
X157704381Y-80396677D01*
X157591342Y-80461940D01*
X157465263Y-80495722D01*
X157400000Y-80500000D01*
X157398029Y-80500000D01*
X156601971Y-80500000D01*
X156600000Y-80500000D01*
X156534737Y-80495722D01*
X156408658Y-80461940D01*
X156295619Y-80396677D01*
X156203323Y-80304381D01*
X156138060Y-80191342D01*
X156104278Y-80065263D01*
X156104278Y-79934737D01*
X156138060Y-79808658D01*
X156203323Y-79695619D01*
X156295619Y-79603323D01*
X156408658Y-79538060D01*
X156534737Y-79504278D01*
X156600000Y-79500000D01*
X157400000Y-79500000D01*
X157465263Y-79504278D01*
G37*
G36*
X161815263Y-79504278D02*
G01*
X161941342Y-79538060D01*
X162054381Y-79603323D01*
X162146677Y-79695619D01*
X162211940Y-79808658D01*
X162245722Y-79934737D01*
X162245722Y-80065263D01*
X162211940Y-80191342D01*
X162146677Y-80304381D01*
X162054381Y-80396677D01*
X161941342Y-80461940D01*
X161815263Y-80495722D01*
X161750000Y-80500000D01*
X161748029Y-80500000D01*
X160651971Y-80500000D01*
X160650000Y-80500000D01*
X160584737Y-80495722D01*
X160458658Y-80461940D01*
X160345619Y-80396677D01*
X160253323Y-80304381D01*
X160188060Y-80191342D01*
X160154278Y-80065263D01*
X160154278Y-79934737D01*
X160188060Y-79808658D01*
X160253323Y-79695619D01*
X160345619Y-79603323D01*
X160458658Y-79538060D01*
X160584737Y-79504278D01*
X160650000Y-79500000D01*
X161750000Y-79500000D01*
X161815263Y-79504278D01*
G37*
G36*
X160804372Y-78269739D02*
G01*
X160877847Y-78312160D01*
X160937840Y-78372153D01*
X160980261Y-78445628D01*
X161002220Y-78527579D01*
X161002220Y-78612421D01*
X160980261Y-78694372D01*
X160937840Y-78767847D01*
X160877847Y-78827840D01*
X160804372Y-78870261D01*
X160722421Y-78892220D01*
X160637579Y-78892220D01*
X160555628Y-78870261D01*
X160482153Y-78827840D01*
X160422160Y-78767847D01*
X160379739Y-78694372D01*
X160357780Y-78612421D01*
X160357780Y-78527579D01*
X160379739Y-78445628D01*
X160422160Y-78372153D01*
X160482153Y-78312160D01*
X160555628Y-78269739D01*
X160637579Y-78247780D01*
X160722421Y-78247780D01*
X160804372Y-78269739D01*
G37*
G36*
X160804372Y-72489739D02*
G01*
X160877847Y-72532160D01*
X160937840Y-72592153D01*
X160980261Y-72665628D01*
X161002220Y-72747579D01*
X161002220Y-72832421D01*
X160980261Y-72914372D01*
X160937840Y-72987847D01*
X160877847Y-73047840D01*
X160804372Y-73090261D01*
X160722421Y-73112220D01*
X160637579Y-73112220D01*
X160555628Y-73090261D01*
X160482153Y-73047840D01*
X160422160Y-72987847D01*
X160379739Y-72914372D01*
X160357780Y-72832421D01*
X160357780Y-72747579D01*
X160379739Y-72665628D01*
X160422160Y-72592153D01*
X160482153Y-72532160D01*
X160555628Y-72489739D01*
X160637579Y-72467780D01*
X160722421Y-72467780D01*
X160804372Y-72489739D01*
G37*
G36*
X157465263Y-70864278D02*
G01*
X157591342Y-70898060D01*
X157704381Y-70963323D01*
X157796677Y-71055619D01*
X157861940Y-71168658D01*
X157895722Y-71294737D01*
X157895722Y-71425263D01*
X157861940Y-71551342D01*
X157796677Y-71664381D01*
X157704381Y-71756677D01*
X157591342Y-71821940D01*
X157465263Y-71855722D01*
X157400000Y-71860000D01*
X157398029Y-71860000D01*
X156601971Y-71860000D01*
X156600000Y-71860000D01*
X156534737Y-71855722D01*
X156408658Y-71821940D01*
X156295619Y-71756677D01*
X156203323Y-71664381D01*
X156138060Y-71551342D01*
X156104278Y-71425263D01*
X156104278Y-71294737D01*
X156138060Y-71168658D01*
X156203323Y-71055619D01*
X156295619Y-70963323D01*
X156408658Y-70898060D01*
X156534737Y-70864278D01*
X156600000Y-70860000D01*
X157400000Y-70860000D01*
X157465263Y-70864278D01*
G37*
G36*
X161815263Y-70864278D02*
G01*
X161941342Y-70898060D01*
X162054381Y-70963323D01*
X162146677Y-71055619D01*
X162211940Y-71168658D01*
X162245722Y-71294737D01*
X162245722Y-71425263D01*
X162211940Y-71551342D01*
X162146677Y-71664381D01*
X162054381Y-71756677D01*
X161941342Y-71821940D01*
X161815263Y-71855722D01*
X161750000Y-71860000D01*
X161748029Y-71860000D01*
X160651971Y-71860000D01*
X160650000Y-71860000D01*
X160584737Y-71855722D01*
X160458658Y-71821940D01*
X160345619Y-71756677D01*
X160253323Y-71664381D01*
X160188060Y-71551342D01*
X160154278Y-71425263D01*
X160154278Y-71294737D01*
X160188060Y-71168658D01*
X160253323Y-71055619D01*
X160345619Y-70963323D01*
X160458658Y-70898060D01*
X160584737Y-70864278D01*
X160650000Y-70860000D01*
X161750000Y-70860000D01*
X161815263Y-70864278D01*
G37*
G36*
X167104848Y-60650964D02*
G01*
X167155040Y-60656787D01*
X167172189Y-60664359D01*
X167195670Y-60669030D01*
X167220807Y-60685826D01*
X167240695Y-60694608D01*
X167254278Y-60708191D01*
X167276776Y-60723224D01*
X167291808Y-60745721D01*
X167305391Y-60759304D01*
X167314171Y-60779189D01*
X167330970Y-60804330D01*
X167335640Y-60827811D01*
X167343212Y-60844959D01*
X167349036Y-60895163D01*
X167349999Y-60900002D01*
X167349999Y-60903458D01*
X167350000Y-60903467D01*
X167350000Y-62105906D01*
X167350000Y-63099999D01*
X167349034Y-63104851D01*
X167343212Y-63155040D01*
X167335641Y-63172185D01*
X167330970Y-63195670D01*
X167314170Y-63220812D01*
X167305391Y-63240695D01*
X167291810Y-63254275D01*
X167276776Y-63276776D01*
X167254275Y-63291810D01*
X167240695Y-63305391D01*
X167220812Y-63314170D01*
X167195670Y-63330970D01*
X167172187Y-63335640D01*
X167155040Y-63343212D01*
X167104836Y-63349036D01*
X167099998Y-63349999D01*
X167096541Y-63349999D01*
X167096533Y-63350000D01*
X164903467Y-63350000D01*
X164903466Y-63349999D01*
X164900001Y-63350000D01*
X164895149Y-63349035D01*
X164844959Y-63343212D01*
X164827812Y-63335640D01*
X164804330Y-63330970D01*
X164779189Y-63314171D01*
X164759304Y-63305391D01*
X164745721Y-63291808D01*
X164723224Y-63276776D01*
X164708191Y-63254278D01*
X164694608Y-63240695D01*
X164685826Y-63220807D01*
X164669030Y-63195670D01*
X164664360Y-63172191D01*
X164656787Y-63155040D01*
X164650963Y-63104836D01*
X164650001Y-63099998D01*
X164650000Y-63096540D01*
X164650000Y-63096532D01*
X164650000Y-60903467D01*
X164650000Y-60903466D01*
X164650000Y-60900001D01*
X164650964Y-60895151D01*
X164656787Y-60844959D01*
X164664359Y-60827808D01*
X164669030Y-60804330D01*
X164685825Y-60779193D01*
X164694608Y-60759304D01*
X164708193Y-60745718D01*
X164723224Y-60723224D01*
X164745718Y-60708193D01*
X164759304Y-60694608D01*
X164779193Y-60685825D01*
X164804330Y-60669030D01*
X164827807Y-60664360D01*
X164844959Y-60656787D01*
X164895165Y-60650963D01*
X164900002Y-60650001D01*
X164903458Y-60650000D01*
X164903467Y-60650000D01*
X167096533Y-60650000D01*
X167099999Y-60650000D01*
X167104848Y-60650964D01*
G37*
G36*
X161315151Y-60687301D02*
G01*
X161516623Y-60752763D01*
X161705373Y-60848936D01*
X161876755Y-60973452D01*
X162026548Y-61123245D01*
X162151064Y-61294627D01*
X162247237Y-61483377D01*
X162312699Y-61684849D01*
X162345838Y-61894080D01*
X162345838Y-62105920D01*
X162312699Y-62315151D01*
X162247237Y-62516623D01*
X162151064Y-62705373D01*
X162026548Y-62876755D01*
X161876755Y-63026548D01*
X161705373Y-63151064D01*
X161516623Y-63247237D01*
X161315151Y-63312699D01*
X161105920Y-63345838D01*
X160894080Y-63345838D01*
X160684849Y-63312699D01*
X160483377Y-63247237D01*
X160294627Y-63151064D01*
X160123245Y-63026548D01*
X159973452Y-62876755D01*
X159848936Y-62705373D01*
X159752763Y-62516623D01*
X159687301Y-62315151D01*
X159654162Y-62105920D01*
X159654162Y-61894080D01*
X159687301Y-61684849D01*
X159752763Y-61483377D01*
X159848936Y-61294627D01*
X159973452Y-61123245D01*
X160123245Y-60973452D01*
X160294627Y-60848936D01*
X160483377Y-60752763D01*
X160684849Y-60687301D01*
X160894080Y-60654162D01*
X161105920Y-60654162D01*
X161315151Y-60687301D01*
G37*
G36*
X196054850Y-56700964D02*
G01*
X196105040Y-56706787D01*
X196122189Y-56714359D01*
X196145671Y-56719030D01*
X196170810Y-56735827D01*
X196190696Y-56744608D01*
X196204277Y-56758189D01*
X196226777Y-56773223D01*
X196241810Y-56795722D01*
X196255391Y-56809303D01*
X196264170Y-56829186D01*
X196280970Y-56854329D01*
X196285641Y-56877812D01*
X196293212Y-56894959D01*
X196299033Y-56945139D01*
X196300000Y-56950000D01*
X196300000Y-58050000D01*
X196299032Y-58054863D01*
X196293212Y-58105040D01*
X196285641Y-58122185D01*
X196280970Y-58145671D01*
X196264169Y-58170815D01*
X196255391Y-58190696D01*
X196241812Y-58204274D01*
X196226777Y-58226777D01*
X196204274Y-58241812D01*
X196190696Y-58255391D01*
X196170815Y-58264169D01*
X196145671Y-58280970D01*
X196122185Y-58285641D01*
X196105040Y-58293212D01*
X196054861Y-58299032D01*
X196050000Y-58300000D01*
X194950000Y-58300000D01*
X194945138Y-58299032D01*
X194894959Y-58293212D01*
X194877812Y-58285641D01*
X194854329Y-58280970D01*
X194829186Y-58264170D01*
X194809303Y-58255391D01*
X194795722Y-58241810D01*
X194773223Y-58226777D01*
X194758189Y-58204277D01*
X194744608Y-58190696D01*
X194735827Y-58170810D01*
X194719030Y-58145671D01*
X194714359Y-58122189D01*
X194706787Y-58105040D01*
X194700964Y-58054849D01*
X194700000Y-58050000D01*
X194700000Y-56950000D01*
X194700964Y-56945150D01*
X194706787Y-56894959D01*
X194714359Y-56877808D01*
X194719030Y-56854329D01*
X194735826Y-56829191D01*
X194744608Y-56809303D01*
X194758191Y-56795719D01*
X194773223Y-56773223D01*
X194795719Y-56758191D01*
X194809303Y-56744608D01*
X194829191Y-56735826D01*
X194854329Y-56719030D01*
X194877808Y-56714359D01*
X194894959Y-56706787D01*
X194945151Y-56700964D01*
X194950000Y-56700000D01*
X196050000Y-56700000D01*
X196054850Y-56700964D01*
G37*
G36*
X188112228Y-56734448D02*
G01*
X188257117Y-56794463D01*
X188387515Y-56881592D01*
X188498408Y-56992485D01*
X188585537Y-57122883D01*
X188645552Y-57267772D01*
X188676148Y-57421586D01*
X188676148Y-57578414D01*
X188645552Y-57732228D01*
X188585537Y-57877117D01*
X188498408Y-58007515D01*
X188387515Y-58118408D01*
X188257117Y-58205537D01*
X188112228Y-58265552D01*
X187958414Y-58296148D01*
X187801586Y-58296148D01*
X187647772Y-58265552D01*
X187502883Y-58205537D01*
X187372485Y-58118408D01*
X187261592Y-58007515D01*
X187174463Y-57877117D01*
X187114448Y-57732228D01*
X187083852Y-57578414D01*
X187083852Y-57421586D01*
X187114448Y-57267772D01*
X187174463Y-57122883D01*
X187261592Y-56992485D01*
X187372485Y-56881592D01*
X187502883Y-56794463D01*
X187647772Y-56734448D01*
X187801586Y-56703852D01*
X187958414Y-56703852D01*
X188112228Y-56734448D01*
G37*
G36*
X188112228Y-54194448D02*
G01*
X188257117Y-54254463D01*
X188387515Y-54341592D01*
X188498408Y-54452485D01*
X188585537Y-54582883D01*
X188645552Y-54727772D01*
X188676148Y-54881586D01*
X188676148Y-55038414D01*
X188645552Y-55192228D01*
X188585537Y-55337117D01*
X188498408Y-55467515D01*
X188387515Y-55578408D01*
X188257117Y-55665537D01*
X188112228Y-55725552D01*
X187958414Y-55756148D01*
X187801586Y-55756148D01*
X187647772Y-55725552D01*
X187502883Y-55665537D01*
X187372485Y-55578408D01*
X187261592Y-55467515D01*
X187174463Y-55337117D01*
X187114448Y-55192228D01*
X187083852Y-55038414D01*
X187083852Y-54881586D01*
X187114448Y-54727772D01*
X187174463Y-54582883D01*
X187261592Y-54452485D01*
X187372485Y-54341592D01*
X187502883Y-54254463D01*
X187647772Y-54194448D01*
X187801586Y-54163852D01*
X187958414Y-54163852D01*
X188112228Y-54194448D01*
G37*
G36*
X195732228Y-54194448D02*
G01*
X195877117Y-54254463D01*
X196007515Y-54341592D01*
X196118408Y-54452485D01*
X196205537Y-54582883D01*
X196265552Y-54727772D01*
X196296148Y-54881586D01*
X196296148Y-55038414D01*
X196265552Y-55192228D01*
X196205537Y-55337117D01*
X196118408Y-55467515D01*
X196007515Y-55578408D01*
X195877117Y-55665537D01*
X195732228Y-55725552D01*
X195578414Y-55756148D01*
X195421586Y-55756148D01*
X195267772Y-55725552D01*
X195122883Y-55665537D01*
X194992485Y-55578408D01*
X194881592Y-55467515D01*
X194794463Y-55337117D01*
X194734448Y-55192228D01*
X194703852Y-55038414D01*
X194703852Y-54881586D01*
X194734448Y-54727772D01*
X194794463Y-54582883D01*
X194881592Y-54452485D01*
X194992485Y-54341592D01*
X195122883Y-54254463D01*
X195267772Y-54194448D01*
X195421586Y-54163852D01*
X195578414Y-54163852D01*
X195732228Y-54194448D01*
G37*
G36*
X184604848Y-46150964D02*
G01*
X184655040Y-46156787D01*
X184672189Y-46164359D01*
X184695670Y-46169030D01*
X184720807Y-46185826D01*
X184740695Y-46194608D01*
X184754278Y-46208191D01*
X184776776Y-46223224D01*
X184791808Y-46245721D01*
X184805391Y-46259304D01*
X184814171Y-46279189D01*
X184830970Y-46304330D01*
X184835640Y-46327811D01*
X184843212Y-46344959D01*
X184849036Y-46395163D01*
X184849999Y-46400002D01*
X184849999Y-46403458D01*
X184850000Y-46403467D01*
X184850000Y-47605906D01*
X184850000Y-48599999D01*
X184849034Y-48604851D01*
X184843212Y-48655040D01*
X184835641Y-48672185D01*
X184830970Y-48695670D01*
X184814170Y-48720812D01*
X184805391Y-48740695D01*
X184791810Y-48754275D01*
X184776776Y-48776776D01*
X184754275Y-48791810D01*
X184740695Y-48805391D01*
X184720812Y-48814170D01*
X184695670Y-48830970D01*
X184672187Y-48835640D01*
X184655040Y-48843212D01*
X184604836Y-48849036D01*
X184599998Y-48849999D01*
X184596541Y-48849999D01*
X184596533Y-48850000D01*
X182403467Y-48850000D01*
X182403466Y-48849999D01*
X182400001Y-48850000D01*
X182395149Y-48849035D01*
X182344959Y-48843212D01*
X182327812Y-48835640D01*
X182304330Y-48830970D01*
X182279189Y-48814171D01*
X182259304Y-48805391D01*
X182245721Y-48791808D01*
X182223224Y-48776776D01*
X182208191Y-48754278D01*
X182194608Y-48740695D01*
X182185826Y-48720807D01*
X182169030Y-48695670D01*
X182164360Y-48672191D01*
X182156787Y-48655040D01*
X182150963Y-48604836D01*
X182150001Y-48599998D01*
X182150000Y-48596540D01*
X182150000Y-48596532D01*
X182150000Y-46403467D01*
X182150000Y-46403466D01*
X182150000Y-46400001D01*
X182150964Y-46395151D01*
X182156787Y-46344959D01*
X182164359Y-46327808D01*
X182169030Y-46304330D01*
X182185825Y-46279193D01*
X182194608Y-46259304D01*
X182208193Y-46245718D01*
X182223224Y-46223224D01*
X182245718Y-46208193D01*
X182259304Y-46194608D01*
X182279193Y-46185825D01*
X182304330Y-46169030D01*
X182327807Y-46164360D01*
X182344959Y-46156787D01*
X182395165Y-46150963D01*
X182400002Y-46150001D01*
X182403458Y-46150000D01*
X182403467Y-46150000D01*
X184596533Y-46150000D01*
X184599999Y-46150000D01*
X184604848Y-46150964D01*
G37*
G36*
X188815151Y-46187301D02*
G01*
X189016623Y-46252763D01*
X189205373Y-46348936D01*
X189376755Y-46473452D01*
X189526548Y-46623245D01*
X189651064Y-46794627D01*
X189747237Y-46983377D01*
X189812699Y-47184849D01*
X189845838Y-47394080D01*
X189845838Y-47605920D01*
X189812699Y-47815151D01*
X189747237Y-48016623D01*
X189651064Y-48205373D01*
X189526548Y-48376755D01*
X189376755Y-48526548D01*
X189205373Y-48651064D01*
X189016623Y-48747237D01*
X188815151Y-48812699D01*
X188605920Y-48845838D01*
X188394080Y-48845838D01*
X188184849Y-48812699D01*
X187983377Y-48747237D01*
X187794627Y-48651064D01*
X187623245Y-48526548D01*
X187473452Y-48376755D01*
X187348936Y-48205373D01*
X187252763Y-48016623D01*
X187187301Y-47815151D01*
X187154162Y-47605920D01*
X187154162Y-47394080D01*
X187187301Y-47184849D01*
X187252763Y-46983377D01*
X187348936Y-46794627D01*
X187473452Y-46623245D01*
X187623245Y-46473452D01*
X187794627Y-46348936D01*
X187983377Y-46252763D01*
X188184849Y-46187301D01*
X188394080Y-46154162D01*
X188605920Y-46154162D01*
X188815151Y-46187301D01*
G37*
M02*
