%TF.GenerationSoftware,KiCad,Pcbnew,9.0.6*%
%TF.CreationDate,2025-12-15T22:58:15+05:30*%
%TF.ProjectId,usb_ps_1,7573625f-7073-45f3-912e-6b696361645f,rev?*%
%TF.SameCoordinates,Original*%
%TF.FileFunction,Copper,L4,Bot*%
%TF.FilePolarity,Positive*%
%FSLAX46Y46*%
G04 Gerber Fmt 4.6, Leading zero omitted, Abs format (unit mm)*
G04 Created by KiCad (PCBNEW 9.0.6) date 2025-12-15 22:58:15*
%MOMM*%
%LPD*%
G01*
G04 APERTURE LIST*
G04 Aperture macros list*
%AMRoundRect*
0 Rectangle with rounded corners*
0 $1 Rounding radius*
0 $2 $3 $4 $5 $6 $7 $8 $9 X,Y pos of 4 corners*
0 Add a 4 corners polygon primitive as box body*
4,1,4,$2,$3,$4,$5,$6,$7,$8,$9,$2,$3,0*
0 Add four circle primitives for the rounded corners*
1,1,$1+$1,$2,$3*
1,1,$1+$1,$4,$5*
1,1,$1+$1,$6,$7*
1,1,$1+$1,$8,$9*
0 Add four rect primitives between the rounded corners*
20,1,$1+$1,$2,$3,$4,$5,0*
20,1,$1+$1,$4,$5,$6,$7,0*
20,1,$1+$1,$6,$7,$8,$9,0*
20,1,$1+$1,$8,$9,$2,$3,0*%
G04 Aperture macros list end*
%TA.AperFunction,ComponentPad*%
%ADD10RoundRect,0.250000X0.550000X0.550000X-0.550000X0.550000X-0.550000X-0.550000X0.550000X-0.550000X0*%
%TD*%
%TA.AperFunction,ComponentPad*%
%ADD11C,1.600000*%
%TD*%
%TA.AperFunction,HeatsinkPad*%
%ADD12O,2.100000X1.000000*%
%TD*%
%TA.AperFunction,HeatsinkPad*%
%ADD13O,1.800000X1.000000*%
%TD*%
%TA.AperFunction,ComponentPad*%
%ADD14R,1.700000X1.700000*%
%TD*%
%TA.AperFunction,ComponentPad*%
%ADD15C,1.700000*%
%TD*%
%TA.AperFunction,ComponentPad*%
%ADD16RoundRect,0.250001X1.099999X1.099999X-1.099999X1.099999X-1.099999X-1.099999X1.099999X-1.099999X0*%
%TD*%
%TA.AperFunction,ComponentPad*%
%ADD17C,2.700000*%
%TD*%
%TA.AperFunction,ComponentPad*%
%ADD18RoundRect,0.250001X-1.099999X1.099999X-1.099999X-1.099999X1.099999X-1.099999X1.099999X1.099999X0*%
%TD*%
%TA.AperFunction,ComponentPad*%
%ADD19RoundRect,0.250001X-1.099999X-1.099999X1.099999X-1.099999X1.099999X1.099999X-1.099999X1.099999X0*%
%TD*%
%TA.AperFunction,ViaPad*%
%ADD20C,0.600000*%
%TD*%
%TA.AperFunction,ViaPad*%
%ADD21C,0.900000*%
%TD*%
%TA.AperFunction,Conductor*%
%ADD22C,0.500000*%
%TD*%
%TA.AperFunction,Conductor*%
%ADD23C,2.500000*%
%TD*%
%TA.AperFunction,Conductor*%
%ADD24C,0.250000*%
%TD*%
G04 APERTURE END LIST*
D10*
%TO.P,U3,1*%
%TO.N,Net-(R4-Pad1)*%
X193805000Y-103275000D03*
D11*
%TO.P,U3,2*%
%TO.N,GND*%
X193805000Y-100735000D03*
%TO.P,U3,3*%
X186185000Y-100735000D03*
%TO.P,U3,4*%
%TO.N,Net-(R8-Pad2)*%
X186185000Y-103275000D03*
%TD*%
D12*
%TO.P,J1,S1,SHIELD*%
%TO.N,GND*%
X161200000Y-71360000D03*
D13*
X157000000Y-71360000D03*
D12*
X161200000Y-80000000D03*
D13*
X157000000Y-80000000D03*
%TD*%
D14*
%TO.P,J2,1,Pin_1*%
%TO.N,GND*%
X174120000Y-85000000D03*
D15*
%TO.P,J2,2,Pin_2*%
%TO.N,/swclk*%
X171580000Y-85000000D03*
%TO.P,J2,3,Pin_3*%
%TO.N,/swdio*%
X169040000Y-85000000D03*
%TO.P,J2,4,Pin_4*%
%TO.N,/3.3V*%
X166500000Y-85000000D03*
%TD*%
D16*
%TO.P,J6,1,Pin_1*%
%TO.N,Net-(D5-A)*%
X166000000Y-62000000D03*
D17*
%TO.P,J6,2,Pin_2*%
%TO.N,GND*%
X161000000Y-62000000D03*
%TD*%
D18*
%TO.P,J4,1,Pin_1*%
%TO.N,Net-(J4-Pin_1)*%
X208500000Y-91000000D03*
D17*
%TO.P,J4,2,Pin_2*%
%TO.N,GND*%
X208500000Y-96000000D03*
%TD*%
D10*
%TO.P,U2,1*%
%TO.N,Net-(R6-Pad1)*%
X195500000Y-57500000D03*
D11*
%TO.P,U2,2*%
%TO.N,GND*%
X195500000Y-54960000D03*
%TO.P,U2,3*%
X187880000Y-54960000D03*
%TO.P,U2,4*%
%TO.N,Net-(R5-Pad2)*%
X187880000Y-57500000D03*
%TD*%
D19*
%TO.P,J5,1,Pin_1*%
%TO.N,Net-(J5-Pin_1)*%
X183500000Y-47500000D03*
D17*
%TO.P,J5,2,Pin_2*%
%TO.N,GND*%
X188500000Y-47500000D03*
%TD*%
D14*
%TO.P,J3,1,Pin_1*%
%TO.N,/3.3V*%
X221420000Y-87500000D03*
D15*
%TO.P,J3,2,Pin_2*%
%TO.N,/scl_D*%
X223960000Y-87500000D03*
%TO.P,J3,3,Pin_3*%
%TO.N,/sda_D*%
X226500000Y-87500000D03*
%TO.P,J3,4,Pin_4*%
%TO.N,GND*%
X229040000Y-87500000D03*
%TD*%
D20*
%TO.N,GND*%
X191250000Y-78500000D03*
X188750000Y-75250000D03*
D21*
X215000000Y-61500000D03*
D20*
X194250000Y-67500000D03*
X202000000Y-62000000D03*
X204250000Y-59250000D03*
X183250000Y-74250000D03*
X217750000Y-67750000D03*
X213000000Y-66500000D03*
X191750000Y-54960000D03*
D21*
X171500000Y-76137500D03*
D20*
X191000000Y-86000000D03*
X204500000Y-52000000D03*
X176500000Y-68750000D03*
X224750000Y-65550000D03*
X197250000Y-62250000D03*
X166250000Y-91500000D03*
X171250000Y-92000000D03*
X210865000Y-55775850D03*
X212250000Y-82350000D03*
X213000000Y-64250000D03*
X184250000Y-81500000D03*
X224750000Y-74000000D03*
X213000000Y-68500000D03*
%TO.N,/VBus*%
X175750000Y-53912500D03*
D21*
X174250000Y-44250000D03*
D20*
X163670000Y-78080000D03*
X163750000Y-79750000D03*
X164000000Y-73250000D03*
D21*
X171250000Y-47250000D03*
D20*
X164000000Y-71750000D03*
X163000000Y-78080000D03*
X173915000Y-101665000D03*
D21*
X166780000Y-98250000D03*
X166500000Y-96750000D03*
X163500000Y-96750000D03*
D20*
X163750000Y-79000000D03*
X163000000Y-73280000D03*
X173250000Y-71500000D03*
D21*
X165000000Y-96750000D03*
X172500000Y-46000000D03*
X173375000Y-45125000D03*
D20*
X164000000Y-72500000D03*
%TO.N,/3.3V*%
X188750000Y-77500000D03*
X189500000Y-74750000D03*
X189500000Y-72000000D03*
D21*
%TO.N,/MosO{slash}P*%
X186000000Y-61250000D03*
X186250000Y-92000000D03*
X186000000Y-62250000D03*
X183750000Y-92000000D03*
X186000000Y-64750000D03*
X187500000Y-92000000D03*
X185000000Y-92000000D03*
X186000000Y-63500000D03*
D20*
%TO.N,/pureM*%
X180750000Y-77000000D03*
X198500000Y-100500000D03*
%TO.N,/buckM*%
X200250000Y-58750000D03*
X180250000Y-75750000D03*
D21*
%TO.N,/cfg1*%
X170500000Y-71500000D03*
X175000000Y-74000000D03*
%TO.N,/cfg3*%
X171500000Y-80250000D03*
X175750000Y-77000000D03*
%TD*%
D22*
%TO.N,GND*%
X161200000Y-80000000D02*
X157000000Y-80000000D01*
X161200000Y-71360000D02*
X157000000Y-71360000D01*
D23*
%TO.N,/VBus*%
X165125000Y-70125000D02*
X175750000Y-59500000D01*
X163500000Y-72265893D02*
X163628000Y-72137893D01*
X163500000Y-73000000D02*
X163500000Y-72265893D01*
X174500000Y-44000000D02*
X171250000Y-47250000D01*
X163628000Y-72137893D02*
X163628000Y-71622000D01*
X163750000Y-74030000D02*
X163750000Y-96500000D01*
D24*
X171875000Y-70125000D02*
X165125000Y-70125000D01*
D23*
X163628000Y-71622000D02*
X165125000Y-70125000D01*
X163220000Y-73280000D02*
X163500000Y-73000000D01*
D24*
X170000000Y-97750000D02*
X167000000Y-97750000D01*
D23*
X163750000Y-96500000D02*
X165750000Y-96500000D01*
X175750000Y-59500000D02*
X175750000Y-44000000D01*
D24*
X173915000Y-101665000D02*
X170000000Y-97750000D01*
X173250000Y-71500000D02*
X171875000Y-70125000D01*
D23*
X163000000Y-73280000D02*
X163220000Y-73280000D01*
X165750000Y-96500000D02*
X167000000Y-97750000D01*
X175750000Y-44000000D02*
X174500000Y-44000000D01*
X163000000Y-73280000D02*
X163750000Y-74030000D01*
D24*
%TO.N,/3.3V*%
X188750000Y-77500000D02*
X189500000Y-76750000D01*
X189500000Y-72000000D02*
X189500000Y-74500000D01*
X189500000Y-76750000D02*
X189500000Y-74750000D01*
D23*
%TO.N,/MosO{slash}P*%
X178572000Y-86822000D02*
X178572000Y-73178000D01*
X186000000Y-63500000D02*
X186000000Y-62250000D01*
X183750000Y-92000000D02*
X178572000Y-86822000D01*
X187500000Y-92000000D02*
X183750000Y-92000000D01*
X178572000Y-73178000D02*
X185750000Y-66000000D01*
X186000000Y-65750000D02*
X186000000Y-64750000D01*
X185750000Y-66000000D02*
X186000000Y-65750000D01*
X186000000Y-64750000D02*
X186000000Y-63500000D01*
X186000000Y-62250000D02*
X186000000Y-61250000D01*
D24*
%TO.N,/pureM*%
X180750000Y-82750000D02*
X198500000Y-100500000D01*
X180750000Y-77000000D02*
X180750000Y-82750000D01*
%TO.N,/buckM*%
X180250000Y-75750000D02*
X197250000Y-58750000D01*
X197250000Y-58750000D02*
X200250000Y-58750000D01*
%TO.N,/cfg1*%
X175000000Y-74000000D02*
X173000000Y-74000000D01*
X173000000Y-74000000D02*
X170500000Y-71500000D01*
%TO.N,/cfg3*%
X172500000Y-80250000D02*
X175750000Y-77000000D01*
X171500000Y-80250000D02*
X172500000Y-80250000D01*
%TD*%
%TA.AperFunction,Conductor*%
%TO.N,GND*%
G36*
X235192539Y-41520185D02*
G01*
X235238294Y-41572989D01*
X235249500Y-41624500D01*
X235249500Y-106375500D01*
X235229815Y-106442539D01*
X235177011Y-106488294D01*
X235125500Y-106499500D01*
X153624500Y-106499500D01*
X153557461Y-106479815D01*
X153511706Y-106427011D01*
X153500500Y-106375500D01*
X153500500Y-103172648D01*
X184884500Y-103172648D01*
X184884500Y-103377351D01*
X184916522Y-103579534D01*
X184979781Y-103774223D01*
X185072715Y-103956613D01*
X185193028Y-104122213D01*
X185337786Y-104266971D01*
X185492749Y-104379556D01*
X185503390Y-104387287D01*
X185619607Y-104446503D01*
X185685776Y-104480218D01*
X185685778Y-104480218D01*
X185685781Y-104480220D01*
X185776856Y-104509812D01*
X185880465Y-104543477D01*
X185981557Y-104559488D01*
X186082648Y-104575500D01*
X186082649Y-104575500D01*
X186287351Y-104575500D01*
X186287352Y-104575500D01*
X186489534Y-104543477D01*
X186684219Y-104480220D01*
X186866610Y-104387287D01*
X186995482Y-104293657D01*
X187032213Y-104266971D01*
X187032215Y-104266968D01*
X187032219Y-104266966D01*
X187176966Y-104122219D01*
X187176968Y-104122215D01*
X187176971Y-104122213D01*
X187281892Y-103977799D01*
X187297287Y-103956610D01*
X187390220Y-103774219D01*
X187453477Y-103579534D01*
X187485500Y-103377352D01*
X187485500Y-103172648D01*
X187453477Y-102970466D01*
X187390220Y-102775781D01*
X187390218Y-102775778D01*
X187390218Y-102775776D01*
X187365940Y-102728129D01*
X187338861Y-102674983D01*
X192504500Y-102674983D01*
X192504500Y-103875001D01*
X192504501Y-103875018D01*
X192515000Y-103977796D01*
X192515001Y-103977799D01*
X192562856Y-104122213D01*
X192570186Y-104144334D01*
X192662288Y-104293656D01*
X192786344Y-104417712D01*
X192935666Y-104509814D01*
X193102203Y-104564999D01*
X193204991Y-104575500D01*
X194405008Y-104575499D01*
X194507797Y-104564999D01*
X194674334Y-104509814D01*
X194823656Y-104417712D01*
X194947712Y-104293656D01*
X195039814Y-104144334D01*
X195094999Y-103977797D01*
X195105500Y-103875009D01*
X195105499Y-102674992D01*
X195094999Y-102572203D01*
X195039814Y-102405666D01*
X194947712Y-102256344D01*
X194823656Y-102132288D01*
X194722314Y-102069780D01*
X194674336Y-102040187D01*
X194674331Y-102040185D01*
X194672862Y-102039698D01*
X194507797Y-101985001D01*
X194507795Y-101985000D01*
X194405010Y-101974500D01*
X193204998Y-101974500D01*
X193204981Y-101974501D01*
X193102203Y-101985000D01*
X193102200Y-101985001D01*
X192935668Y-102040185D01*
X192935663Y-102040187D01*
X192786342Y-102132289D01*
X192662289Y-102256342D01*
X192570187Y-102405663D01*
X192570186Y-102405666D01*
X192515001Y-102572203D01*
X192515001Y-102572204D01*
X192515000Y-102572204D01*
X192504500Y-102674983D01*
X187338861Y-102674983D01*
X187297284Y-102593385D01*
X187176971Y-102427786D01*
X187032213Y-102283028D01*
X186866613Y-102162715D01*
X186866612Y-102162714D01*
X186866610Y-102162713D01*
X186806898Y-102132288D01*
X186684223Y-102069781D01*
X186489534Y-102006522D01*
X186314995Y-101978878D01*
X186287352Y-101974500D01*
X186082648Y-101974500D01*
X186058329Y-101978351D01*
X185880465Y-102006522D01*
X185685776Y-102069781D01*
X185503386Y-102162715D01*
X185337786Y-102283028D01*
X185193028Y-102427786D01*
X185072715Y-102593386D01*
X184979781Y-102775776D01*
X184916522Y-102970465D01*
X184884500Y-103172648D01*
X153500500Y-103172648D01*
X153500500Y-78494234D01*
X160104500Y-78494234D01*
X160104500Y-78645765D01*
X160143719Y-78792136D01*
X160181602Y-78857750D01*
X160219485Y-78923365D01*
X160326635Y-79030515D01*
X160457865Y-79106281D01*
X160604234Y-79145500D01*
X160604236Y-79145500D01*
X160755764Y-79145500D01*
X160755766Y-79145500D01*
X160902135Y-79106281D01*
X161033365Y-79030515D01*
X161140515Y-78923365D01*
X161216281Y-78792135D01*
X161255500Y-78645766D01*
X161255500Y-78494234D01*
X161216281Y-78347865D01*
X161140515Y-78216635D01*
X161033365Y-78109485D01*
X160967750Y-78071602D01*
X160902136Y-78033719D01*
X160814688Y-78010288D01*
X160755766Y-77994500D01*
X160604234Y-77994500D01*
X160457863Y-78033719D01*
X160326635Y-78109485D01*
X160326632Y-78109487D01*
X160219487Y-78216632D01*
X160219485Y-78216635D01*
X160143719Y-78347863D01*
X160104500Y-78494234D01*
X153500500Y-78494234D01*
X153500500Y-72714234D01*
X160104500Y-72714234D01*
X160104500Y-72865765D01*
X160143719Y-73012136D01*
X160181602Y-73077750D01*
X160219485Y-73143365D01*
X160326635Y-73250515D01*
X160457865Y-73326281D01*
X160604234Y-73365500D01*
X160604236Y-73365500D01*
X160755764Y-73365500D01*
X160755766Y-73365500D01*
X160902135Y-73326281D01*
X161033365Y-73250515D01*
X161037819Y-73246061D01*
X161052234Y-73238189D01*
X161063582Y-73226307D01*
X161082270Y-73221788D01*
X161099142Y-73212576D01*
X161115526Y-73213747D01*
X161131495Y-73209887D01*
X161149657Y-73216188D01*
X161168834Y-73217560D01*
X161181985Y-73227405D01*
X161197505Y-73232790D01*
X161209377Y-73247911D01*
X161224767Y-73259432D01*
X161230906Y-73275330D01*
X161240653Y-73287744D01*
X161245567Y-73313296D01*
X161248948Y-73322050D01*
X161249500Y-73327878D01*
X161249500Y-73394734D01*
X161271770Y-73563886D01*
X161272065Y-73566131D01*
X161272067Y-73566146D01*
X161279452Y-73622243D01*
X161311511Y-73741886D01*
X161338842Y-73843887D01*
X161426653Y-74055881D01*
X161426657Y-74055891D01*
X161541389Y-74254612D01*
X161558757Y-74277247D01*
X161558762Y-74277252D01*
X161681077Y-74436658D01*
X161681079Y-74436660D01*
X161681080Y-74436661D01*
X161963182Y-74718762D01*
X161996666Y-74780083D01*
X161999500Y-74806442D01*
X161999500Y-96614741D01*
X162020651Y-96775388D01*
X162029452Y-96842238D01*
X162029453Y-96842240D01*
X162088842Y-97063887D01*
X162176650Y-97275876D01*
X162176657Y-97275890D01*
X162291392Y-97474617D01*
X162431081Y-97656661D01*
X162431089Y-97656670D01*
X162593330Y-97818911D01*
X162593338Y-97818918D01*
X162775382Y-97958607D01*
X162775385Y-97958608D01*
X162775388Y-97958611D01*
X162974112Y-98073344D01*
X162974117Y-98073346D01*
X162974123Y-98073349D01*
X163065480Y-98111190D01*
X163186113Y-98161158D01*
X163407762Y-98220548D01*
X163635266Y-98250500D01*
X164973557Y-98250500D01*
X165040596Y-98270185D01*
X165061238Y-98286819D01*
X165843333Y-99068915D01*
X165843340Y-99068921D01*
X166025378Y-99208603D01*
X166025382Y-99208605D01*
X166025388Y-99208610D01*
X166224112Y-99323344D01*
X166436113Y-99411158D01*
X166657761Y-99470549D01*
X166847348Y-99495507D01*
X166885265Y-99500499D01*
X166885266Y-99500499D01*
X167114735Y-99500499D01*
X167147234Y-99496220D01*
X167342239Y-99470549D01*
X167563887Y-99411158D01*
X167775888Y-99323344D01*
X167974612Y-99208610D01*
X168156661Y-99068920D01*
X168318920Y-98906661D01*
X168458610Y-98724612D01*
X168573344Y-98525888D01*
X168603930Y-98452048D01*
X168647771Y-98397644D01*
X168714065Y-98375579D01*
X168718491Y-98375500D01*
X169689548Y-98375500D01*
X169756587Y-98395185D01*
X169777229Y-98411819D01*
X173089205Y-101723795D01*
X173122690Y-101785118D01*
X173123141Y-101787285D01*
X173145261Y-101898489D01*
X173145264Y-101898501D01*
X173205602Y-102044172D01*
X173205609Y-102044185D01*
X173293210Y-102175288D01*
X173293213Y-102175292D01*
X173404707Y-102286786D01*
X173404711Y-102286789D01*
X173535814Y-102374390D01*
X173535827Y-102374397D01*
X173681498Y-102434735D01*
X173681503Y-102434737D01*
X173836153Y-102465499D01*
X173836156Y-102465500D01*
X173836158Y-102465500D01*
X173993844Y-102465500D01*
X173993845Y-102465499D01*
X174148497Y-102434737D01*
X174294179Y-102374394D01*
X174425289Y-102286789D01*
X174536789Y-102175289D01*
X174624394Y-102044179D01*
X174684737Y-101898497D01*
X174715500Y-101743842D01*
X174715500Y-101586158D01*
X174715500Y-101586155D01*
X174715499Y-101586153D01*
X174684738Y-101431510D01*
X174684737Y-101431503D01*
X174684735Y-101431498D01*
X174624397Y-101285827D01*
X174624390Y-101285814D01*
X174536789Y-101154711D01*
X174536786Y-101154707D01*
X174425292Y-101043213D01*
X174425288Y-101043210D01*
X174294185Y-100955609D01*
X174294172Y-100955602D01*
X174148501Y-100895264D01*
X174148489Y-100895261D01*
X174037285Y-100873141D01*
X173975374Y-100840756D01*
X173973795Y-100839205D01*
X170493150Y-97358560D01*
X170485860Y-97351270D01*
X170485858Y-97351267D01*
X170398733Y-97264142D01*
X170347509Y-97229915D01*
X170296286Y-97195688D01*
X170296283Y-97195686D01*
X170296280Y-97195685D01*
X170222603Y-97165168D01*
X170222601Y-97165167D01*
X170215792Y-97162347D01*
X170182452Y-97148537D01*
X170122029Y-97136518D01*
X170117306Y-97135578D01*
X170117304Y-97135578D01*
X170061610Y-97124500D01*
X170061607Y-97124500D01*
X170061606Y-97124500D01*
X168718491Y-97124500D01*
X168651452Y-97104815D01*
X168605697Y-97052011D01*
X168603930Y-97047952D01*
X168573348Y-96974120D01*
X168573343Y-96974111D01*
X168458610Y-96775388D01*
X168458605Y-96775382D01*
X168458603Y-96775378D01*
X168318921Y-96593340D01*
X168318915Y-96593333D01*
X166906668Y-95181086D01*
X166906663Y-95181082D01*
X166906661Y-95181080D01*
X166815636Y-95111235D01*
X166815635Y-95111234D01*
X166724622Y-95041396D01*
X166724616Y-95041392D01*
X166724612Y-95041389D01*
X166713958Y-95035238D01*
X166525891Y-94926657D01*
X166525876Y-94926650D01*
X166313887Y-94838842D01*
X166092239Y-94779452D01*
X166092233Y-94779451D01*
X166092232Y-94779451D01*
X166082362Y-94778151D01*
X166065771Y-94775967D01*
X166065770Y-94775966D01*
X165864744Y-94749501D01*
X165864739Y-94749500D01*
X165864734Y-94749500D01*
X165864727Y-94749500D01*
X165624500Y-94749500D01*
X165557461Y-94729815D01*
X165511706Y-94677011D01*
X165500500Y-94625500D01*
X165500500Y-86186494D01*
X165520185Y-86119455D01*
X165572989Y-86073700D01*
X165642147Y-86063756D01*
X165697385Y-86086176D01*
X165792184Y-86155051D01*
X165981588Y-86251557D01*
X166183757Y-86317246D01*
X166393713Y-86350500D01*
X166393714Y-86350500D01*
X166606286Y-86350500D01*
X166606287Y-86350500D01*
X166816243Y-86317246D01*
X167018412Y-86251557D01*
X167207816Y-86155051D01*
X167256810Y-86119455D01*
X167379786Y-86030109D01*
X167379788Y-86030106D01*
X167379792Y-86030104D01*
X167530104Y-85879792D01*
X167530106Y-85879788D01*
X167530109Y-85879786D01*
X167655048Y-85707820D01*
X167655047Y-85707820D01*
X167655051Y-85707816D01*
X167659514Y-85699054D01*
X167707488Y-85648259D01*
X167775308Y-85631463D01*
X167841444Y-85653999D01*
X167880486Y-85699056D01*
X167884951Y-85707820D01*
X168009890Y-85879786D01*
X168160213Y-86030109D01*
X168332179Y-86155048D01*
X168332181Y-86155049D01*
X168332184Y-86155051D01*
X168521588Y-86251557D01*
X168723757Y-86317246D01*
X168933713Y-86350500D01*
X168933714Y-86350500D01*
X169146286Y-86350500D01*
X169146287Y-86350500D01*
X169356243Y-86317246D01*
X169558412Y-86251557D01*
X169747816Y-86155051D01*
X169796810Y-86119455D01*
X169919786Y-86030109D01*
X169919788Y-86030106D01*
X169919792Y-86030104D01*
X170070104Y-85879792D01*
X170070106Y-85879788D01*
X170070109Y-85879786D01*
X170195048Y-85707820D01*
X170195047Y-85707820D01*
X170195051Y-85707816D01*
X170199514Y-85699054D01*
X170247488Y-85648259D01*
X170315308Y-85631463D01*
X170381444Y-85653999D01*
X170420486Y-85699056D01*
X170424951Y-85707820D01*
X170549890Y-85879786D01*
X170700213Y-86030109D01*
X170872179Y-86155048D01*
X170872181Y-86155049D01*
X170872184Y-86155051D01*
X171061588Y-86251557D01*
X171263757Y-86317246D01*
X171473713Y-86350500D01*
X171473714Y-86350500D01*
X171686286Y-86350500D01*
X171686287Y-86350500D01*
X171896243Y-86317246D01*
X172098412Y-86251557D01*
X172287816Y-86155051D01*
X172336810Y-86119455D01*
X172459786Y-86030109D01*
X172459788Y-86030106D01*
X172459792Y-86030104D01*
X172610104Y-85879792D01*
X172610106Y-85879788D01*
X172610109Y-85879786D01*
X172735048Y-85707820D01*
X172735047Y-85707820D01*
X172735051Y-85707816D01*
X172831557Y-85518412D01*
X172897246Y-85316243D01*
X172930500Y-85106287D01*
X172930500Y-84893713D01*
X172897246Y-84683757D01*
X172831557Y-84481588D01*
X172735051Y-84292184D01*
X172735049Y-84292181D01*
X172735048Y-84292179D01*
X172610109Y-84120213D01*
X172459786Y-83969890D01*
X172287820Y-83844951D01*
X172098414Y-83748444D01*
X172098413Y-83748443D01*
X172098412Y-83748443D01*
X171896243Y-83682754D01*
X171896241Y-83682753D01*
X171896240Y-83682753D01*
X171734957Y-83657208D01*
X171686287Y-83649500D01*
X171473713Y-83649500D01*
X171425042Y-83657208D01*
X171263760Y-83682753D01*
X171061585Y-83748444D01*
X170872179Y-83844951D01*
X170700213Y-83969890D01*
X170549890Y-84120213D01*
X170424949Y-84292182D01*
X170420484Y-84300946D01*
X170372509Y-84351742D01*
X170304688Y-84368536D01*
X170238553Y-84345998D01*
X170199516Y-84300946D01*
X170195050Y-84292182D01*
X170070109Y-84120213D01*
X169919786Y-83969890D01*
X169747820Y-83844951D01*
X169558414Y-83748444D01*
X169558413Y-83748443D01*
X169558412Y-83748443D01*
X169356243Y-83682754D01*
X169356241Y-83682753D01*
X169356240Y-83682753D01*
X169194957Y-83657208D01*
X169146287Y-83649500D01*
X168933713Y-83649500D01*
X168885042Y-83657208D01*
X168723760Y-83682753D01*
X168521585Y-83748444D01*
X168332179Y-83844951D01*
X168160213Y-83969890D01*
X168009890Y-84120213D01*
X167884949Y-84292182D01*
X167880484Y-84300946D01*
X167832509Y-84351742D01*
X167764688Y-84368536D01*
X167698553Y-84345998D01*
X167659516Y-84300946D01*
X167655050Y-84292182D01*
X167530109Y-84120213D01*
X167379786Y-83969890D01*
X167207820Y-83844951D01*
X167018414Y-83748444D01*
X167018413Y-83748443D01*
X167018412Y-83748443D01*
X166816243Y-83682754D01*
X166816241Y-83682753D01*
X166816240Y-83682753D01*
X166654957Y-83657208D01*
X166606287Y-83649500D01*
X166393713Y-83649500D01*
X166345042Y-83657208D01*
X166183760Y-83682753D01*
X165981585Y-83748444D01*
X165792179Y-83844951D01*
X165697385Y-83913823D01*
X165631578Y-83937303D01*
X165563525Y-83921477D01*
X165514830Y-83871371D01*
X165500500Y-83813505D01*
X165500500Y-80156379D01*
X170549500Y-80156379D01*
X170549500Y-80343620D01*
X170586025Y-80527243D01*
X170586027Y-80527251D01*
X170657676Y-80700228D01*
X170657681Y-80700237D01*
X170761697Y-80855907D01*
X170761700Y-80855911D01*
X170894088Y-80988299D01*
X170894092Y-80988302D01*
X171049762Y-81092318D01*
X171049768Y-81092321D01*
X171049769Y-81092322D01*
X171222749Y-81163973D01*
X171406379Y-81200499D01*
X171406383Y-81200500D01*
X171406384Y-81200500D01*
X171593617Y-81200500D01*
X171593618Y-81200499D01*
X171777251Y-81163973D01*
X171950231Y-81092322D01*
X172105908Y-80988302D01*
X172182392Y-80911817D01*
X172243713Y-80878334D01*
X172270072Y-80875500D01*
X172561607Y-80875500D01*
X172622029Y-80863481D01*
X172682452Y-80851463D01*
X172715792Y-80837652D01*
X172796286Y-80804312D01*
X172847509Y-80770084D01*
X172898733Y-80735858D01*
X172985858Y-80648733D01*
X172985859Y-80648731D01*
X172992925Y-80641665D01*
X172992927Y-80641661D01*
X175647771Y-77986819D01*
X175709094Y-77953334D01*
X175735452Y-77950500D01*
X175843617Y-77950500D01*
X175843618Y-77950499D01*
X176027251Y-77913973D01*
X176200231Y-77842322D01*
X176355908Y-77738302D01*
X176488302Y-77605908D01*
X176570286Y-77483210D01*
X176594398Y-77447125D01*
X176648010Y-77402320D01*
X176717335Y-77393613D01*
X176780363Y-77423767D01*
X176817082Y-77483210D01*
X176821500Y-77516016D01*
X176821500Y-86936741D01*
X176827405Y-86981588D01*
X176851452Y-87164238D01*
X176851453Y-87164240D01*
X176910842Y-87385887D01*
X176998650Y-87597876D01*
X176998657Y-87597891D01*
X177107238Y-87785958D01*
X177113389Y-87796612D01*
X177183235Y-87887636D01*
X177240027Y-87961650D01*
X177253082Y-87978663D01*
X177253086Y-87978668D01*
X182593333Y-93318915D01*
X182593338Y-93318919D01*
X182593339Y-93318920D01*
X182684363Y-93388765D01*
X182775388Y-93458611D01*
X182874750Y-93515977D01*
X182974112Y-93573345D01*
X183124019Y-93635438D01*
X183186113Y-93661158D01*
X183224781Y-93671519D01*
X183407761Y-93720549D01*
X183578389Y-93743012D01*
X183635265Y-93750500D01*
X183635266Y-93750500D01*
X187614727Y-93750500D01*
X187614734Y-93750500D01*
X187842238Y-93720548D01*
X188063887Y-93661158D01*
X188275888Y-93573344D01*
X188474612Y-93458611D01*
X188656661Y-93318919D01*
X188656665Y-93318914D01*
X188656670Y-93318911D01*
X188818911Y-93156670D01*
X188818914Y-93156665D01*
X188818919Y-93156661D01*
X188958611Y-92974612D01*
X189073344Y-92775888D01*
X189161158Y-92563887D01*
X189215065Y-92362699D01*
X189251430Y-92303039D01*
X189314277Y-92272510D01*
X189383652Y-92280805D01*
X189422521Y-92307112D01*
X197674205Y-100558796D01*
X197707690Y-100620119D01*
X197708141Y-100622286D01*
X197730261Y-100733489D01*
X197730264Y-100733501D01*
X197790602Y-100879172D01*
X197790609Y-100879185D01*
X197878210Y-101010288D01*
X197878213Y-101010292D01*
X197989707Y-101121786D01*
X197989711Y-101121789D01*
X198120814Y-101209390D01*
X198120827Y-101209397D01*
X198266498Y-101269735D01*
X198266503Y-101269737D01*
X198421153Y-101300499D01*
X198421156Y-101300500D01*
X198421158Y-101300500D01*
X198578844Y-101300500D01*
X198578845Y-101300499D01*
X198733497Y-101269737D01*
X198879179Y-101209394D01*
X199010289Y-101121789D01*
X199121789Y-101010289D01*
X199209394Y-100879179D01*
X199214935Y-100865803D01*
X199269735Y-100733501D01*
X199269737Y-100733497D01*
X199300500Y-100578842D01*
X199300500Y-100421158D01*
X199300500Y-100421155D01*
X199300499Y-100421153D01*
X199269738Y-100266510D01*
X199269737Y-100266503D01*
X199269735Y-100266498D01*
X199209397Y-100120827D01*
X199209390Y-100120814D01*
X199121789Y-99989711D01*
X199121786Y-99989707D01*
X199010292Y-99878213D01*
X199010288Y-99878210D01*
X198879185Y-99790609D01*
X198879172Y-99790602D01*
X198733501Y-99730264D01*
X198733489Y-99730261D01*
X198622286Y-99708141D01*
X198560375Y-99675756D01*
X198558796Y-99674205D01*
X188734575Y-89849984D01*
X206649500Y-89849984D01*
X206649500Y-92150015D01*
X206660000Y-92252795D01*
X206660001Y-92252797D01*
X206669282Y-92280805D01*
X206715186Y-92419335D01*
X206715187Y-92419337D01*
X206807286Y-92568651D01*
X206807289Y-92568655D01*
X206931344Y-92692710D01*
X206931348Y-92692713D01*
X207080662Y-92784812D01*
X207080664Y-92784813D01*
X207080666Y-92784814D01*
X207247203Y-92839999D01*
X207349992Y-92850500D01*
X207349997Y-92850500D01*
X209650003Y-92850500D01*
X209650008Y-92850500D01*
X209752797Y-92839999D01*
X209919334Y-92784814D01*
X210068655Y-92692711D01*
X210192711Y-92568655D01*
X210284814Y-92419334D01*
X210339999Y-92252797D01*
X210350500Y-92150008D01*
X210350500Y-89849992D01*
X210339999Y-89747203D01*
X210284814Y-89580666D01*
X210192711Y-89431345D01*
X210068655Y-89307289D01*
X210068651Y-89307286D01*
X209919337Y-89215187D01*
X209919335Y-89215186D01*
X209836065Y-89187593D01*
X209752797Y-89160001D01*
X209752795Y-89160000D01*
X209650015Y-89149500D01*
X209650008Y-89149500D01*
X207349992Y-89149500D01*
X207349984Y-89149500D01*
X207247204Y-89160000D01*
X207247203Y-89160001D01*
X207080664Y-89215186D01*
X207080662Y-89215187D01*
X206931348Y-89307286D01*
X206931344Y-89307289D01*
X206807289Y-89431344D01*
X206807286Y-89431348D01*
X206715187Y-89580662D01*
X206715186Y-89580664D01*
X206660001Y-89747203D01*
X206660000Y-89747204D01*
X206649500Y-89849984D01*
X188734575Y-89849984D01*
X185486726Y-86602135D01*
X220069500Y-86602135D01*
X220069500Y-88397870D01*
X220069501Y-88397876D01*
X220075908Y-88457483D01*
X220126202Y-88592328D01*
X220126206Y-88592335D01*
X220212452Y-88707544D01*
X220212455Y-88707547D01*
X220327664Y-88793793D01*
X220327671Y-88793797D01*
X220462517Y-88844091D01*
X220462516Y-88844091D01*
X220469444Y-88844835D01*
X220522127Y-88850500D01*
X222317872Y-88850499D01*
X222377483Y-88844091D01*
X222512331Y-88793796D01*
X222627546Y-88707546D01*
X222713796Y-88592331D01*
X222762810Y-88460916D01*
X222804681Y-88404984D01*
X222870145Y-88380566D01*
X222938418Y-88395417D01*
X222966673Y-88416569D01*
X223080213Y-88530109D01*
X223252179Y-88655048D01*
X223252181Y-88655049D01*
X223252184Y-88655051D01*
X223441588Y-88751557D01*
X223643757Y-88817246D01*
X223853713Y-88850500D01*
X223853714Y-88850500D01*
X224066286Y-88850500D01*
X224066287Y-88850500D01*
X224276243Y-88817246D01*
X224478412Y-88751557D01*
X224667816Y-88655051D01*
X224754138Y-88592335D01*
X224839786Y-88530109D01*
X224839788Y-88530106D01*
X224839792Y-88530104D01*
X224990104Y-88379792D01*
X224990106Y-88379788D01*
X224990109Y-88379786D01*
X225115048Y-88207820D01*
X225115047Y-88207820D01*
X225115051Y-88207816D01*
X225119514Y-88199054D01*
X225167488Y-88148259D01*
X225235308Y-88131463D01*
X225301444Y-88153999D01*
X225340486Y-88199056D01*
X225344951Y-88207820D01*
X225469890Y-88379786D01*
X225620213Y-88530109D01*
X225792179Y-88655048D01*
X225792181Y-88655049D01*
X225792184Y-88655051D01*
X225981588Y-88751557D01*
X226183757Y-88817246D01*
X226393713Y-88850500D01*
X226393714Y-88850500D01*
X226606286Y-88850500D01*
X226606287Y-88850500D01*
X226816243Y-88817246D01*
X227018412Y-88751557D01*
X227207816Y-88655051D01*
X227294138Y-88592335D01*
X227379786Y-88530109D01*
X227379788Y-88530106D01*
X227379792Y-88530104D01*
X227530104Y-88379792D01*
X227530106Y-88379788D01*
X227530109Y-88379786D01*
X227655048Y-88207820D01*
X227655047Y-88207820D01*
X227655051Y-88207816D01*
X227751557Y-88018412D01*
X227817246Y-87816243D01*
X227850500Y-87606287D01*
X227850500Y-87393713D01*
X227817246Y-87183757D01*
X227751557Y-86981588D01*
X227655051Y-86792184D01*
X227655049Y-86792181D01*
X227655048Y-86792179D01*
X227530109Y-86620213D01*
X227379786Y-86469890D01*
X227207820Y-86344951D01*
X227018414Y-86248444D01*
X227018413Y-86248443D01*
X227018412Y-86248443D01*
X226816243Y-86182754D01*
X226816241Y-86182753D01*
X226816240Y-86182753D01*
X226654957Y-86157208D01*
X226606287Y-86149500D01*
X226393713Y-86149500D01*
X226345042Y-86157208D01*
X226183760Y-86182753D01*
X225981585Y-86248444D01*
X225792179Y-86344951D01*
X225620213Y-86469890D01*
X225469890Y-86620213D01*
X225344949Y-86792182D01*
X225340484Y-86800946D01*
X225292509Y-86851742D01*
X225224688Y-86868536D01*
X225158553Y-86845998D01*
X225119516Y-86800946D01*
X225115050Y-86792182D01*
X224990109Y-86620213D01*
X224839786Y-86469890D01*
X224667820Y-86344951D01*
X224478414Y-86248444D01*
X224478413Y-86248443D01*
X224478412Y-86248443D01*
X224276243Y-86182754D01*
X224276241Y-86182753D01*
X224276240Y-86182753D01*
X224114957Y-86157208D01*
X224066287Y-86149500D01*
X223853713Y-86149500D01*
X223805042Y-86157208D01*
X223643760Y-86182753D01*
X223441585Y-86248444D01*
X223252179Y-86344951D01*
X223080215Y-86469889D01*
X222966673Y-86583431D01*
X222905350Y-86616915D01*
X222835658Y-86611931D01*
X222779725Y-86570059D01*
X222762810Y-86539082D01*
X222713797Y-86407671D01*
X222713793Y-86407664D01*
X222627547Y-86292455D01*
X222627544Y-86292452D01*
X222512335Y-86206206D01*
X222512328Y-86206202D01*
X222377482Y-86155908D01*
X222377483Y-86155908D01*
X222317883Y-86149501D01*
X222317881Y-86149500D01*
X222317873Y-86149500D01*
X222317864Y-86149500D01*
X220522129Y-86149500D01*
X220522123Y-86149501D01*
X220462516Y-86155908D01*
X220327671Y-86206202D01*
X220327664Y-86206206D01*
X220212455Y-86292452D01*
X220212452Y-86292455D01*
X220126206Y-86407664D01*
X220126202Y-86407671D01*
X220075908Y-86542517D01*
X220069501Y-86602116D01*
X220069500Y-86602135D01*
X185486726Y-86602135D01*
X181411819Y-82527228D01*
X181378334Y-82465905D01*
X181375500Y-82439547D01*
X181375500Y-77542350D01*
X181380271Y-77525659D01*
X181380034Y-77509124D01*
X181393200Y-77480426D01*
X181394234Y-77476813D01*
X181395286Y-77475122D01*
X181431347Y-77421153D01*
X187949500Y-77421153D01*
X187949500Y-77578846D01*
X187980261Y-77733489D01*
X187980264Y-77733501D01*
X188040602Y-77879172D01*
X188040609Y-77879185D01*
X188128210Y-78010288D01*
X188128213Y-78010292D01*
X188239707Y-78121786D01*
X188239711Y-78121789D01*
X188370814Y-78209390D01*
X188370827Y-78209397D01*
X188516498Y-78269735D01*
X188516503Y-78269737D01*
X188671153Y-78300499D01*
X188671156Y-78300500D01*
X188671158Y-78300500D01*
X188828844Y-78300500D01*
X188828845Y-78300499D01*
X188983497Y-78269737D01*
X189129179Y-78209394D01*
X189260289Y-78121789D01*
X189371789Y-78010289D01*
X189459394Y-77879179D01*
X189519737Y-77733497D01*
X189541858Y-77622282D01*
X189574240Y-77560375D01*
X189575735Y-77558853D01*
X189898729Y-77235860D01*
X189898733Y-77235858D01*
X189985858Y-77148733D01*
X190054311Y-77046286D01*
X190101463Y-76932452D01*
X190125500Y-76811606D01*
X190125500Y-75292350D01*
X190145185Y-75225311D01*
X190146398Y-75223459D01*
X190146809Y-75222843D01*
X190209394Y-75129179D01*
X190269737Y-74983497D01*
X190300500Y-74828842D01*
X190300500Y-74671158D01*
X190300500Y-74671155D01*
X190300499Y-74671153D01*
X190286637Y-74601463D01*
X190269737Y-74516503D01*
X190242289Y-74450237D01*
X190209397Y-74370828D01*
X190209396Y-74370827D01*
X190209394Y-74370821D01*
X190146397Y-74276539D01*
X190125520Y-74209863D01*
X190125500Y-74207650D01*
X190125500Y-72542350D01*
X190145185Y-72475311D01*
X190146398Y-72473459D01*
X190186144Y-72413975D01*
X190209394Y-72379179D01*
X190269737Y-72233497D01*
X190300500Y-72078842D01*
X190300500Y-71921158D01*
X190300500Y-71921155D01*
X190300499Y-71921153D01*
X190269738Y-71766510D01*
X190269737Y-71766503D01*
X190243022Y-71702006D01*
X190209397Y-71620827D01*
X190209390Y-71620814D01*
X190121789Y-71489711D01*
X190121786Y-71489707D01*
X190010292Y-71378213D01*
X190010288Y-71378210D01*
X189879185Y-71290609D01*
X189879172Y-71290602D01*
X189733501Y-71230264D01*
X189733489Y-71230261D01*
X189578845Y-71199500D01*
X189578842Y-71199500D01*
X189421158Y-71199500D01*
X189421155Y-71199500D01*
X189266510Y-71230261D01*
X189266498Y-71230264D01*
X189120827Y-71290602D01*
X189120814Y-71290609D01*
X188989711Y-71378210D01*
X188989707Y-71378213D01*
X188878213Y-71489707D01*
X188878210Y-71489711D01*
X188790609Y-71620814D01*
X188790602Y-71620827D01*
X188730264Y-71766498D01*
X188730261Y-71766510D01*
X188699500Y-71921153D01*
X188699500Y-72078846D01*
X188730261Y-72233489D01*
X188730264Y-72233501D01*
X188790602Y-72379172D01*
X188790609Y-72379184D01*
X188853602Y-72473459D01*
X188874480Y-72540136D01*
X188874500Y-72542350D01*
X188874500Y-74207650D01*
X188854815Y-74274689D01*
X188853626Y-74276503D01*
X188832802Y-74307668D01*
X188790609Y-74370815D01*
X188790602Y-74370828D01*
X188730264Y-74516498D01*
X188730261Y-74516510D01*
X188699500Y-74671153D01*
X188699500Y-74828846D01*
X188730261Y-74983489D01*
X188730264Y-74983501D01*
X188790602Y-75129172D01*
X188790609Y-75129184D01*
X188853602Y-75223459D01*
X188874480Y-75290136D01*
X188874500Y-75292350D01*
X188874500Y-76439547D01*
X188865855Y-76468987D01*
X188859332Y-76498974D01*
X188855577Y-76503989D01*
X188854815Y-76506586D01*
X188838181Y-76527228D01*
X188691204Y-76674205D01*
X188629881Y-76707690D01*
X188627714Y-76708141D01*
X188516510Y-76730261D01*
X188516498Y-76730264D01*
X188370827Y-76790602D01*
X188370814Y-76790609D01*
X188239711Y-76878210D01*
X188239707Y-76878213D01*
X188128213Y-76989707D01*
X188128210Y-76989711D01*
X188040609Y-77120814D01*
X188040602Y-77120827D01*
X187980264Y-77266498D01*
X187980261Y-77266510D01*
X187949500Y-77421153D01*
X181431347Y-77421153D01*
X181459394Y-77379179D01*
X181519737Y-77233497D01*
X181550500Y-77078842D01*
X181550500Y-76921158D01*
X181550500Y-76921155D01*
X181550499Y-76921153D01*
X181528709Y-76811607D01*
X181519737Y-76766503D01*
X181519735Y-76766498D01*
X181459397Y-76620827D01*
X181459390Y-76620814D01*
X181371789Y-76489711D01*
X181371786Y-76489707D01*
X181260292Y-76378213D01*
X181260288Y-76378210D01*
X181129185Y-76290609D01*
X181129172Y-76290602D01*
X181041746Y-76254390D01*
X180987342Y-76210550D01*
X180965277Y-76144255D01*
X180974636Y-76092381D01*
X181019737Y-75983497D01*
X181041858Y-75872282D01*
X181074240Y-75810375D01*
X181075735Y-75808853D01*
X197472772Y-59411819D01*
X197534095Y-59378334D01*
X197560453Y-59375500D01*
X199707650Y-59375500D01*
X199774689Y-59395185D01*
X199776541Y-59396398D01*
X199870821Y-59459394D01*
X199870823Y-59459395D01*
X199870827Y-59459397D01*
X199967646Y-59499500D01*
X200016503Y-59519737D01*
X200171153Y-59550499D01*
X200171156Y-59550500D01*
X200171158Y-59550500D01*
X200328844Y-59550500D01*
X200328845Y-59550499D01*
X200483497Y-59519737D01*
X200629179Y-59459394D01*
X200760289Y-59371789D01*
X200871789Y-59260289D01*
X200959394Y-59129179D01*
X201019737Y-58983497D01*
X201050500Y-58828842D01*
X201050500Y-58671158D01*
X201050500Y-58671155D01*
X201050499Y-58671153D01*
X201019738Y-58516510D01*
X201019737Y-58516503D01*
X200970950Y-58398720D01*
X200959397Y-58370827D01*
X200959390Y-58370814D01*
X200871789Y-58239711D01*
X200871786Y-58239707D01*
X200760292Y-58128213D01*
X200760288Y-58128210D01*
X200629185Y-58040609D01*
X200629172Y-58040602D01*
X200483501Y-57980264D01*
X200483489Y-57980261D01*
X200328845Y-57949500D01*
X200328842Y-57949500D01*
X200171158Y-57949500D01*
X200171155Y-57949500D01*
X200016510Y-57980261D01*
X200016498Y-57980264D01*
X199870827Y-58040602D01*
X199870815Y-58040609D01*
X199776541Y-58103602D01*
X199709864Y-58124480D01*
X199707650Y-58124500D01*
X197317741Y-58124500D01*
X197317721Y-58124499D01*
X197311607Y-58124499D01*
X197188394Y-58124499D01*
X197087597Y-58144548D01*
X197087592Y-58144548D01*
X197067549Y-58148536D01*
X197067547Y-58148536D01*
X197020399Y-58168066D01*
X197020397Y-58168067D01*
X196998380Y-58177186D01*
X196971950Y-58188134D01*
X196902480Y-58195601D01*
X196840002Y-58164325D01*
X196804350Y-58104236D01*
X196800499Y-58073579D01*
X196800499Y-56899992D01*
X196789999Y-56797203D01*
X196734814Y-56630666D01*
X196642712Y-56481344D01*
X196518656Y-56357288D01*
X196369334Y-56265186D01*
X196202797Y-56210001D01*
X196202795Y-56210000D01*
X196100010Y-56199500D01*
X194899998Y-56199500D01*
X194899981Y-56199501D01*
X194797203Y-56210000D01*
X194797200Y-56210001D01*
X194630668Y-56265185D01*
X194630663Y-56265187D01*
X194481342Y-56357289D01*
X194357289Y-56481342D01*
X194265187Y-56630663D01*
X194265186Y-56630666D01*
X194210001Y-56797203D01*
X194210001Y-56797204D01*
X194210000Y-56797204D01*
X194199500Y-56899983D01*
X194199500Y-58100001D01*
X194199501Y-58100018D01*
X194210000Y-58202796D01*
X194210001Y-58202799D01*
X194257856Y-58347213D01*
X194265186Y-58369334D01*
X194357288Y-58518656D01*
X194481344Y-58642712D01*
X194630666Y-58734814D01*
X194797203Y-58789999D01*
X194899991Y-58800500D01*
X196015546Y-58800499D01*
X196082585Y-58820184D01*
X196128340Y-58872987D01*
X196138284Y-58942146D01*
X196109259Y-59005702D01*
X196103227Y-59012180D01*
X180534181Y-74581227D01*
X180472858Y-74614712D01*
X180403166Y-74609728D01*
X180347233Y-74567856D01*
X180322816Y-74502392D01*
X180322500Y-74493546D01*
X180322500Y-73954443D01*
X180342185Y-73887404D01*
X180358819Y-73866762D01*
X187318915Y-66906666D01*
X187318919Y-66906662D01*
X187458610Y-66724613D01*
X187573344Y-66525888D01*
X187661158Y-66313887D01*
X187720548Y-66092239D01*
X187720548Y-66092234D01*
X187720550Y-66092229D01*
X187724032Y-66065775D01*
X187724032Y-66065771D01*
X187750500Y-65864734D01*
X187750500Y-64635266D01*
X187750500Y-63385266D01*
X187750500Y-62135266D01*
X187750500Y-61135266D01*
X187720548Y-60907762D01*
X187661158Y-60686113D01*
X187573553Y-60474616D01*
X187573349Y-60474123D01*
X187573346Y-60474117D01*
X187573344Y-60474112D01*
X187458611Y-60275388D01*
X187458608Y-60275385D01*
X187458607Y-60275382D01*
X187318918Y-60093338D01*
X187318911Y-60093330D01*
X187156670Y-59931089D01*
X187156661Y-59931081D01*
X186974617Y-59791392D01*
X186775890Y-59676657D01*
X186775876Y-59676650D01*
X186563887Y-59588842D01*
X186342238Y-59529452D01*
X186304215Y-59524446D01*
X186114741Y-59499500D01*
X186114734Y-59499500D01*
X185885266Y-59499500D01*
X185885258Y-59499500D01*
X185668715Y-59528009D01*
X185657762Y-59529452D01*
X185579213Y-59550499D01*
X185436112Y-59588842D01*
X185224123Y-59676650D01*
X185224109Y-59676657D01*
X185025382Y-59791392D01*
X184843338Y-59931081D01*
X184681081Y-60093338D01*
X184541392Y-60275382D01*
X184426657Y-60474109D01*
X184426650Y-60474123D01*
X184338842Y-60686112D01*
X184279453Y-60907759D01*
X184279451Y-60907770D01*
X184249500Y-61135258D01*
X184249500Y-64973556D01*
X184229815Y-65040595D01*
X184213181Y-65061237D01*
X177253084Y-72021333D01*
X177253078Y-72021340D01*
X177208955Y-72078844D01*
X177183235Y-72112363D01*
X177174814Y-72123338D01*
X177113385Y-72203392D01*
X177016163Y-72371789D01*
X177016162Y-72371790D01*
X176998661Y-72402100D01*
X176998654Y-72402115D01*
X176910845Y-72614103D01*
X176910842Y-72614113D01*
X176858857Y-72808126D01*
X176851452Y-72835760D01*
X176821500Y-73063258D01*
X176821500Y-76483983D01*
X176801815Y-76551022D01*
X176749011Y-76596777D01*
X176679853Y-76606721D01*
X176616297Y-76577696D01*
X176594398Y-76552874D01*
X176488302Y-76394092D01*
X176488299Y-76394088D01*
X176355911Y-76261700D01*
X176355907Y-76261697D01*
X176200237Y-76157681D01*
X176200228Y-76157676D01*
X176027251Y-76086027D01*
X176027243Y-76086025D01*
X175843620Y-76049500D01*
X175843616Y-76049500D01*
X175656384Y-76049500D01*
X175656379Y-76049500D01*
X175472756Y-76086025D01*
X175472748Y-76086027D01*
X175299771Y-76157676D01*
X175299762Y-76157681D01*
X175144092Y-76261697D01*
X175144088Y-76261700D01*
X175011700Y-76394088D01*
X175011697Y-76394092D01*
X174907681Y-76549762D01*
X174907676Y-76549771D01*
X174836027Y-76722748D01*
X174836025Y-76722756D01*
X174799500Y-76906379D01*
X174799500Y-77014548D01*
X174779815Y-77081587D01*
X174763181Y-77102229D01*
X172317491Y-79547918D01*
X172256168Y-79581403D01*
X172186476Y-79576419D01*
X172142129Y-79547918D01*
X172105911Y-79511700D01*
X172105907Y-79511697D01*
X171950237Y-79407681D01*
X171950228Y-79407676D01*
X171777251Y-79336027D01*
X171777243Y-79336025D01*
X171593620Y-79299500D01*
X171593616Y-79299500D01*
X171406384Y-79299500D01*
X171406379Y-79299500D01*
X171222756Y-79336025D01*
X171222748Y-79336027D01*
X171049771Y-79407676D01*
X171049762Y-79407681D01*
X170894092Y-79511697D01*
X170894088Y-79511700D01*
X170761700Y-79644088D01*
X170761697Y-79644092D01*
X170657681Y-79799762D01*
X170657676Y-79799771D01*
X170586027Y-79972748D01*
X170586025Y-79972756D01*
X170549500Y-80156379D01*
X165500500Y-80156379D01*
X165500500Y-73915272D01*
X165500499Y-73915258D01*
X165494114Y-73866762D01*
X165470548Y-73687762D01*
X165465303Y-73668189D01*
X165411158Y-73466113D01*
X165323344Y-73254112D01*
X165323341Y-73254108D01*
X165323338Y-73254100D01*
X165289415Y-73195345D01*
X165289413Y-73195342D01*
X165267112Y-73156714D01*
X165250500Y-73094716D01*
X165250500Y-72819773D01*
X165259939Y-72772320D01*
X165289158Y-72701780D01*
X165337936Y-72519737D01*
X165348548Y-72480132D01*
X165357258Y-72413973D01*
X165358685Y-72403130D01*
X165386950Y-72339237D01*
X165393931Y-72331648D01*
X166443920Y-71281661D01*
X166938762Y-70786819D01*
X167000085Y-70753334D01*
X167026443Y-70750500D01*
X169625655Y-70750500D01*
X169692694Y-70770185D01*
X169738449Y-70822989D01*
X169748393Y-70892147D01*
X169728757Y-70943391D01*
X169657681Y-71049762D01*
X169657676Y-71049771D01*
X169586027Y-71222748D01*
X169586025Y-71222756D01*
X169549500Y-71406379D01*
X169549500Y-71593620D01*
X169586025Y-71777243D01*
X169586027Y-71777251D01*
X169657676Y-71950228D01*
X169657681Y-71950237D01*
X169761697Y-72105907D01*
X169761700Y-72105911D01*
X169894088Y-72238299D01*
X169894092Y-72238302D01*
X170049762Y-72342318D01*
X170049768Y-72342321D01*
X170049769Y-72342322D01*
X170222749Y-72413973D01*
X170406379Y-72450499D01*
X170406383Y-72450500D01*
X170406384Y-72450500D01*
X170514548Y-72450500D01*
X170581587Y-72470185D01*
X170602229Y-72486819D01*
X172514139Y-74398729D01*
X172514142Y-74398733D01*
X172601267Y-74485858D01*
X172678190Y-74537256D01*
X172683990Y-74541132D01*
X172683993Y-74541134D01*
X172703710Y-74554309D01*
X172703713Y-74554311D01*
X172703715Y-74554312D01*
X172749661Y-74573343D01*
X172749662Y-74573344D01*
X172768694Y-74581227D01*
X172817548Y-74601463D01*
X172877971Y-74613481D01*
X172938393Y-74625500D01*
X172938394Y-74625500D01*
X174229928Y-74625500D01*
X174296967Y-74645185D01*
X174317604Y-74661814D01*
X174374550Y-74718760D01*
X174394093Y-74738303D01*
X174549762Y-74842318D01*
X174549768Y-74842321D01*
X174549769Y-74842322D01*
X174722749Y-74913973D01*
X174906379Y-74950499D01*
X174906383Y-74950500D01*
X174906384Y-74950500D01*
X175093617Y-74950500D01*
X175093618Y-74950499D01*
X175277251Y-74913973D01*
X175450231Y-74842322D01*
X175605908Y-74738302D01*
X175738302Y-74605908D01*
X175842322Y-74450231D01*
X175913973Y-74277251D01*
X175950500Y-74093616D01*
X175950500Y-73906384D01*
X175913973Y-73722749D01*
X175849106Y-73566146D01*
X175842323Y-73549771D01*
X175842318Y-73549762D01*
X175738302Y-73394092D01*
X175738299Y-73394088D01*
X175605911Y-73261700D01*
X175605907Y-73261697D01*
X175450237Y-73157681D01*
X175450228Y-73157676D01*
X175277251Y-73086027D01*
X175277243Y-73086025D01*
X175093620Y-73049500D01*
X175093616Y-73049500D01*
X174906384Y-73049500D01*
X174906379Y-73049500D01*
X174722756Y-73086025D01*
X174722748Y-73086027D01*
X174549771Y-73157676D01*
X174549762Y-73157681D01*
X174394093Y-73261696D01*
X174368046Y-73287744D01*
X174317607Y-73338182D01*
X174256287Y-73371666D01*
X174229928Y-73374500D01*
X173310452Y-73374500D01*
X173243413Y-73354815D01*
X173222771Y-73338181D01*
X171486819Y-71602229D01*
X171453334Y-71540906D01*
X171450500Y-71514548D01*
X171450500Y-71406383D01*
X171450499Y-71406379D01*
X171427470Y-71290606D01*
X171413973Y-71222749D01*
X171342322Y-71049769D01*
X171342321Y-71049768D01*
X171342318Y-71049762D01*
X171271243Y-70943391D01*
X171268205Y-70933690D01*
X171261551Y-70926011D01*
X171257942Y-70900911D01*
X171250365Y-70876713D01*
X171253053Y-70866913D01*
X171251607Y-70856853D01*
X171262141Y-70833784D01*
X171268850Y-70809333D01*
X171276409Y-70802542D01*
X171280632Y-70793297D01*
X171301963Y-70779587D01*
X171320828Y-70762643D01*
X171332425Y-70760011D01*
X171339410Y-70755523D01*
X171374345Y-70750500D01*
X171564548Y-70750500D01*
X171631587Y-70770185D01*
X171652229Y-70786819D01*
X172424205Y-71558796D01*
X172457690Y-71620119D01*
X172458141Y-71622286D01*
X172480261Y-71733489D01*
X172480264Y-71733501D01*
X172540602Y-71879172D01*
X172540609Y-71879185D01*
X172628210Y-72010288D01*
X172628213Y-72010292D01*
X172739707Y-72121786D01*
X172739711Y-72121789D01*
X172870814Y-72209390D01*
X172870827Y-72209397D01*
X173016498Y-72269735D01*
X173016503Y-72269737D01*
X173171153Y-72300499D01*
X173171156Y-72300500D01*
X173171158Y-72300500D01*
X173328844Y-72300500D01*
X173328845Y-72300499D01*
X173483497Y-72269737D01*
X173629179Y-72209394D01*
X173760289Y-72121789D01*
X173871789Y-72010289D01*
X173959394Y-71879179D01*
X174019737Y-71733497D01*
X174050500Y-71578842D01*
X174050500Y-71421158D01*
X174050500Y-71421155D01*
X174050499Y-71421153D01*
X174024531Y-71290606D01*
X174019737Y-71266503D01*
X174019735Y-71266498D01*
X173959397Y-71120827D01*
X173959390Y-71120814D01*
X173871789Y-70989711D01*
X173871786Y-70989707D01*
X173760292Y-70878213D01*
X173760288Y-70878210D01*
X173629185Y-70790609D01*
X173629172Y-70790602D01*
X173483501Y-70730264D01*
X173483489Y-70730261D01*
X173372286Y-70708141D01*
X173310375Y-70675756D01*
X173308796Y-70674205D01*
X172370822Y-69736232D01*
X172360859Y-69726269D01*
X172360858Y-69726267D01*
X172273733Y-69639142D01*
X172222509Y-69604915D01*
X172171286Y-69570688D01*
X172171283Y-69570686D01*
X172171280Y-69570685D01*
X172097603Y-69540168D01*
X172097601Y-69540167D01*
X172090792Y-69537347D01*
X172057452Y-69523537D01*
X171997029Y-69511518D01*
X171992306Y-69510578D01*
X171992304Y-69510578D01*
X171936610Y-69499500D01*
X171936607Y-69499500D01*
X171936606Y-69499500D01*
X168525443Y-69499500D01*
X168458404Y-69479815D01*
X168412649Y-69427011D01*
X168402705Y-69357853D01*
X168431730Y-69294297D01*
X168437762Y-69287819D01*
X177068919Y-60656662D01*
X177068920Y-60656661D01*
X177151147Y-60549500D01*
X177208611Y-60474612D01*
X177323344Y-60275888D01*
X177411158Y-60063887D01*
X177470548Y-59842238D01*
X177500500Y-59614734D01*
X177500500Y-57397648D01*
X186579500Y-57397648D01*
X186579500Y-57602351D01*
X186611522Y-57804534D01*
X186674781Y-57999223D01*
X186726135Y-58100009D01*
X186760812Y-58168067D01*
X186767715Y-58181613D01*
X186888028Y-58347213D01*
X187032786Y-58491971D01*
X187187749Y-58604556D01*
X187198390Y-58612287D01*
X187313921Y-58671153D01*
X187380776Y-58705218D01*
X187380778Y-58705218D01*
X187380781Y-58705220D01*
X187471856Y-58734812D01*
X187575465Y-58768477D01*
X187676557Y-58784488D01*
X187777648Y-58800500D01*
X187777649Y-58800500D01*
X187982351Y-58800500D01*
X187982352Y-58800500D01*
X188184534Y-58768477D01*
X188379219Y-58705220D01*
X188561610Y-58612287D01*
X188690482Y-58518657D01*
X188727213Y-58491971D01*
X188727215Y-58491968D01*
X188727219Y-58491966D01*
X188871966Y-58347219D01*
X188871968Y-58347215D01*
X188871971Y-58347213D01*
X188976892Y-58202799D01*
X188992287Y-58181610D01*
X189085220Y-57999219D01*
X189148477Y-57804534D01*
X189180500Y-57602352D01*
X189180500Y-57397648D01*
X189148477Y-57195466D01*
X189085220Y-57000781D01*
X189085218Y-57000778D01*
X189085218Y-57000776D01*
X189033865Y-56899991D01*
X188992287Y-56818390D01*
X188976892Y-56797200D01*
X188871971Y-56652786D01*
X188727213Y-56508028D01*
X188561613Y-56387715D01*
X188561612Y-56387714D01*
X188561610Y-56387713D01*
X188501898Y-56357288D01*
X188379223Y-56294781D01*
X188184534Y-56231522D01*
X188009995Y-56203878D01*
X187982352Y-56199500D01*
X187777648Y-56199500D01*
X187753329Y-56203351D01*
X187575465Y-56231522D01*
X187380776Y-56294781D01*
X187198386Y-56387715D01*
X187032786Y-56508028D01*
X186888028Y-56652786D01*
X186767715Y-56818386D01*
X186674781Y-57000776D01*
X186611522Y-57195465D01*
X186579500Y-57397648D01*
X177500500Y-57397648D01*
X177500500Y-46349984D01*
X181649500Y-46349984D01*
X181649500Y-48650015D01*
X181660000Y-48752795D01*
X181660001Y-48752796D01*
X181715186Y-48919335D01*
X181715187Y-48919337D01*
X181807286Y-49068651D01*
X181807289Y-49068655D01*
X181931344Y-49192710D01*
X181931348Y-49192713D01*
X182080662Y-49284812D01*
X182080664Y-49284813D01*
X182080666Y-49284814D01*
X182247203Y-49339999D01*
X182349992Y-49350500D01*
X182349997Y-49350500D01*
X184650003Y-49350500D01*
X184650008Y-49350500D01*
X184752797Y-49339999D01*
X184919334Y-49284814D01*
X185068655Y-49192711D01*
X185192711Y-49068655D01*
X185284814Y-48919334D01*
X185339999Y-48752797D01*
X185350500Y-48650008D01*
X185350500Y-46349992D01*
X185339999Y-46247203D01*
X185284814Y-46080666D01*
X185192711Y-45931345D01*
X185068655Y-45807289D01*
X185068651Y-45807286D01*
X184919337Y-45715187D01*
X184919335Y-45715186D01*
X184836065Y-45687593D01*
X184752797Y-45660001D01*
X184752795Y-45660000D01*
X184650015Y-45649500D01*
X184650008Y-45649500D01*
X182349992Y-45649500D01*
X182349984Y-45649500D01*
X182247204Y-45660000D01*
X182247203Y-45660001D01*
X182080664Y-45715186D01*
X182080662Y-45715187D01*
X181931348Y-45807286D01*
X181931344Y-45807289D01*
X181807289Y-45931344D01*
X181807286Y-45931348D01*
X181715187Y-46080662D01*
X181715186Y-46080664D01*
X181660001Y-46247203D01*
X181660000Y-46247204D01*
X181649500Y-46349984D01*
X177500500Y-46349984D01*
X177500500Y-43885266D01*
X177470548Y-43657762D01*
X177411158Y-43436113D01*
X177323344Y-43224112D01*
X177208611Y-43025388D01*
X177208608Y-43025385D01*
X177208607Y-43025382D01*
X177068918Y-42843338D01*
X177068911Y-42843330D01*
X176906670Y-42681089D01*
X176906661Y-42681081D01*
X176724617Y-42541392D01*
X176525890Y-42426657D01*
X176525876Y-42426650D01*
X176313887Y-42338842D01*
X176092238Y-42279452D01*
X176054215Y-42274446D01*
X175864741Y-42249500D01*
X175864734Y-42249500D01*
X174385266Y-42249500D01*
X174385260Y-42249500D01*
X174385255Y-42249501D01*
X174184228Y-42275966D01*
X174184228Y-42275967D01*
X174180215Y-42276495D01*
X174157763Y-42279451D01*
X173936112Y-42338842D01*
X173724123Y-42426650D01*
X173724108Y-42426657D01*
X173525392Y-42541385D01*
X173475499Y-42579670D01*
X173434363Y-42611235D01*
X173343340Y-42681078D01*
X173343333Y-42681084D01*
X169931084Y-46093333D01*
X169931078Y-46093340D01*
X169791396Y-46275378D01*
X169791390Y-46275388D01*
X169676656Y-46474111D01*
X169676651Y-46474120D01*
X169588842Y-46686112D01*
X169529453Y-46907758D01*
X169529450Y-46907771D01*
X169499501Y-47135265D01*
X169499501Y-47364734D01*
X169529450Y-47592228D01*
X169529451Y-47592233D01*
X169529452Y-47592239D01*
X169529453Y-47592241D01*
X169588842Y-47813887D01*
X169676651Y-48025879D01*
X169676656Y-48025888D01*
X169791390Y-48224612D01*
X169791392Y-48224615D01*
X169791396Y-48224621D01*
X169931078Y-48406659D01*
X169931084Y-48406666D01*
X170093333Y-48568915D01*
X170093340Y-48568921D01*
X170275378Y-48708603D01*
X170275382Y-48708605D01*
X170275388Y-48708610D01*
X170474112Y-48823344D01*
X170474115Y-48823345D01*
X170474120Y-48823348D01*
X170588489Y-48870721D01*
X170686113Y-48911158D01*
X170907761Y-48970548D01*
X171068435Y-48991700D01*
X171135265Y-49000499D01*
X171135266Y-49000499D01*
X171364735Y-49000499D01*
X171416389Y-48993698D01*
X171592239Y-48970548D01*
X171813887Y-48911158D01*
X171980538Y-48842128D01*
X172025879Y-48823348D01*
X172025880Y-48823346D01*
X172025888Y-48823344D01*
X172224612Y-48708610D01*
X172406661Y-48568920D01*
X173787819Y-47187762D01*
X173849142Y-47154277D01*
X173918834Y-47159261D01*
X173974767Y-47201133D01*
X173999184Y-47266597D01*
X173999500Y-47275443D01*
X173999500Y-58723557D01*
X173979815Y-58790596D01*
X173963181Y-58811238D01*
X162309082Y-70465336D01*
X162309081Y-70465337D01*
X162300335Y-70476736D01*
X162300334Y-70476735D01*
X162169388Y-70647388D01*
X162070324Y-70818974D01*
X162054657Y-70846108D01*
X162054652Y-70846118D01*
X161966845Y-71058103D01*
X161966842Y-71058113D01*
X161911007Y-71266498D01*
X161911006Y-71266500D01*
X161911005Y-71266503D01*
X161907452Y-71279761D01*
X161877500Y-71507258D01*
X161877500Y-71584011D01*
X161868061Y-71631464D01*
X161838845Y-71701996D01*
X161838843Y-71702003D01*
X161779451Y-71923654D01*
X161777702Y-71936944D01*
X161777334Y-71939744D01*
X161773524Y-71968678D01*
X161769585Y-71998597D01*
X161741317Y-72062493D01*
X161734329Y-72070089D01*
X161681080Y-72123339D01*
X161621873Y-72200500D01*
X161621872Y-72200499D01*
X161541388Y-72305388D01*
X161442223Y-72477147D01*
X161442213Y-72477166D01*
X161440501Y-72480132D01*
X161426656Y-72504112D01*
X161417846Y-72525381D01*
X161415729Y-72529570D01*
X161394891Y-72551777D01*
X161375776Y-72575497D01*
X161371211Y-72577015D01*
X161367921Y-72580523D01*
X161338380Y-72587941D01*
X161309481Y-72597558D01*
X161304821Y-72596368D01*
X161300156Y-72597540D01*
X161271293Y-72587809D01*
X161241782Y-72580276D01*
X161238202Y-72576653D01*
X161233947Y-72575219D01*
X161221917Y-72560172D01*
X161197674Y-72535637D01*
X161188494Y-72519737D01*
X161140515Y-72436635D01*
X161033365Y-72329485D01*
X160929879Y-72269737D01*
X160902136Y-72253719D01*
X160828950Y-72234109D01*
X160755766Y-72214500D01*
X160604234Y-72214500D01*
X160457863Y-72253719D01*
X160326635Y-72329485D01*
X160326632Y-72329487D01*
X160219487Y-72436632D01*
X160219485Y-72436635D01*
X160143719Y-72567863D01*
X160104500Y-72714234D01*
X153500500Y-72714234D01*
X153500500Y-60849984D01*
X164149500Y-60849984D01*
X164149500Y-63150015D01*
X164160000Y-63252795D01*
X164160001Y-63252796D01*
X164215186Y-63419335D01*
X164215187Y-63419337D01*
X164307286Y-63568651D01*
X164307289Y-63568655D01*
X164431344Y-63692710D01*
X164431348Y-63692713D01*
X164580662Y-63784812D01*
X164580664Y-63784813D01*
X164580666Y-63784814D01*
X164747203Y-63839999D01*
X164849992Y-63850500D01*
X164849997Y-63850500D01*
X167150003Y-63850500D01*
X167150008Y-63850500D01*
X167252797Y-63839999D01*
X167419334Y-63784814D01*
X167568655Y-63692711D01*
X167692711Y-63568655D01*
X167784814Y-63419334D01*
X167839999Y-63252797D01*
X167850500Y-63150008D01*
X167850500Y-60849992D01*
X167839999Y-60747203D01*
X167784814Y-60580666D01*
X167765590Y-60549500D01*
X167692713Y-60431348D01*
X167692710Y-60431344D01*
X167568655Y-60307289D01*
X167568651Y-60307286D01*
X167419337Y-60215187D01*
X167419335Y-60215186D01*
X167336065Y-60187593D01*
X167252797Y-60160001D01*
X167252795Y-60160000D01*
X167150015Y-60149500D01*
X167150008Y-60149500D01*
X164849992Y-60149500D01*
X164849984Y-60149500D01*
X164747204Y-60160000D01*
X164747203Y-60160001D01*
X164580664Y-60215186D01*
X164580662Y-60215187D01*
X164431348Y-60307286D01*
X164431344Y-60307289D01*
X164307289Y-60431344D01*
X164307286Y-60431348D01*
X164215187Y-60580662D01*
X164215186Y-60580664D01*
X164160001Y-60747203D01*
X164160000Y-60747204D01*
X164149500Y-60849984D01*
X153500500Y-60849984D01*
X153500500Y-41624500D01*
X153520185Y-41557461D01*
X153572989Y-41511706D01*
X153624500Y-41500500D01*
X235125500Y-41500500D01*
X235192539Y-41520185D01*
G37*
%TD.AperFunction*%
%TD*%
M02*
